G04 (created by PCBnew (20090216-final)) date Mon 23 May 2011 05:29:38 PM PDT*
G01*
G70*
G90*
%MOIN*%
G04 Gerber Fmt 3.4, Leading zero omitted, Abs format*
%FSLAX34Y34*%
G04 APERTURE LIST*
%ADD10C,0.015000*%
%ADD11C,0.200000*%
%ADD12C,0.181100*%
%ADD13R,0.060000X0.060000*%
%ADD14C,0.060000*%
%ADD15C,0.130000*%
%ADD16R,0.069000X0.060000*%
%ADD17C,0.069000*%
%ADD18C,0.045000*%
%ADD19C,0.020000*%
%ADD20C,0.010000*%
%ADD21R,0.045000X0.025000*%
%ADD22R,0.025000X0.045000*%
%ADD23R,0.055000X0.035000*%
%ADD24R,0.050000X0.100000*%
%ADD25R,0.039400X2.755900*%
%ADD26C,0.039400*%
%ADD27R,0.070100X0.016500*%
%ADD28C,0.012000*%
%ADD29C,0.005000*%
G04 APERTURE END LIST*
G54D10*
X100000Y-10000D02*
X100000Y-42500D01*
X10000Y-42500D02*
X100000Y-42500D01*
X10000Y-10000D02*
X10000Y-42500D01*
X10000Y-10000D02*
X100000Y-10000D01*
X92736Y-39750D02*
X92736Y-40750D01*
X92236Y-40250D02*
X93236Y-40250D01*
X92736Y-11750D02*
X92736Y-12750D01*
X92236Y-12250D02*
X93236Y-12250D01*
X90736Y-42250D02*
X90736Y-10250D01*
X94736Y-42250D02*
X90736Y-42250D01*
X94736Y-10250D02*
X94736Y-42250D01*
X90736Y-10250D02*
X94736Y-10250D01*
X88264Y-39750D02*
X88264Y-40750D01*
X87764Y-40250D02*
X88764Y-40250D01*
X88264Y-11750D02*
X88264Y-12750D01*
X87764Y-12250D02*
X88764Y-12250D01*
X86264Y-42250D02*
X86264Y-10250D01*
X90264Y-42250D02*
X86264Y-42250D01*
X90264Y-10250D02*
X90264Y-42250D01*
X86264Y-10250D02*
X90264Y-10250D01*
X78736Y-39750D02*
X78736Y-40750D01*
X78236Y-40250D02*
X79236Y-40250D01*
X78736Y-11750D02*
X78736Y-12750D01*
X78236Y-12250D02*
X79236Y-12250D01*
X76736Y-42250D02*
X76736Y-10250D01*
X80736Y-42250D02*
X76736Y-42250D01*
X80736Y-10250D02*
X80736Y-42250D01*
X76736Y-10250D02*
X80736Y-10250D01*
X74264Y-39750D02*
X74264Y-40750D01*
X73764Y-40250D02*
X74764Y-40250D01*
X74264Y-11750D02*
X74264Y-12750D01*
X73764Y-12250D02*
X74764Y-12250D01*
X72264Y-42250D02*
X72264Y-10250D01*
X76264Y-42250D02*
X72264Y-42250D01*
X76264Y-10250D02*
X76264Y-42250D01*
X72264Y-10250D02*
X76264Y-10250D01*
X60264Y-39750D02*
X60264Y-40750D01*
X59764Y-40250D02*
X60764Y-40250D01*
X60264Y-11750D02*
X60264Y-12750D01*
X59764Y-12250D02*
X60764Y-12250D01*
X58264Y-42250D02*
X58264Y-10250D01*
X62264Y-42250D02*
X58264Y-42250D01*
X62264Y-10250D02*
X62264Y-42250D01*
X58264Y-10250D02*
X62264Y-10250D01*
X64736Y-39750D02*
X64736Y-40750D01*
X64236Y-40250D02*
X65236Y-40250D01*
X64736Y-11750D02*
X64736Y-12750D01*
X64236Y-12250D02*
X65236Y-12250D01*
X62736Y-42250D02*
X62736Y-10250D01*
X66736Y-42250D02*
X62736Y-42250D01*
X66736Y-10250D02*
X66736Y-42250D01*
X62736Y-10250D02*
X66736Y-10250D01*
X50736Y-39750D02*
X50736Y-40750D01*
X50236Y-40250D02*
X51236Y-40250D01*
X50736Y-11750D02*
X50736Y-12750D01*
X50236Y-12250D02*
X51236Y-12250D01*
X48736Y-42250D02*
X48736Y-10250D01*
X52736Y-42250D02*
X48736Y-42250D01*
X52736Y-10250D02*
X52736Y-42250D01*
X48736Y-10250D02*
X52736Y-10250D01*
X46264Y-39750D02*
X46264Y-40750D01*
X45764Y-40250D02*
X46764Y-40250D01*
X46264Y-11750D02*
X46264Y-12750D01*
X45764Y-12250D02*
X46764Y-12250D01*
X44264Y-42250D02*
X44264Y-10250D01*
X48264Y-42250D02*
X44264Y-42250D01*
X48264Y-10250D02*
X48264Y-42250D01*
X44264Y-10250D02*
X48264Y-10250D01*
G54D29*
X99450Y-11200D02*
X99437Y-11326D01*
X99437Y-11326D02*
X99400Y-11447D01*
X99400Y-11447D02*
X99341Y-11559D01*
X99341Y-11559D02*
X99261Y-11658D01*
X99261Y-11658D02*
X99163Y-11738D01*
X99163Y-11738D02*
X99051Y-11799D01*
X99051Y-11799D02*
X98930Y-11836D01*
X98930Y-11836D02*
X98804Y-11849D01*
X98804Y-11849D02*
X98679Y-11838D01*
X98679Y-11838D02*
X98557Y-11802D01*
X98557Y-11802D02*
X98445Y-11743D01*
X98445Y-11743D02*
X98346Y-11664D01*
X98346Y-11664D02*
X98264Y-11567D01*
X98264Y-11567D02*
X98203Y-11456D01*
X98203Y-11456D02*
X98165Y-11335D01*
X98165Y-11335D02*
X98151Y-11209D01*
X98151Y-11209D02*
X98161Y-11083D01*
X98161Y-11083D02*
X98196Y-10961D01*
X98196Y-10961D02*
X98254Y-10848D01*
X98254Y-10848D02*
X98333Y-10749D01*
X98333Y-10749D02*
X98430Y-10667D01*
X98430Y-10667D02*
X98540Y-10605D01*
X98540Y-10605D02*
X98661Y-10566D01*
X98661Y-10566D02*
X98787Y-10551D01*
X98787Y-10551D02*
X98912Y-10560D01*
X98912Y-10560D02*
X99035Y-10594D01*
X99035Y-10594D02*
X99148Y-10652D01*
X99148Y-10652D02*
X99248Y-10730D01*
X99248Y-10730D02*
X99331Y-10826D01*
X99331Y-10826D02*
X99393Y-10936D01*
X99393Y-10936D02*
X99433Y-11056D01*
X99433Y-11056D02*
X99449Y-11182D01*
X99449Y-11182D02*
X99450Y-11200D01*
X11850Y-41300D02*
X11837Y-41426D01*
X11837Y-41426D02*
X11800Y-41547D01*
X11800Y-41547D02*
X11741Y-41659D01*
X11741Y-41659D02*
X11661Y-41758D01*
X11661Y-41758D02*
X11563Y-41838D01*
X11563Y-41838D02*
X11451Y-41899D01*
X11451Y-41899D02*
X11330Y-41936D01*
X11330Y-41936D02*
X11204Y-41949D01*
X11204Y-41949D02*
X11079Y-41938D01*
X11079Y-41938D02*
X10957Y-41902D01*
X10957Y-41902D02*
X10845Y-41843D01*
X10845Y-41843D02*
X10746Y-41764D01*
X10746Y-41764D02*
X10664Y-41667D01*
X10664Y-41667D02*
X10603Y-41556D01*
X10603Y-41556D02*
X10565Y-41435D01*
X10565Y-41435D02*
X10551Y-41309D01*
X10551Y-41309D02*
X10561Y-41183D01*
X10561Y-41183D02*
X10596Y-41061D01*
X10596Y-41061D02*
X10654Y-40948D01*
X10654Y-40948D02*
X10733Y-40849D01*
X10733Y-40849D02*
X10830Y-40767D01*
X10830Y-40767D02*
X10940Y-40705D01*
X10940Y-40705D02*
X11061Y-40666D01*
X11061Y-40666D02*
X11187Y-40651D01*
X11187Y-40651D02*
X11312Y-40660D01*
X11312Y-40660D02*
X11435Y-40694D01*
X11435Y-40694D02*
X11548Y-40752D01*
X11548Y-40752D02*
X11648Y-40830D01*
X11648Y-40830D02*
X11731Y-40926D01*
X11731Y-40926D02*
X11793Y-41036D01*
X11793Y-41036D02*
X11833Y-41156D01*
X11833Y-41156D02*
X11849Y-41282D01*
X11849Y-41282D02*
X11850Y-41300D01*
X11850Y-11200D02*
X11837Y-11326D01*
X11837Y-11326D02*
X11800Y-11447D01*
X11800Y-11447D02*
X11741Y-11559D01*
X11741Y-11559D02*
X11661Y-11658D01*
X11661Y-11658D02*
X11563Y-11738D01*
X11563Y-11738D02*
X11451Y-11799D01*
X11451Y-11799D02*
X11330Y-11836D01*
X11330Y-11836D02*
X11204Y-11849D01*
X11204Y-11849D02*
X11079Y-11838D01*
X11079Y-11838D02*
X10957Y-11802D01*
X10957Y-11802D02*
X10845Y-11743D01*
X10845Y-11743D02*
X10746Y-11664D01*
X10746Y-11664D02*
X10664Y-11567D01*
X10664Y-11567D02*
X10603Y-11456D01*
X10603Y-11456D02*
X10565Y-11335D01*
X10565Y-11335D02*
X10551Y-11209D01*
X10551Y-11209D02*
X10561Y-11083D01*
X10561Y-11083D02*
X10596Y-10961D01*
X10596Y-10961D02*
X10654Y-10848D01*
X10654Y-10848D02*
X10733Y-10749D01*
X10733Y-10749D02*
X10830Y-10667D01*
X10830Y-10667D02*
X10940Y-10605D01*
X10940Y-10605D02*
X11061Y-10566D01*
X11061Y-10566D02*
X11187Y-10551D01*
X11187Y-10551D02*
X11312Y-10560D01*
X11312Y-10560D02*
X11435Y-10594D01*
X11435Y-10594D02*
X11548Y-10652D01*
X11548Y-10652D02*
X11648Y-10730D01*
X11648Y-10730D02*
X11731Y-10826D01*
X11731Y-10826D02*
X11793Y-10936D01*
X11793Y-10936D02*
X11833Y-11056D01*
X11833Y-11056D02*
X11849Y-11182D01*
X11849Y-11182D02*
X11850Y-11200D01*
X99450Y-41300D02*
X99437Y-41426D01*
X99437Y-41426D02*
X99400Y-41547D01*
X99400Y-41547D02*
X99341Y-41659D01*
X99341Y-41659D02*
X99261Y-41758D01*
X99261Y-41758D02*
X99163Y-41838D01*
X99163Y-41838D02*
X99051Y-41899D01*
X99051Y-41899D02*
X98930Y-41936D01*
X98930Y-41936D02*
X98804Y-41949D01*
X98804Y-41949D02*
X98679Y-41938D01*
X98679Y-41938D02*
X98557Y-41902D01*
X98557Y-41902D02*
X98445Y-41843D01*
X98445Y-41843D02*
X98346Y-41764D01*
X98346Y-41764D02*
X98264Y-41667D01*
X98264Y-41667D02*
X98203Y-41556D01*
X98203Y-41556D02*
X98165Y-41435D01*
X98165Y-41435D02*
X98151Y-41309D01*
X98151Y-41309D02*
X98161Y-41183D01*
X98161Y-41183D02*
X98196Y-41061D01*
X98196Y-41061D02*
X98254Y-40948D01*
X98254Y-40948D02*
X98333Y-40849D01*
X98333Y-40849D02*
X98430Y-40767D01*
X98430Y-40767D02*
X98540Y-40705D01*
X98540Y-40705D02*
X98661Y-40666D01*
X98661Y-40666D02*
X98787Y-40651D01*
X98787Y-40651D02*
X98912Y-40660D01*
X98912Y-40660D02*
X99035Y-40694D01*
X99035Y-40694D02*
X99148Y-40752D01*
X99148Y-40752D02*
X99248Y-40830D01*
X99248Y-40830D02*
X99331Y-40926D01*
X99331Y-40926D02*
X99393Y-41036D01*
X99393Y-41036D02*
X99433Y-41156D01*
X99433Y-41156D02*
X99449Y-41282D01*
X99449Y-41282D02*
X99450Y-41300D01*
X46914Y-26250D02*
X46901Y-26376D01*
X46901Y-26376D02*
X46864Y-26497D01*
X46864Y-26497D02*
X46805Y-26609D01*
X46805Y-26609D02*
X46725Y-26708D01*
X46725Y-26708D02*
X46627Y-26788D01*
X46627Y-26788D02*
X46515Y-26849D01*
X46515Y-26849D02*
X46394Y-26886D01*
X46394Y-26886D02*
X46268Y-26899D01*
X46268Y-26899D02*
X46143Y-26888D01*
X46143Y-26888D02*
X46021Y-26852D01*
X46021Y-26852D02*
X45909Y-26793D01*
X45909Y-26793D02*
X45810Y-26714D01*
X45810Y-26714D02*
X45728Y-26617D01*
X45728Y-26617D02*
X45667Y-26506D01*
X45667Y-26506D02*
X45629Y-26385D01*
X45629Y-26385D02*
X45615Y-26259D01*
X45615Y-26259D02*
X45625Y-26133D01*
X45625Y-26133D02*
X45660Y-26011D01*
X45660Y-26011D02*
X45718Y-25898D01*
X45718Y-25898D02*
X45797Y-25799D01*
X45797Y-25799D02*
X45894Y-25717D01*
X45894Y-25717D02*
X46004Y-25655D01*
X46004Y-25655D02*
X46125Y-25616D01*
X46125Y-25616D02*
X46251Y-25601D01*
X46251Y-25601D02*
X46376Y-25610D01*
X46376Y-25610D02*
X46499Y-25644D01*
X46499Y-25644D02*
X46612Y-25702D01*
X46612Y-25702D02*
X46712Y-25780D01*
X46712Y-25780D02*
X46795Y-25876D01*
X46795Y-25876D02*
X46857Y-25986D01*
X46857Y-25986D02*
X46897Y-26106D01*
X46897Y-26106D02*
X46913Y-26232D01*
X46913Y-26232D02*
X46914Y-26250D01*
X51386Y-26250D02*
X51373Y-26376D01*
X51373Y-26376D02*
X51336Y-26497D01*
X51336Y-26497D02*
X51277Y-26609D01*
X51277Y-26609D02*
X51197Y-26708D01*
X51197Y-26708D02*
X51099Y-26788D01*
X51099Y-26788D02*
X50987Y-26849D01*
X50987Y-26849D02*
X50866Y-26886D01*
X50866Y-26886D02*
X50740Y-26899D01*
X50740Y-26899D02*
X50615Y-26888D01*
X50615Y-26888D02*
X50493Y-26852D01*
X50493Y-26852D02*
X50381Y-26793D01*
X50381Y-26793D02*
X50282Y-26714D01*
X50282Y-26714D02*
X50200Y-26617D01*
X50200Y-26617D02*
X50139Y-26506D01*
X50139Y-26506D02*
X50101Y-26385D01*
X50101Y-26385D02*
X50087Y-26259D01*
X50087Y-26259D02*
X50097Y-26133D01*
X50097Y-26133D02*
X50132Y-26011D01*
X50132Y-26011D02*
X50190Y-25898D01*
X50190Y-25898D02*
X50269Y-25799D01*
X50269Y-25799D02*
X50366Y-25717D01*
X50366Y-25717D02*
X50476Y-25655D01*
X50476Y-25655D02*
X50597Y-25616D01*
X50597Y-25616D02*
X50723Y-25601D01*
X50723Y-25601D02*
X50848Y-25610D01*
X50848Y-25610D02*
X50971Y-25644D01*
X50971Y-25644D02*
X51084Y-25702D01*
X51084Y-25702D02*
X51184Y-25780D01*
X51184Y-25780D02*
X51267Y-25876D01*
X51267Y-25876D02*
X51329Y-25986D01*
X51329Y-25986D02*
X51369Y-26106D01*
X51369Y-26106D02*
X51385Y-26232D01*
X51385Y-26232D02*
X51386Y-26250D01*
X60914Y-26250D02*
X60901Y-26376D01*
X60901Y-26376D02*
X60864Y-26497D01*
X60864Y-26497D02*
X60805Y-26609D01*
X60805Y-26609D02*
X60725Y-26708D01*
X60725Y-26708D02*
X60627Y-26788D01*
X60627Y-26788D02*
X60515Y-26849D01*
X60515Y-26849D02*
X60394Y-26886D01*
X60394Y-26886D02*
X60268Y-26899D01*
X60268Y-26899D02*
X60143Y-26888D01*
X60143Y-26888D02*
X60021Y-26852D01*
X60021Y-26852D02*
X59909Y-26793D01*
X59909Y-26793D02*
X59810Y-26714D01*
X59810Y-26714D02*
X59728Y-26617D01*
X59728Y-26617D02*
X59667Y-26506D01*
X59667Y-26506D02*
X59629Y-26385D01*
X59629Y-26385D02*
X59615Y-26259D01*
X59615Y-26259D02*
X59625Y-26133D01*
X59625Y-26133D02*
X59660Y-26011D01*
X59660Y-26011D02*
X59718Y-25898D01*
X59718Y-25898D02*
X59797Y-25799D01*
X59797Y-25799D02*
X59894Y-25717D01*
X59894Y-25717D02*
X60004Y-25655D01*
X60004Y-25655D02*
X60125Y-25616D01*
X60125Y-25616D02*
X60251Y-25601D01*
X60251Y-25601D02*
X60376Y-25610D01*
X60376Y-25610D02*
X60499Y-25644D01*
X60499Y-25644D02*
X60612Y-25702D01*
X60612Y-25702D02*
X60712Y-25780D01*
X60712Y-25780D02*
X60795Y-25876D01*
X60795Y-25876D02*
X60857Y-25986D01*
X60857Y-25986D02*
X60897Y-26106D01*
X60897Y-26106D02*
X60913Y-26232D01*
X60913Y-26232D02*
X60914Y-26250D01*
X65386Y-26250D02*
X65373Y-26376D01*
X65373Y-26376D02*
X65336Y-26497D01*
X65336Y-26497D02*
X65277Y-26609D01*
X65277Y-26609D02*
X65197Y-26708D01*
X65197Y-26708D02*
X65099Y-26788D01*
X65099Y-26788D02*
X64987Y-26849D01*
X64987Y-26849D02*
X64866Y-26886D01*
X64866Y-26886D02*
X64740Y-26899D01*
X64740Y-26899D02*
X64615Y-26888D01*
X64615Y-26888D02*
X64493Y-26852D01*
X64493Y-26852D02*
X64381Y-26793D01*
X64381Y-26793D02*
X64282Y-26714D01*
X64282Y-26714D02*
X64200Y-26617D01*
X64200Y-26617D02*
X64139Y-26506D01*
X64139Y-26506D02*
X64101Y-26385D01*
X64101Y-26385D02*
X64087Y-26259D01*
X64087Y-26259D02*
X64097Y-26133D01*
X64097Y-26133D02*
X64132Y-26011D01*
X64132Y-26011D02*
X64190Y-25898D01*
X64190Y-25898D02*
X64269Y-25799D01*
X64269Y-25799D02*
X64366Y-25717D01*
X64366Y-25717D02*
X64476Y-25655D01*
X64476Y-25655D02*
X64597Y-25616D01*
X64597Y-25616D02*
X64723Y-25601D01*
X64723Y-25601D02*
X64848Y-25610D01*
X64848Y-25610D02*
X64971Y-25644D01*
X64971Y-25644D02*
X65084Y-25702D01*
X65084Y-25702D02*
X65184Y-25780D01*
X65184Y-25780D02*
X65267Y-25876D01*
X65267Y-25876D02*
X65329Y-25986D01*
X65329Y-25986D02*
X65369Y-26106D01*
X65369Y-26106D02*
X65385Y-26232D01*
X65385Y-26232D02*
X65386Y-26250D01*
X74914Y-26250D02*
X74901Y-26376D01*
X74901Y-26376D02*
X74864Y-26497D01*
X74864Y-26497D02*
X74805Y-26609D01*
X74805Y-26609D02*
X74725Y-26708D01*
X74725Y-26708D02*
X74627Y-26788D01*
X74627Y-26788D02*
X74515Y-26849D01*
X74515Y-26849D02*
X74394Y-26886D01*
X74394Y-26886D02*
X74268Y-26899D01*
X74268Y-26899D02*
X74143Y-26888D01*
X74143Y-26888D02*
X74021Y-26852D01*
X74021Y-26852D02*
X73909Y-26793D01*
X73909Y-26793D02*
X73810Y-26714D01*
X73810Y-26714D02*
X73728Y-26617D01*
X73728Y-26617D02*
X73667Y-26506D01*
X73667Y-26506D02*
X73629Y-26385D01*
X73629Y-26385D02*
X73615Y-26259D01*
X73615Y-26259D02*
X73625Y-26133D01*
X73625Y-26133D02*
X73660Y-26011D01*
X73660Y-26011D02*
X73718Y-25898D01*
X73718Y-25898D02*
X73797Y-25799D01*
X73797Y-25799D02*
X73894Y-25717D01*
X73894Y-25717D02*
X74004Y-25655D01*
X74004Y-25655D02*
X74125Y-25616D01*
X74125Y-25616D02*
X74251Y-25601D01*
X74251Y-25601D02*
X74376Y-25610D01*
X74376Y-25610D02*
X74499Y-25644D01*
X74499Y-25644D02*
X74612Y-25702D01*
X74612Y-25702D02*
X74712Y-25780D01*
X74712Y-25780D02*
X74795Y-25876D01*
X74795Y-25876D02*
X74857Y-25986D01*
X74857Y-25986D02*
X74897Y-26106D01*
X74897Y-26106D02*
X74913Y-26232D01*
X74913Y-26232D02*
X74914Y-26250D01*
X79386Y-26250D02*
X79373Y-26376D01*
X79373Y-26376D02*
X79336Y-26497D01*
X79336Y-26497D02*
X79277Y-26609D01*
X79277Y-26609D02*
X79197Y-26708D01*
X79197Y-26708D02*
X79099Y-26788D01*
X79099Y-26788D02*
X78987Y-26849D01*
X78987Y-26849D02*
X78866Y-26886D01*
X78866Y-26886D02*
X78740Y-26899D01*
X78740Y-26899D02*
X78615Y-26888D01*
X78615Y-26888D02*
X78493Y-26852D01*
X78493Y-26852D02*
X78381Y-26793D01*
X78381Y-26793D02*
X78282Y-26714D01*
X78282Y-26714D02*
X78200Y-26617D01*
X78200Y-26617D02*
X78139Y-26506D01*
X78139Y-26506D02*
X78101Y-26385D01*
X78101Y-26385D02*
X78087Y-26259D01*
X78087Y-26259D02*
X78097Y-26133D01*
X78097Y-26133D02*
X78132Y-26011D01*
X78132Y-26011D02*
X78190Y-25898D01*
X78190Y-25898D02*
X78269Y-25799D01*
X78269Y-25799D02*
X78366Y-25717D01*
X78366Y-25717D02*
X78476Y-25655D01*
X78476Y-25655D02*
X78597Y-25616D01*
X78597Y-25616D02*
X78723Y-25601D01*
X78723Y-25601D02*
X78848Y-25610D01*
X78848Y-25610D02*
X78971Y-25644D01*
X78971Y-25644D02*
X79084Y-25702D01*
X79084Y-25702D02*
X79184Y-25780D01*
X79184Y-25780D02*
X79267Y-25876D01*
X79267Y-25876D02*
X79329Y-25986D01*
X79329Y-25986D02*
X79369Y-26106D01*
X79369Y-26106D02*
X79385Y-26232D01*
X79385Y-26232D02*
X79386Y-26250D01*
X88914Y-26250D02*
X88901Y-26376D01*
X88901Y-26376D02*
X88864Y-26497D01*
X88864Y-26497D02*
X88805Y-26609D01*
X88805Y-26609D02*
X88725Y-26708D01*
X88725Y-26708D02*
X88627Y-26788D01*
X88627Y-26788D02*
X88515Y-26849D01*
X88515Y-26849D02*
X88394Y-26886D01*
X88394Y-26886D02*
X88268Y-26899D01*
X88268Y-26899D02*
X88143Y-26888D01*
X88143Y-26888D02*
X88021Y-26852D01*
X88021Y-26852D02*
X87909Y-26793D01*
X87909Y-26793D02*
X87810Y-26714D01*
X87810Y-26714D02*
X87728Y-26617D01*
X87728Y-26617D02*
X87667Y-26506D01*
X87667Y-26506D02*
X87629Y-26385D01*
X87629Y-26385D02*
X87615Y-26259D01*
X87615Y-26259D02*
X87625Y-26133D01*
X87625Y-26133D02*
X87660Y-26011D01*
X87660Y-26011D02*
X87718Y-25898D01*
X87718Y-25898D02*
X87797Y-25799D01*
X87797Y-25799D02*
X87894Y-25717D01*
X87894Y-25717D02*
X88004Y-25655D01*
X88004Y-25655D02*
X88125Y-25616D01*
X88125Y-25616D02*
X88251Y-25601D01*
X88251Y-25601D02*
X88376Y-25610D01*
X88376Y-25610D02*
X88499Y-25644D01*
X88499Y-25644D02*
X88612Y-25702D01*
X88612Y-25702D02*
X88712Y-25780D01*
X88712Y-25780D02*
X88795Y-25876D01*
X88795Y-25876D02*
X88857Y-25986D01*
X88857Y-25986D02*
X88897Y-26106D01*
X88897Y-26106D02*
X88913Y-26232D01*
X88913Y-26232D02*
X88914Y-26250D01*
X93386Y-26250D02*
X93373Y-26376D01*
X93373Y-26376D02*
X93336Y-26497D01*
X93336Y-26497D02*
X93277Y-26609D01*
X93277Y-26609D02*
X93197Y-26708D01*
X93197Y-26708D02*
X93099Y-26788D01*
X93099Y-26788D02*
X92987Y-26849D01*
X92987Y-26849D02*
X92866Y-26886D01*
X92866Y-26886D02*
X92740Y-26899D01*
X92740Y-26899D02*
X92615Y-26888D01*
X92615Y-26888D02*
X92493Y-26852D01*
X92493Y-26852D02*
X92381Y-26793D01*
X92381Y-26793D02*
X92282Y-26714D01*
X92282Y-26714D02*
X92200Y-26617D01*
X92200Y-26617D02*
X92139Y-26506D01*
X92139Y-26506D02*
X92101Y-26385D01*
X92101Y-26385D02*
X92087Y-26259D01*
X92087Y-26259D02*
X92097Y-26133D01*
X92097Y-26133D02*
X92132Y-26011D01*
X92132Y-26011D02*
X92190Y-25898D01*
X92190Y-25898D02*
X92269Y-25799D01*
X92269Y-25799D02*
X92366Y-25717D01*
X92366Y-25717D02*
X92476Y-25655D01*
X92476Y-25655D02*
X92597Y-25616D01*
X92597Y-25616D02*
X92723Y-25601D01*
X92723Y-25601D02*
X92848Y-25610D01*
X92848Y-25610D02*
X92971Y-25644D01*
X92971Y-25644D02*
X93084Y-25702D01*
X93084Y-25702D02*
X93184Y-25780D01*
X93184Y-25780D02*
X93267Y-25876D01*
X93267Y-25876D02*
X93329Y-25986D01*
X93329Y-25986D02*
X93369Y-26106D01*
X93369Y-26106D02*
X93385Y-26232D01*
X93385Y-26232D02*
X93386Y-26250D01*
M02*
