M48
;DRILL file {PCBnew (20090216-final)} date Wed 25 May 2011 01:44:51 PM PDT
;FORMAT={2:4/ absolute / inch / suppress trailing zeros}
R,T
VER,1
FMAT,2
INCH,LZ
TCST,OFF
ICI,OFF
ATC,ON
T1C0.025
T2C0.039
T3C0.040
T4C0.102
T5C0.118
T6C0.120
%
M47
G05
M72
T1
X01677Y-01749
X01854Y-02905
X0209Y-02455
X0266Y-0144
X02695Y-0126
X03245Y-01874
X03245Y-01975
X03245Y-0208
X03245Y-02185
X03975Y-01675
X05305Y-0228
X0558Y-0227
X056975Y-0233
X08115Y-0227
X0837Y-0228
X0849Y-02345
T2
X0229Y-0117
X0229Y-0127
X0229Y-0137
X0229Y-0147
X0229Y-0157
X0229Y-0167
X0229Y-0177
X0229Y-0187
X0229Y-0197
X0229Y-0207
X0229Y-0217
X0229Y-0227
X0229Y-0237
X0229Y-0247
X0229Y-0257
X0289Y-0117
X0289Y-0127
X0289Y-0137
X0289Y-0147
X0289Y-0157
X0289Y-0167
X0289Y-0177
X0289Y-0187
X0289Y-0197
X0289Y-0207
X0289Y-0217
X0289Y-0227
X0289Y-0237
X0289Y-0247
X0289Y-0257
T3
X01525Y-02267
X01525Y-02367
X01525Y-03246
X01525Y-03346
X01625Y-02267
X01625Y-02367
X01625Y-03246
X01625Y-03346
X0209Y-0406
X0219Y-0406
X0229Y-0406
X0239Y-0406
X0249Y-0406
X0292Y-0406
X0302Y-0406
X0312Y-0406
X0322Y-0406
X0324Y-0144
X0324Y-0154
X0332Y-0406
X0334Y-0144
X0334Y-0154
X0342Y-0406
X0344Y-0144
X0344Y-0154
X039Y-0144
X039Y-0154
X04Y-0144
X04Y-0154
X041Y-0144
X041Y-0154
X046264Y-015
X046264Y-016
X046264Y-017
X046264Y-018
X046264Y-019
X046264Y-02
X046264Y-0325
X046264Y-0335
X046264Y-0345
X046264Y-0355
X046264Y-0365
X046264Y-0375
X050736Y-015
X050736Y-016
X050736Y-017
X050736Y-018
X050736Y-019
X050736Y-02
X050736Y-0325
X050736Y-0335
X050736Y-0345
X050736Y-0355
X050736Y-0365
X050736Y-0375
X060264Y-015
X060264Y-016
X060264Y-017
X060264Y-018
X060264Y-019
X060264Y-02
X060264Y-0325
X060264Y-0335
X060264Y-0345
X060264Y-0355
X060264Y-0365
X060264Y-0375
X064736Y-015
X064736Y-016
X064736Y-017
X064736Y-018
X064736Y-019
X064736Y-02
X064736Y-0325
X064736Y-0335
X064736Y-0345
X064736Y-0355
X064736Y-0365
X064736Y-0375
X074264Y-015
X074264Y-016
X074264Y-017
X074264Y-018
X074264Y-019
X074264Y-02
X074264Y-0325
X074264Y-0335
X074264Y-0345
X074264Y-0355
X074264Y-0365
X074264Y-0375
X078736Y-015
X078736Y-016
X078736Y-017
X078736Y-018
X078736Y-019
X078736Y-02
X078736Y-0325
X078736Y-0335
X078736Y-0345
X078736Y-0355
X078736Y-0365
X078736Y-0375
X088264Y-015
X088264Y-016
X088264Y-017
X088264Y-018
X088264Y-019
X088264Y-02
X088264Y-0325
X088264Y-0335
X088264Y-0345
X088264Y-0355
X088264Y-0365
X088264Y-0375
X092736Y-015
X092736Y-016
X092736Y-017
X092736Y-018
X092736Y-019
X092736Y-02
X092736Y-0325
X092736Y-0335
X092736Y-0345
X092736Y-0355
X092736Y-0365
X092736Y-0375
T4
X0151Y-013038
T5
X0151Y-0154
T6
X0112Y-0112
X0112Y-0413
X046264Y-02625
X050736Y-02625
X060264Y-02625
X064736Y-02625
X074264Y-02625
X078736Y-02625
X088264Y-02625
X092736Y-02625
X0988Y-0112
X0988Y-0413
T0
M30
