G04 (created by PCBnew (20090216-final)) date Mon 23 May 2011 05:29:38 PM PDT*
G01*
G70*
G90*
%MOIN*%
G04 Gerber Fmt 3.4, Leading zero omitted, Abs format*
%FSLAX34Y34*%
G04 APERTURE LIST*
%ADD10C,0.015000*%
%ADD11C,0.200000*%
%ADD12C,0.181100*%
%ADD13R,0.060000X0.060000*%
%ADD14C,0.060000*%
%ADD15C,0.130000*%
%ADD16R,0.069000X0.060000*%
%ADD17C,0.069000*%
%ADD18C,0.045000*%
%ADD19C,0.020000*%
%ADD20C,0.010000*%
%ADD21R,0.045000X0.025000*%
%ADD22R,0.025000X0.045000*%
%ADD23R,0.055000X0.035000*%
%ADD24R,0.050000X0.100000*%
%ADD25R,0.039400X2.755900*%
%ADD26C,0.039400*%
%ADD27R,0.070100X0.016500*%
%ADD28C,0.012000*%
%ADD29C,0.005000*%
%ADD30C,0.015000*%
%ADD31C,0.220000*%
%ADD32C,0.201100*%
%ADD33R,0.080000X0.080000*%
%ADD34C,0.080000*%
%ADD35C,0.150000*%
%ADD36R,0.089000X0.080000*%
%ADD37C,0.089000*%
%ADD38R,0.065000X0.045000*%
%ADD39R,0.045000X0.065000*%
%ADD40R,0.075000X0.055000*%
%ADD41R,0.070000X0.120000*%
%ADD42C,0.059400*%
%ADD43R,0.090100X0.036500*%
G04 APERTURE END LIST*
G54D10*
X100000Y-10000D02*
X100000Y-42500D01*
X10000Y-42500D02*
X100000Y-42500D01*
X10000Y-10000D02*
X10000Y-42500D01*
X10000Y-10000D02*
X100000Y-10000D01*
G54D31*
X15100Y-15400D03*
G54D32*
X15100Y-13038D03*
G54D33*
X32400Y-15400D03*
G54D34*
X32400Y-14400D03*
X33400Y-15400D03*
X33400Y-14400D03*
X34400Y-15400D03*
X34400Y-14400D03*
G54D33*
X15250Y-33460D03*
G54D34*
X15250Y-32460D03*
X16250Y-33460D03*
X16250Y-32460D03*
G54D33*
X15250Y-23670D03*
G54D34*
X15250Y-22670D03*
X16250Y-23670D03*
X16250Y-22670D03*
G54D33*
X24900Y-40600D03*
G54D34*
X23900Y-40600D03*
X22900Y-40600D03*
X21900Y-40600D03*
X20900Y-40600D03*
G54D38*
X18420Y-15390D03*
X18420Y-14790D03*
X85450Y-25300D03*
X85450Y-25900D03*
X57400Y-25300D03*
X57400Y-25900D03*
X19670Y-15390D03*
X19670Y-14790D03*
X20920Y-15390D03*
X20920Y-14790D03*
G54D39*
X15050Y-17900D03*
X15650Y-17900D03*
X33500Y-21850D03*
X34100Y-21850D03*
X33500Y-20800D03*
X34100Y-20800D03*
X33500Y-19750D03*
X34100Y-19750D03*
X33500Y-18750D03*
X34100Y-18750D03*
X20520Y-18490D03*
X19920Y-18490D03*
X20520Y-17500D03*
X19920Y-17500D03*
G54D38*
X57400Y-24700D03*
X57400Y-24100D03*
X85450Y-24700D03*
X85450Y-24100D03*
X17100Y-29660D03*
X17100Y-29060D03*
X15850Y-29660D03*
X15850Y-29060D03*
X14600Y-29660D03*
X14600Y-29060D03*
G54D40*
X18420Y-13615D03*
X18420Y-12865D03*
X19670Y-13615D03*
X19670Y-12865D03*
X20920Y-13615D03*
X20920Y-12865D03*
G54D41*
X18940Y-32450D03*
X20140Y-32450D03*
G54D33*
X92736Y-15000D03*
G54D34*
X92736Y-16000D03*
X92736Y-17000D03*
X92736Y-18000D03*
X92736Y-19000D03*
X92736Y-20000D03*
G54D33*
X88264Y-15000D03*
G54D34*
X88264Y-16000D03*
X88264Y-17000D03*
X88264Y-18000D03*
X88264Y-19000D03*
X88264Y-20000D03*
G54D33*
X78736Y-15000D03*
G54D34*
X78736Y-16000D03*
X78736Y-17000D03*
X78736Y-18000D03*
X78736Y-19000D03*
X78736Y-20000D03*
G54D33*
X74264Y-15000D03*
G54D34*
X74264Y-16000D03*
X74264Y-17000D03*
X74264Y-18000D03*
X74264Y-19000D03*
X74264Y-20000D03*
G54D33*
X60264Y-15000D03*
G54D34*
X60264Y-16000D03*
X60264Y-17000D03*
X60264Y-18000D03*
X60264Y-19000D03*
X60264Y-20000D03*
G54D33*
X64736Y-15000D03*
G54D34*
X64736Y-16000D03*
X64736Y-17000D03*
X64736Y-18000D03*
X64736Y-19000D03*
X64736Y-20000D03*
G54D33*
X50736Y-15000D03*
G54D34*
X50736Y-16000D03*
X50736Y-17000D03*
X50736Y-18000D03*
X50736Y-19000D03*
X50736Y-20000D03*
G54D33*
X46264Y-15000D03*
G54D34*
X46264Y-16000D03*
X46264Y-17000D03*
X46264Y-18000D03*
X46264Y-19000D03*
X46264Y-20000D03*
G54D33*
X92736Y-32500D03*
G54D34*
X92736Y-33500D03*
X92736Y-34500D03*
X92736Y-35500D03*
X92736Y-36500D03*
X92736Y-37500D03*
G54D33*
X88264Y-32500D03*
G54D34*
X88264Y-33500D03*
X88264Y-34500D03*
X88264Y-35500D03*
X88264Y-36500D03*
X88264Y-37500D03*
G54D33*
X78736Y-32500D03*
G54D34*
X78736Y-33500D03*
X78736Y-34500D03*
X78736Y-35500D03*
X78736Y-36500D03*
X78736Y-37500D03*
G54D33*
X74264Y-32500D03*
G54D34*
X74264Y-33500D03*
X74264Y-34500D03*
X74264Y-35500D03*
X74264Y-36500D03*
X74264Y-37500D03*
G54D33*
X64736Y-32500D03*
G54D34*
X64736Y-33500D03*
X64736Y-34500D03*
X64736Y-35500D03*
X64736Y-36500D03*
X64736Y-37500D03*
G54D33*
X60264Y-32500D03*
G54D34*
X60264Y-33500D03*
X60264Y-34500D03*
X60264Y-35500D03*
X60264Y-36500D03*
X60264Y-37500D03*
G54D33*
X50736Y-32500D03*
G54D34*
X50736Y-33500D03*
X50736Y-34500D03*
X50736Y-35500D03*
X50736Y-36500D03*
X50736Y-37500D03*
G54D33*
X46264Y-32500D03*
G54D34*
X46264Y-33500D03*
X46264Y-34500D03*
X46264Y-35500D03*
X46264Y-36500D03*
X46264Y-37500D03*
G54D33*
X39000Y-15400D03*
G54D34*
X39000Y-14400D03*
X40000Y-15400D03*
X40000Y-14400D03*
X41000Y-15400D03*
X41000Y-14400D03*
G54D35*
X98800Y-11200D03*
X11200Y-41300D03*
X11200Y-11200D03*
X98800Y-41300D03*
G54D33*
X34200Y-40600D03*
G54D34*
X33200Y-40600D03*
X32200Y-40600D03*
X31200Y-40600D03*
X30200Y-40600D03*
X29200Y-40600D03*
G54D35*
X46264Y-26250D03*
X50736Y-26250D03*
X60264Y-26250D03*
X64736Y-26250D03*
X74264Y-26250D03*
X78736Y-26250D03*
X88264Y-26250D03*
X92736Y-26250D03*
G54D42*
X12500Y-40000D03*
X97500Y-12500D03*
X55000Y-27900D03*
X83000Y-27900D03*
G54D36*
X28900Y-25700D03*
G54D37*
X28900Y-24700D03*
X28900Y-23700D03*
X28900Y-22700D03*
X28900Y-21700D03*
X28900Y-20700D03*
X28900Y-19700D03*
X28900Y-18700D03*
X28900Y-17700D03*
X28900Y-16700D03*
X28900Y-15700D03*
X28900Y-14700D03*
X28900Y-13700D03*
X28900Y-12700D03*
X28900Y-11700D03*
X22900Y-11700D03*
X22900Y-12700D03*
X22900Y-13700D03*
X22900Y-14700D03*
X22900Y-15700D03*
X22900Y-16700D03*
X22900Y-17700D03*
X22900Y-18700D03*
X22900Y-19700D03*
X22900Y-20700D03*
X22900Y-21700D03*
X22900Y-22700D03*
X22900Y-23700D03*
X22900Y-24700D03*
X22900Y-25700D03*
G54D43*
X81831Y-24504D03*
X81831Y-24760D03*
X81831Y-25016D03*
X81831Y-25272D03*
X81831Y-25528D03*
X81831Y-25784D03*
X81831Y-26040D03*
X81831Y-26296D03*
X84169Y-26296D03*
X84169Y-26040D03*
X84169Y-25784D03*
X84169Y-25528D03*
X84169Y-25272D03*
X84169Y-25016D03*
X84169Y-24760D03*
X84169Y-24504D03*
X53831Y-24504D03*
X53831Y-24760D03*
X53831Y-25016D03*
X53831Y-25272D03*
X53831Y-25528D03*
X53831Y-25784D03*
X53831Y-26040D03*
X53831Y-26296D03*
X56169Y-26296D03*
X56169Y-26040D03*
X56169Y-25784D03*
X56169Y-25528D03*
X56169Y-25272D03*
X56169Y-25016D03*
X56169Y-24760D03*
X56169Y-24504D03*
M02*
