G04 (created by PCBnew (20090216-final)) date Wed 18 May 2011 09:12:20 PM PDT*
G01*
G70*
G90*
%MOIN*%
G04 Gerber Fmt 3.4, Leading zero omitted, Abs format*
%FSLAX34Y34*%
G04 APERTURE LIST*
%ADD10C,0.015000*%
%ADD11R,0.060000X0.060000*%
%ADD12C,0.060000*%
%ADD13C,0.130000*%
%ADD14C,0.010000*%
%ADD15C,0.005000*%
%ADD16C,0.012000*%
%ADD17R,0.080000X0.080000*%
%ADD18C,0.080000*%
%ADD19C,0.150000*%
G04 APERTURE END LIST*
G54D10*
X64000Y-10000D02*
X64000Y-52500D01*
X59000Y-48800D02*
X59011Y-48904D01*
X59011Y-48904D02*
X59043Y-49003D01*
X59043Y-49003D02*
X59095Y-49094D01*
X59095Y-49094D02*
X59165Y-49172D01*
X59165Y-49172D02*
X59250Y-49233D01*
X59250Y-49233D02*
X59345Y-49276D01*
X59345Y-49276D02*
X59448Y-49297D01*
X59448Y-49297D02*
X59500Y-49300D01*
X59500Y-49300D02*
X59604Y-49289D01*
X59604Y-49289D02*
X59703Y-49257D01*
X59703Y-49257D02*
X59794Y-49205D01*
X59794Y-49205D02*
X59872Y-49135D01*
X59872Y-49135D02*
X59933Y-49050D01*
X59933Y-49050D02*
X59976Y-48955D01*
X59976Y-48955D02*
X59997Y-48852D01*
X59997Y-48852D02*
X60000Y-48800D01*
X60000Y-13700D02*
X59989Y-13596D01*
X59989Y-13596D02*
X59957Y-13497D01*
X59957Y-13497D02*
X59905Y-13406D01*
X59905Y-13406D02*
X59835Y-13328D01*
X59835Y-13328D02*
X59750Y-13267D01*
X59750Y-13267D02*
X59655Y-13224D01*
X59655Y-13224D02*
X59552Y-13203D01*
X59552Y-13203D02*
X59500Y-13200D01*
X59500Y-13200D02*
X59396Y-13211D01*
X59396Y-13211D02*
X59297Y-13243D01*
X59297Y-13243D02*
X59206Y-13295D01*
X59206Y-13295D02*
X59128Y-13365D01*
X59128Y-13365D02*
X59067Y-13450D01*
X59067Y-13450D02*
X59024Y-13545D01*
X59024Y-13545D02*
X59003Y-13648D01*
X59003Y-13648D02*
X59000Y-13700D01*
X60000Y-13750D02*
X60000Y-48750D01*
X59000Y-13750D02*
X59000Y-48750D01*
X54000Y-48800D02*
X54011Y-48904D01*
X54011Y-48904D02*
X54043Y-49003D01*
X54043Y-49003D02*
X54095Y-49094D01*
X54095Y-49094D02*
X54165Y-49172D01*
X54165Y-49172D02*
X54250Y-49233D01*
X54250Y-49233D02*
X54345Y-49276D01*
X54345Y-49276D02*
X54448Y-49297D01*
X54448Y-49297D02*
X54500Y-49300D01*
X54500Y-49300D02*
X54604Y-49289D01*
X54604Y-49289D02*
X54703Y-49257D01*
X54703Y-49257D02*
X54794Y-49205D01*
X54794Y-49205D02*
X54872Y-49135D01*
X54872Y-49135D02*
X54933Y-49050D01*
X54933Y-49050D02*
X54976Y-48955D01*
X54976Y-48955D02*
X54997Y-48852D01*
X54997Y-48852D02*
X55000Y-48800D01*
X55000Y-13700D02*
X54989Y-13596D01*
X54989Y-13596D02*
X54957Y-13497D01*
X54957Y-13497D02*
X54905Y-13406D01*
X54905Y-13406D02*
X54835Y-13328D01*
X54835Y-13328D02*
X54750Y-13267D01*
X54750Y-13267D02*
X54655Y-13224D01*
X54655Y-13224D02*
X54552Y-13203D01*
X54552Y-13203D02*
X54500Y-13200D01*
X54500Y-13200D02*
X54396Y-13211D01*
X54396Y-13211D02*
X54297Y-13243D01*
X54297Y-13243D02*
X54206Y-13295D01*
X54206Y-13295D02*
X54128Y-13365D01*
X54128Y-13365D02*
X54067Y-13450D01*
X54067Y-13450D02*
X54024Y-13545D01*
X54024Y-13545D02*
X54003Y-13648D01*
X54003Y-13648D02*
X54000Y-13700D01*
X55000Y-13750D02*
X55000Y-48750D01*
X54000Y-13750D02*
X54000Y-48750D01*
X49000Y-48800D02*
X49011Y-48904D01*
X49011Y-48904D02*
X49043Y-49003D01*
X49043Y-49003D02*
X49095Y-49094D01*
X49095Y-49094D02*
X49165Y-49172D01*
X49165Y-49172D02*
X49250Y-49233D01*
X49250Y-49233D02*
X49345Y-49276D01*
X49345Y-49276D02*
X49448Y-49297D01*
X49448Y-49297D02*
X49500Y-49300D01*
X49500Y-49300D02*
X49604Y-49289D01*
X49604Y-49289D02*
X49703Y-49257D01*
X49703Y-49257D02*
X49794Y-49205D01*
X49794Y-49205D02*
X49872Y-49135D01*
X49872Y-49135D02*
X49933Y-49050D01*
X49933Y-49050D02*
X49976Y-48955D01*
X49976Y-48955D02*
X49997Y-48852D01*
X49997Y-48852D02*
X50000Y-48800D01*
X50000Y-13700D02*
X49989Y-13596D01*
X49989Y-13596D02*
X49957Y-13497D01*
X49957Y-13497D02*
X49905Y-13406D01*
X49905Y-13406D02*
X49835Y-13328D01*
X49835Y-13328D02*
X49750Y-13267D01*
X49750Y-13267D02*
X49655Y-13224D01*
X49655Y-13224D02*
X49552Y-13203D01*
X49552Y-13203D02*
X49500Y-13200D01*
X49500Y-13200D02*
X49396Y-13211D01*
X49396Y-13211D02*
X49297Y-13243D01*
X49297Y-13243D02*
X49206Y-13295D01*
X49206Y-13295D02*
X49128Y-13365D01*
X49128Y-13365D02*
X49067Y-13450D01*
X49067Y-13450D02*
X49024Y-13545D01*
X49024Y-13545D02*
X49003Y-13648D01*
X49003Y-13648D02*
X49000Y-13700D01*
X50000Y-13750D02*
X50000Y-48750D01*
X49000Y-13750D02*
X49000Y-48750D01*
X44000Y-48800D02*
X44011Y-48904D01*
X44011Y-48904D02*
X44043Y-49003D01*
X44043Y-49003D02*
X44095Y-49094D01*
X44095Y-49094D02*
X44165Y-49172D01*
X44165Y-49172D02*
X44250Y-49233D01*
X44250Y-49233D02*
X44345Y-49276D01*
X44345Y-49276D02*
X44448Y-49297D01*
X44448Y-49297D02*
X44500Y-49300D01*
X44500Y-49300D02*
X44604Y-49289D01*
X44604Y-49289D02*
X44703Y-49257D01*
X44703Y-49257D02*
X44794Y-49205D01*
X44794Y-49205D02*
X44872Y-49135D01*
X44872Y-49135D02*
X44933Y-49050D01*
X44933Y-49050D02*
X44976Y-48955D01*
X44976Y-48955D02*
X44997Y-48852D01*
X44997Y-48852D02*
X45000Y-48800D01*
X45000Y-13700D02*
X44989Y-13596D01*
X44989Y-13596D02*
X44957Y-13497D01*
X44957Y-13497D02*
X44905Y-13406D01*
X44905Y-13406D02*
X44835Y-13328D01*
X44835Y-13328D02*
X44750Y-13267D01*
X44750Y-13267D02*
X44655Y-13224D01*
X44655Y-13224D02*
X44552Y-13203D01*
X44552Y-13203D02*
X44500Y-13200D01*
X44500Y-13200D02*
X44396Y-13211D01*
X44396Y-13211D02*
X44297Y-13243D01*
X44297Y-13243D02*
X44206Y-13295D01*
X44206Y-13295D02*
X44128Y-13365D01*
X44128Y-13365D02*
X44067Y-13450D01*
X44067Y-13450D02*
X44024Y-13545D01*
X44024Y-13545D02*
X44003Y-13648D01*
X44003Y-13648D02*
X44000Y-13700D01*
X45000Y-13750D02*
X45000Y-48750D01*
X44000Y-13750D02*
X44000Y-48750D01*
X39000Y-48800D02*
X39011Y-48904D01*
X39011Y-48904D02*
X39043Y-49003D01*
X39043Y-49003D02*
X39095Y-49094D01*
X39095Y-49094D02*
X39165Y-49172D01*
X39165Y-49172D02*
X39250Y-49233D01*
X39250Y-49233D02*
X39345Y-49276D01*
X39345Y-49276D02*
X39448Y-49297D01*
X39448Y-49297D02*
X39500Y-49300D01*
X39500Y-49300D02*
X39604Y-49289D01*
X39604Y-49289D02*
X39703Y-49257D01*
X39703Y-49257D02*
X39794Y-49205D01*
X39794Y-49205D02*
X39872Y-49135D01*
X39872Y-49135D02*
X39933Y-49050D01*
X39933Y-49050D02*
X39976Y-48955D01*
X39976Y-48955D02*
X39997Y-48852D01*
X39997Y-48852D02*
X40000Y-48800D01*
X40000Y-13700D02*
X39989Y-13596D01*
X39989Y-13596D02*
X39957Y-13497D01*
X39957Y-13497D02*
X39905Y-13406D01*
X39905Y-13406D02*
X39835Y-13328D01*
X39835Y-13328D02*
X39750Y-13267D01*
X39750Y-13267D02*
X39655Y-13224D01*
X39655Y-13224D02*
X39552Y-13203D01*
X39552Y-13203D02*
X39500Y-13200D01*
X39500Y-13200D02*
X39396Y-13211D01*
X39396Y-13211D02*
X39297Y-13243D01*
X39297Y-13243D02*
X39206Y-13295D01*
X39206Y-13295D02*
X39128Y-13365D01*
X39128Y-13365D02*
X39067Y-13450D01*
X39067Y-13450D02*
X39024Y-13545D01*
X39024Y-13545D02*
X39003Y-13648D01*
X39003Y-13648D02*
X39000Y-13700D01*
X40000Y-13750D02*
X40000Y-48750D01*
X39000Y-13750D02*
X39000Y-48750D01*
X34000Y-48800D02*
X34011Y-48904D01*
X34011Y-48904D02*
X34043Y-49003D01*
X34043Y-49003D02*
X34095Y-49094D01*
X34095Y-49094D02*
X34165Y-49172D01*
X34165Y-49172D02*
X34250Y-49233D01*
X34250Y-49233D02*
X34345Y-49276D01*
X34345Y-49276D02*
X34448Y-49297D01*
X34448Y-49297D02*
X34500Y-49300D01*
X34500Y-49300D02*
X34604Y-49289D01*
X34604Y-49289D02*
X34703Y-49257D01*
X34703Y-49257D02*
X34794Y-49205D01*
X34794Y-49205D02*
X34872Y-49135D01*
X34872Y-49135D02*
X34933Y-49050D01*
X34933Y-49050D02*
X34976Y-48955D01*
X34976Y-48955D02*
X34997Y-48852D01*
X34997Y-48852D02*
X35000Y-48800D01*
X35000Y-13700D02*
X34989Y-13596D01*
X34989Y-13596D02*
X34957Y-13497D01*
X34957Y-13497D02*
X34905Y-13406D01*
X34905Y-13406D02*
X34835Y-13328D01*
X34835Y-13328D02*
X34750Y-13267D01*
X34750Y-13267D02*
X34655Y-13224D01*
X34655Y-13224D02*
X34552Y-13203D01*
X34552Y-13203D02*
X34500Y-13200D01*
X34500Y-13200D02*
X34396Y-13211D01*
X34396Y-13211D02*
X34297Y-13243D01*
X34297Y-13243D02*
X34206Y-13295D01*
X34206Y-13295D02*
X34128Y-13365D01*
X34128Y-13365D02*
X34067Y-13450D01*
X34067Y-13450D02*
X34024Y-13545D01*
X34024Y-13545D02*
X34003Y-13648D01*
X34003Y-13648D02*
X34000Y-13700D01*
X35000Y-13750D02*
X35000Y-48750D01*
X34000Y-13750D02*
X34000Y-48750D01*
X29000Y-48800D02*
X29011Y-48904D01*
X29011Y-48904D02*
X29043Y-49003D01*
X29043Y-49003D02*
X29095Y-49094D01*
X29095Y-49094D02*
X29165Y-49172D01*
X29165Y-49172D02*
X29250Y-49233D01*
X29250Y-49233D02*
X29345Y-49276D01*
X29345Y-49276D02*
X29448Y-49297D01*
X29448Y-49297D02*
X29500Y-49300D01*
X29500Y-49300D02*
X29604Y-49289D01*
X29604Y-49289D02*
X29703Y-49257D01*
X29703Y-49257D02*
X29794Y-49205D01*
X29794Y-49205D02*
X29872Y-49135D01*
X29872Y-49135D02*
X29933Y-49050D01*
X29933Y-49050D02*
X29976Y-48955D01*
X29976Y-48955D02*
X29997Y-48852D01*
X29997Y-48852D02*
X30000Y-48800D01*
X30000Y-13700D02*
X29989Y-13596D01*
X29989Y-13596D02*
X29957Y-13497D01*
X29957Y-13497D02*
X29905Y-13406D01*
X29905Y-13406D02*
X29835Y-13328D01*
X29835Y-13328D02*
X29750Y-13267D01*
X29750Y-13267D02*
X29655Y-13224D01*
X29655Y-13224D02*
X29552Y-13203D01*
X29552Y-13203D02*
X29500Y-13200D01*
X29500Y-13200D02*
X29396Y-13211D01*
X29396Y-13211D02*
X29297Y-13243D01*
X29297Y-13243D02*
X29206Y-13295D01*
X29206Y-13295D02*
X29128Y-13365D01*
X29128Y-13365D02*
X29067Y-13450D01*
X29067Y-13450D02*
X29024Y-13545D01*
X29024Y-13545D02*
X29003Y-13648D01*
X29003Y-13648D02*
X29000Y-13700D01*
X30000Y-13750D02*
X30000Y-48750D01*
X29000Y-13750D02*
X29000Y-48750D01*
X24000Y-48800D02*
X24011Y-48904D01*
X24011Y-48904D02*
X24043Y-49003D01*
X24043Y-49003D02*
X24095Y-49094D01*
X24095Y-49094D02*
X24165Y-49172D01*
X24165Y-49172D02*
X24250Y-49233D01*
X24250Y-49233D02*
X24345Y-49276D01*
X24345Y-49276D02*
X24448Y-49297D01*
X24448Y-49297D02*
X24500Y-49300D01*
X24500Y-49300D02*
X24604Y-49289D01*
X24604Y-49289D02*
X24703Y-49257D01*
X24703Y-49257D02*
X24794Y-49205D01*
X24794Y-49205D02*
X24872Y-49135D01*
X24872Y-49135D02*
X24933Y-49050D01*
X24933Y-49050D02*
X24976Y-48955D01*
X24976Y-48955D02*
X24997Y-48852D01*
X24997Y-48852D02*
X25000Y-48800D01*
X25000Y-13700D02*
X24989Y-13596D01*
X24989Y-13596D02*
X24957Y-13497D01*
X24957Y-13497D02*
X24905Y-13406D01*
X24905Y-13406D02*
X24835Y-13328D01*
X24835Y-13328D02*
X24750Y-13267D01*
X24750Y-13267D02*
X24655Y-13224D01*
X24655Y-13224D02*
X24552Y-13203D01*
X24552Y-13203D02*
X24500Y-13200D01*
X24500Y-13200D02*
X24396Y-13211D01*
X24396Y-13211D02*
X24297Y-13243D01*
X24297Y-13243D02*
X24206Y-13295D01*
X24206Y-13295D02*
X24128Y-13365D01*
X24128Y-13365D02*
X24067Y-13450D01*
X24067Y-13450D02*
X24024Y-13545D01*
X24024Y-13545D02*
X24003Y-13648D01*
X24003Y-13648D02*
X24000Y-13700D01*
X25000Y-13750D02*
X25000Y-48750D01*
X24000Y-13750D02*
X24000Y-48750D01*
X19000Y-48800D02*
X19011Y-48904D01*
X19011Y-48904D02*
X19043Y-49003D01*
X19043Y-49003D02*
X19095Y-49094D01*
X19095Y-49094D02*
X19165Y-49172D01*
X19165Y-49172D02*
X19250Y-49233D01*
X19250Y-49233D02*
X19345Y-49276D01*
X19345Y-49276D02*
X19448Y-49297D01*
X19448Y-49297D02*
X19500Y-49300D01*
X19500Y-49300D02*
X19604Y-49289D01*
X19604Y-49289D02*
X19703Y-49257D01*
X19703Y-49257D02*
X19794Y-49205D01*
X19794Y-49205D02*
X19872Y-49135D01*
X19872Y-49135D02*
X19933Y-49050D01*
X19933Y-49050D02*
X19976Y-48955D01*
X19976Y-48955D02*
X19997Y-48852D01*
X19997Y-48852D02*
X20000Y-48800D01*
X20000Y-13700D02*
X19989Y-13596D01*
X19989Y-13596D02*
X19957Y-13497D01*
X19957Y-13497D02*
X19905Y-13406D01*
X19905Y-13406D02*
X19835Y-13328D01*
X19835Y-13328D02*
X19750Y-13267D01*
X19750Y-13267D02*
X19655Y-13224D01*
X19655Y-13224D02*
X19552Y-13203D01*
X19552Y-13203D02*
X19500Y-13200D01*
X19500Y-13200D02*
X19396Y-13211D01*
X19396Y-13211D02*
X19297Y-13243D01*
X19297Y-13243D02*
X19206Y-13295D01*
X19206Y-13295D02*
X19128Y-13365D01*
X19128Y-13365D02*
X19067Y-13450D01*
X19067Y-13450D02*
X19024Y-13545D01*
X19024Y-13545D02*
X19003Y-13648D01*
X19003Y-13648D02*
X19000Y-13700D01*
X20000Y-13750D02*
X20000Y-48750D01*
X19000Y-13750D02*
X19000Y-48750D01*
X15000Y-13700D02*
X14989Y-13596D01*
X14989Y-13596D02*
X14957Y-13497D01*
X14957Y-13497D02*
X14905Y-13406D01*
X14905Y-13406D02*
X14835Y-13328D01*
X14835Y-13328D02*
X14750Y-13267D01*
X14750Y-13267D02*
X14655Y-13224D01*
X14655Y-13224D02*
X14552Y-13203D01*
X14552Y-13203D02*
X14500Y-13200D01*
X14500Y-13200D02*
X14396Y-13211D01*
X14396Y-13211D02*
X14297Y-13243D01*
X14297Y-13243D02*
X14206Y-13295D01*
X14206Y-13295D02*
X14128Y-13365D01*
X14128Y-13365D02*
X14067Y-13450D01*
X14067Y-13450D02*
X14024Y-13545D01*
X14024Y-13545D02*
X14003Y-13648D01*
X14003Y-13648D02*
X14000Y-13700D01*
X14000Y-13750D02*
X14000Y-48750D01*
X14000Y-48800D02*
X14011Y-48904D01*
X14011Y-48904D02*
X14043Y-49003D01*
X14043Y-49003D02*
X14095Y-49094D01*
X14095Y-49094D02*
X14165Y-49172D01*
X14165Y-49172D02*
X14250Y-49233D01*
X14250Y-49233D02*
X14345Y-49276D01*
X14345Y-49276D02*
X14448Y-49297D01*
X14448Y-49297D02*
X14500Y-49300D01*
X14500Y-49300D02*
X14604Y-49289D01*
X14604Y-49289D02*
X14703Y-49257D01*
X14703Y-49257D02*
X14794Y-49205D01*
X14794Y-49205D02*
X14872Y-49135D01*
X14872Y-49135D02*
X14933Y-49050D01*
X14933Y-49050D02*
X14976Y-48955D01*
X14976Y-48955D02*
X14997Y-48852D01*
X14997Y-48852D02*
X15000Y-48800D01*
X15000Y-13750D02*
X15000Y-48750D01*
X10000Y-52500D02*
X64000Y-52500D01*
X10000Y-10000D02*
X64000Y-10000D01*
X10000Y-10000D02*
X10000Y-52500D01*
G54D17*
X62000Y-39167D03*
G54D18*
X62000Y-40167D03*
X62000Y-41167D03*
X62000Y-42167D03*
X62000Y-43167D03*
X62000Y-44167D03*
G54D17*
X62000Y-18333D03*
G54D18*
X62000Y-19333D03*
X62000Y-20333D03*
X62000Y-21333D03*
X62000Y-22333D03*
X62000Y-23333D03*
G54D17*
X57000Y-39167D03*
G54D18*
X57000Y-40167D03*
X57000Y-41167D03*
X57000Y-42167D03*
X57000Y-43167D03*
X57000Y-44167D03*
G54D17*
X57000Y-18333D03*
G54D18*
X57000Y-19333D03*
X57000Y-20333D03*
X57000Y-21333D03*
X57000Y-22333D03*
X57000Y-23333D03*
G54D17*
X52000Y-39167D03*
G54D18*
X52000Y-40167D03*
X52000Y-41167D03*
X52000Y-42167D03*
X52000Y-43167D03*
X52000Y-44167D03*
G54D17*
X52000Y-18333D03*
G54D18*
X52000Y-19333D03*
X52000Y-20333D03*
X52000Y-21333D03*
X52000Y-22333D03*
X52000Y-23333D03*
G54D17*
X47000Y-39167D03*
G54D18*
X47000Y-40167D03*
X47000Y-41167D03*
X47000Y-42167D03*
X47000Y-43167D03*
X47000Y-44167D03*
G54D17*
X47000Y-18333D03*
G54D18*
X47000Y-19333D03*
X47000Y-20333D03*
X47000Y-21333D03*
X47000Y-22333D03*
X47000Y-23333D03*
G54D17*
X42000Y-39167D03*
G54D18*
X42000Y-40167D03*
X42000Y-41167D03*
X42000Y-42167D03*
X42000Y-43167D03*
X42000Y-44167D03*
G54D17*
X42000Y-18333D03*
G54D18*
X42000Y-19333D03*
X42000Y-20333D03*
X42000Y-21333D03*
X42000Y-22333D03*
X42000Y-23333D03*
G54D17*
X37000Y-39167D03*
G54D18*
X37000Y-40167D03*
X37000Y-41167D03*
X37000Y-42167D03*
X37000Y-43167D03*
X37000Y-44167D03*
G54D17*
X37000Y-18333D03*
G54D18*
X37000Y-19333D03*
X37000Y-20333D03*
X37000Y-21333D03*
X37000Y-22333D03*
X37000Y-23333D03*
G54D17*
X32000Y-39167D03*
G54D18*
X32000Y-40167D03*
X32000Y-41167D03*
X32000Y-42167D03*
X32000Y-43167D03*
X32000Y-44167D03*
G54D17*
X32000Y-18333D03*
G54D18*
X32000Y-19333D03*
X32000Y-20333D03*
X32000Y-21333D03*
X32000Y-22333D03*
X32000Y-23333D03*
G54D17*
X27000Y-39167D03*
G54D18*
X27000Y-40167D03*
X27000Y-41167D03*
X27000Y-42167D03*
X27000Y-43167D03*
X27000Y-44167D03*
G54D17*
X27000Y-18333D03*
G54D18*
X27000Y-19333D03*
X27000Y-20333D03*
X27000Y-21333D03*
X27000Y-22333D03*
X27000Y-23333D03*
G54D17*
X22000Y-39167D03*
G54D18*
X22000Y-40167D03*
X22000Y-41167D03*
X22000Y-42167D03*
X22000Y-43167D03*
X22000Y-44167D03*
G54D17*
X22000Y-18333D03*
G54D18*
X22000Y-19333D03*
X22000Y-20333D03*
X22000Y-21333D03*
X22000Y-22333D03*
X22000Y-23333D03*
G54D17*
X17000Y-39167D03*
G54D18*
X17000Y-40167D03*
X17000Y-41167D03*
X17000Y-42167D03*
X17000Y-43167D03*
X17000Y-44167D03*
G54D17*
X17000Y-18333D03*
G54D18*
X17000Y-19333D03*
X17000Y-20333D03*
X17000Y-21333D03*
X17000Y-22333D03*
X17000Y-23333D03*
G54D17*
X12000Y-39167D03*
G54D18*
X12000Y-40167D03*
X12000Y-41167D03*
X12000Y-42167D03*
X12000Y-43167D03*
X12000Y-44167D03*
G54D17*
X12000Y-18333D03*
G54D18*
X12000Y-19333D03*
X12000Y-20333D03*
X12000Y-21333D03*
X12000Y-22333D03*
X12000Y-23333D03*
G54D19*
X62000Y-31750D03*
X57000Y-31750D03*
X52000Y-31750D03*
X47000Y-31750D03*
X42000Y-31750D03*
X37000Y-31750D03*
X32000Y-31750D03*
X27000Y-31750D03*
X22000Y-31750D03*
X17000Y-31750D03*
X12000Y-31750D03*
M02*
