G04 (created by PCBnew (20090216-final)) date Thu 19 May 2011 06:32:33 PM PDT*
G01*
G70*
G90*
%MOIN*%
G04 Gerber Fmt 3.4, Leading zero omitted, Abs format*
%FSLAX34Y34*%
G04 APERTURE LIST*
%ADD10C,0.015000*%
%ADD11R,0.060000X0.060000*%
%ADD12C,0.060000*%
%ADD13C,0.130000*%
%ADD14C,0.010000*%
%ADD15C,0.005000*%
%ADD16C,0.012000*%
%ADD17R,0.080000X0.080000*%
%ADD18C,0.080000*%
%ADD19C,0.150000*%
G04 APERTURE END LIST*
G54D10*
X10000Y-47500D02*
X64000Y-47500D01*
X10000Y-15000D02*
X64000Y-15000D01*
X58000Y-16500D02*
X57990Y-16597D01*
X57990Y-16597D02*
X57962Y-16690D01*
X57962Y-16690D02*
X57916Y-16776D01*
X57916Y-16776D02*
X57854Y-16852D01*
X57854Y-16852D02*
X57779Y-16914D01*
X57779Y-16914D02*
X57693Y-16960D01*
X57693Y-16960D02*
X57600Y-16989D01*
X57600Y-16989D02*
X57503Y-16999D01*
X57503Y-16999D02*
X57407Y-16991D01*
X57407Y-16991D02*
X57313Y-16963D01*
X57313Y-16963D02*
X57227Y-16918D01*
X57227Y-16918D02*
X57151Y-16857D01*
X57151Y-16857D02*
X57088Y-16782D01*
X57088Y-16782D02*
X57041Y-16696D01*
X57041Y-16696D02*
X57011Y-16603D01*
X57011Y-16603D02*
X57001Y-16506D01*
X57001Y-16506D02*
X57009Y-16410D01*
X57009Y-16410D02*
X57036Y-16316D01*
X57036Y-16316D02*
X57080Y-16230D01*
X57080Y-16230D02*
X57141Y-16153D01*
X57141Y-16153D02*
X57215Y-16090D01*
X57215Y-16090D02*
X57300Y-16042D01*
X57300Y-16042D02*
X57393Y-16012D01*
X57393Y-16012D02*
X57490Y-16001D01*
X57490Y-16001D02*
X57586Y-16008D01*
X57586Y-16008D02*
X57680Y-16034D01*
X57680Y-16034D02*
X57767Y-16078D01*
X57767Y-16078D02*
X57844Y-16138D01*
X57844Y-16138D02*
X57908Y-16212D01*
X57908Y-16212D02*
X57956Y-16297D01*
X57956Y-16297D02*
X57987Y-16390D01*
X57987Y-16390D02*
X57999Y-16487D01*
X57999Y-16487D02*
X58000Y-16500D01*
X48000Y-16500D02*
X47990Y-16597D01*
X47990Y-16597D02*
X47962Y-16690D01*
X47962Y-16690D02*
X47916Y-16776D01*
X47916Y-16776D02*
X47854Y-16852D01*
X47854Y-16852D02*
X47779Y-16914D01*
X47779Y-16914D02*
X47693Y-16960D01*
X47693Y-16960D02*
X47600Y-16989D01*
X47600Y-16989D02*
X47503Y-16999D01*
X47503Y-16999D02*
X47407Y-16991D01*
X47407Y-16991D02*
X47313Y-16963D01*
X47313Y-16963D02*
X47227Y-16918D01*
X47227Y-16918D02*
X47151Y-16857D01*
X47151Y-16857D02*
X47088Y-16782D01*
X47088Y-16782D02*
X47041Y-16696D01*
X47041Y-16696D02*
X47011Y-16603D01*
X47011Y-16603D02*
X47001Y-16506D01*
X47001Y-16506D02*
X47009Y-16410D01*
X47009Y-16410D02*
X47036Y-16316D01*
X47036Y-16316D02*
X47080Y-16230D01*
X47080Y-16230D02*
X47141Y-16153D01*
X47141Y-16153D02*
X47215Y-16090D01*
X47215Y-16090D02*
X47300Y-16042D01*
X47300Y-16042D02*
X47393Y-16012D01*
X47393Y-16012D02*
X47490Y-16001D01*
X47490Y-16001D02*
X47586Y-16008D01*
X47586Y-16008D02*
X47680Y-16034D01*
X47680Y-16034D02*
X47767Y-16078D01*
X47767Y-16078D02*
X47844Y-16138D01*
X47844Y-16138D02*
X47908Y-16212D01*
X47908Y-16212D02*
X47956Y-16297D01*
X47956Y-16297D02*
X47987Y-16390D01*
X47987Y-16390D02*
X47999Y-16487D01*
X47999Y-16487D02*
X48000Y-16500D01*
X38000Y-16500D02*
X37990Y-16597D01*
X37990Y-16597D02*
X37962Y-16690D01*
X37962Y-16690D02*
X37916Y-16776D01*
X37916Y-16776D02*
X37854Y-16852D01*
X37854Y-16852D02*
X37779Y-16914D01*
X37779Y-16914D02*
X37693Y-16960D01*
X37693Y-16960D02*
X37600Y-16989D01*
X37600Y-16989D02*
X37503Y-16999D01*
X37503Y-16999D02*
X37407Y-16991D01*
X37407Y-16991D02*
X37313Y-16963D01*
X37313Y-16963D02*
X37227Y-16918D01*
X37227Y-16918D02*
X37151Y-16857D01*
X37151Y-16857D02*
X37088Y-16782D01*
X37088Y-16782D02*
X37041Y-16696D01*
X37041Y-16696D02*
X37011Y-16603D01*
X37011Y-16603D02*
X37001Y-16506D01*
X37001Y-16506D02*
X37009Y-16410D01*
X37009Y-16410D02*
X37036Y-16316D01*
X37036Y-16316D02*
X37080Y-16230D01*
X37080Y-16230D02*
X37141Y-16153D01*
X37141Y-16153D02*
X37215Y-16090D01*
X37215Y-16090D02*
X37300Y-16042D01*
X37300Y-16042D02*
X37393Y-16012D01*
X37393Y-16012D02*
X37490Y-16001D01*
X37490Y-16001D02*
X37586Y-16008D01*
X37586Y-16008D02*
X37680Y-16034D01*
X37680Y-16034D02*
X37767Y-16078D01*
X37767Y-16078D02*
X37844Y-16138D01*
X37844Y-16138D02*
X37908Y-16212D01*
X37908Y-16212D02*
X37956Y-16297D01*
X37956Y-16297D02*
X37987Y-16390D01*
X37987Y-16390D02*
X37999Y-16487D01*
X37999Y-16487D02*
X38000Y-16500D01*
X28000Y-16500D02*
X27990Y-16597D01*
X27990Y-16597D02*
X27962Y-16690D01*
X27962Y-16690D02*
X27916Y-16776D01*
X27916Y-16776D02*
X27854Y-16852D01*
X27854Y-16852D02*
X27779Y-16914D01*
X27779Y-16914D02*
X27693Y-16960D01*
X27693Y-16960D02*
X27600Y-16989D01*
X27600Y-16989D02*
X27503Y-16999D01*
X27503Y-16999D02*
X27407Y-16991D01*
X27407Y-16991D02*
X27313Y-16963D01*
X27313Y-16963D02*
X27227Y-16918D01*
X27227Y-16918D02*
X27151Y-16857D01*
X27151Y-16857D02*
X27088Y-16782D01*
X27088Y-16782D02*
X27041Y-16696D01*
X27041Y-16696D02*
X27011Y-16603D01*
X27011Y-16603D02*
X27001Y-16506D01*
X27001Y-16506D02*
X27009Y-16410D01*
X27009Y-16410D02*
X27036Y-16316D01*
X27036Y-16316D02*
X27080Y-16230D01*
X27080Y-16230D02*
X27141Y-16153D01*
X27141Y-16153D02*
X27215Y-16090D01*
X27215Y-16090D02*
X27300Y-16042D01*
X27300Y-16042D02*
X27393Y-16012D01*
X27393Y-16012D02*
X27490Y-16001D01*
X27490Y-16001D02*
X27586Y-16008D01*
X27586Y-16008D02*
X27680Y-16034D01*
X27680Y-16034D02*
X27767Y-16078D01*
X27767Y-16078D02*
X27844Y-16138D01*
X27844Y-16138D02*
X27908Y-16212D01*
X27908Y-16212D02*
X27956Y-16297D01*
X27956Y-16297D02*
X27987Y-16390D01*
X27987Y-16390D02*
X27999Y-16487D01*
X27999Y-16487D02*
X28000Y-16500D01*
X18000Y-16500D02*
X17990Y-16597D01*
X17990Y-16597D02*
X17962Y-16690D01*
X17962Y-16690D02*
X17916Y-16776D01*
X17916Y-16776D02*
X17854Y-16852D01*
X17854Y-16852D02*
X17779Y-16914D01*
X17779Y-16914D02*
X17693Y-16960D01*
X17693Y-16960D02*
X17600Y-16989D01*
X17600Y-16989D02*
X17503Y-16999D01*
X17503Y-16999D02*
X17407Y-16991D01*
X17407Y-16991D02*
X17313Y-16963D01*
X17313Y-16963D02*
X17227Y-16918D01*
X17227Y-16918D02*
X17151Y-16857D01*
X17151Y-16857D02*
X17088Y-16782D01*
X17088Y-16782D02*
X17041Y-16696D01*
X17041Y-16696D02*
X17011Y-16603D01*
X17011Y-16603D02*
X17001Y-16506D01*
X17001Y-16506D02*
X17009Y-16410D01*
X17009Y-16410D02*
X17036Y-16316D01*
X17036Y-16316D02*
X17080Y-16230D01*
X17080Y-16230D02*
X17141Y-16153D01*
X17141Y-16153D02*
X17215Y-16090D01*
X17215Y-16090D02*
X17300Y-16042D01*
X17300Y-16042D02*
X17393Y-16012D01*
X17393Y-16012D02*
X17490Y-16001D01*
X17490Y-16001D02*
X17586Y-16008D01*
X17586Y-16008D02*
X17680Y-16034D01*
X17680Y-16034D02*
X17767Y-16078D01*
X17767Y-16078D02*
X17844Y-16138D01*
X17844Y-16138D02*
X17908Y-16212D01*
X17908Y-16212D02*
X17956Y-16297D01*
X17956Y-16297D02*
X17987Y-16390D01*
X17987Y-16390D02*
X17999Y-16487D01*
X17999Y-16487D02*
X18000Y-16500D01*
X64000Y-10000D02*
X64000Y-52500D01*
X59000Y-48800D02*
X59011Y-48904D01*
X59011Y-48904D02*
X59043Y-49003D01*
X59043Y-49003D02*
X59095Y-49094D01*
X59095Y-49094D02*
X59165Y-49172D01*
X59165Y-49172D02*
X59250Y-49233D01*
X59250Y-49233D02*
X59345Y-49276D01*
X59345Y-49276D02*
X59448Y-49297D01*
X59448Y-49297D02*
X59500Y-49300D01*
X59500Y-49300D02*
X59604Y-49289D01*
X59604Y-49289D02*
X59703Y-49257D01*
X59703Y-49257D02*
X59794Y-49205D01*
X59794Y-49205D02*
X59872Y-49135D01*
X59872Y-49135D02*
X59933Y-49050D01*
X59933Y-49050D02*
X59976Y-48955D01*
X59976Y-48955D02*
X59997Y-48852D01*
X59997Y-48852D02*
X60000Y-48800D01*
X60000Y-13700D02*
X59989Y-13596D01*
X59989Y-13596D02*
X59957Y-13497D01*
X59957Y-13497D02*
X59905Y-13406D01*
X59905Y-13406D02*
X59835Y-13328D01*
X59835Y-13328D02*
X59750Y-13267D01*
X59750Y-13267D02*
X59655Y-13224D01*
X59655Y-13224D02*
X59552Y-13203D01*
X59552Y-13203D02*
X59500Y-13200D01*
X59500Y-13200D02*
X59396Y-13211D01*
X59396Y-13211D02*
X59297Y-13243D01*
X59297Y-13243D02*
X59206Y-13295D01*
X59206Y-13295D02*
X59128Y-13365D01*
X59128Y-13365D02*
X59067Y-13450D01*
X59067Y-13450D02*
X59024Y-13545D01*
X59024Y-13545D02*
X59003Y-13648D01*
X59003Y-13648D02*
X59000Y-13700D01*
X60000Y-13750D02*
X60000Y-48750D01*
X59000Y-13750D02*
X59000Y-48750D01*
X54000Y-48800D02*
X54011Y-48904D01*
X54011Y-48904D02*
X54043Y-49003D01*
X54043Y-49003D02*
X54095Y-49094D01*
X54095Y-49094D02*
X54165Y-49172D01*
X54165Y-49172D02*
X54250Y-49233D01*
X54250Y-49233D02*
X54345Y-49276D01*
X54345Y-49276D02*
X54448Y-49297D01*
X54448Y-49297D02*
X54500Y-49300D01*
X54500Y-49300D02*
X54604Y-49289D01*
X54604Y-49289D02*
X54703Y-49257D01*
X54703Y-49257D02*
X54794Y-49205D01*
X54794Y-49205D02*
X54872Y-49135D01*
X54872Y-49135D02*
X54933Y-49050D01*
X54933Y-49050D02*
X54976Y-48955D01*
X54976Y-48955D02*
X54997Y-48852D01*
X54997Y-48852D02*
X55000Y-48800D01*
X55000Y-13700D02*
X54989Y-13596D01*
X54989Y-13596D02*
X54957Y-13497D01*
X54957Y-13497D02*
X54905Y-13406D01*
X54905Y-13406D02*
X54835Y-13328D01*
X54835Y-13328D02*
X54750Y-13267D01*
X54750Y-13267D02*
X54655Y-13224D01*
X54655Y-13224D02*
X54552Y-13203D01*
X54552Y-13203D02*
X54500Y-13200D01*
X54500Y-13200D02*
X54396Y-13211D01*
X54396Y-13211D02*
X54297Y-13243D01*
X54297Y-13243D02*
X54206Y-13295D01*
X54206Y-13295D02*
X54128Y-13365D01*
X54128Y-13365D02*
X54067Y-13450D01*
X54067Y-13450D02*
X54024Y-13545D01*
X54024Y-13545D02*
X54003Y-13648D01*
X54003Y-13648D02*
X54000Y-13700D01*
X55000Y-13750D02*
X55000Y-48750D01*
X54000Y-13750D02*
X54000Y-48750D01*
X49000Y-48800D02*
X49011Y-48904D01*
X49011Y-48904D02*
X49043Y-49003D01*
X49043Y-49003D02*
X49095Y-49094D01*
X49095Y-49094D02*
X49165Y-49172D01*
X49165Y-49172D02*
X49250Y-49233D01*
X49250Y-49233D02*
X49345Y-49276D01*
X49345Y-49276D02*
X49448Y-49297D01*
X49448Y-49297D02*
X49500Y-49300D01*
X49500Y-49300D02*
X49604Y-49289D01*
X49604Y-49289D02*
X49703Y-49257D01*
X49703Y-49257D02*
X49794Y-49205D01*
X49794Y-49205D02*
X49872Y-49135D01*
X49872Y-49135D02*
X49933Y-49050D01*
X49933Y-49050D02*
X49976Y-48955D01*
X49976Y-48955D02*
X49997Y-48852D01*
X49997Y-48852D02*
X50000Y-48800D01*
X50000Y-13700D02*
X49989Y-13596D01*
X49989Y-13596D02*
X49957Y-13497D01*
X49957Y-13497D02*
X49905Y-13406D01*
X49905Y-13406D02*
X49835Y-13328D01*
X49835Y-13328D02*
X49750Y-13267D01*
X49750Y-13267D02*
X49655Y-13224D01*
X49655Y-13224D02*
X49552Y-13203D01*
X49552Y-13203D02*
X49500Y-13200D01*
X49500Y-13200D02*
X49396Y-13211D01*
X49396Y-13211D02*
X49297Y-13243D01*
X49297Y-13243D02*
X49206Y-13295D01*
X49206Y-13295D02*
X49128Y-13365D01*
X49128Y-13365D02*
X49067Y-13450D01*
X49067Y-13450D02*
X49024Y-13545D01*
X49024Y-13545D02*
X49003Y-13648D01*
X49003Y-13648D02*
X49000Y-13700D01*
X50000Y-13750D02*
X50000Y-48750D01*
X49000Y-13750D02*
X49000Y-48750D01*
X44000Y-48800D02*
X44011Y-48904D01*
X44011Y-48904D02*
X44043Y-49003D01*
X44043Y-49003D02*
X44095Y-49094D01*
X44095Y-49094D02*
X44165Y-49172D01*
X44165Y-49172D02*
X44250Y-49233D01*
X44250Y-49233D02*
X44345Y-49276D01*
X44345Y-49276D02*
X44448Y-49297D01*
X44448Y-49297D02*
X44500Y-49300D01*
X44500Y-49300D02*
X44604Y-49289D01*
X44604Y-49289D02*
X44703Y-49257D01*
X44703Y-49257D02*
X44794Y-49205D01*
X44794Y-49205D02*
X44872Y-49135D01*
X44872Y-49135D02*
X44933Y-49050D01*
X44933Y-49050D02*
X44976Y-48955D01*
X44976Y-48955D02*
X44997Y-48852D01*
X44997Y-48852D02*
X45000Y-48800D01*
X45000Y-13700D02*
X44989Y-13596D01*
X44989Y-13596D02*
X44957Y-13497D01*
X44957Y-13497D02*
X44905Y-13406D01*
X44905Y-13406D02*
X44835Y-13328D01*
X44835Y-13328D02*
X44750Y-13267D01*
X44750Y-13267D02*
X44655Y-13224D01*
X44655Y-13224D02*
X44552Y-13203D01*
X44552Y-13203D02*
X44500Y-13200D01*
X44500Y-13200D02*
X44396Y-13211D01*
X44396Y-13211D02*
X44297Y-13243D01*
X44297Y-13243D02*
X44206Y-13295D01*
X44206Y-13295D02*
X44128Y-13365D01*
X44128Y-13365D02*
X44067Y-13450D01*
X44067Y-13450D02*
X44024Y-13545D01*
X44024Y-13545D02*
X44003Y-13648D01*
X44003Y-13648D02*
X44000Y-13700D01*
X45000Y-13750D02*
X45000Y-48750D01*
X44000Y-13750D02*
X44000Y-48750D01*
X39000Y-48800D02*
X39011Y-48904D01*
X39011Y-48904D02*
X39043Y-49003D01*
X39043Y-49003D02*
X39095Y-49094D01*
X39095Y-49094D02*
X39165Y-49172D01*
X39165Y-49172D02*
X39250Y-49233D01*
X39250Y-49233D02*
X39345Y-49276D01*
X39345Y-49276D02*
X39448Y-49297D01*
X39448Y-49297D02*
X39500Y-49300D01*
X39500Y-49300D02*
X39604Y-49289D01*
X39604Y-49289D02*
X39703Y-49257D01*
X39703Y-49257D02*
X39794Y-49205D01*
X39794Y-49205D02*
X39872Y-49135D01*
X39872Y-49135D02*
X39933Y-49050D01*
X39933Y-49050D02*
X39976Y-48955D01*
X39976Y-48955D02*
X39997Y-48852D01*
X39997Y-48852D02*
X40000Y-48800D01*
X40000Y-13700D02*
X39989Y-13596D01*
X39989Y-13596D02*
X39957Y-13497D01*
X39957Y-13497D02*
X39905Y-13406D01*
X39905Y-13406D02*
X39835Y-13328D01*
X39835Y-13328D02*
X39750Y-13267D01*
X39750Y-13267D02*
X39655Y-13224D01*
X39655Y-13224D02*
X39552Y-13203D01*
X39552Y-13203D02*
X39500Y-13200D01*
X39500Y-13200D02*
X39396Y-13211D01*
X39396Y-13211D02*
X39297Y-13243D01*
X39297Y-13243D02*
X39206Y-13295D01*
X39206Y-13295D02*
X39128Y-13365D01*
X39128Y-13365D02*
X39067Y-13450D01*
X39067Y-13450D02*
X39024Y-13545D01*
X39024Y-13545D02*
X39003Y-13648D01*
X39003Y-13648D02*
X39000Y-13700D01*
X40000Y-13750D02*
X40000Y-48750D01*
X39000Y-13750D02*
X39000Y-48750D01*
X34000Y-48800D02*
X34011Y-48904D01*
X34011Y-48904D02*
X34043Y-49003D01*
X34043Y-49003D02*
X34095Y-49094D01*
X34095Y-49094D02*
X34165Y-49172D01*
X34165Y-49172D02*
X34250Y-49233D01*
X34250Y-49233D02*
X34345Y-49276D01*
X34345Y-49276D02*
X34448Y-49297D01*
X34448Y-49297D02*
X34500Y-49300D01*
X34500Y-49300D02*
X34604Y-49289D01*
X34604Y-49289D02*
X34703Y-49257D01*
X34703Y-49257D02*
X34794Y-49205D01*
X34794Y-49205D02*
X34872Y-49135D01*
X34872Y-49135D02*
X34933Y-49050D01*
X34933Y-49050D02*
X34976Y-48955D01*
X34976Y-48955D02*
X34997Y-48852D01*
X34997Y-48852D02*
X35000Y-48800D01*
X35000Y-13700D02*
X34989Y-13596D01*
X34989Y-13596D02*
X34957Y-13497D01*
X34957Y-13497D02*
X34905Y-13406D01*
X34905Y-13406D02*
X34835Y-13328D01*
X34835Y-13328D02*
X34750Y-13267D01*
X34750Y-13267D02*
X34655Y-13224D01*
X34655Y-13224D02*
X34552Y-13203D01*
X34552Y-13203D02*
X34500Y-13200D01*
X34500Y-13200D02*
X34396Y-13211D01*
X34396Y-13211D02*
X34297Y-13243D01*
X34297Y-13243D02*
X34206Y-13295D01*
X34206Y-13295D02*
X34128Y-13365D01*
X34128Y-13365D02*
X34067Y-13450D01*
X34067Y-13450D02*
X34024Y-13545D01*
X34024Y-13545D02*
X34003Y-13648D01*
X34003Y-13648D02*
X34000Y-13700D01*
X35000Y-13750D02*
X35000Y-48750D01*
X34000Y-13750D02*
X34000Y-48750D01*
X29000Y-48800D02*
X29011Y-48904D01*
X29011Y-48904D02*
X29043Y-49003D01*
X29043Y-49003D02*
X29095Y-49094D01*
X29095Y-49094D02*
X29165Y-49172D01*
X29165Y-49172D02*
X29250Y-49233D01*
X29250Y-49233D02*
X29345Y-49276D01*
X29345Y-49276D02*
X29448Y-49297D01*
X29448Y-49297D02*
X29500Y-49300D01*
X29500Y-49300D02*
X29604Y-49289D01*
X29604Y-49289D02*
X29703Y-49257D01*
X29703Y-49257D02*
X29794Y-49205D01*
X29794Y-49205D02*
X29872Y-49135D01*
X29872Y-49135D02*
X29933Y-49050D01*
X29933Y-49050D02*
X29976Y-48955D01*
X29976Y-48955D02*
X29997Y-48852D01*
X29997Y-48852D02*
X30000Y-48800D01*
X30000Y-13700D02*
X29989Y-13596D01*
X29989Y-13596D02*
X29957Y-13497D01*
X29957Y-13497D02*
X29905Y-13406D01*
X29905Y-13406D02*
X29835Y-13328D01*
X29835Y-13328D02*
X29750Y-13267D01*
X29750Y-13267D02*
X29655Y-13224D01*
X29655Y-13224D02*
X29552Y-13203D01*
X29552Y-13203D02*
X29500Y-13200D01*
X29500Y-13200D02*
X29396Y-13211D01*
X29396Y-13211D02*
X29297Y-13243D01*
X29297Y-13243D02*
X29206Y-13295D01*
X29206Y-13295D02*
X29128Y-13365D01*
X29128Y-13365D02*
X29067Y-13450D01*
X29067Y-13450D02*
X29024Y-13545D01*
X29024Y-13545D02*
X29003Y-13648D01*
X29003Y-13648D02*
X29000Y-13700D01*
X30000Y-13750D02*
X30000Y-48750D01*
X29000Y-13750D02*
X29000Y-48750D01*
X24000Y-48800D02*
X24011Y-48904D01*
X24011Y-48904D02*
X24043Y-49003D01*
X24043Y-49003D02*
X24095Y-49094D01*
X24095Y-49094D02*
X24165Y-49172D01*
X24165Y-49172D02*
X24250Y-49233D01*
X24250Y-49233D02*
X24345Y-49276D01*
X24345Y-49276D02*
X24448Y-49297D01*
X24448Y-49297D02*
X24500Y-49300D01*
X24500Y-49300D02*
X24604Y-49289D01*
X24604Y-49289D02*
X24703Y-49257D01*
X24703Y-49257D02*
X24794Y-49205D01*
X24794Y-49205D02*
X24872Y-49135D01*
X24872Y-49135D02*
X24933Y-49050D01*
X24933Y-49050D02*
X24976Y-48955D01*
X24976Y-48955D02*
X24997Y-48852D01*
X24997Y-48852D02*
X25000Y-48800D01*
X25000Y-13700D02*
X24989Y-13596D01*
X24989Y-13596D02*
X24957Y-13497D01*
X24957Y-13497D02*
X24905Y-13406D01*
X24905Y-13406D02*
X24835Y-13328D01*
X24835Y-13328D02*
X24750Y-13267D01*
X24750Y-13267D02*
X24655Y-13224D01*
X24655Y-13224D02*
X24552Y-13203D01*
X24552Y-13203D02*
X24500Y-13200D01*
X24500Y-13200D02*
X24396Y-13211D01*
X24396Y-13211D02*
X24297Y-13243D01*
X24297Y-13243D02*
X24206Y-13295D01*
X24206Y-13295D02*
X24128Y-13365D01*
X24128Y-13365D02*
X24067Y-13450D01*
X24067Y-13450D02*
X24024Y-13545D01*
X24024Y-13545D02*
X24003Y-13648D01*
X24003Y-13648D02*
X24000Y-13700D01*
X25000Y-13750D02*
X25000Y-48750D01*
X24000Y-13750D02*
X24000Y-48750D01*
X19000Y-48800D02*
X19011Y-48904D01*
X19011Y-48904D02*
X19043Y-49003D01*
X19043Y-49003D02*
X19095Y-49094D01*
X19095Y-49094D02*
X19165Y-49172D01*
X19165Y-49172D02*
X19250Y-49233D01*
X19250Y-49233D02*
X19345Y-49276D01*
X19345Y-49276D02*
X19448Y-49297D01*
X19448Y-49297D02*
X19500Y-49300D01*
X19500Y-49300D02*
X19604Y-49289D01*
X19604Y-49289D02*
X19703Y-49257D01*
X19703Y-49257D02*
X19794Y-49205D01*
X19794Y-49205D02*
X19872Y-49135D01*
X19872Y-49135D02*
X19933Y-49050D01*
X19933Y-49050D02*
X19976Y-48955D01*
X19976Y-48955D02*
X19997Y-48852D01*
X19997Y-48852D02*
X20000Y-48800D01*
X20000Y-13700D02*
X19989Y-13596D01*
X19989Y-13596D02*
X19957Y-13497D01*
X19957Y-13497D02*
X19905Y-13406D01*
X19905Y-13406D02*
X19835Y-13328D01*
X19835Y-13328D02*
X19750Y-13267D01*
X19750Y-13267D02*
X19655Y-13224D01*
X19655Y-13224D02*
X19552Y-13203D01*
X19552Y-13203D02*
X19500Y-13200D01*
X19500Y-13200D02*
X19396Y-13211D01*
X19396Y-13211D02*
X19297Y-13243D01*
X19297Y-13243D02*
X19206Y-13295D01*
X19206Y-13295D02*
X19128Y-13365D01*
X19128Y-13365D02*
X19067Y-13450D01*
X19067Y-13450D02*
X19024Y-13545D01*
X19024Y-13545D02*
X19003Y-13648D01*
X19003Y-13648D02*
X19000Y-13700D01*
X20000Y-13750D02*
X20000Y-48750D01*
X19000Y-13750D02*
X19000Y-48750D01*
X15000Y-13700D02*
X14989Y-13596D01*
X14989Y-13596D02*
X14957Y-13497D01*
X14957Y-13497D02*
X14905Y-13406D01*
X14905Y-13406D02*
X14835Y-13328D01*
X14835Y-13328D02*
X14750Y-13267D01*
X14750Y-13267D02*
X14655Y-13224D01*
X14655Y-13224D02*
X14552Y-13203D01*
X14552Y-13203D02*
X14500Y-13200D01*
X14500Y-13200D02*
X14396Y-13211D01*
X14396Y-13211D02*
X14297Y-13243D01*
X14297Y-13243D02*
X14206Y-13295D01*
X14206Y-13295D02*
X14128Y-13365D01*
X14128Y-13365D02*
X14067Y-13450D01*
X14067Y-13450D02*
X14024Y-13545D01*
X14024Y-13545D02*
X14003Y-13648D01*
X14003Y-13648D02*
X14000Y-13700D01*
X14000Y-13750D02*
X14000Y-48750D01*
X14000Y-48800D02*
X14011Y-48904D01*
X14011Y-48904D02*
X14043Y-49003D01*
X14043Y-49003D02*
X14095Y-49094D01*
X14095Y-49094D02*
X14165Y-49172D01*
X14165Y-49172D02*
X14250Y-49233D01*
X14250Y-49233D02*
X14345Y-49276D01*
X14345Y-49276D02*
X14448Y-49297D01*
X14448Y-49297D02*
X14500Y-49300D01*
X14500Y-49300D02*
X14604Y-49289D01*
X14604Y-49289D02*
X14703Y-49257D01*
X14703Y-49257D02*
X14794Y-49205D01*
X14794Y-49205D02*
X14872Y-49135D01*
X14872Y-49135D02*
X14933Y-49050D01*
X14933Y-49050D02*
X14976Y-48955D01*
X14976Y-48955D02*
X14997Y-48852D01*
X14997Y-48852D02*
X15000Y-48800D01*
X15000Y-13750D02*
X15000Y-48750D01*
X10000Y-52500D02*
X64000Y-52500D01*
X10000Y-10000D02*
X64000Y-10000D01*
X10000Y-10000D02*
X10000Y-52500D01*
G54D16*
X61500Y-37000D02*
X62500Y-37000D01*
X62500Y-37000D02*
X62500Y-43000D01*
X62500Y-43000D02*
X61500Y-43000D01*
X61500Y-43000D02*
X61500Y-37000D01*
X61500Y-38000D02*
X62500Y-38000D01*
X61500Y-19500D02*
X62500Y-19500D01*
X62500Y-19500D02*
X62500Y-25500D01*
X62500Y-25500D02*
X61500Y-25500D01*
X61500Y-25500D02*
X61500Y-19500D01*
X61500Y-20500D02*
X62500Y-20500D01*
X56500Y-37000D02*
X57500Y-37000D01*
X57500Y-37000D02*
X57500Y-43000D01*
X57500Y-43000D02*
X56500Y-43000D01*
X56500Y-43000D02*
X56500Y-37000D01*
X56500Y-38000D02*
X57500Y-38000D01*
X56500Y-19500D02*
X57500Y-19500D01*
X57500Y-19500D02*
X57500Y-25500D01*
X57500Y-25500D02*
X56500Y-25500D01*
X56500Y-25500D02*
X56500Y-19500D01*
X56500Y-20500D02*
X57500Y-20500D01*
X51500Y-37000D02*
X52500Y-37000D01*
X52500Y-37000D02*
X52500Y-43000D01*
X52500Y-43000D02*
X51500Y-43000D01*
X51500Y-43000D02*
X51500Y-37000D01*
X51500Y-38000D02*
X52500Y-38000D01*
X51500Y-19500D02*
X52500Y-19500D01*
X52500Y-19500D02*
X52500Y-25500D01*
X52500Y-25500D02*
X51500Y-25500D01*
X51500Y-25500D02*
X51500Y-19500D01*
X51500Y-20500D02*
X52500Y-20500D01*
X46500Y-37000D02*
X47500Y-37000D01*
X47500Y-37000D02*
X47500Y-43000D01*
X47500Y-43000D02*
X46500Y-43000D01*
X46500Y-43000D02*
X46500Y-37000D01*
X46500Y-38000D02*
X47500Y-38000D01*
X46500Y-19500D02*
X47500Y-19500D01*
X47500Y-19500D02*
X47500Y-25500D01*
X47500Y-25500D02*
X46500Y-25500D01*
X46500Y-25500D02*
X46500Y-19500D01*
X46500Y-20500D02*
X47500Y-20500D01*
X41500Y-37000D02*
X42500Y-37000D01*
X42500Y-37000D02*
X42500Y-43000D01*
X42500Y-43000D02*
X41500Y-43000D01*
X41500Y-43000D02*
X41500Y-37000D01*
X41500Y-38000D02*
X42500Y-38000D01*
X41500Y-19500D02*
X42500Y-19500D01*
X42500Y-19500D02*
X42500Y-25500D01*
X42500Y-25500D02*
X41500Y-25500D01*
X41500Y-25500D02*
X41500Y-19500D01*
X41500Y-20500D02*
X42500Y-20500D01*
X36500Y-37000D02*
X37500Y-37000D01*
X37500Y-37000D02*
X37500Y-43000D01*
X37500Y-43000D02*
X36500Y-43000D01*
X36500Y-43000D02*
X36500Y-37000D01*
X36500Y-38000D02*
X37500Y-38000D01*
X36500Y-19500D02*
X37500Y-19500D01*
X37500Y-19500D02*
X37500Y-25500D01*
X37500Y-25500D02*
X36500Y-25500D01*
X36500Y-25500D02*
X36500Y-19500D01*
X36500Y-20500D02*
X37500Y-20500D01*
X31500Y-37000D02*
X32500Y-37000D01*
X32500Y-37000D02*
X32500Y-43000D01*
X32500Y-43000D02*
X31500Y-43000D01*
X31500Y-43000D02*
X31500Y-37000D01*
X31500Y-38000D02*
X32500Y-38000D01*
X31500Y-19500D02*
X32500Y-19500D01*
X32500Y-19500D02*
X32500Y-25500D01*
X32500Y-25500D02*
X31500Y-25500D01*
X31500Y-25500D02*
X31500Y-19500D01*
X31500Y-20500D02*
X32500Y-20500D01*
X26500Y-37000D02*
X27500Y-37000D01*
X27500Y-37000D02*
X27500Y-43000D01*
X27500Y-43000D02*
X26500Y-43000D01*
X26500Y-43000D02*
X26500Y-37000D01*
X26500Y-38000D02*
X27500Y-38000D01*
X26500Y-19500D02*
X27500Y-19500D01*
X27500Y-19500D02*
X27500Y-25500D01*
X27500Y-25500D02*
X26500Y-25500D01*
X26500Y-25500D02*
X26500Y-19500D01*
X26500Y-20500D02*
X27500Y-20500D01*
X21500Y-37000D02*
X22500Y-37000D01*
X22500Y-37000D02*
X22500Y-43000D01*
X22500Y-43000D02*
X21500Y-43000D01*
X21500Y-43000D02*
X21500Y-37000D01*
X21500Y-38000D02*
X22500Y-38000D01*
X21500Y-19500D02*
X22500Y-19500D01*
X22500Y-19500D02*
X22500Y-25500D01*
X22500Y-25500D02*
X21500Y-25500D01*
X21500Y-25500D02*
X21500Y-19500D01*
X21500Y-20500D02*
X22500Y-20500D01*
X16500Y-37000D02*
X17500Y-37000D01*
X17500Y-37000D02*
X17500Y-43000D01*
X17500Y-43000D02*
X16500Y-43000D01*
X16500Y-43000D02*
X16500Y-37000D01*
X16500Y-38000D02*
X17500Y-38000D01*
X16500Y-19500D02*
X17500Y-19500D01*
X17500Y-19500D02*
X17500Y-25500D01*
X17500Y-25500D02*
X16500Y-25500D01*
X16500Y-25500D02*
X16500Y-19500D01*
X16500Y-20500D02*
X17500Y-20500D01*
X11500Y-37000D02*
X12500Y-37000D01*
X12500Y-37000D02*
X12500Y-43000D01*
X12500Y-43000D02*
X11500Y-43000D01*
X11500Y-43000D02*
X11500Y-37000D01*
X11500Y-38000D02*
X12500Y-38000D01*
X11500Y-19500D02*
X12500Y-19500D01*
X12500Y-19500D02*
X12500Y-25500D01*
X12500Y-25500D02*
X11500Y-25500D01*
X11500Y-25500D02*
X11500Y-19500D01*
X11500Y-20500D02*
X12500Y-20500D01*
G54D15*
X61700Y-37200D02*
X62300Y-37200D01*
X62300Y-37200D02*
X62300Y-37800D01*
X62300Y-37800D02*
X61700Y-37800D01*
X61700Y-37800D02*
X61700Y-37200D01*
X62300Y-38500D02*
X62294Y-38558D01*
X62294Y-38558D02*
X62277Y-38614D01*
X62277Y-38614D02*
X62249Y-38666D01*
X62249Y-38666D02*
X62212Y-38711D01*
X62212Y-38711D02*
X62167Y-38748D01*
X62167Y-38748D02*
X62116Y-38776D01*
X62116Y-38776D02*
X62060Y-38793D01*
X62060Y-38793D02*
X62002Y-38799D01*
X62002Y-38799D02*
X61944Y-38794D01*
X61944Y-38794D02*
X61888Y-38778D01*
X61888Y-38778D02*
X61836Y-38751D01*
X61836Y-38751D02*
X61791Y-38714D01*
X61791Y-38714D02*
X61753Y-38669D01*
X61753Y-38669D02*
X61725Y-38618D01*
X61725Y-38618D02*
X61707Y-38562D01*
X61707Y-38562D02*
X61701Y-38504D01*
X61701Y-38504D02*
X61705Y-38446D01*
X61705Y-38446D02*
X61722Y-38390D01*
X61722Y-38390D02*
X61748Y-38338D01*
X61748Y-38338D02*
X61785Y-38292D01*
X61785Y-38292D02*
X61829Y-38254D01*
X61829Y-38254D02*
X61880Y-38226D01*
X61880Y-38226D02*
X61936Y-38207D01*
X61936Y-38207D02*
X61994Y-38201D01*
X61994Y-38201D02*
X62052Y-38205D01*
X62052Y-38205D02*
X62108Y-38221D01*
X62108Y-38221D02*
X62160Y-38247D01*
X62160Y-38247D02*
X62206Y-38283D01*
X62206Y-38283D02*
X62245Y-38328D01*
X62245Y-38328D02*
X62274Y-38378D01*
X62274Y-38378D02*
X62292Y-38434D01*
X62292Y-38434D02*
X62299Y-38492D01*
X62299Y-38492D02*
X62300Y-38500D01*
X62300Y-39500D02*
X62294Y-39558D01*
X62294Y-39558D02*
X62277Y-39614D01*
X62277Y-39614D02*
X62249Y-39666D01*
X62249Y-39666D02*
X62212Y-39711D01*
X62212Y-39711D02*
X62167Y-39748D01*
X62167Y-39748D02*
X62116Y-39776D01*
X62116Y-39776D02*
X62060Y-39793D01*
X62060Y-39793D02*
X62002Y-39799D01*
X62002Y-39799D02*
X61944Y-39794D01*
X61944Y-39794D02*
X61888Y-39778D01*
X61888Y-39778D02*
X61836Y-39751D01*
X61836Y-39751D02*
X61791Y-39714D01*
X61791Y-39714D02*
X61753Y-39669D01*
X61753Y-39669D02*
X61725Y-39618D01*
X61725Y-39618D02*
X61707Y-39562D01*
X61707Y-39562D02*
X61701Y-39504D01*
X61701Y-39504D02*
X61705Y-39446D01*
X61705Y-39446D02*
X61722Y-39390D01*
X61722Y-39390D02*
X61748Y-39338D01*
X61748Y-39338D02*
X61785Y-39292D01*
X61785Y-39292D02*
X61829Y-39254D01*
X61829Y-39254D02*
X61880Y-39226D01*
X61880Y-39226D02*
X61936Y-39207D01*
X61936Y-39207D02*
X61994Y-39201D01*
X61994Y-39201D02*
X62052Y-39205D01*
X62052Y-39205D02*
X62108Y-39221D01*
X62108Y-39221D02*
X62160Y-39247D01*
X62160Y-39247D02*
X62206Y-39283D01*
X62206Y-39283D02*
X62245Y-39328D01*
X62245Y-39328D02*
X62274Y-39378D01*
X62274Y-39378D02*
X62292Y-39434D01*
X62292Y-39434D02*
X62299Y-39492D01*
X62299Y-39492D02*
X62300Y-39500D01*
X62300Y-40500D02*
X62294Y-40558D01*
X62294Y-40558D02*
X62277Y-40614D01*
X62277Y-40614D02*
X62249Y-40666D01*
X62249Y-40666D02*
X62212Y-40711D01*
X62212Y-40711D02*
X62167Y-40748D01*
X62167Y-40748D02*
X62116Y-40776D01*
X62116Y-40776D02*
X62060Y-40793D01*
X62060Y-40793D02*
X62002Y-40799D01*
X62002Y-40799D02*
X61944Y-40794D01*
X61944Y-40794D02*
X61888Y-40778D01*
X61888Y-40778D02*
X61836Y-40751D01*
X61836Y-40751D02*
X61791Y-40714D01*
X61791Y-40714D02*
X61753Y-40669D01*
X61753Y-40669D02*
X61725Y-40618D01*
X61725Y-40618D02*
X61707Y-40562D01*
X61707Y-40562D02*
X61701Y-40504D01*
X61701Y-40504D02*
X61705Y-40446D01*
X61705Y-40446D02*
X61722Y-40390D01*
X61722Y-40390D02*
X61748Y-40338D01*
X61748Y-40338D02*
X61785Y-40292D01*
X61785Y-40292D02*
X61829Y-40254D01*
X61829Y-40254D02*
X61880Y-40226D01*
X61880Y-40226D02*
X61936Y-40207D01*
X61936Y-40207D02*
X61994Y-40201D01*
X61994Y-40201D02*
X62052Y-40205D01*
X62052Y-40205D02*
X62108Y-40221D01*
X62108Y-40221D02*
X62160Y-40247D01*
X62160Y-40247D02*
X62206Y-40283D01*
X62206Y-40283D02*
X62245Y-40328D01*
X62245Y-40328D02*
X62274Y-40378D01*
X62274Y-40378D02*
X62292Y-40434D01*
X62292Y-40434D02*
X62299Y-40492D01*
X62299Y-40492D02*
X62300Y-40500D01*
X62300Y-41500D02*
X62294Y-41558D01*
X62294Y-41558D02*
X62277Y-41614D01*
X62277Y-41614D02*
X62249Y-41666D01*
X62249Y-41666D02*
X62212Y-41711D01*
X62212Y-41711D02*
X62167Y-41748D01*
X62167Y-41748D02*
X62116Y-41776D01*
X62116Y-41776D02*
X62060Y-41793D01*
X62060Y-41793D02*
X62002Y-41799D01*
X62002Y-41799D02*
X61944Y-41794D01*
X61944Y-41794D02*
X61888Y-41778D01*
X61888Y-41778D02*
X61836Y-41751D01*
X61836Y-41751D02*
X61791Y-41714D01*
X61791Y-41714D02*
X61753Y-41669D01*
X61753Y-41669D02*
X61725Y-41618D01*
X61725Y-41618D02*
X61707Y-41562D01*
X61707Y-41562D02*
X61701Y-41504D01*
X61701Y-41504D02*
X61705Y-41446D01*
X61705Y-41446D02*
X61722Y-41390D01*
X61722Y-41390D02*
X61748Y-41338D01*
X61748Y-41338D02*
X61785Y-41292D01*
X61785Y-41292D02*
X61829Y-41254D01*
X61829Y-41254D02*
X61880Y-41226D01*
X61880Y-41226D02*
X61936Y-41207D01*
X61936Y-41207D02*
X61994Y-41201D01*
X61994Y-41201D02*
X62052Y-41205D01*
X62052Y-41205D02*
X62108Y-41221D01*
X62108Y-41221D02*
X62160Y-41247D01*
X62160Y-41247D02*
X62206Y-41283D01*
X62206Y-41283D02*
X62245Y-41328D01*
X62245Y-41328D02*
X62274Y-41378D01*
X62274Y-41378D02*
X62292Y-41434D01*
X62292Y-41434D02*
X62299Y-41492D01*
X62299Y-41492D02*
X62300Y-41500D01*
X62300Y-42500D02*
X62294Y-42558D01*
X62294Y-42558D02*
X62277Y-42614D01*
X62277Y-42614D02*
X62249Y-42666D01*
X62249Y-42666D02*
X62212Y-42711D01*
X62212Y-42711D02*
X62167Y-42748D01*
X62167Y-42748D02*
X62116Y-42776D01*
X62116Y-42776D02*
X62060Y-42793D01*
X62060Y-42793D02*
X62002Y-42799D01*
X62002Y-42799D02*
X61944Y-42794D01*
X61944Y-42794D02*
X61888Y-42778D01*
X61888Y-42778D02*
X61836Y-42751D01*
X61836Y-42751D02*
X61791Y-42714D01*
X61791Y-42714D02*
X61753Y-42669D01*
X61753Y-42669D02*
X61725Y-42618D01*
X61725Y-42618D02*
X61707Y-42562D01*
X61707Y-42562D02*
X61701Y-42504D01*
X61701Y-42504D02*
X61705Y-42446D01*
X61705Y-42446D02*
X61722Y-42390D01*
X61722Y-42390D02*
X61748Y-42338D01*
X61748Y-42338D02*
X61785Y-42292D01*
X61785Y-42292D02*
X61829Y-42254D01*
X61829Y-42254D02*
X61880Y-42226D01*
X61880Y-42226D02*
X61936Y-42207D01*
X61936Y-42207D02*
X61994Y-42201D01*
X61994Y-42201D02*
X62052Y-42205D01*
X62052Y-42205D02*
X62108Y-42221D01*
X62108Y-42221D02*
X62160Y-42247D01*
X62160Y-42247D02*
X62206Y-42283D01*
X62206Y-42283D02*
X62245Y-42328D01*
X62245Y-42328D02*
X62274Y-42378D01*
X62274Y-42378D02*
X62292Y-42434D01*
X62292Y-42434D02*
X62299Y-42492D01*
X62299Y-42492D02*
X62300Y-42500D01*
X61700Y-19700D02*
X62300Y-19700D01*
X62300Y-19700D02*
X62300Y-20300D01*
X62300Y-20300D02*
X61700Y-20300D01*
X61700Y-20300D02*
X61700Y-19700D01*
X62300Y-21000D02*
X62294Y-21058D01*
X62294Y-21058D02*
X62277Y-21114D01*
X62277Y-21114D02*
X62249Y-21166D01*
X62249Y-21166D02*
X62212Y-21211D01*
X62212Y-21211D02*
X62167Y-21248D01*
X62167Y-21248D02*
X62116Y-21276D01*
X62116Y-21276D02*
X62060Y-21293D01*
X62060Y-21293D02*
X62002Y-21299D01*
X62002Y-21299D02*
X61944Y-21294D01*
X61944Y-21294D02*
X61888Y-21278D01*
X61888Y-21278D02*
X61836Y-21251D01*
X61836Y-21251D02*
X61791Y-21214D01*
X61791Y-21214D02*
X61753Y-21169D01*
X61753Y-21169D02*
X61725Y-21118D01*
X61725Y-21118D02*
X61707Y-21062D01*
X61707Y-21062D02*
X61701Y-21004D01*
X61701Y-21004D02*
X61705Y-20946D01*
X61705Y-20946D02*
X61722Y-20890D01*
X61722Y-20890D02*
X61748Y-20838D01*
X61748Y-20838D02*
X61785Y-20792D01*
X61785Y-20792D02*
X61829Y-20754D01*
X61829Y-20754D02*
X61880Y-20726D01*
X61880Y-20726D02*
X61936Y-20707D01*
X61936Y-20707D02*
X61994Y-20701D01*
X61994Y-20701D02*
X62052Y-20705D01*
X62052Y-20705D02*
X62108Y-20721D01*
X62108Y-20721D02*
X62160Y-20747D01*
X62160Y-20747D02*
X62206Y-20783D01*
X62206Y-20783D02*
X62245Y-20828D01*
X62245Y-20828D02*
X62274Y-20878D01*
X62274Y-20878D02*
X62292Y-20934D01*
X62292Y-20934D02*
X62299Y-20992D01*
X62299Y-20992D02*
X62300Y-21000D01*
X62300Y-22000D02*
X62294Y-22058D01*
X62294Y-22058D02*
X62277Y-22114D01*
X62277Y-22114D02*
X62249Y-22166D01*
X62249Y-22166D02*
X62212Y-22211D01*
X62212Y-22211D02*
X62167Y-22248D01*
X62167Y-22248D02*
X62116Y-22276D01*
X62116Y-22276D02*
X62060Y-22293D01*
X62060Y-22293D02*
X62002Y-22299D01*
X62002Y-22299D02*
X61944Y-22294D01*
X61944Y-22294D02*
X61888Y-22278D01*
X61888Y-22278D02*
X61836Y-22251D01*
X61836Y-22251D02*
X61791Y-22214D01*
X61791Y-22214D02*
X61753Y-22169D01*
X61753Y-22169D02*
X61725Y-22118D01*
X61725Y-22118D02*
X61707Y-22062D01*
X61707Y-22062D02*
X61701Y-22004D01*
X61701Y-22004D02*
X61705Y-21946D01*
X61705Y-21946D02*
X61722Y-21890D01*
X61722Y-21890D02*
X61748Y-21838D01*
X61748Y-21838D02*
X61785Y-21792D01*
X61785Y-21792D02*
X61829Y-21754D01*
X61829Y-21754D02*
X61880Y-21726D01*
X61880Y-21726D02*
X61936Y-21707D01*
X61936Y-21707D02*
X61994Y-21701D01*
X61994Y-21701D02*
X62052Y-21705D01*
X62052Y-21705D02*
X62108Y-21721D01*
X62108Y-21721D02*
X62160Y-21747D01*
X62160Y-21747D02*
X62206Y-21783D01*
X62206Y-21783D02*
X62245Y-21828D01*
X62245Y-21828D02*
X62274Y-21878D01*
X62274Y-21878D02*
X62292Y-21934D01*
X62292Y-21934D02*
X62299Y-21992D01*
X62299Y-21992D02*
X62300Y-22000D01*
X62300Y-23000D02*
X62294Y-23058D01*
X62294Y-23058D02*
X62277Y-23114D01*
X62277Y-23114D02*
X62249Y-23166D01*
X62249Y-23166D02*
X62212Y-23211D01*
X62212Y-23211D02*
X62167Y-23248D01*
X62167Y-23248D02*
X62116Y-23276D01*
X62116Y-23276D02*
X62060Y-23293D01*
X62060Y-23293D02*
X62002Y-23299D01*
X62002Y-23299D02*
X61944Y-23294D01*
X61944Y-23294D02*
X61888Y-23278D01*
X61888Y-23278D02*
X61836Y-23251D01*
X61836Y-23251D02*
X61791Y-23214D01*
X61791Y-23214D02*
X61753Y-23169D01*
X61753Y-23169D02*
X61725Y-23118D01*
X61725Y-23118D02*
X61707Y-23062D01*
X61707Y-23062D02*
X61701Y-23004D01*
X61701Y-23004D02*
X61705Y-22946D01*
X61705Y-22946D02*
X61722Y-22890D01*
X61722Y-22890D02*
X61748Y-22838D01*
X61748Y-22838D02*
X61785Y-22792D01*
X61785Y-22792D02*
X61829Y-22754D01*
X61829Y-22754D02*
X61880Y-22726D01*
X61880Y-22726D02*
X61936Y-22707D01*
X61936Y-22707D02*
X61994Y-22701D01*
X61994Y-22701D02*
X62052Y-22705D01*
X62052Y-22705D02*
X62108Y-22721D01*
X62108Y-22721D02*
X62160Y-22747D01*
X62160Y-22747D02*
X62206Y-22783D01*
X62206Y-22783D02*
X62245Y-22828D01*
X62245Y-22828D02*
X62274Y-22878D01*
X62274Y-22878D02*
X62292Y-22934D01*
X62292Y-22934D02*
X62299Y-22992D01*
X62299Y-22992D02*
X62300Y-23000D01*
X62300Y-24000D02*
X62294Y-24058D01*
X62294Y-24058D02*
X62277Y-24114D01*
X62277Y-24114D02*
X62249Y-24166D01*
X62249Y-24166D02*
X62212Y-24211D01*
X62212Y-24211D02*
X62167Y-24248D01*
X62167Y-24248D02*
X62116Y-24276D01*
X62116Y-24276D02*
X62060Y-24293D01*
X62060Y-24293D02*
X62002Y-24299D01*
X62002Y-24299D02*
X61944Y-24294D01*
X61944Y-24294D02*
X61888Y-24278D01*
X61888Y-24278D02*
X61836Y-24251D01*
X61836Y-24251D02*
X61791Y-24214D01*
X61791Y-24214D02*
X61753Y-24169D01*
X61753Y-24169D02*
X61725Y-24118D01*
X61725Y-24118D02*
X61707Y-24062D01*
X61707Y-24062D02*
X61701Y-24004D01*
X61701Y-24004D02*
X61705Y-23946D01*
X61705Y-23946D02*
X61722Y-23890D01*
X61722Y-23890D02*
X61748Y-23838D01*
X61748Y-23838D02*
X61785Y-23792D01*
X61785Y-23792D02*
X61829Y-23754D01*
X61829Y-23754D02*
X61880Y-23726D01*
X61880Y-23726D02*
X61936Y-23707D01*
X61936Y-23707D02*
X61994Y-23701D01*
X61994Y-23701D02*
X62052Y-23705D01*
X62052Y-23705D02*
X62108Y-23721D01*
X62108Y-23721D02*
X62160Y-23747D01*
X62160Y-23747D02*
X62206Y-23783D01*
X62206Y-23783D02*
X62245Y-23828D01*
X62245Y-23828D02*
X62274Y-23878D01*
X62274Y-23878D02*
X62292Y-23934D01*
X62292Y-23934D02*
X62299Y-23992D01*
X62299Y-23992D02*
X62300Y-24000D01*
X62300Y-25000D02*
X62294Y-25058D01*
X62294Y-25058D02*
X62277Y-25114D01*
X62277Y-25114D02*
X62249Y-25166D01*
X62249Y-25166D02*
X62212Y-25211D01*
X62212Y-25211D02*
X62167Y-25248D01*
X62167Y-25248D02*
X62116Y-25276D01*
X62116Y-25276D02*
X62060Y-25293D01*
X62060Y-25293D02*
X62002Y-25299D01*
X62002Y-25299D02*
X61944Y-25294D01*
X61944Y-25294D02*
X61888Y-25278D01*
X61888Y-25278D02*
X61836Y-25251D01*
X61836Y-25251D02*
X61791Y-25214D01*
X61791Y-25214D02*
X61753Y-25169D01*
X61753Y-25169D02*
X61725Y-25118D01*
X61725Y-25118D02*
X61707Y-25062D01*
X61707Y-25062D02*
X61701Y-25004D01*
X61701Y-25004D02*
X61705Y-24946D01*
X61705Y-24946D02*
X61722Y-24890D01*
X61722Y-24890D02*
X61748Y-24838D01*
X61748Y-24838D02*
X61785Y-24792D01*
X61785Y-24792D02*
X61829Y-24754D01*
X61829Y-24754D02*
X61880Y-24726D01*
X61880Y-24726D02*
X61936Y-24707D01*
X61936Y-24707D02*
X61994Y-24701D01*
X61994Y-24701D02*
X62052Y-24705D01*
X62052Y-24705D02*
X62108Y-24721D01*
X62108Y-24721D02*
X62160Y-24747D01*
X62160Y-24747D02*
X62206Y-24783D01*
X62206Y-24783D02*
X62245Y-24828D01*
X62245Y-24828D02*
X62274Y-24878D01*
X62274Y-24878D02*
X62292Y-24934D01*
X62292Y-24934D02*
X62299Y-24992D01*
X62299Y-24992D02*
X62300Y-25000D01*
X56700Y-37200D02*
X57300Y-37200D01*
X57300Y-37200D02*
X57300Y-37800D01*
X57300Y-37800D02*
X56700Y-37800D01*
X56700Y-37800D02*
X56700Y-37200D01*
X57300Y-38500D02*
X57294Y-38558D01*
X57294Y-38558D02*
X57277Y-38614D01*
X57277Y-38614D02*
X57249Y-38666D01*
X57249Y-38666D02*
X57212Y-38711D01*
X57212Y-38711D02*
X57167Y-38748D01*
X57167Y-38748D02*
X57116Y-38776D01*
X57116Y-38776D02*
X57060Y-38793D01*
X57060Y-38793D02*
X57002Y-38799D01*
X57002Y-38799D02*
X56944Y-38794D01*
X56944Y-38794D02*
X56888Y-38778D01*
X56888Y-38778D02*
X56836Y-38751D01*
X56836Y-38751D02*
X56791Y-38714D01*
X56791Y-38714D02*
X56753Y-38669D01*
X56753Y-38669D02*
X56725Y-38618D01*
X56725Y-38618D02*
X56707Y-38562D01*
X56707Y-38562D02*
X56701Y-38504D01*
X56701Y-38504D02*
X56705Y-38446D01*
X56705Y-38446D02*
X56722Y-38390D01*
X56722Y-38390D02*
X56748Y-38338D01*
X56748Y-38338D02*
X56785Y-38292D01*
X56785Y-38292D02*
X56829Y-38254D01*
X56829Y-38254D02*
X56880Y-38226D01*
X56880Y-38226D02*
X56936Y-38207D01*
X56936Y-38207D02*
X56994Y-38201D01*
X56994Y-38201D02*
X57052Y-38205D01*
X57052Y-38205D02*
X57108Y-38221D01*
X57108Y-38221D02*
X57160Y-38247D01*
X57160Y-38247D02*
X57206Y-38283D01*
X57206Y-38283D02*
X57245Y-38328D01*
X57245Y-38328D02*
X57274Y-38378D01*
X57274Y-38378D02*
X57292Y-38434D01*
X57292Y-38434D02*
X57299Y-38492D01*
X57299Y-38492D02*
X57300Y-38500D01*
X57300Y-39500D02*
X57294Y-39558D01*
X57294Y-39558D02*
X57277Y-39614D01*
X57277Y-39614D02*
X57249Y-39666D01*
X57249Y-39666D02*
X57212Y-39711D01*
X57212Y-39711D02*
X57167Y-39748D01*
X57167Y-39748D02*
X57116Y-39776D01*
X57116Y-39776D02*
X57060Y-39793D01*
X57060Y-39793D02*
X57002Y-39799D01*
X57002Y-39799D02*
X56944Y-39794D01*
X56944Y-39794D02*
X56888Y-39778D01*
X56888Y-39778D02*
X56836Y-39751D01*
X56836Y-39751D02*
X56791Y-39714D01*
X56791Y-39714D02*
X56753Y-39669D01*
X56753Y-39669D02*
X56725Y-39618D01*
X56725Y-39618D02*
X56707Y-39562D01*
X56707Y-39562D02*
X56701Y-39504D01*
X56701Y-39504D02*
X56705Y-39446D01*
X56705Y-39446D02*
X56722Y-39390D01*
X56722Y-39390D02*
X56748Y-39338D01*
X56748Y-39338D02*
X56785Y-39292D01*
X56785Y-39292D02*
X56829Y-39254D01*
X56829Y-39254D02*
X56880Y-39226D01*
X56880Y-39226D02*
X56936Y-39207D01*
X56936Y-39207D02*
X56994Y-39201D01*
X56994Y-39201D02*
X57052Y-39205D01*
X57052Y-39205D02*
X57108Y-39221D01*
X57108Y-39221D02*
X57160Y-39247D01*
X57160Y-39247D02*
X57206Y-39283D01*
X57206Y-39283D02*
X57245Y-39328D01*
X57245Y-39328D02*
X57274Y-39378D01*
X57274Y-39378D02*
X57292Y-39434D01*
X57292Y-39434D02*
X57299Y-39492D01*
X57299Y-39492D02*
X57300Y-39500D01*
X57300Y-40500D02*
X57294Y-40558D01*
X57294Y-40558D02*
X57277Y-40614D01*
X57277Y-40614D02*
X57249Y-40666D01*
X57249Y-40666D02*
X57212Y-40711D01*
X57212Y-40711D02*
X57167Y-40748D01*
X57167Y-40748D02*
X57116Y-40776D01*
X57116Y-40776D02*
X57060Y-40793D01*
X57060Y-40793D02*
X57002Y-40799D01*
X57002Y-40799D02*
X56944Y-40794D01*
X56944Y-40794D02*
X56888Y-40778D01*
X56888Y-40778D02*
X56836Y-40751D01*
X56836Y-40751D02*
X56791Y-40714D01*
X56791Y-40714D02*
X56753Y-40669D01*
X56753Y-40669D02*
X56725Y-40618D01*
X56725Y-40618D02*
X56707Y-40562D01*
X56707Y-40562D02*
X56701Y-40504D01*
X56701Y-40504D02*
X56705Y-40446D01*
X56705Y-40446D02*
X56722Y-40390D01*
X56722Y-40390D02*
X56748Y-40338D01*
X56748Y-40338D02*
X56785Y-40292D01*
X56785Y-40292D02*
X56829Y-40254D01*
X56829Y-40254D02*
X56880Y-40226D01*
X56880Y-40226D02*
X56936Y-40207D01*
X56936Y-40207D02*
X56994Y-40201D01*
X56994Y-40201D02*
X57052Y-40205D01*
X57052Y-40205D02*
X57108Y-40221D01*
X57108Y-40221D02*
X57160Y-40247D01*
X57160Y-40247D02*
X57206Y-40283D01*
X57206Y-40283D02*
X57245Y-40328D01*
X57245Y-40328D02*
X57274Y-40378D01*
X57274Y-40378D02*
X57292Y-40434D01*
X57292Y-40434D02*
X57299Y-40492D01*
X57299Y-40492D02*
X57300Y-40500D01*
X57300Y-41500D02*
X57294Y-41558D01*
X57294Y-41558D02*
X57277Y-41614D01*
X57277Y-41614D02*
X57249Y-41666D01*
X57249Y-41666D02*
X57212Y-41711D01*
X57212Y-41711D02*
X57167Y-41748D01*
X57167Y-41748D02*
X57116Y-41776D01*
X57116Y-41776D02*
X57060Y-41793D01*
X57060Y-41793D02*
X57002Y-41799D01*
X57002Y-41799D02*
X56944Y-41794D01*
X56944Y-41794D02*
X56888Y-41778D01*
X56888Y-41778D02*
X56836Y-41751D01*
X56836Y-41751D02*
X56791Y-41714D01*
X56791Y-41714D02*
X56753Y-41669D01*
X56753Y-41669D02*
X56725Y-41618D01*
X56725Y-41618D02*
X56707Y-41562D01*
X56707Y-41562D02*
X56701Y-41504D01*
X56701Y-41504D02*
X56705Y-41446D01*
X56705Y-41446D02*
X56722Y-41390D01*
X56722Y-41390D02*
X56748Y-41338D01*
X56748Y-41338D02*
X56785Y-41292D01*
X56785Y-41292D02*
X56829Y-41254D01*
X56829Y-41254D02*
X56880Y-41226D01*
X56880Y-41226D02*
X56936Y-41207D01*
X56936Y-41207D02*
X56994Y-41201D01*
X56994Y-41201D02*
X57052Y-41205D01*
X57052Y-41205D02*
X57108Y-41221D01*
X57108Y-41221D02*
X57160Y-41247D01*
X57160Y-41247D02*
X57206Y-41283D01*
X57206Y-41283D02*
X57245Y-41328D01*
X57245Y-41328D02*
X57274Y-41378D01*
X57274Y-41378D02*
X57292Y-41434D01*
X57292Y-41434D02*
X57299Y-41492D01*
X57299Y-41492D02*
X57300Y-41500D01*
X57300Y-42500D02*
X57294Y-42558D01*
X57294Y-42558D02*
X57277Y-42614D01*
X57277Y-42614D02*
X57249Y-42666D01*
X57249Y-42666D02*
X57212Y-42711D01*
X57212Y-42711D02*
X57167Y-42748D01*
X57167Y-42748D02*
X57116Y-42776D01*
X57116Y-42776D02*
X57060Y-42793D01*
X57060Y-42793D02*
X57002Y-42799D01*
X57002Y-42799D02*
X56944Y-42794D01*
X56944Y-42794D02*
X56888Y-42778D01*
X56888Y-42778D02*
X56836Y-42751D01*
X56836Y-42751D02*
X56791Y-42714D01*
X56791Y-42714D02*
X56753Y-42669D01*
X56753Y-42669D02*
X56725Y-42618D01*
X56725Y-42618D02*
X56707Y-42562D01*
X56707Y-42562D02*
X56701Y-42504D01*
X56701Y-42504D02*
X56705Y-42446D01*
X56705Y-42446D02*
X56722Y-42390D01*
X56722Y-42390D02*
X56748Y-42338D01*
X56748Y-42338D02*
X56785Y-42292D01*
X56785Y-42292D02*
X56829Y-42254D01*
X56829Y-42254D02*
X56880Y-42226D01*
X56880Y-42226D02*
X56936Y-42207D01*
X56936Y-42207D02*
X56994Y-42201D01*
X56994Y-42201D02*
X57052Y-42205D01*
X57052Y-42205D02*
X57108Y-42221D01*
X57108Y-42221D02*
X57160Y-42247D01*
X57160Y-42247D02*
X57206Y-42283D01*
X57206Y-42283D02*
X57245Y-42328D01*
X57245Y-42328D02*
X57274Y-42378D01*
X57274Y-42378D02*
X57292Y-42434D01*
X57292Y-42434D02*
X57299Y-42492D01*
X57299Y-42492D02*
X57300Y-42500D01*
X56700Y-19700D02*
X57300Y-19700D01*
X57300Y-19700D02*
X57300Y-20300D01*
X57300Y-20300D02*
X56700Y-20300D01*
X56700Y-20300D02*
X56700Y-19700D01*
X57300Y-21000D02*
X57294Y-21058D01*
X57294Y-21058D02*
X57277Y-21114D01*
X57277Y-21114D02*
X57249Y-21166D01*
X57249Y-21166D02*
X57212Y-21211D01*
X57212Y-21211D02*
X57167Y-21248D01*
X57167Y-21248D02*
X57116Y-21276D01*
X57116Y-21276D02*
X57060Y-21293D01*
X57060Y-21293D02*
X57002Y-21299D01*
X57002Y-21299D02*
X56944Y-21294D01*
X56944Y-21294D02*
X56888Y-21278D01*
X56888Y-21278D02*
X56836Y-21251D01*
X56836Y-21251D02*
X56791Y-21214D01*
X56791Y-21214D02*
X56753Y-21169D01*
X56753Y-21169D02*
X56725Y-21118D01*
X56725Y-21118D02*
X56707Y-21062D01*
X56707Y-21062D02*
X56701Y-21004D01*
X56701Y-21004D02*
X56705Y-20946D01*
X56705Y-20946D02*
X56722Y-20890D01*
X56722Y-20890D02*
X56748Y-20838D01*
X56748Y-20838D02*
X56785Y-20792D01*
X56785Y-20792D02*
X56829Y-20754D01*
X56829Y-20754D02*
X56880Y-20726D01*
X56880Y-20726D02*
X56936Y-20707D01*
X56936Y-20707D02*
X56994Y-20701D01*
X56994Y-20701D02*
X57052Y-20705D01*
X57052Y-20705D02*
X57108Y-20721D01*
X57108Y-20721D02*
X57160Y-20747D01*
X57160Y-20747D02*
X57206Y-20783D01*
X57206Y-20783D02*
X57245Y-20828D01*
X57245Y-20828D02*
X57274Y-20878D01*
X57274Y-20878D02*
X57292Y-20934D01*
X57292Y-20934D02*
X57299Y-20992D01*
X57299Y-20992D02*
X57300Y-21000D01*
X57300Y-22000D02*
X57294Y-22058D01*
X57294Y-22058D02*
X57277Y-22114D01*
X57277Y-22114D02*
X57249Y-22166D01*
X57249Y-22166D02*
X57212Y-22211D01*
X57212Y-22211D02*
X57167Y-22248D01*
X57167Y-22248D02*
X57116Y-22276D01*
X57116Y-22276D02*
X57060Y-22293D01*
X57060Y-22293D02*
X57002Y-22299D01*
X57002Y-22299D02*
X56944Y-22294D01*
X56944Y-22294D02*
X56888Y-22278D01*
X56888Y-22278D02*
X56836Y-22251D01*
X56836Y-22251D02*
X56791Y-22214D01*
X56791Y-22214D02*
X56753Y-22169D01*
X56753Y-22169D02*
X56725Y-22118D01*
X56725Y-22118D02*
X56707Y-22062D01*
X56707Y-22062D02*
X56701Y-22004D01*
X56701Y-22004D02*
X56705Y-21946D01*
X56705Y-21946D02*
X56722Y-21890D01*
X56722Y-21890D02*
X56748Y-21838D01*
X56748Y-21838D02*
X56785Y-21792D01*
X56785Y-21792D02*
X56829Y-21754D01*
X56829Y-21754D02*
X56880Y-21726D01*
X56880Y-21726D02*
X56936Y-21707D01*
X56936Y-21707D02*
X56994Y-21701D01*
X56994Y-21701D02*
X57052Y-21705D01*
X57052Y-21705D02*
X57108Y-21721D01*
X57108Y-21721D02*
X57160Y-21747D01*
X57160Y-21747D02*
X57206Y-21783D01*
X57206Y-21783D02*
X57245Y-21828D01*
X57245Y-21828D02*
X57274Y-21878D01*
X57274Y-21878D02*
X57292Y-21934D01*
X57292Y-21934D02*
X57299Y-21992D01*
X57299Y-21992D02*
X57300Y-22000D01*
X57300Y-23000D02*
X57294Y-23058D01*
X57294Y-23058D02*
X57277Y-23114D01*
X57277Y-23114D02*
X57249Y-23166D01*
X57249Y-23166D02*
X57212Y-23211D01*
X57212Y-23211D02*
X57167Y-23248D01*
X57167Y-23248D02*
X57116Y-23276D01*
X57116Y-23276D02*
X57060Y-23293D01*
X57060Y-23293D02*
X57002Y-23299D01*
X57002Y-23299D02*
X56944Y-23294D01*
X56944Y-23294D02*
X56888Y-23278D01*
X56888Y-23278D02*
X56836Y-23251D01*
X56836Y-23251D02*
X56791Y-23214D01*
X56791Y-23214D02*
X56753Y-23169D01*
X56753Y-23169D02*
X56725Y-23118D01*
X56725Y-23118D02*
X56707Y-23062D01*
X56707Y-23062D02*
X56701Y-23004D01*
X56701Y-23004D02*
X56705Y-22946D01*
X56705Y-22946D02*
X56722Y-22890D01*
X56722Y-22890D02*
X56748Y-22838D01*
X56748Y-22838D02*
X56785Y-22792D01*
X56785Y-22792D02*
X56829Y-22754D01*
X56829Y-22754D02*
X56880Y-22726D01*
X56880Y-22726D02*
X56936Y-22707D01*
X56936Y-22707D02*
X56994Y-22701D01*
X56994Y-22701D02*
X57052Y-22705D01*
X57052Y-22705D02*
X57108Y-22721D01*
X57108Y-22721D02*
X57160Y-22747D01*
X57160Y-22747D02*
X57206Y-22783D01*
X57206Y-22783D02*
X57245Y-22828D01*
X57245Y-22828D02*
X57274Y-22878D01*
X57274Y-22878D02*
X57292Y-22934D01*
X57292Y-22934D02*
X57299Y-22992D01*
X57299Y-22992D02*
X57300Y-23000D01*
X57300Y-24000D02*
X57294Y-24058D01*
X57294Y-24058D02*
X57277Y-24114D01*
X57277Y-24114D02*
X57249Y-24166D01*
X57249Y-24166D02*
X57212Y-24211D01*
X57212Y-24211D02*
X57167Y-24248D01*
X57167Y-24248D02*
X57116Y-24276D01*
X57116Y-24276D02*
X57060Y-24293D01*
X57060Y-24293D02*
X57002Y-24299D01*
X57002Y-24299D02*
X56944Y-24294D01*
X56944Y-24294D02*
X56888Y-24278D01*
X56888Y-24278D02*
X56836Y-24251D01*
X56836Y-24251D02*
X56791Y-24214D01*
X56791Y-24214D02*
X56753Y-24169D01*
X56753Y-24169D02*
X56725Y-24118D01*
X56725Y-24118D02*
X56707Y-24062D01*
X56707Y-24062D02*
X56701Y-24004D01*
X56701Y-24004D02*
X56705Y-23946D01*
X56705Y-23946D02*
X56722Y-23890D01*
X56722Y-23890D02*
X56748Y-23838D01*
X56748Y-23838D02*
X56785Y-23792D01*
X56785Y-23792D02*
X56829Y-23754D01*
X56829Y-23754D02*
X56880Y-23726D01*
X56880Y-23726D02*
X56936Y-23707D01*
X56936Y-23707D02*
X56994Y-23701D01*
X56994Y-23701D02*
X57052Y-23705D01*
X57052Y-23705D02*
X57108Y-23721D01*
X57108Y-23721D02*
X57160Y-23747D01*
X57160Y-23747D02*
X57206Y-23783D01*
X57206Y-23783D02*
X57245Y-23828D01*
X57245Y-23828D02*
X57274Y-23878D01*
X57274Y-23878D02*
X57292Y-23934D01*
X57292Y-23934D02*
X57299Y-23992D01*
X57299Y-23992D02*
X57300Y-24000D01*
X57300Y-25000D02*
X57294Y-25058D01*
X57294Y-25058D02*
X57277Y-25114D01*
X57277Y-25114D02*
X57249Y-25166D01*
X57249Y-25166D02*
X57212Y-25211D01*
X57212Y-25211D02*
X57167Y-25248D01*
X57167Y-25248D02*
X57116Y-25276D01*
X57116Y-25276D02*
X57060Y-25293D01*
X57060Y-25293D02*
X57002Y-25299D01*
X57002Y-25299D02*
X56944Y-25294D01*
X56944Y-25294D02*
X56888Y-25278D01*
X56888Y-25278D02*
X56836Y-25251D01*
X56836Y-25251D02*
X56791Y-25214D01*
X56791Y-25214D02*
X56753Y-25169D01*
X56753Y-25169D02*
X56725Y-25118D01*
X56725Y-25118D02*
X56707Y-25062D01*
X56707Y-25062D02*
X56701Y-25004D01*
X56701Y-25004D02*
X56705Y-24946D01*
X56705Y-24946D02*
X56722Y-24890D01*
X56722Y-24890D02*
X56748Y-24838D01*
X56748Y-24838D02*
X56785Y-24792D01*
X56785Y-24792D02*
X56829Y-24754D01*
X56829Y-24754D02*
X56880Y-24726D01*
X56880Y-24726D02*
X56936Y-24707D01*
X56936Y-24707D02*
X56994Y-24701D01*
X56994Y-24701D02*
X57052Y-24705D01*
X57052Y-24705D02*
X57108Y-24721D01*
X57108Y-24721D02*
X57160Y-24747D01*
X57160Y-24747D02*
X57206Y-24783D01*
X57206Y-24783D02*
X57245Y-24828D01*
X57245Y-24828D02*
X57274Y-24878D01*
X57274Y-24878D02*
X57292Y-24934D01*
X57292Y-24934D02*
X57299Y-24992D01*
X57299Y-24992D02*
X57300Y-25000D01*
X51700Y-37200D02*
X52300Y-37200D01*
X52300Y-37200D02*
X52300Y-37800D01*
X52300Y-37800D02*
X51700Y-37800D01*
X51700Y-37800D02*
X51700Y-37200D01*
X52300Y-38500D02*
X52294Y-38558D01*
X52294Y-38558D02*
X52277Y-38614D01*
X52277Y-38614D02*
X52249Y-38666D01*
X52249Y-38666D02*
X52212Y-38711D01*
X52212Y-38711D02*
X52167Y-38748D01*
X52167Y-38748D02*
X52116Y-38776D01*
X52116Y-38776D02*
X52060Y-38793D01*
X52060Y-38793D02*
X52002Y-38799D01*
X52002Y-38799D02*
X51944Y-38794D01*
X51944Y-38794D02*
X51888Y-38778D01*
X51888Y-38778D02*
X51836Y-38751D01*
X51836Y-38751D02*
X51791Y-38714D01*
X51791Y-38714D02*
X51753Y-38669D01*
X51753Y-38669D02*
X51725Y-38618D01*
X51725Y-38618D02*
X51707Y-38562D01*
X51707Y-38562D02*
X51701Y-38504D01*
X51701Y-38504D02*
X51705Y-38446D01*
X51705Y-38446D02*
X51722Y-38390D01*
X51722Y-38390D02*
X51748Y-38338D01*
X51748Y-38338D02*
X51785Y-38292D01*
X51785Y-38292D02*
X51829Y-38254D01*
X51829Y-38254D02*
X51880Y-38226D01*
X51880Y-38226D02*
X51936Y-38207D01*
X51936Y-38207D02*
X51994Y-38201D01*
X51994Y-38201D02*
X52052Y-38205D01*
X52052Y-38205D02*
X52108Y-38221D01*
X52108Y-38221D02*
X52160Y-38247D01*
X52160Y-38247D02*
X52206Y-38283D01*
X52206Y-38283D02*
X52245Y-38328D01*
X52245Y-38328D02*
X52274Y-38378D01*
X52274Y-38378D02*
X52292Y-38434D01*
X52292Y-38434D02*
X52299Y-38492D01*
X52299Y-38492D02*
X52300Y-38500D01*
X52300Y-39500D02*
X52294Y-39558D01*
X52294Y-39558D02*
X52277Y-39614D01*
X52277Y-39614D02*
X52249Y-39666D01*
X52249Y-39666D02*
X52212Y-39711D01*
X52212Y-39711D02*
X52167Y-39748D01*
X52167Y-39748D02*
X52116Y-39776D01*
X52116Y-39776D02*
X52060Y-39793D01*
X52060Y-39793D02*
X52002Y-39799D01*
X52002Y-39799D02*
X51944Y-39794D01*
X51944Y-39794D02*
X51888Y-39778D01*
X51888Y-39778D02*
X51836Y-39751D01*
X51836Y-39751D02*
X51791Y-39714D01*
X51791Y-39714D02*
X51753Y-39669D01*
X51753Y-39669D02*
X51725Y-39618D01*
X51725Y-39618D02*
X51707Y-39562D01*
X51707Y-39562D02*
X51701Y-39504D01*
X51701Y-39504D02*
X51705Y-39446D01*
X51705Y-39446D02*
X51722Y-39390D01*
X51722Y-39390D02*
X51748Y-39338D01*
X51748Y-39338D02*
X51785Y-39292D01*
X51785Y-39292D02*
X51829Y-39254D01*
X51829Y-39254D02*
X51880Y-39226D01*
X51880Y-39226D02*
X51936Y-39207D01*
X51936Y-39207D02*
X51994Y-39201D01*
X51994Y-39201D02*
X52052Y-39205D01*
X52052Y-39205D02*
X52108Y-39221D01*
X52108Y-39221D02*
X52160Y-39247D01*
X52160Y-39247D02*
X52206Y-39283D01*
X52206Y-39283D02*
X52245Y-39328D01*
X52245Y-39328D02*
X52274Y-39378D01*
X52274Y-39378D02*
X52292Y-39434D01*
X52292Y-39434D02*
X52299Y-39492D01*
X52299Y-39492D02*
X52300Y-39500D01*
X52300Y-40500D02*
X52294Y-40558D01*
X52294Y-40558D02*
X52277Y-40614D01*
X52277Y-40614D02*
X52249Y-40666D01*
X52249Y-40666D02*
X52212Y-40711D01*
X52212Y-40711D02*
X52167Y-40748D01*
X52167Y-40748D02*
X52116Y-40776D01*
X52116Y-40776D02*
X52060Y-40793D01*
X52060Y-40793D02*
X52002Y-40799D01*
X52002Y-40799D02*
X51944Y-40794D01*
X51944Y-40794D02*
X51888Y-40778D01*
X51888Y-40778D02*
X51836Y-40751D01*
X51836Y-40751D02*
X51791Y-40714D01*
X51791Y-40714D02*
X51753Y-40669D01*
X51753Y-40669D02*
X51725Y-40618D01*
X51725Y-40618D02*
X51707Y-40562D01*
X51707Y-40562D02*
X51701Y-40504D01*
X51701Y-40504D02*
X51705Y-40446D01*
X51705Y-40446D02*
X51722Y-40390D01*
X51722Y-40390D02*
X51748Y-40338D01*
X51748Y-40338D02*
X51785Y-40292D01*
X51785Y-40292D02*
X51829Y-40254D01*
X51829Y-40254D02*
X51880Y-40226D01*
X51880Y-40226D02*
X51936Y-40207D01*
X51936Y-40207D02*
X51994Y-40201D01*
X51994Y-40201D02*
X52052Y-40205D01*
X52052Y-40205D02*
X52108Y-40221D01*
X52108Y-40221D02*
X52160Y-40247D01*
X52160Y-40247D02*
X52206Y-40283D01*
X52206Y-40283D02*
X52245Y-40328D01*
X52245Y-40328D02*
X52274Y-40378D01*
X52274Y-40378D02*
X52292Y-40434D01*
X52292Y-40434D02*
X52299Y-40492D01*
X52299Y-40492D02*
X52300Y-40500D01*
X52300Y-41500D02*
X52294Y-41558D01*
X52294Y-41558D02*
X52277Y-41614D01*
X52277Y-41614D02*
X52249Y-41666D01*
X52249Y-41666D02*
X52212Y-41711D01*
X52212Y-41711D02*
X52167Y-41748D01*
X52167Y-41748D02*
X52116Y-41776D01*
X52116Y-41776D02*
X52060Y-41793D01*
X52060Y-41793D02*
X52002Y-41799D01*
X52002Y-41799D02*
X51944Y-41794D01*
X51944Y-41794D02*
X51888Y-41778D01*
X51888Y-41778D02*
X51836Y-41751D01*
X51836Y-41751D02*
X51791Y-41714D01*
X51791Y-41714D02*
X51753Y-41669D01*
X51753Y-41669D02*
X51725Y-41618D01*
X51725Y-41618D02*
X51707Y-41562D01*
X51707Y-41562D02*
X51701Y-41504D01*
X51701Y-41504D02*
X51705Y-41446D01*
X51705Y-41446D02*
X51722Y-41390D01*
X51722Y-41390D02*
X51748Y-41338D01*
X51748Y-41338D02*
X51785Y-41292D01*
X51785Y-41292D02*
X51829Y-41254D01*
X51829Y-41254D02*
X51880Y-41226D01*
X51880Y-41226D02*
X51936Y-41207D01*
X51936Y-41207D02*
X51994Y-41201D01*
X51994Y-41201D02*
X52052Y-41205D01*
X52052Y-41205D02*
X52108Y-41221D01*
X52108Y-41221D02*
X52160Y-41247D01*
X52160Y-41247D02*
X52206Y-41283D01*
X52206Y-41283D02*
X52245Y-41328D01*
X52245Y-41328D02*
X52274Y-41378D01*
X52274Y-41378D02*
X52292Y-41434D01*
X52292Y-41434D02*
X52299Y-41492D01*
X52299Y-41492D02*
X52300Y-41500D01*
X52300Y-42500D02*
X52294Y-42558D01*
X52294Y-42558D02*
X52277Y-42614D01*
X52277Y-42614D02*
X52249Y-42666D01*
X52249Y-42666D02*
X52212Y-42711D01*
X52212Y-42711D02*
X52167Y-42748D01*
X52167Y-42748D02*
X52116Y-42776D01*
X52116Y-42776D02*
X52060Y-42793D01*
X52060Y-42793D02*
X52002Y-42799D01*
X52002Y-42799D02*
X51944Y-42794D01*
X51944Y-42794D02*
X51888Y-42778D01*
X51888Y-42778D02*
X51836Y-42751D01*
X51836Y-42751D02*
X51791Y-42714D01*
X51791Y-42714D02*
X51753Y-42669D01*
X51753Y-42669D02*
X51725Y-42618D01*
X51725Y-42618D02*
X51707Y-42562D01*
X51707Y-42562D02*
X51701Y-42504D01*
X51701Y-42504D02*
X51705Y-42446D01*
X51705Y-42446D02*
X51722Y-42390D01*
X51722Y-42390D02*
X51748Y-42338D01*
X51748Y-42338D02*
X51785Y-42292D01*
X51785Y-42292D02*
X51829Y-42254D01*
X51829Y-42254D02*
X51880Y-42226D01*
X51880Y-42226D02*
X51936Y-42207D01*
X51936Y-42207D02*
X51994Y-42201D01*
X51994Y-42201D02*
X52052Y-42205D01*
X52052Y-42205D02*
X52108Y-42221D01*
X52108Y-42221D02*
X52160Y-42247D01*
X52160Y-42247D02*
X52206Y-42283D01*
X52206Y-42283D02*
X52245Y-42328D01*
X52245Y-42328D02*
X52274Y-42378D01*
X52274Y-42378D02*
X52292Y-42434D01*
X52292Y-42434D02*
X52299Y-42492D01*
X52299Y-42492D02*
X52300Y-42500D01*
X51700Y-19700D02*
X52300Y-19700D01*
X52300Y-19700D02*
X52300Y-20300D01*
X52300Y-20300D02*
X51700Y-20300D01*
X51700Y-20300D02*
X51700Y-19700D01*
X52300Y-21000D02*
X52294Y-21058D01*
X52294Y-21058D02*
X52277Y-21114D01*
X52277Y-21114D02*
X52249Y-21166D01*
X52249Y-21166D02*
X52212Y-21211D01*
X52212Y-21211D02*
X52167Y-21248D01*
X52167Y-21248D02*
X52116Y-21276D01*
X52116Y-21276D02*
X52060Y-21293D01*
X52060Y-21293D02*
X52002Y-21299D01*
X52002Y-21299D02*
X51944Y-21294D01*
X51944Y-21294D02*
X51888Y-21278D01*
X51888Y-21278D02*
X51836Y-21251D01*
X51836Y-21251D02*
X51791Y-21214D01*
X51791Y-21214D02*
X51753Y-21169D01*
X51753Y-21169D02*
X51725Y-21118D01*
X51725Y-21118D02*
X51707Y-21062D01*
X51707Y-21062D02*
X51701Y-21004D01*
X51701Y-21004D02*
X51705Y-20946D01*
X51705Y-20946D02*
X51722Y-20890D01*
X51722Y-20890D02*
X51748Y-20838D01*
X51748Y-20838D02*
X51785Y-20792D01*
X51785Y-20792D02*
X51829Y-20754D01*
X51829Y-20754D02*
X51880Y-20726D01*
X51880Y-20726D02*
X51936Y-20707D01*
X51936Y-20707D02*
X51994Y-20701D01*
X51994Y-20701D02*
X52052Y-20705D01*
X52052Y-20705D02*
X52108Y-20721D01*
X52108Y-20721D02*
X52160Y-20747D01*
X52160Y-20747D02*
X52206Y-20783D01*
X52206Y-20783D02*
X52245Y-20828D01*
X52245Y-20828D02*
X52274Y-20878D01*
X52274Y-20878D02*
X52292Y-20934D01*
X52292Y-20934D02*
X52299Y-20992D01*
X52299Y-20992D02*
X52300Y-21000D01*
X52300Y-22000D02*
X52294Y-22058D01*
X52294Y-22058D02*
X52277Y-22114D01*
X52277Y-22114D02*
X52249Y-22166D01*
X52249Y-22166D02*
X52212Y-22211D01*
X52212Y-22211D02*
X52167Y-22248D01*
X52167Y-22248D02*
X52116Y-22276D01*
X52116Y-22276D02*
X52060Y-22293D01*
X52060Y-22293D02*
X52002Y-22299D01*
X52002Y-22299D02*
X51944Y-22294D01*
X51944Y-22294D02*
X51888Y-22278D01*
X51888Y-22278D02*
X51836Y-22251D01*
X51836Y-22251D02*
X51791Y-22214D01*
X51791Y-22214D02*
X51753Y-22169D01*
X51753Y-22169D02*
X51725Y-22118D01*
X51725Y-22118D02*
X51707Y-22062D01*
X51707Y-22062D02*
X51701Y-22004D01*
X51701Y-22004D02*
X51705Y-21946D01*
X51705Y-21946D02*
X51722Y-21890D01*
X51722Y-21890D02*
X51748Y-21838D01*
X51748Y-21838D02*
X51785Y-21792D01*
X51785Y-21792D02*
X51829Y-21754D01*
X51829Y-21754D02*
X51880Y-21726D01*
X51880Y-21726D02*
X51936Y-21707D01*
X51936Y-21707D02*
X51994Y-21701D01*
X51994Y-21701D02*
X52052Y-21705D01*
X52052Y-21705D02*
X52108Y-21721D01*
X52108Y-21721D02*
X52160Y-21747D01*
X52160Y-21747D02*
X52206Y-21783D01*
X52206Y-21783D02*
X52245Y-21828D01*
X52245Y-21828D02*
X52274Y-21878D01*
X52274Y-21878D02*
X52292Y-21934D01*
X52292Y-21934D02*
X52299Y-21992D01*
X52299Y-21992D02*
X52300Y-22000D01*
X52300Y-23000D02*
X52294Y-23058D01*
X52294Y-23058D02*
X52277Y-23114D01*
X52277Y-23114D02*
X52249Y-23166D01*
X52249Y-23166D02*
X52212Y-23211D01*
X52212Y-23211D02*
X52167Y-23248D01*
X52167Y-23248D02*
X52116Y-23276D01*
X52116Y-23276D02*
X52060Y-23293D01*
X52060Y-23293D02*
X52002Y-23299D01*
X52002Y-23299D02*
X51944Y-23294D01*
X51944Y-23294D02*
X51888Y-23278D01*
X51888Y-23278D02*
X51836Y-23251D01*
X51836Y-23251D02*
X51791Y-23214D01*
X51791Y-23214D02*
X51753Y-23169D01*
X51753Y-23169D02*
X51725Y-23118D01*
X51725Y-23118D02*
X51707Y-23062D01*
X51707Y-23062D02*
X51701Y-23004D01*
X51701Y-23004D02*
X51705Y-22946D01*
X51705Y-22946D02*
X51722Y-22890D01*
X51722Y-22890D02*
X51748Y-22838D01*
X51748Y-22838D02*
X51785Y-22792D01*
X51785Y-22792D02*
X51829Y-22754D01*
X51829Y-22754D02*
X51880Y-22726D01*
X51880Y-22726D02*
X51936Y-22707D01*
X51936Y-22707D02*
X51994Y-22701D01*
X51994Y-22701D02*
X52052Y-22705D01*
X52052Y-22705D02*
X52108Y-22721D01*
X52108Y-22721D02*
X52160Y-22747D01*
X52160Y-22747D02*
X52206Y-22783D01*
X52206Y-22783D02*
X52245Y-22828D01*
X52245Y-22828D02*
X52274Y-22878D01*
X52274Y-22878D02*
X52292Y-22934D01*
X52292Y-22934D02*
X52299Y-22992D01*
X52299Y-22992D02*
X52300Y-23000D01*
X52300Y-24000D02*
X52294Y-24058D01*
X52294Y-24058D02*
X52277Y-24114D01*
X52277Y-24114D02*
X52249Y-24166D01*
X52249Y-24166D02*
X52212Y-24211D01*
X52212Y-24211D02*
X52167Y-24248D01*
X52167Y-24248D02*
X52116Y-24276D01*
X52116Y-24276D02*
X52060Y-24293D01*
X52060Y-24293D02*
X52002Y-24299D01*
X52002Y-24299D02*
X51944Y-24294D01*
X51944Y-24294D02*
X51888Y-24278D01*
X51888Y-24278D02*
X51836Y-24251D01*
X51836Y-24251D02*
X51791Y-24214D01*
X51791Y-24214D02*
X51753Y-24169D01*
X51753Y-24169D02*
X51725Y-24118D01*
X51725Y-24118D02*
X51707Y-24062D01*
X51707Y-24062D02*
X51701Y-24004D01*
X51701Y-24004D02*
X51705Y-23946D01*
X51705Y-23946D02*
X51722Y-23890D01*
X51722Y-23890D02*
X51748Y-23838D01*
X51748Y-23838D02*
X51785Y-23792D01*
X51785Y-23792D02*
X51829Y-23754D01*
X51829Y-23754D02*
X51880Y-23726D01*
X51880Y-23726D02*
X51936Y-23707D01*
X51936Y-23707D02*
X51994Y-23701D01*
X51994Y-23701D02*
X52052Y-23705D01*
X52052Y-23705D02*
X52108Y-23721D01*
X52108Y-23721D02*
X52160Y-23747D01*
X52160Y-23747D02*
X52206Y-23783D01*
X52206Y-23783D02*
X52245Y-23828D01*
X52245Y-23828D02*
X52274Y-23878D01*
X52274Y-23878D02*
X52292Y-23934D01*
X52292Y-23934D02*
X52299Y-23992D01*
X52299Y-23992D02*
X52300Y-24000D01*
X52300Y-25000D02*
X52294Y-25058D01*
X52294Y-25058D02*
X52277Y-25114D01*
X52277Y-25114D02*
X52249Y-25166D01*
X52249Y-25166D02*
X52212Y-25211D01*
X52212Y-25211D02*
X52167Y-25248D01*
X52167Y-25248D02*
X52116Y-25276D01*
X52116Y-25276D02*
X52060Y-25293D01*
X52060Y-25293D02*
X52002Y-25299D01*
X52002Y-25299D02*
X51944Y-25294D01*
X51944Y-25294D02*
X51888Y-25278D01*
X51888Y-25278D02*
X51836Y-25251D01*
X51836Y-25251D02*
X51791Y-25214D01*
X51791Y-25214D02*
X51753Y-25169D01*
X51753Y-25169D02*
X51725Y-25118D01*
X51725Y-25118D02*
X51707Y-25062D01*
X51707Y-25062D02*
X51701Y-25004D01*
X51701Y-25004D02*
X51705Y-24946D01*
X51705Y-24946D02*
X51722Y-24890D01*
X51722Y-24890D02*
X51748Y-24838D01*
X51748Y-24838D02*
X51785Y-24792D01*
X51785Y-24792D02*
X51829Y-24754D01*
X51829Y-24754D02*
X51880Y-24726D01*
X51880Y-24726D02*
X51936Y-24707D01*
X51936Y-24707D02*
X51994Y-24701D01*
X51994Y-24701D02*
X52052Y-24705D01*
X52052Y-24705D02*
X52108Y-24721D01*
X52108Y-24721D02*
X52160Y-24747D01*
X52160Y-24747D02*
X52206Y-24783D01*
X52206Y-24783D02*
X52245Y-24828D01*
X52245Y-24828D02*
X52274Y-24878D01*
X52274Y-24878D02*
X52292Y-24934D01*
X52292Y-24934D02*
X52299Y-24992D01*
X52299Y-24992D02*
X52300Y-25000D01*
X46700Y-37200D02*
X47300Y-37200D01*
X47300Y-37200D02*
X47300Y-37800D01*
X47300Y-37800D02*
X46700Y-37800D01*
X46700Y-37800D02*
X46700Y-37200D01*
X47300Y-38500D02*
X47294Y-38558D01*
X47294Y-38558D02*
X47277Y-38614D01*
X47277Y-38614D02*
X47249Y-38666D01*
X47249Y-38666D02*
X47212Y-38711D01*
X47212Y-38711D02*
X47167Y-38748D01*
X47167Y-38748D02*
X47116Y-38776D01*
X47116Y-38776D02*
X47060Y-38793D01*
X47060Y-38793D02*
X47002Y-38799D01*
X47002Y-38799D02*
X46944Y-38794D01*
X46944Y-38794D02*
X46888Y-38778D01*
X46888Y-38778D02*
X46836Y-38751D01*
X46836Y-38751D02*
X46791Y-38714D01*
X46791Y-38714D02*
X46753Y-38669D01*
X46753Y-38669D02*
X46725Y-38618D01*
X46725Y-38618D02*
X46707Y-38562D01*
X46707Y-38562D02*
X46701Y-38504D01*
X46701Y-38504D02*
X46705Y-38446D01*
X46705Y-38446D02*
X46722Y-38390D01*
X46722Y-38390D02*
X46748Y-38338D01*
X46748Y-38338D02*
X46785Y-38292D01*
X46785Y-38292D02*
X46829Y-38254D01*
X46829Y-38254D02*
X46880Y-38226D01*
X46880Y-38226D02*
X46936Y-38207D01*
X46936Y-38207D02*
X46994Y-38201D01*
X46994Y-38201D02*
X47052Y-38205D01*
X47052Y-38205D02*
X47108Y-38221D01*
X47108Y-38221D02*
X47160Y-38247D01*
X47160Y-38247D02*
X47206Y-38283D01*
X47206Y-38283D02*
X47245Y-38328D01*
X47245Y-38328D02*
X47274Y-38378D01*
X47274Y-38378D02*
X47292Y-38434D01*
X47292Y-38434D02*
X47299Y-38492D01*
X47299Y-38492D02*
X47300Y-38500D01*
X47300Y-39500D02*
X47294Y-39558D01*
X47294Y-39558D02*
X47277Y-39614D01*
X47277Y-39614D02*
X47249Y-39666D01*
X47249Y-39666D02*
X47212Y-39711D01*
X47212Y-39711D02*
X47167Y-39748D01*
X47167Y-39748D02*
X47116Y-39776D01*
X47116Y-39776D02*
X47060Y-39793D01*
X47060Y-39793D02*
X47002Y-39799D01*
X47002Y-39799D02*
X46944Y-39794D01*
X46944Y-39794D02*
X46888Y-39778D01*
X46888Y-39778D02*
X46836Y-39751D01*
X46836Y-39751D02*
X46791Y-39714D01*
X46791Y-39714D02*
X46753Y-39669D01*
X46753Y-39669D02*
X46725Y-39618D01*
X46725Y-39618D02*
X46707Y-39562D01*
X46707Y-39562D02*
X46701Y-39504D01*
X46701Y-39504D02*
X46705Y-39446D01*
X46705Y-39446D02*
X46722Y-39390D01*
X46722Y-39390D02*
X46748Y-39338D01*
X46748Y-39338D02*
X46785Y-39292D01*
X46785Y-39292D02*
X46829Y-39254D01*
X46829Y-39254D02*
X46880Y-39226D01*
X46880Y-39226D02*
X46936Y-39207D01*
X46936Y-39207D02*
X46994Y-39201D01*
X46994Y-39201D02*
X47052Y-39205D01*
X47052Y-39205D02*
X47108Y-39221D01*
X47108Y-39221D02*
X47160Y-39247D01*
X47160Y-39247D02*
X47206Y-39283D01*
X47206Y-39283D02*
X47245Y-39328D01*
X47245Y-39328D02*
X47274Y-39378D01*
X47274Y-39378D02*
X47292Y-39434D01*
X47292Y-39434D02*
X47299Y-39492D01*
X47299Y-39492D02*
X47300Y-39500D01*
X47300Y-40500D02*
X47294Y-40558D01*
X47294Y-40558D02*
X47277Y-40614D01*
X47277Y-40614D02*
X47249Y-40666D01*
X47249Y-40666D02*
X47212Y-40711D01*
X47212Y-40711D02*
X47167Y-40748D01*
X47167Y-40748D02*
X47116Y-40776D01*
X47116Y-40776D02*
X47060Y-40793D01*
X47060Y-40793D02*
X47002Y-40799D01*
X47002Y-40799D02*
X46944Y-40794D01*
X46944Y-40794D02*
X46888Y-40778D01*
X46888Y-40778D02*
X46836Y-40751D01*
X46836Y-40751D02*
X46791Y-40714D01*
X46791Y-40714D02*
X46753Y-40669D01*
X46753Y-40669D02*
X46725Y-40618D01*
X46725Y-40618D02*
X46707Y-40562D01*
X46707Y-40562D02*
X46701Y-40504D01*
X46701Y-40504D02*
X46705Y-40446D01*
X46705Y-40446D02*
X46722Y-40390D01*
X46722Y-40390D02*
X46748Y-40338D01*
X46748Y-40338D02*
X46785Y-40292D01*
X46785Y-40292D02*
X46829Y-40254D01*
X46829Y-40254D02*
X46880Y-40226D01*
X46880Y-40226D02*
X46936Y-40207D01*
X46936Y-40207D02*
X46994Y-40201D01*
X46994Y-40201D02*
X47052Y-40205D01*
X47052Y-40205D02*
X47108Y-40221D01*
X47108Y-40221D02*
X47160Y-40247D01*
X47160Y-40247D02*
X47206Y-40283D01*
X47206Y-40283D02*
X47245Y-40328D01*
X47245Y-40328D02*
X47274Y-40378D01*
X47274Y-40378D02*
X47292Y-40434D01*
X47292Y-40434D02*
X47299Y-40492D01*
X47299Y-40492D02*
X47300Y-40500D01*
X47300Y-41500D02*
X47294Y-41558D01*
X47294Y-41558D02*
X47277Y-41614D01*
X47277Y-41614D02*
X47249Y-41666D01*
X47249Y-41666D02*
X47212Y-41711D01*
X47212Y-41711D02*
X47167Y-41748D01*
X47167Y-41748D02*
X47116Y-41776D01*
X47116Y-41776D02*
X47060Y-41793D01*
X47060Y-41793D02*
X47002Y-41799D01*
X47002Y-41799D02*
X46944Y-41794D01*
X46944Y-41794D02*
X46888Y-41778D01*
X46888Y-41778D02*
X46836Y-41751D01*
X46836Y-41751D02*
X46791Y-41714D01*
X46791Y-41714D02*
X46753Y-41669D01*
X46753Y-41669D02*
X46725Y-41618D01*
X46725Y-41618D02*
X46707Y-41562D01*
X46707Y-41562D02*
X46701Y-41504D01*
X46701Y-41504D02*
X46705Y-41446D01*
X46705Y-41446D02*
X46722Y-41390D01*
X46722Y-41390D02*
X46748Y-41338D01*
X46748Y-41338D02*
X46785Y-41292D01*
X46785Y-41292D02*
X46829Y-41254D01*
X46829Y-41254D02*
X46880Y-41226D01*
X46880Y-41226D02*
X46936Y-41207D01*
X46936Y-41207D02*
X46994Y-41201D01*
X46994Y-41201D02*
X47052Y-41205D01*
X47052Y-41205D02*
X47108Y-41221D01*
X47108Y-41221D02*
X47160Y-41247D01*
X47160Y-41247D02*
X47206Y-41283D01*
X47206Y-41283D02*
X47245Y-41328D01*
X47245Y-41328D02*
X47274Y-41378D01*
X47274Y-41378D02*
X47292Y-41434D01*
X47292Y-41434D02*
X47299Y-41492D01*
X47299Y-41492D02*
X47300Y-41500D01*
X47300Y-42500D02*
X47294Y-42558D01*
X47294Y-42558D02*
X47277Y-42614D01*
X47277Y-42614D02*
X47249Y-42666D01*
X47249Y-42666D02*
X47212Y-42711D01*
X47212Y-42711D02*
X47167Y-42748D01*
X47167Y-42748D02*
X47116Y-42776D01*
X47116Y-42776D02*
X47060Y-42793D01*
X47060Y-42793D02*
X47002Y-42799D01*
X47002Y-42799D02*
X46944Y-42794D01*
X46944Y-42794D02*
X46888Y-42778D01*
X46888Y-42778D02*
X46836Y-42751D01*
X46836Y-42751D02*
X46791Y-42714D01*
X46791Y-42714D02*
X46753Y-42669D01*
X46753Y-42669D02*
X46725Y-42618D01*
X46725Y-42618D02*
X46707Y-42562D01*
X46707Y-42562D02*
X46701Y-42504D01*
X46701Y-42504D02*
X46705Y-42446D01*
X46705Y-42446D02*
X46722Y-42390D01*
X46722Y-42390D02*
X46748Y-42338D01*
X46748Y-42338D02*
X46785Y-42292D01*
X46785Y-42292D02*
X46829Y-42254D01*
X46829Y-42254D02*
X46880Y-42226D01*
X46880Y-42226D02*
X46936Y-42207D01*
X46936Y-42207D02*
X46994Y-42201D01*
X46994Y-42201D02*
X47052Y-42205D01*
X47052Y-42205D02*
X47108Y-42221D01*
X47108Y-42221D02*
X47160Y-42247D01*
X47160Y-42247D02*
X47206Y-42283D01*
X47206Y-42283D02*
X47245Y-42328D01*
X47245Y-42328D02*
X47274Y-42378D01*
X47274Y-42378D02*
X47292Y-42434D01*
X47292Y-42434D02*
X47299Y-42492D01*
X47299Y-42492D02*
X47300Y-42500D01*
X46700Y-19700D02*
X47300Y-19700D01*
X47300Y-19700D02*
X47300Y-20300D01*
X47300Y-20300D02*
X46700Y-20300D01*
X46700Y-20300D02*
X46700Y-19700D01*
X47300Y-21000D02*
X47294Y-21058D01*
X47294Y-21058D02*
X47277Y-21114D01*
X47277Y-21114D02*
X47249Y-21166D01*
X47249Y-21166D02*
X47212Y-21211D01*
X47212Y-21211D02*
X47167Y-21248D01*
X47167Y-21248D02*
X47116Y-21276D01*
X47116Y-21276D02*
X47060Y-21293D01*
X47060Y-21293D02*
X47002Y-21299D01*
X47002Y-21299D02*
X46944Y-21294D01*
X46944Y-21294D02*
X46888Y-21278D01*
X46888Y-21278D02*
X46836Y-21251D01*
X46836Y-21251D02*
X46791Y-21214D01*
X46791Y-21214D02*
X46753Y-21169D01*
X46753Y-21169D02*
X46725Y-21118D01*
X46725Y-21118D02*
X46707Y-21062D01*
X46707Y-21062D02*
X46701Y-21004D01*
X46701Y-21004D02*
X46705Y-20946D01*
X46705Y-20946D02*
X46722Y-20890D01*
X46722Y-20890D02*
X46748Y-20838D01*
X46748Y-20838D02*
X46785Y-20792D01*
X46785Y-20792D02*
X46829Y-20754D01*
X46829Y-20754D02*
X46880Y-20726D01*
X46880Y-20726D02*
X46936Y-20707D01*
X46936Y-20707D02*
X46994Y-20701D01*
X46994Y-20701D02*
X47052Y-20705D01*
X47052Y-20705D02*
X47108Y-20721D01*
X47108Y-20721D02*
X47160Y-20747D01*
X47160Y-20747D02*
X47206Y-20783D01*
X47206Y-20783D02*
X47245Y-20828D01*
X47245Y-20828D02*
X47274Y-20878D01*
X47274Y-20878D02*
X47292Y-20934D01*
X47292Y-20934D02*
X47299Y-20992D01*
X47299Y-20992D02*
X47300Y-21000D01*
X47300Y-22000D02*
X47294Y-22058D01*
X47294Y-22058D02*
X47277Y-22114D01*
X47277Y-22114D02*
X47249Y-22166D01*
X47249Y-22166D02*
X47212Y-22211D01*
X47212Y-22211D02*
X47167Y-22248D01*
X47167Y-22248D02*
X47116Y-22276D01*
X47116Y-22276D02*
X47060Y-22293D01*
X47060Y-22293D02*
X47002Y-22299D01*
X47002Y-22299D02*
X46944Y-22294D01*
X46944Y-22294D02*
X46888Y-22278D01*
X46888Y-22278D02*
X46836Y-22251D01*
X46836Y-22251D02*
X46791Y-22214D01*
X46791Y-22214D02*
X46753Y-22169D01*
X46753Y-22169D02*
X46725Y-22118D01*
X46725Y-22118D02*
X46707Y-22062D01*
X46707Y-22062D02*
X46701Y-22004D01*
X46701Y-22004D02*
X46705Y-21946D01*
X46705Y-21946D02*
X46722Y-21890D01*
X46722Y-21890D02*
X46748Y-21838D01*
X46748Y-21838D02*
X46785Y-21792D01*
X46785Y-21792D02*
X46829Y-21754D01*
X46829Y-21754D02*
X46880Y-21726D01*
X46880Y-21726D02*
X46936Y-21707D01*
X46936Y-21707D02*
X46994Y-21701D01*
X46994Y-21701D02*
X47052Y-21705D01*
X47052Y-21705D02*
X47108Y-21721D01*
X47108Y-21721D02*
X47160Y-21747D01*
X47160Y-21747D02*
X47206Y-21783D01*
X47206Y-21783D02*
X47245Y-21828D01*
X47245Y-21828D02*
X47274Y-21878D01*
X47274Y-21878D02*
X47292Y-21934D01*
X47292Y-21934D02*
X47299Y-21992D01*
X47299Y-21992D02*
X47300Y-22000D01*
X47300Y-23000D02*
X47294Y-23058D01*
X47294Y-23058D02*
X47277Y-23114D01*
X47277Y-23114D02*
X47249Y-23166D01*
X47249Y-23166D02*
X47212Y-23211D01*
X47212Y-23211D02*
X47167Y-23248D01*
X47167Y-23248D02*
X47116Y-23276D01*
X47116Y-23276D02*
X47060Y-23293D01*
X47060Y-23293D02*
X47002Y-23299D01*
X47002Y-23299D02*
X46944Y-23294D01*
X46944Y-23294D02*
X46888Y-23278D01*
X46888Y-23278D02*
X46836Y-23251D01*
X46836Y-23251D02*
X46791Y-23214D01*
X46791Y-23214D02*
X46753Y-23169D01*
X46753Y-23169D02*
X46725Y-23118D01*
X46725Y-23118D02*
X46707Y-23062D01*
X46707Y-23062D02*
X46701Y-23004D01*
X46701Y-23004D02*
X46705Y-22946D01*
X46705Y-22946D02*
X46722Y-22890D01*
X46722Y-22890D02*
X46748Y-22838D01*
X46748Y-22838D02*
X46785Y-22792D01*
X46785Y-22792D02*
X46829Y-22754D01*
X46829Y-22754D02*
X46880Y-22726D01*
X46880Y-22726D02*
X46936Y-22707D01*
X46936Y-22707D02*
X46994Y-22701D01*
X46994Y-22701D02*
X47052Y-22705D01*
X47052Y-22705D02*
X47108Y-22721D01*
X47108Y-22721D02*
X47160Y-22747D01*
X47160Y-22747D02*
X47206Y-22783D01*
X47206Y-22783D02*
X47245Y-22828D01*
X47245Y-22828D02*
X47274Y-22878D01*
X47274Y-22878D02*
X47292Y-22934D01*
X47292Y-22934D02*
X47299Y-22992D01*
X47299Y-22992D02*
X47300Y-23000D01*
X47300Y-24000D02*
X47294Y-24058D01*
X47294Y-24058D02*
X47277Y-24114D01*
X47277Y-24114D02*
X47249Y-24166D01*
X47249Y-24166D02*
X47212Y-24211D01*
X47212Y-24211D02*
X47167Y-24248D01*
X47167Y-24248D02*
X47116Y-24276D01*
X47116Y-24276D02*
X47060Y-24293D01*
X47060Y-24293D02*
X47002Y-24299D01*
X47002Y-24299D02*
X46944Y-24294D01*
X46944Y-24294D02*
X46888Y-24278D01*
X46888Y-24278D02*
X46836Y-24251D01*
X46836Y-24251D02*
X46791Y-24214D01*
X46791Y-24214D02*
X46753Y-24169D01*
X46753Y-24169D02*
X46725Y-24118D01*
X46725Y-24118D02*
X46707Y-24062D01*
X46707Y-24062D02*
X46701Y-24004D01*
X46701Y-24004D02*
X46705Y-23946D01*
X46705Y-23946D02*
X46722Y-23890D01*
X46722Y-23890D02*
X46748Y-23838D01*
X46748Y-23838D02*
X46785Y-23792D01*
X46785Y-23792D02*
X46829Y-23754D01*
X46829Y-23754D02*
X46880Y-23726D01*
X46880Y-23726D02*
X46936Y-23707D01*
X46936Y-23707D02*
X46994Y-23701D01*
X46994Y-23701D02*
X47052Y-23705D01*
X47052Y-23705D02*
X47108Y-23721D01*
X47108Y-23721D02*
X47160Y-23747D01*
X47160Y-23747D02*
X47206Y-23783D01*
X47206Y-23783D02*
X47245Y-23828D01*
X47245Y-23828D02*
X47274Y-23878D01*
X47274Y-23878D02*
X47292Y-23934D01*
X47292Y-23934D02*
X47299Y-23992D01*
X47299Y-23992D02*
X47300Y-24000D01*
X47300Y-25000D02*
X47294Y-25058D01*
X47294Y-25058D02*
X47277Y-25114D01*
X47277Y-25114D02*
X47249Y-25166D01*
X47249Y-25166D02*
X47212Y-25211D01*
X47212Y-25211D02*
X47167Y-25248D01*
X47167Y-25248D02*
X47116Y-25276D01*
X47116Y-25276D02*
X47060Y-25293D01*
X47060Y-25293D02*
X47002Y-25299D01*
X47002Y-25299D02*
X46944Y-25294D01*
X46944Y-25294D02*
X46888Y-25278D01*
X46888Y-25278D02*
X46836Y-25251D01*
X46836Y-25251D02*
X46791Y-25214D01*
X46791Y-25214D02*
X46753Y-25169D01*
X46753Y-25169D02*
X46725Y-25118D01*
X46725Y-25118D02*
X46707Y-25062D01*
X46707Y-25062D02*
X46701Y-25004D01*
X46701Y-25004D02*
X46705Y-24946D01*
X46705Y-24946D02*
X46722Y-24890D01*
X46722Y-24890D02*
X46748Y-24838D01*
X46748Y-24838D02*
X46785Y-24792D01*
X46785Y-24792D02*
X46829Y-24754D01*
X46829Y-24754D02*
X46880Y-24726D01*
X46880Y-24726D02*
X46936Y-24707D01*
X46936Y-24707D02*
X46994Y-24701D01*
X46994Y-24701D02*
X47052Y-24705D01*
X47052Y-24705D02*
X47108Y-24721D01*
X47108Y-24721D02*
X47160Y-24747D01*
X47160Y-24747D02*
X47206Y-24783D01*
X47206Y-24783D02*
X47245Y-24828D01*
X47245Y-24828D02*
X47274Y-24878D01*
X47274Y-24878D02*
X47292Y-24934D01*
X47292Y-24934D02*
X47299Y-24992D01*
X47299Y-24992D02*
X47300Y-25000D01*
X41700Y-37200D02*
X42300Y-37200D01*
X42300Y-37200D02*
X42300Y-37800D01*
X42300Y-37800D02*
X41700Y-37800D01*
X41700Y-37800D02*
X41700Y-37200D01*
X42300Y-38500D02*
X42294Y-38558D01*
X42294Y-38558D02*
X42277Y-38614D01*
X42277Y-38614D02*
X42249Y-38666D01*
X42249Y-38666D02*
X42212Y-38711D01*
X42212Y-38711D02*
X42167Y-38748D01*
X42167Y-38748D02*
X42116Y-38776D01*
X42116Y-38776D02*
X42060Y-38793D01*
X42060Y-38793D02*
X42002Y-38799D01*
X42002Y-38799D02*
X41944Y-38794D01*
X41944Y-38794D02*
X41888Y-38778D01*
X41888Y-38778D02*
X41836Y-38751D01*
X41836Y-38751D02*
X41791Y-38714D01*
X41791Y-38714D02*
X41753Y-38669D01*
X41753Y-38669D02*
X41725Y-38618D01*
X41725Y-38618D02*
X41707Y-38562D01*
X41707Y-38562D02*
X41701Y-38504D01*
X41701Y-38504D02*
X41705Y-38446D01*
X41705Y-38446D02*
X41722Y-38390D01*
X41722Y-38390D02*
X41748Y-38338D01*
X41748Y-38338D02*
X41785Y-38292D01*
X41785Y-38292D02*
X41829Y-38254D01*
X41829Y-38254D02*
X41880Y-38226D01*
X41880Y-38226D02*
X41936Y-38207D01*
X41936Y-38207D02*
X41994Y-38201D01*
X41994Y-38201D02*
X42052Y-38205D01*
X42052Y-38205D02*
X42108Y-38221D01*
X42108Y-38221D02*
X42160Y-38247D01*
X42160Y-38247D02*
X42206Y-38283D01*
X42206Y-38283D02*
X42245Y-38328D01*
X42245Y-38328D02*
X42274Y-38378D01*
X42274Y-38378D02*
X42292Y-38434D01*
X42292Y-38434D02*
X42299Y-38492D01*
X42299Y-38492D02*
X42300Y-38500D01*
X42300Y-39500D02*
X42294Y-39558D01*
X42294Y-39558D02*
X42277Y-39614D01*
X42277Y-39614D02*
X42249Y-39666D01*
X42249Y-39666D02*
X42212Y-39711D01*
X42212Y-39711D02*
X42167Y-39748D01*
X42167Y-39748D02*
X42116Y-39776D01*
X42116Y-39776D02*
X42060Y-39793D01*
X42060Y-39793D02*
X42002Y-39799D01*
X42002Y-39799D02*
X41944Y-39794D01*
X41944Y-39794D02*
X41888Y-39778D01*
X41888Y-39778D02*
X41836Y-39751D01*
X41836Y-39751D02*
X41791Y-39714D01*
X41791Y-39714D02*
X41753Y-39669D01*
X41753Y-39669D02*
X41725Y-39618D01*
X41725Y-39618D02*
X41707Y-39562D01*
X41707Y-39562D02*
X41701Y-39504D01*
X41701Y-39504D02*
X41705Y-39446D01*
X41705Y-39446D02*
X41722Y-39390D01*
X41722Y-39390D02*
X41748Y-39338D01*
X41748Y-39338D02*
X41785Y-39292D01*
X41785Y-39292D02*
X41829Y-39254D01*
X41829Y-39254D02*
X41880Y-39226D01*
X41880Y-39226D02*
X41936Y-39207D01*
X41936Y-39207D02*
X41994Y-39201D01*
X41994Y-39201D02*
X42052Y-39205D01*
X42052Y-39205D02*
X42108Y-39221D01*
X42108Y-39221D02*
X42160Y-39247D01*
X42160Y-39247D02*
X42206Y-39283D01*
X42206Y-39283D02*
X42245Y-39328D01*
X42245Y-39328D02*
X42274Y-39378D01*
X42274Y-39378D02*
X42292Y-39434D01*
X42292Y-39434D02*
X42299Y-39492D01*
X42299Y-39492D02*
X42300Y-39500D01*
X42300Y-40500D02*
X42294Y-40558D01*
X42294Y-40558D02*
X42277Y-40614D01*
X42277Y-40614D02*
X42249Y-40666D01*
X42249Y-40666D02*
X42212Y-40711D01*
X42212Y-40711D02*
X42167Y-40748D01*
X42167Y-40748D02*
X42116Y-40776D01*
X42116Y-40776D02*
X42060Y-40793D01*
X42060Y-40793D02*
X42002Y-40799D01*
X42002Y-40799D02*
X41944Y-40794D01*
X41944Y-40794D02*
X41888Y-40778D01*
X41888Y-40778D02*
X41836Y-40751D01*
X41836Y-40751D02*
X41791Y-40714D01*
X41791Y-40714D02*
X41753Y-40669D01*
X41753Y-40669D02*
X41725Y-40618D01*
X41725Y-40618D02*
X41707Y-40562D01*
X41707Y-40562D02*
X41701Y-40504D01*
X41701Y-40504D02*
X41705Y-40446D01*
X41705Y-40446D02*
X41722Y-40390D01*
X41722Y-40390D02*
X41748Y-40338D01*
X41748Y-40338D02*
X41785Y-40292D01*
X41785Y-40292D02*
X41829Y-40254D01*
X41829Y-40254D02*
X41880Y-40226D01*
X41880Y-40226D02*
X41936Y-40207D01*
X41936Y-40207D02*
X41994Y-40201D01*
X41994Y-40201D02*
X42052Y-40205D01*
X42052Y-40205D02*
X42108Y-40221D01*
X42108Y-40221D02*
X42160Y-40247D01*
X42160Y-40247D02*
X42206Y-40283D01*
X42206Y-40283D02*
X42245Y-40328D01*
X42245Y-40328D02*
X42274Y-40378D01*
X42274Y-40378D02*
X42292Y-40434D01*
X42292Y-40434D02*
X42299Y-40492D01*
X42299Y-40492D02*
X42300Y-40500D01*
X42300Y-41500D02*
X42294Y-41558D01*
X42294Y-41558D02*
X42277Y-41614D01*
X42277Y-41614D02*
X42249Y-41666D01*
X42249Y-41666D02*
X42212Y-41711D01*
X42212Y-41711D02*
X42167Y-41748D01*
X42167Y-41748D02*
X42116Y-41776D01*
X42116Y-41776D02*
X42060Y-41793D01*
X42060Y-41793D02*
X42002Y-41799D01*
X42002Y-41799D02*
X41944Y-41794D01*
X41944Y-41794D02*
X41888Y-41778D01*
X41888Y-41778D02*
X41836Y-41751D01*
X41836Y-41751D02*
X41791Y-41714D01*
X41791Y-41714D02*
X41753Y-41669D01*
X41753Y-41669D02*
X41725Y-41618D01*
X41725Y-41618D02*
X41707Y-41562D01*
X41707Y-41562D02*
X41701Y-41504D01*
X41701Y-41504D02*
X41705Y-41446D01*
X41705Y-41446D02*
X41722Y-41390D01*
X41722Y-41390D02*
X41748Y-41338D01*
X41748Y-41338D02*
X41785Y-41292D01*
X41785Y-41292D02*
X41829Y-41254D01*
X41829Y-41254D02*
X41880Y-41226D01*
X41880Y-41226D02*
X41936Y-41207D01*
X41936Y-41207D02*
X41994Y-41201D01*
X41994Y-41201D02*
X42052Y-41205D01*
X42052Y-41205D02*
X42108Y-41221D01*
X42108Y-41221D02*
X42160Y-41247D01*
X42160Y-41247D02*
X42206Y-41283D01*
X42206Y-41283D02*
X42245Y-41328D01*
X42245Y-41328D02*
X42274Y-41378D01*
X42274Y-41378D02*
X42292Y-41434D01*
X42292Y-41434D02*
X42299Y-41492D01*
X42299Y-41492D02*
X42300Y-41500D01*
X42300Y-42500D02*
X42294Y-42558D01*
X42294Y-42558D02*
X42277Y-42614D01*
X42277Y-42614D02*
X42249Y-42666D01*
X42249Y-42666D02*
X42212Y-42711D01*
X42212Y-42711D02*
X42167Y-42748D01*
X42167Y-42748D02*
X42116Y-42776D01*
X42116Y-42776D02*
X42060Y-42793D01*
X42060Y-42793D02*
X42002Y-42799D01*
X42002Y-42799D02*
X41944Y-42794D01*
X41944Y-42794D02*
X41888Y-42778D01*
X41888Y-42778D02*
X41836Y-42751D01*
X41836Y-42751D02*
X41791Y-42714D01*
X41791Y-42714D02*
X41753Y-42669D01*
X41753Y-42669D02*
X41725Y-42618D01*
X41725Y-42618D02*
X41707Y-42562D01*
X41707Y-42562D02*
X41701Y-42504D01*
X41701Y-42504D02*
X41705Y-42446D01*
X41705Y-42446D02*
X41722Y-42390D01*
X41722Y-42390D02*
X41748Y-42338D01*
X41748Y-42338D02*
X41785Y-42292D01*
X41785Y-42292D02*
X41829Y-42254D01*
X41829Y-42254D02*
X41880Y-42226D01*
X41880Y-42226D02*
X41936Y-42207D01*
X41936Y-42207D02*
X41994Y-42201D01*
X41994Y-42201D02*
X42052Y-42205D01*
X42052Y-42205D02*
X42108Y-42221D01*
X42108Y-42221D02*
X42160Y-42247D01*
X42160Y-42247D02*
X42206Y-42283D01*
X42206Y-42283D02*
X42245Y-42328D01*
X42245Y-42328D02*
X42274Y-42378D01*
X42274Y-42378D02*
X42292Y-42434D01*
X42292Y-42434D02*
X42299Y-42492D01*
X42299Y-42492D02*
X42300Y-42500D01*
X41700Y-19700D02*
X42300Y-19700D01*
X42300Y-19700D02*
X42300Y-20300D01*
X42300Y-20300D02*
X41700Y-20300D01*
X41700Y-20300D02*
X41700Y-19700D01*
X42300Y-21000D02*
X42294Y-21058D01*
X42294Y-21058D02*
X42277Y-21114D01*
X42277Y-21114D02*
X42249Y-21166D01*
X42249Y-21166D02*
X42212Y-21211D01*
X42212Y-21211D02*
X42167Y-21248D01*
X42167Y-21248D02*
X42116Y-21276D01*
X42116Y-21276D02*
X42060Y-21293D01*
X42060Y-21293D02*
X42002Y-21299D01*
X42002Y-21299D02*
X41944Y-21294D01*
X41944Y-21294D02*
X41888Y-21278D01*
X41888Y-21278D02*
X41836Y-21251D01*
X41836Y-21251D02*
X41791Y-21214D01*
X41791Y-21214D02*
X41753Y-21169D01*
X41753Y-21169D02*
X41725Y-21118D01*
X41725Y-21118D02*
X41707Y-21062D01*
X41707Y-21062D02*
X41701Y-21004D01*
X41701Y-21004D02*
X41705Y-20946D01*
X41705Y-20946D02*
X41722Y-20890D01*
X41722Y-20890D02*
X41748Y-20838D01*
X41748Y-20838D02*
X41785Y-20792D01*
X41785Y-20792D02*
X41829Y-20754D01*
X41829Y-20754D02*
X41880Y-20726D01*
X41880Y-20726D02*
X41936Y-20707D01*
X41936Y-20707D02*
X41994Y-20701D01*
X41994Y-20701D02*
X42052Y-20705D01*
X42052Y-20705D02*
X42108Y-20721D01*
X42108Y-20721D02*
X42160Y-20747D01*
X42160Y-20747D02*
X42206Y-20783D01*
X42206Y-20783D02*
X42245Y-20828D01*
X42245Y-20828D02*
X42274Y-20878D01*
X42274Y-20878D02*
X42292Y-20934D01*
X42292Y-20934D02*
X42299Y-20992D01*
X42299Y-20992D02*
X42300Y-21000D01*
X42300Y-22000D02*
X42294Y-22058D01*
X42294Y-22058D02*
X42277Y-22114D01*
X42277Y-22114D02*
X42249Y-22166D01*
X42249Y-22166D02*
X42212Y-22211D01*
X42212Y-22211D02*
X42167Y-22248D01*
X42167Y-22248D02*
X42116Y-22276D01*
X42116Y-22276D02*
X42060Y-22293D01*
X42060Y-22293D02*
X42002Y-22299D01*
X42002Y-22299D02*
X41944Y-22294D01*
X41944Y-22294D02*
X41888Y-22278D01*
X41888Y-22278D02*
X41836Y-22251D01*
X41836Y-22251D02*
X41791Y-22214D01*
X41791Y-22214D02*
X41753Y-22169D01*
X41753Y-22169D02*
X41725Y-22118D01*
X41725Y-22118D02*
X41707Y-22062D01*
X41707Y-22062D02*
X41701Y-22004D01*
X41701Y-22004D02*
X41705Y-21946D01*
X41705Y-21946D02*
X41722Y-21890D01*
X41722Y-21890D02*
X41748Y-21838D01*
X41748Y-21838D02*
X41785Y-21792D01*
X41785Y-21792D02*
X41829Y-21754D01*
X41829Y-21754D02*
X41880Y-21726D01*
X41880Y-21726D02*
X41936Y-21707D01*
X41936Y-21707D02*
X41994Y-21701D01*
X41994Y-21701D02*
X42052Y-21705D01*
X42052Y-21705D02*
X42108Y-21721D01*
X42108Y-21721D02*
X42160Y-21747D01*
X42160Y-21747D02*
X42206Y-21783D01*
X42206Y-21783D02*
X42245Y-21828D01*
X42245Y-21828D02*
X42274Y-21878D01*
X42274Y-21878D02*
X42292Y-21934D01*
X42292Y-21934D02*
X42299Y-21992D01*
X42299Y-21992D02*
X42300Y-22000D01*
X42300Y-23000D02*
X42294Y-23058D01*
X42294Y-23058D02*
X42277Y-23114D01*
X42277Y-23114D02*
X42249Y-23166D01*
X42249Y-23166D02*
X42212Y-23211D01*
X42212Y-23211D02*
X42167Y-23248D01*
X42167Y-23248D02*
X42116Y-23276D01*
X42116Y-23276D02*
X42060Y-23293D01*
X42060Y-23293D02*
X42002Y-23299D01*
X42002Y-23299D02*
X41944Y-23294D01*
X41944Y-23294D02*
X41888Y-23278D01*
X41888Y-23278D02*
X41836Y-23251D01*
X41836Y-23251D02*
X41791Y-23214D01*
X41791Y-23214D02*
X41753Y-23169D01*
X41753Y-23169D02*
X41725Y-23118D01*
X41725Y-23118D02*
X41707Y-23062D01*
X41707Y-23062D02*
X41701Y-23004D01*
X41701Y-23004D02*
X41705Y-22946D01*
X41705Y-22946D02*
X41722Y-22890D01*
X41722Y-22890D02*
X41748Y-22838D01*
X41748Y-22838D02*
X41785Y-22792D01*
X41785Y-22792D02*
X41829Y-22754D01*
X41829Y-22754D02*
X41880Y-22726D01*
X41880Y-22726D02*
X41936Y-22707D01*
X41936Y-22707D02*
X41994Y-22701D01*
X41994Y-22701D02*
X42052Y-22705D01*
X42052Y-22705D02*
X42108Y-22721D01*
X42108Y-22721D02*
X42160Y-22747D01*
X42160Y-22747D02*
X42206Y-22783D01*
X42206Y-22783D02*
X42245Y-22828D01*
X42245Y-22828D02*
X42274Y-22878D01*
X42274Y-22878D02*
X42292Y-22934D01*
X42292Y-22934D02*
X42299Y-22992D01*
X42299Y-22992D02*
X42300Y-23000D01*
X42300Y-24000D02*
X42294Y-24058D01*
X42294Y-24058D02*
X42277Y-24114D01*
X42277Y-24114D02*
X42249Y-24166D01*
X42249Y-24166D02*
X42212Y-24211D01*
X42212Y-24211D02*
X42167Y-24248D01*
X42167Y-24248D02*
X42116Y-24276D01*
X42116Y-24276D02*
X42060Y-24293D01*
X42060Y-24293D02*
X42002Y-24299D01*
X42002Y-24299D02*
X41944Y-24294D01*
X41944Y-24294D02*
X41888Y-24278D01*
X41888Y-24278D02*
X41836Y-24251D01*
X41836Y-24251D02*
X41791Y-24214D01*
X41791Y-24214D02*
X41753Y-24169D01*
X41753Y-24169D02*
X41725Y-24118D01*
X41725Y-24118D02*
X41707Y-24062D01*
X41707Y-24062D02*
X41701Y-24004D01*
X41701Y-24004D02*
X41705Y-23946D01*
X41705Y-23946D02*
X41722Y-23890D01*
X41722Y-23890D02*
X41748Y-23838D01*
X41748Y-23838D02*
X41785Y-23792D01*
X41785Y-23792D02*
X41829Y-23754D01*
X41829Y-23754D02*
X41880Y-23726D01*
X41880Y-23726D02*
X41936Y-23707D01*
X41936Y-23707D02*
X41994Y-23701D01*
X41994Y-23701D02*
X42052Y-23705D01*
X42052Y-23705D02*
X42108Y-23721D01*
X42108Y-23721D02*
X42160Y-23747D01*
X42160Y-23747D02*
X42206Y-23783D01*
X42206Y-23783D02*
X42245Y-23828D01*
X42245Y-23828D02*
X42274Y-23878D01*
X42274Y-23878D02*
X42292Y-23934D01*
X42292Y-23934D02*
X42299Y-23992D01*
X42299Y-23992D02*
X42300Y-24000D01*
X42300Y-25000D02*
X42294Y-25058D01*
X42294Y-25058D02*
X42277Y-25114D01*
X42277Y-25114D02*
X42249Y-25166D01*
X42249Y-25166D02*
X42212Y-25211D01*
X42212Y-25211D02*
X42167Y-25248D01*
X42167Y-25248D02*
X42116Y-25276D01*
X42116Y-25276D02*
X42060Y-25293D01*
X42060Y-25293D02*
X42002Y-25299D01*
X42002Y-25299D02*
X41944Y-25294D01*
X41944Y-25294D02*
X41888Y-25278D01*
X41888Y-25278D02*
X41836Y-25251D01*
X41836Y-25251D02*
X41791Y-25214D01*
X41791Y-25214D02*
X41753Y-25169D01*
X41753Y-25169D02*
X41725Y-25118D01*
X41725Y-25118D02*
X41707Y-25062D01*
X41707Y-25062D02*
X41701Y-25004D01*
X41701Y-25004D02*
X41705Y-24946D01*
X41705Y-24946D02*
X41722Y-24890D01*
X41722Y-24890D02*
X41748Y-24838D01*
X41748Y-24838D02*
X41785Y-24792D01*
X41785Y-24792D02*
X41829Y-24754D01*
X41829Y-24754D02*
X41880Y-24726D01*
X41880Y-24726D02*
X41936Y-24707D01*
X41936Y-24707D02*
X41994Y-24701D01*
X41994Y-24701D02*
X42052Y-24705D01*
X42052Y-24705D02*
X42108Y-24721D01*
X42108Y-24721D02*
X42160Y-24747D01*
X42160Y-24747D02*
X42206Y-24783D01*
X42206Y-24783D02*
X42245Y-24828D01*
X42245Y-24828D02*
X42274Y-24878D01*
X42274Y-24878D02*
X42292Y-24934D01*
X42292Y-24934D02*
X42299Y-24992D01*
X42299Y-24992D02*
X42300Y-25000D01*
X36700Y-37200D02*
X37300Y-37200D01*
X37300Y-37200D02*
X37300Y-37800D01*
X37300Y-37800D02*
X36700Y-37800D01*
X36700Y-37800D02*
X36700Y-37200D01*
X37300Y-38500D02*
X37294Y-38558D01*
X37294Y-38558D02*
X37277Y-38614D01*
X37277Y-38614D02*
X37249Y-38666D01*
X37249Y-38666D02*
X37212Y-38711D01*
X37212Y-38711D02*
X37167Y-38748D01*
X37167Y-38748D02*
X37116Y-38776D01*
X37116Y-38776D02*
X37060Y-38793D01*
X37060Y-38793D02*
X37002Y-38799D01*
X37002Y-38799D02*
X36944Y-38794D01*
X36944Y-38794D02*
X36888Y-38778D01*
X36888Y-38778D02*
X36836Y-38751D01*
X36836Y-38751D02*
X36791Y-38714D01*
X36791Y-38714D02*
X36753Y-38669D01*
X36753Y-38669D02*
X36725Y-38618D01*
X36725Y-38618D02*
X36707Y-38562D01*
X36707Y-38562D02*
X36701Y-38504D01*
X36701Y-38504D02*
X36705Y-38446D01*
X36705Y-38446D02*
X36722Y-38390D01*
X36722Y-38390D02*
X36748Y-38338D01*
X36748Y-38338D02*
X36785Y-38292D01*
X36785Y-38292D02*
X36829Y-38254D01*
X36829Y-38254D02*
X36880Y-38226D01*
X36880Y-38226D02*
X36936Y-38207D01*
X36936Y-38207D02*
X36994Y-38201D01*
X36994Y-38201D02*
X37052Y-38205D01*
X37052Y-38205D02*
X37108Y-38221D01*
X37108Y-38221D02*
X37160Y-38247D01*
X37160Y-38247D02*
X37206Y-38283D01*
X37206Y-38283D02*
X37245Y-38328D01*
X37245Y-38328D02*
X37274Y-38378D01*
X37274Y-38378D02*
X37292Y-38434D01*
X37292Y-38434D02*
X37299Y-38492D01*
X37299Y-38492D02*
X37300Y-38500D01*
X37300Y-39500D02*
X37294Y-39558D01*
X37294Y-39558D02*
X37277Y-39614D01*
X37277Y-39614D02*
X37249Y-39666D01*
X37249Y-39666D02*
X37212Y-39711D01*
X37212Y-39711D02*
X37167Y-39748D01*
X37167Y-39748D02*
X37116Y-39776D01*
X37116Y-39776D02*
X37060Y-39793D01*
X37060Y-39793D02*
X37002Y-39799D01*
X37002Y-39799D02*
X36944Y-39794D01*
X36944Y-39794D02*
X36888Y-39778D01*
X36888Y-39778D02*
X36836Y-39751D01*
X36836Y-39751D02*
X36791Y-39714D01*
X36791Y-39714D02*
X36753Y-39669D01*
X36753Y-39669D02*
X36725Y-39618D01*
X36725Y-39618D02*
X36707Y-39562D01*
X36707Y-39562D02*
X36701Y-39504D01*
X36701Y-39504D02*
X36705Y-39446D01*
X36705Y-39446D02*
X36722Y-39390D01*
X36722Y-39390D02*
X36748Y-39338D01*
X36748Y-39338D02*
X36785Y-39292D01*
X36785Y-39292D02*
X36829Y-39254D01*
X36829Y-39254D02*
X36880Y-39226D01*
X36880Y-39226D02*
X36936Y-39207D01*
X36936Y-39207D02*
X36994Y-39201D01*
X36994Y-39201D02*
X37052Y-39205D01*
X37052Y-39205D02*
X37108Y-39221D01*
X37108Y-39221D02*
X37160Y-39247D01*
X37160Y-39247D02*
X37206Y-39283D01*
X37206Y-39283D02*
X37245Y-39328D01*
X37245Y-39328D02*
X37274Y-39378D01*
X37274Y-39378D02*
X37292Y-39434D01*
X37292Y-39434D02*
X37299Y-39492D01*
X37299Y-39492D02*
X37300Y-39500D01*
X37300Y-40500D02*
X37294Y-40558D01*
X37294Y-40558D02*
X37277Y-40614D01*
X37277Y-40614D02*
X37249Y-40666D01*
X37249Y-40666D02*
X37212Y-40711D01*
X37212Y-40711D02*
X37167Y-40748D01*
X37167Y-40748D02*
X37116Y-40776D01*
X37116Y-40776D02*
X37060Y-40793D01*
X37060Y-40793D02*
X37002Y-40799D01*
X37002Y-40799D02*
X36944Y-40794D01*
X36944Y-40794D02*
X36888Y-40778D01*
X36888Y-40778D02*
X36836Y-40751D01*
X36836Y-40751D02*
X36791Y-40714D01*
X36791Y-40714D02*
X36753Y-40669D01*
X36753Y-40669D02*
X36725Y-40618D01*
X36725Y-40618D02*
X36707Y-40562D01*
X36707Y-40562D02*
X36701Y-40504D01*
X36701Y-40504D02*
X36705Y-40446D01*
X36705Y-40446D02*
X36722Y-40390D01*
X36722Y-40390D02*
X36748Y-40338D01*
X36748Y-40338D02*
X36785Y-40292D01*
X36785Y-40292D02*
X36829Y-40254D01*
X36829Y-40254D02*
X36880Y-40226D01*
X36880Y-40226D02*
X36936Y-40207D01*
X36936Y-40207D02*
X36994Y-40201D01*
X36994Y-40201D02*
X37052Y-40205D01*
X37052Y-40205D02*
X37108Y-40221D01*
X37108Y-40221D02*
X37160Y-40247D01*
X37160Y-40247D02*
X37206Y-40283D01*
X37206Y-40283D02*
X37245Y-40328D01*
X37245Y-40328D02*
X37274Y-40378D01*
X37274Y-40378D02*
X37292Y-40434D01*
X37292Y-40434D02*
X37299Y-40492D01*
X37299Y-40492D02*
X37300Y-40500D01*
X37300Y-41500D02*
X37294Y-41558D01*
X37294Y-41558D02*
X37277Y-41614D01*
X37277Y-41614D02*
X37249Y-41666D01*
X37249Y-41666D02*
X37212Y-41711D01*
X37212Y-41711D02*
X37167Y-41748D01*
X37167Y-41748D02*
X37116Y-41776D01*
X37116Y-41776D02*
X37060Y-41793D01*
X37060Y-41793D02*
X37002Y-41799D01*
X37002Y-41799D02*
X36944Y-41794D01*
X36944Y-41794D02*
X36888Y-41778D01*
X36888Y-41778D02*
X36836Y-41751D01*
X36836Y-41751D02*
X36791Y-41714D01*
X36791Y-41714D02*
X36753Y-41669D01*
X36753Y-41669D02*
X36725Y-41618D01*
X36725Y-41618D02*
X36707Y-41562D01*
X36707Y-41562D02*
X36701Y-41504D01*
X36701Y-41504D02*
X36705Y-41446D01*
X36705Y-41446D02*
X36722Y-41390D01*
X36722Y-41390D02*
X36748Y-41338D01*
X36748Y-41338D02*
X36785Y-41292D01*
X36785Y-41292D02*
X36829Y-41254D01*
X36829Y-41254D02*
X36880Y-41226D01*
X36880Y-41226D02*
X36936Y-41207D01*
X36936Y-41207D02*
X36994Y-41201D01*
X36994Y-41201D02*
X37052Y-41205D01*
X37052Y-41205D02*
X37108Y-41221D01*
X37108Y-41221D02*
X37160Y-41247D01*
X37160Y-41247D02*
X37206Y-41283D01*
X37206Y-41283D02*
X37245Y-41328D01*
X37245Y-41328D02*
X37274Y-41378D01*
X37274Y-41378D02*
X37292Y-41434D01*
X37292Y-41434D02*
X37299Y-41492D01*
X37299Y-41492D02*
X37300Y-41500D01*
X37300Y-42500D02*
X37294Y-42558D01*
X37294Y-42558D02*
X37277Y-42614D01*
X37277Y-42614D02*
X37249Y-42666D01*
X37249Y-42666D02*
X37212Y-42711D01*
X37212Y-42711D02*
X37167Y-42748D01*
X37167Y-42748D02*
X37116Y-42776D01*
X37116Y-42776D02*
X37060Y-42793D01*
X37060Y-42793D02*
X37002Y-42799D01*
X37002Y-42799D02*
X36944Y-42794D01*
X36944Y-42794D02*
X36888Y-42778D01*
X36888Y-42778D02*
X36836Y-42751D01*
X36836Y-42751D02*
X36791Y-42714D01*
X36791Y-42714D02*
X36753Y-42669D01*
X36753Y-42669D02*
X36725Y-42618D01*
X36725Y-42618D02*
X36707Y-42562D01*
X36707Y-42562D02*
X36701Y-42504D01*
X36701Y-42504D02*
X36705Y-42446D01*
X36705Y-42446D02*
X36722Y-42390D01*
X36722Y-42390D02*
X36748Y-42338D01*
X36748Y-42338D02*
X36785Y-42292D01*
X36785Y-42292D02*
X36829Y-42254D01*
X36829Y-42254D02*
X36880Y-42226D01*
X36880Y-42226D02*
X36936Y-42207D01*
X36936Y-42207D02*
X36994Y-42201D01*
X36994Y-42201D02*
X37052Y-42205D01*
X37052Y-42205D02*
X37108Y-42221D01*
X37108Y-42221D02*
X37160Y-42247D01*
X37160Y-42247D02*
X37206Y-42283D01*
X37206Y-42283D02*
X37245Y-42328D01*
X37245Y-42328D02*
X37274Y-42378D01*
X37274Y-42378D02*
X37292Y-42434D01*
X37292Y-42434D02*
X37299Y-42492D01*
X37299Y-42492D02*
X37300Y-42500D01*
X36700Y-19700D02*
X37300Y-19700D01*
X37300Y-19700D02*
X37300Y-20300D01*
X37300Y-20300D02*
X36700Y-20300D01*
X36700Y-20300D02*
X36700Y-19700D01*
X37300Y-21000D02*
X37294Y-21058D01*
X37294Y-21058D02*
X37277Y-21114D01*
X37277Y-21114D02*
X37249Y-21166D01*
X37249Y-21166D02*
X37212Y-21211D01*
X37212Y-21211D02*
X37167Y-21248D01*
X37167Y-21248D02*
X37116Y-21276D01*
X37116Y-21276D02*
X37060Y-21293D01*
X37060Y-21293D02*
X37002Y-21299D01*
X37002Y-21299D02*
X36944Y-21294D01*
X36944Y-21294D02*
X36888Y-21278D01*
X36888Y-21278D02*
X36836Y-21251D01*
X36836Y-21251D02*
X36791Y-21214D01*
X36791Y-21214D02*
X36753Y-21169D01*
X36753Y-21169D02*
X36725Y-21118D01*
X36725Y-21118D02*
X36707Y-21062D01*
X36707Y-21062D02*
X36701Y-21004D01*
X36701Y-21004D02*
X36705Y-20946D01*
X36705Y-20946D02*
X36722Y-20890D01*
X36722Y-20890D02*
X36748Y-20838D01*
X36748Y-20838D02*
X36785Y-20792D01*
X36785Y-20792D02*
X36829Y-20754D01*
X36829Y-20754D02*
X36880Y-20726D01*
X36880Y-20726D02*
X36936Y-20707D01*
X36936Y-20707D02*
X36994Y-20701D01*
X36994Y-20701D02*
X37052Y-20705D01*
X37052Y-20705D02*
X37108Y-20721D01*
X37108Y-20721D02*
X37160Y-20747D01*
X37160Y-20747D02*
X37206Y-20783D01*
X37206Y-20783D02*
X37245Y-20828D01*
X37245Y-20828D02*
X37274Y-20878D01*
X37274Y-20878D02*
X37292Y-20934D01*
X37292Y-20934D02*
X37299Y-20992D01*
X37299Y-20992D02*
X37300Y-21000D01*
X37300Y-22000D02*
X37294Y-22058D01*
X37294Y-22058D02*
X37277Y-22114D01*
X37277Y-22114D02*
X37249Y-22166D01*
X37249Y-22166D02*
X37212Y-22211D01*
X37212Y-22211D02*
X37167Y-22248D01*
X37167Y-22248D02*
X37116Y-22276D01*
X37116Y-22276D02*
X37060Y-22293D01*
X37060Y-22293D02*
X37002Y-22299D01*
X37002Y-22299D02*
X36944Y-22294D01*
X36944Y-22294D02*
X36888Y-22278D01*
X36888Y-22278D02*
X36836Y-22251D01*
X36836Y-22251D02*
X36791Y-22214D01*
X36791Y-22214D02*
X36753Y-22169D01*
X36753Y-22169D02*
X36725Y-22118D01*
X36725Y-22118D02*
X36707Y-22062D01*
X36707Y-22062D02*
X36701Y-22004D01*
X36701Y-22004D02*
X36705Y-21946D01*
X36705Y-21946D02*
X36722Y-21890D01*
X36722Y-21890D02*
X36748Y-21838D01*
X36748Y-21838D02*
X36785Y-21792D01*
X36785Y-21792D02*
X36829Y-21754D01*
X36829Y-21754D02*
X36880Y-21726D01*
X36880Y-21726D02*
X36936Y-21707D01*
X36936Y-21707D02*
X36994Y-21701D01*
X36994Y-21701D02*
X37052Y-21705D01*
X37052Y-21705D02*
X37108Y-21721D01*
X37108Y-21721D02*
X37160Y-21747D01*
X37160Y-21747D02*
X37206Y-21783D01*
X37206Y-21783D02*
X37245Y-21828D01*
X37245Y-21828D02*
X37274Y-21878D01*
X37274Y-21878D02*
X37292Y-21934D01*
X37292Y-21934D02*
X37299Y-21992D01*
X37299Y-21992D02*
X37300Y-22000D01*
X37300Y-23000D02*
X37294Y-23058D01*
X37294Y-23058D02*
X37277Y-23114D01*
X37277Y-23114D02*
X37249Y-23166D01*
X37249Y-23166D02*
X37212Y-23211D01*
X37212Y-23211D02*
X37167Y-23248D01*
X37167Y-23248D02*
X37116Y-23276D01*
X37116Y-23276D02*
X37060Y-23293D01*
X37060Y-23293D02*
X37002Y-23299D01*
X37002Y-23299D02*
X36944Y-23294D01*
X36944Y-23294D02*
X36888Y-23278D01*
X36888Y-23278D02*
X36836Y-23251D01*
X36836Y-23251D02*
X36791Y-23214D01*
X36791Y-23214D02*
X36753Y-23169D01*
X36753Y-23169D02*
X36725Y-23118D01*
X36725Y-23118D02*
X36707Y-23062D01*
X36707Y-23062D02*
X36701Y-23004D01*
X36701Y-23004D02*
X36705Y-22946D01*
X36705Y-22946D02*
X36722Y-22890D01*
X36722Y-22890D02*
X36748Y-22838D01*
X36748Y-22838D02*
X36785Y-22792D01*
X36785Y-22792D02*
X36829Y-22754D01*
X36829Y-22754D02*
X36880Y-22726D01*
X36880Y-22726D02*
X36936Y-22707D01*
X36936Y-22707D02*
X36994Y-22701D01*
X36994Y-22701D02*
X37052Y-22705D01*
X37052Y-22705D02*
X37108Y-22721D01*
X37108Y-22721D02*
X37160Y-22747D01*
X37160Y-22747D02*
X37206Y-22783D01*
X37206Y-22783D02*
X37245Y-22828D01*
X37245Y-22828D02*
X37274Y-22878D01*
X37274Y-22878D02*
X37292Y-22934D01*
X37292Y-22934D02*
X37299Y-22992D01*
X37299Y-22992D02*
X37300Y-23000D01*
X37300Y-24000D02*
X37294Y-24058D01*
X37294Y-24058D02*
X37277Y-24114D01*
X37277Y-24114D02*
X37249Y-24166D01*
X37249Y-24166D02*
X37212Y-24211D01*
X37212Y-24211D02*
X37167Y-24248D01*
X37167Y-24248D02*
X37116Y-24276D01*
X37116Y-24276D02*
X37060Y-24293D01*
X37060Y-24293D02*
X37002Y-24299D01*
X37002Y-24299D02*
X36944Y-24294D01*
X36944Y-24294D02*
X36888Y-24278D01*
X36888Y-24278D02*
X36836Y-24251D01*
X36836Y-24251D02*
X36791Y-24214D01*
X36791Y-24214D02*
X36753Y-24169D01*
X36753Y-24169D02*
X36725Y-24118D01*
X36725Y-24118D02*
X36707Y-24062D01*
X36707Y-24062D02*
X36701Y-24004D01*
X36701Y-24004D02*
X36705Y-23946D01*
X36705Y-23946D02*
X36722Y-23890D01*
X36722Y-23890D02*
X36748Y-23838D01*
X36748Y-23838D02*
X36785Y-23792D01*
X36785Y-23792D02*
X36829Y-23754D01*
X36829Y-23754D02*
X36880Y-23726D01*
X36880Y-23726D02*
X36936Y-23707D01*
X36936Y-23707D02*
X36994Y-23701D01*
X36994Y-23701D02*
X37052Y-23705D01*
X37052Y-23705D02*
X37108Y-23721D01*
X37108Y-23721D02*
X37160Y-23747D01*
X37160Y-23747D02*
X37206Y-23783D01*
X37206Y-23783D02*
X37245Y-23828D01*
X37245Y-23828D02*
X37274Y-23878D01*
X37274Y-23878D02*
X37292Y-23934D01*
X37292Y-23934D02*
X37299Y-23992D01*
X37299Y-23992D02*
X37300Y-24000D01*
X37300Y-25000D02*
X37294Y-25058D01*
X37294Y-25058D02*
X37277Y-25114D01*
X37277Y-25114D02*
X37249Y-25166D01*
X37249Y-25166D02*
X37212Y-25211D01*
X37212Y-25211D02*
X37167Y-25248D01*
X37167Y-25248D02*
X37116Y-25276D01*
X37116Y-25276D02*
X37060Y-25293D01*
X37060Y-25293D02*
X37002Y-25299D01*
X37002Y-25299D02*
X36944Y-25294D01*
X36944Y-25294D02*
X36888Y-25278D01*
X36888Y-25278D02*
X36836Y-25251D01*
X36836Y-25251D02*
X36791Y-25214D01*
X36791Y-25214D02*
X36753Y-25169D01*
X36753Y-25169D02*
X36725Y-25118D01*
X36725Y-25118D02*
X36707Y-25062D01*
X36707Y-25062D02*
X36701Y-25004D01*
X36701Y-25004D02*
X36705Y-24946D01*
X36705Y-24946D02*
X36722Y-24890D01*
X36722Y-24890D02*
X36748Y-24838D01*
X36748Y-24838D02*
X36785Y-24792D01*
X36785Y-24792D02*
X36829Y-24754D01*
X36829Y-24754D02*
X36880Y-24726D01*
X36880Y-24726D02*
X36936Y-24707D01*
X36936Y-24707D02*
X36994Y-24701D01*
X36994Y-24701D02*
X37052Y-24705D01*
X37052Y-24705D02*
X37108Y-24721D01*
X37108Y-24721D02*
X37160Y-24747D01*
X37160Y-24747D02*
X37206Y-24783D01*
X37206Y-24783D02*
X37245Y-24828D01*
X37245Y-24828D02*
X37274Y-24878D01*
X37274Y-24878D02*
X37292Y-24934D01*
X37292Y-24934D02*
X37299Y-24992D01*
X37299Y-24992D02*
X37300Y-25000D01*
X31700Y-37200D02*
X32300Y-37200D01*
X32300Y-37200D02*
X32300Y-37800D01*
X32300Y-37800D02*
X31700Y-37800D01*
X31700Y-37800D02*
X31700Y-37200D01*
X32300Y-38500D02*
X32294Y-38558D01*
X32294Y-38558D02*
X32277Y-38614D01*
X32277Y-38614D02*
X32249Y-38666D01*
X32249Y-38666D02*
X32212Y-38711D01*
X32212Y-38711D02*
X32167Y-38748D01*
X32167Y-38748D02*
X32116Y-38776D01*
X32116Y-38776D02*
X32060Y-38793D01*
X32060Y-38793D02*
X32002Y-38799D01*
X32002Y-38799D02*
X31944Y-38794D01*
X31944Y-38794D02*
X31888Y-38778D01*
X31888Y-38778D02*
X31836Y-38751D01*
X31836Y-38751D02*
X31791Y-38714D01*
X31791Y-38714D02*
X31753Y-38669D01*
X31753Y-38669D02*
X31725Y-38618D01*
X31725Y-38618D02*
X31707Y-38562D01*
X31707Y-38562D02*
X31701Y-38504D01*
X31701Y-38504D02*
X31705Y-38446D01*
X31705Y-38446D02*
X31722Y-38390D01*
X31722Y-38390D02*
X31748Y-38338D01*
X31748Y-38338D02*
X31785Y-38292D01*
X31785Y-38292D02*
X31829Y-38254D01*
X31829Y-38254D02*
X31880Y-38226D01*
X31880Y-38226D02*
X31936Y-38207D01*
X31936Y-38207D02*
X31994Y-38201D01*
X31994Y-38201D02*
X32052Y-38205D01*
X32052Y-38205D02*
X32108Y-38221D01*
X32108Y-38221D02*
X32160Y-38247D01*
X32160Y-38247D02*
X32206Y-38283D01*
X32206Y-38283D02*
X32245Y-38328D01*
X32245Y-38328D02*
X32274Y-38378D01*
X32274Y-38378D02*
X32292Y-38434D01*
X32292Y-38434D02*
X32299Y-38492D01*
X32299Y-38492D02*
X32300Y-38500D01*
X32300Y-39500D02*
X32294Y-39558D01*
X32294Y-39558D02*
X32277Y-39614D01*
X32277Y-39614D02*
X32249Y-39666D01*
X32249Y-39666D02*
X32212Y-39711D01*
X32212Y-39711D02*
X32167Y-39748D01*
X32167Y-39748D02*
X32116Y-39776D01*
X32116Y-39776D02*
X32060Y-39793D01*
X32060Y-39793D02*
X32002Y-39799D01*
X32002Y-39799D02*
X31944Y-39794D01*
X31944Y-39794D02*
X31888Y-39778D01*
X31888Y-39778D02*
X31836Y-39751D01*
X31836Y-39751D02*
X31791Y-39714D01*
X31791Y-39714D02*
X31753Y-39669D01*
X31753Y-39669D02*
X31725Y-39618D01*
X31725Y-39618D02*
X31707Y-39562D01*
X31707Y-39562D02*
X31701Y-39504D01*
X31701Y-39504D02*
X31705Y-39446D01*
X31705Y-39446D02*
X31722Y-39390D01*
X31722Y-39390D02*
X31748Y-39338D01*
X31748Y-39338D02*
X31785Y-39292D01*
X31785Y-39292D02*
X31829Y-39254D01*
X31829Y-39254D02*
X31880Y-39226D01*
X31880Y-39226D02*
X31936Y-39207D01*
X31936Y-39207D02*
X31994Y-39201D01*
X31994Y-39201D02*
X32052Y-39205D01*
X32052Y-39205D02*
X32108Y-39221D01*
X32108Y-39221D02*
X32160Y-39247D01*
X32160Y-39247D02*
X32206Y-39283D01*
X32206Y-39283D02*
X32245Y-39328D01*
X32245Y-39328D02*
X32274Y-39378D01*
X32274Y-39378D02*
X32292Y-39434D01*
X32292Y-39434D02*
X32299Y-39492D01*
X32299Y-39492D02*
X32300Y-39500D01*
X32300Y-40500D02*
X32294Y-40558D01*
X32294Y-40558D02*
X32277Y-40614D01*
X32277Y-40614D02*
X32249Y-40666D01*
X32249Y-40666D02*
X32212Y-40711D01*
X32212Y-40711D02*
X32167Y-40748D01*
X32167Y-40748D02*
X32116Y-40776D01*
X32116Y-40776D02*
X32060Y-40793D01*
X32060Y-40793D02*
X32002Y-40799D01*
X32002Y-40799D02*
X31944Y-40794D01*
X31944Y-40794D02*
X31888Y-40778D01*
X31888Y-40778D02*
X31836Y-40751D01*
X31836Y-40751D02*
X31791Y-40714D01*
X31791Y-40714D02*
X31753Y-40669D01*
X31753Y-40669D02*
X31725Y-40618D01*
X31725Y-40618D02*
X31707Y-40562D01*
X31707Y-40562D02*
X31701Y-40504D01*
X31701Y-40504D02*
X31705Y-40446D01*
X31705Y-40446D02*
X31722Y-40390D01*
X31722Y-40390D02*
X31748Y-40338D01*
X31748Y-40338D02*
X31785Y-40292D01*
X31785Y-40292D02*
X31829Y-40254D01*
X31829Y-40254D02*
X31880Y-40226D01*
X31880Y-40226D02*
X31936Y-40207D01*
X31936Y-40207D02*
X31994Y-40201D01*
X31994Y-40201D02*
X32052Y-40205D01*
X32052Y-40205D02*
X32108Y-40221D01*
X32108Y-40221D02*
X32160Y-40247D01*
X32160Y-40247D02*
X32206Y-40283D01*
X32206Y-40283D02*
X32245Y-40328D01*
X32245Y-40328D02*
X32274Y-40378D01*
X32274Y-40378D02*
X32292Y-40434D01*
X32292Y-40434D02*
X32299Y-40492D01*
X32299Y-40492D02*
X32300Y-40500D01*
X32300Y-41500D02*
X32294Y-41558D01*
X32294Y-41558D02*
X32277Y-41614D01*
X32277Y-41614D02*
X32249Y-41666D01*
X32249Y-41666D02*
X32212Y-41711D01*
X32212Y-41711D02*
X32167Y-41748D01*
X32167Y-41748D02*
X32116Y-41776D01*
X32116Y-41776D02*
X32060Y-41793D01*
X32060Y-41793D02*
X32002Y-41799D01*
X32002Y-41799D02*
X31944Y-41794D01*
X31944Y-41794D02*
X31888Y-41778D01*
X31888Y-41778D02*
X31836Y-41751D01*
X31836Y-41751D02*
X31791Y-41714D01*
X31791Y-41714D02*
X31753Y-41669D01*
X31753Y-41669D02*
X31725Y-41618D01*
X31725Y-41618D02*
X31707Y-41562D01*
X31707Y-41562D02*
X31701Y-41504D01*
X31701Y-41504D02*
X31705Y-41446D01*
X31705Y-41446D02*
X31722Y-41390D01*
X31722Y-41390D02*
X31748Y-41338D01*
X31748Y-41338D02*
X31785Y-41292D01*
X31785Y-41292D02*
X31829Y-41254D01*
X31829Y-41254D02*
X31880Y-41226D01*
X31880Y-41226D02*
X31936Y-41207D01*
X31936Y-41207D02*
X31994Y-41201D01*
X31994Y-41201D02*
X32052Y-41205D01*
X32052Y-41205D02*
X32108Y-41221D01*
X32108Y-41221D02*
X32160Y-41247D01*
X32160Y-41247D02*
X32206Y-41283D01*
X32206Y-41283D02*
X32245Y-41328D01*
X32245Y-41328D02*
X32274Y-41378D01*
X32274Y-41378D02*
X32292Y-41434D01*
X32292Y-41434D02*
X32299Y-41492D01*
X32299Y-41492D02*
X32300Y-41500D01*
X32300Y-42500D02*
X32294Y-42558D01*
X32294Y-42558D02*
X32277Y-42614D01*
X32277Y-42614D02*
X32249Y-42666D01*
X32249Y-42666D02*
X32212Y-42711D01*
X32212Y-42711D02*
X32167Y-42748D01*
X32167Y-42748D02*
X32116Y-42776D01*
X32116Y-42776D02*
X32060Y-42793D01*
X32060Y-42793D02*
X32002Y-42799D01*
X32002Y-42799D02*
X31944Y-42794D01*
X31944Y-42794D02*
X31888Y-42778D01*
X31888Y-42778D02*
X31836Y-42751D01*
X31836Y-42751D02*
X31791Y-42714D01*
X31791Y-42714D02*
X31753Y-42669D01*
X31753Y-42669D02*
X31725Y-42618D01*
X31725Y-42618D02*
X31707Y-42562D01*
X31707Y-42562D02*
X31701Y-42504D01*
X31701Y-42504D02*
X31705Y-42446D01*
X31705Y-42446D02*
X31722Y-42390D01*
X31722Y-42390D02*
X31748Y-42338D01*
X31748Y-42338D02*
X31785Y-42292D01*
X31785Y-42292D02*
X31829Y-42254D01*
X31829Y-42254D02*
X31880Y-42226D01*
X31880Y-42226D02*
X31936Y-42207D01*
X31936Y-42207D02*
X31994Y-42201D01*
X31994Y-42201D02*
X32052Y-42205D01*
X32052Y-42205D02*
X32108Y-42221D01*
X32108Y-42221D02*
X32160Y-42247D01*
X32160Y-42247D02*
X32206Y-42283D01*
X32206Y-42283D02*
X32245Y-42328D01*
X32245Y-42328D02*
X32274Y-42378D01*
X32274Y-42378D02*
X32292Y-42434D01*
X32292Y-42434D02*
X32299Y-42492D01*
X32299Y-42492D02*
X32300Y-42500D01*
X31700Y-19700D02*
X32300Y-19700D01*
X32300Y-19700D02*
X32300Y-20300D01*
X32300Y-20300D02*
X31700Y-20300D01*
X31700Y-20300D02*
X31700Y-19700D01*
X32300Y-21000D02*
X32294Y-21058D01*
X32294Y-21058D02*
X32277Y-21114D01*
X32277Y-21114D02*
X32249Y-21166D01*
X32249Y-21166D02*
X32212Y-21211D01*
X32212Y-21211D02*
X32167Y-21248D01*
X32167Y-21248D02*
X32116Y-21276D01*
X32116Y-21276D02*
X32060Y-21293D01*
X32060Y-21293D02*
X32002Y-21299D01*
X32002Y-21299D02*
X31944Y-21294D01*
X31944Y-21294D02*
X31888Y-21278D01*
X31888Y-21278D02*
X31836Y-21251D01*
X31836Y-21251D02*
X31791Y-21214D01*
X31791Y-21214D02*
X31753Y-21169D01*
X31753Y-21169D02*
X31725Y-21118D01*
X31725Y-21118D02*
X31707Y-21062D01*
X31707Y-21062D02*
X31701Y-21004D01*
X31701Y-21004D02*
X31705Y-20946D01*
X31705Y-20946D02*
X31722Y-20890D01*
X31722Y-20890D02*
X31748Y-20838D01*
X31748Y-20838D02*
X31785Y-20792D01*
X31785Y-20792D02*
X31829Y-20754D01*
X31829Y-20754D02*
X31880Y-20726D01*
X31880Y-20726D02*
X31936Y-20707D01*
X31936Y-20707D02*
X31994Y-20701D01*
X31994Y-20701D02*
X32052Y-20705D01*
X32052Y-20705D02*
X32108Y-20721D01*
X32108Y-20721D02*
X32160Y-20747D01*
X32160Y-20747D02*
X32206Y-20783D01*
X32206Y-20783D02*
X32245Y-20828D01*
X32245Y-20828D02*
X32274Y-20878D01*
X32274Y-20878D02*
X32292Y-20934D01*
X32292Y-20934D02*
X32299Y-20992D01*
X32299Y-20992D02*
X32300Y-21000D01*
X32300Y-22000D02*
X32294Y-22058D01*
X32294Y-22058D02*
X32277Y-22114D01*
X32277Y-22114D02*
X32249Y-22166D01*
X32249Y-22166D02*
X32212Y-22211D01*
X32212Y-22211D02*
X32167Y-22248D01*
X32167Y-22248D02*
X32116Y-22276D01*
X32116Y-22276D02*
X32060Y-22293D01*
X32060Y-22293D02*
X32002Y-22299D01*
X32002Y-22299D02*
X31944Y-22294D01*
X31944Y-22294D02*
X31888Y-22278D01*
X31888Y-22278D02*
X31836Y-22251D01*
X31836Y-22251D02*
X31791Y-22214D01*
X31791Y-22214D02*
X31753Y-22169D01*
X31753Y-22169D02*
X31725Y-22118D01*
X31725Y-22118D02*
X31707Y-22062D01*
X31707Y-22062D02*
X31701Y-22004D01*
X31701Y-22004D02*
X31705Y-21946D01*
X31705Y-21946D02*
X31722Y-21890D01*
X31722Y-21890D02*
X31748Y-21838D01*
X31748Y-21838D02*
X31785Y-21792D01*
X31785Y-21792D02*
X31829Y-21754D01*
X31829Y-21754D02*
X31880Y-21726D01*
X31880Y-21726D02*
X31936Y-21707D01*
X31936Y-21707D02*
X31994Y-21701D01*
X31994Y-21701D02*
X32052Y-21705D01*
X32052Y-21705D02*
X32108Y-21721D01*
X32108Y-21721D02*
X32160Y-21747D01*
X32160Y-21747D02*
X32206Y-21783D01*
X32206Y-21783D02*
X32245Y-21828D01*
X32245Y-21828D02*
X32274Y-21878D01*
X32274Y-21878D02*
X32292Y-21934D01*
X32292Y-21934D02*
X32299Y-21992D01*
X32299Y-21992D02*
X32300Y-22000D01*
X32300Y-23000D02*
X32294Y-23058D01*
X32294Y-23058D02*
X32277Y-23114D01*
X32277Y-23114D02*
X32249Y-23166D01*
X32249Y-23166D02*
X32212Y-23211D01*
X32212Y-23211D02*
X32167Y-23248D01*
X32167Y-23248D02*
X32116Y-23276D01*
X32116Y-23276D02*
X32060Y-23293D01*
X32060Y-23293D02*
X32002Y-23299D01*
X32002Y-23299D02*
X31944Y-23294D01*
X31944Y-23294D02*
X31888Y-23278D01*
X31888Y-23278D02*
X31836Y-23251D01*
X31836Y-23251D02*
X31791Y-23214D01*
X31791Y-23214D02*
X31753Y-23169D01*
X31753Y-23169D02*
X31725Y-23118D01*
X31725Y-23118D02*
X31707Y-23062D01*
X31707Y-23062D02*
X31701Y-23004D01*
X31701Y-23004D02*
X31705Y-22946D01*
X31705Y-22946D02*
X31722Y-22890D01*
X31722Y-22890D02*
X31748Y-22838D01*
X31748Y-22838D02*
X31785Y-22792D01*
X31785Y-22792D02*
X31829Y-22754D01*
X31829Y-22754D02*
X31880Y-22726D01*
X31880Y-22726D02*
X31936Y-22707D01*
X31936Y-22707D02*
X31994Y-22701D01*
X31994Y-22701D02*
X32052Y-22705D01*
X32052Y-22705D02*
X32108Y-22721D01*
X32108Y-22721D02*
X32160Y-22747D01*
X32160Y-22747D02*
X32206Y-22783D01*
X32206Y-22783D02*
X32245Y-22828D01*
X32245Y-22828D02*
X32274Y-22878D01*
X32274Y-22878D02*
X32292Y-22934D01*
X32292Y-22934D02*
X32299Y-22992D01*
X32299Y-22992D02*
X32300Y-23000D01*
X32300Y-24000D02*
X32294Y-24058D01*
X32294Y-24058D02*
X32277Y-24114D01*
X32277Y-24114D02*
X32249Y-24166D01*
X32249Y-24166D02*
X32212Y-24211D01*
X32212Y-24211D02*
X32167Y-24248D01*
X32167Y-24248D02*
X32116Y-24276D01*
X32116Y-24276D02*
X32060Y-24293D01*
X32060Y-24293D02*
X32002Y-24299D01*
X32002Y-24299D02*
X31944Y-24294D01*
X31944Y-24294D02*
X31888Y-24278D01*
X31888Y-24278D02*
X31836Y-24251D01*
X31836Y-24251D02*
X31791Y-24214D01*
X31791Y-24214D02*
X31753Y-24169D01*
X31753Y-24169D02*
X31725Y-24118D01*
X31725Y-24118D02*
X31707Y-24062D01*
X31707Y-24062D02*
X31701Y-24004D01*
X31701Y-24004D02*
X31705Y-23946D01*
X31705Y-23946D02*
X31722Y-23890D01*
X31722Y-23890D02*
X31748Y-23838D01*
X31748Y-23838D02*
X31785Y-23792D01*
X31785Y-23792D02*
X31829Y-23754D01*
X31829Y-23754D02*
X31880Y-23726D01*
X31880Y-23726D02*
X31936Y-23707D01*
X31936Y-23707D02*
X31994Y-23701D01*
X31994Y-23701D02*
X32052Y-23705D01*
X32052Y-23705D02*
X32108Y-23721D01*
X32108Y-23721D02*
X32160Y-23747D01*
X32160Y-23747D02*
X32206Y-23783D01*
X32206Y-23783D02*
X32245Y-23828D01*
X32245Y-23828D02*
X32274Y-23878D01*
X32274Y-23878D02*
X32292Y-23934D01*
X32292Y-23934D02*
X32299Y-23992D01*
X32299Y-23992D02*
X32300Y-24000D01*
X32300Y-25000D02*
X32294Y-25058D01*
X32294Y-25058D02*
X32277Y-25114D01*
X32277Y-25114D02*
X32249Y-25166D01*
X32249Y-25166D02*
X32212Y-25211D01*
X32212Y-25211D02*
X32167Y-25248D01*
X32167Y-25248D02*
X32116Y-25276D01*
X32116Y-25276D02*
X32060Y-25293D01*
X32060Y-25293D02*
X32002Y-25299D01*
X32002Y-25299D02*
X31944Y-25294D01*
X31944Y-25294D02*
X31888Y-25278D01*
X31888Y-25278D02*
X31836Y-25251D01*
X31836Y-25251D02*
X31791Y-25214D01*
X31791Y-25214D02*
X31753Y-25169D01*
X31753Y-25169D02*
X31725Y-25118D01*
X31725Y-25118D02*
X31707Y-25062D01*
X31707Y-25062D02*
X31701Y-25004D01*
X31701Y-25004D02*
X31705Y-24946D01*
X31705Y-24946D02*
X31722Y-24890D01*
X31722Y-24890D02*
X31748Y-24838D01*
X31748Y-24838D02*
X31785Y-24792D01*
X31785Y-24792D02*
X31829Y-24754D01*
X31829Y-24754D02*
X31880Y-24726D01*
X31880Y-24726D02*
X31936Y-24707D01*
X31936Y-24707D02*
X31994Y-24701D01*
X31994Y-24701D02*
X32052Y-24705D01*
X32052Y-24705D02*
X32108Y-24721D01*
X32108Y-24721D02*
X32160Y-24747D01*
X32160Y-24747D02*
X32206Y-24783D01*
X32206Y-24783D02*
X32245Y-24828D01*
X32245Y-24828D02*
X32274Y-24878D01*
X32274Y-24878D02*
X32292Y-24934D01*
X32292Y-24934D02*
X32299Y-24992D01*
X32299Y-24992D02*
X32300Y-25000D01*
X26700Y-37200D02*
X27300Y-37200D01*
X27300Y-37200D02*
X27300Y-37800D01*
X27300Y-37800D02*
X26700Y-37800D01*
X26700Y-37800D02*
X26700Y-37200D01*
X27300Y-38500D02*
X27294Y-38558D01*
X27294Y-38558D02*
X27277Y-38614D01*
X27277Y-38614D02*
X27249Y-38666D01*
X27249Y-38666D02*
X27212Y-38711D01*
X27212Y-38711D02*
X27167Y-38748D01*
X27167Y-38748D02*
X27116Y-38776D01*
X27116Y-38776D02*
X27060Y-38793D01*
X27060Y-38793D02*
X27002Y-38799D01*
X27002Y-38799D02*
X26944Y-38794D01*
X26944Y-38794D02*
X26888Y-38778D01*
X26888Y-38778D02*
X26836Y-38751D01*
X26836Y-38751D02*
X26791Y-38714D01*
X26791Y-38714D02*
X26753Y-38669D01*
X26753Y-38669D02*
X26725Y-38618D01*
X26725Y-38618D02*
X26707Y-38562D01*
X26707Y-38562D02*
X26701Y-38504D01*
X26701Y-38504D02*
X26705Y-38446D01*
X26705Y-38446D02*
X26722Y-38390D01*
X26722Y-38390D02*
X26748Y-38338D01*
X26748Y-38338D02*
X26785Y-38292D01*
X26785Y-38292D02*
X26829Y-38254D01*
X26829Y-38254D02*
X26880Y-38226D01*
X26880Y-38226D02*
X26936Y-38207D01*
X26936Y-38207D02*
X26994Y-38201D01*
X26994Y-38201D02*
X27052Y-38205D01*
X27052Y-38205D02*
X27108Y-38221D01*
X27108Y-38221D02*
X27160Y-38247D01*
X27160Y-38247D02*
X27206Y-38283D01*
X27206Y-38283D02*
X27245Y-38328D01*
X27245Y-38328D02*
X27274Y-38378D01*
X27274Y-38378D02*
X27292Y-38434D01*
X27292Y-38434D02*
X27299Y-38492D01*
X27299Y-38492D02*
X27300Y-38500D01*
X27300Y-39500D02*
X27294Y-39558D01*
X27294Y-39558D02*
X27277Y-39614D01*
X27277Y-39614D02*
X27249Y-39666D01*
X27249Y-39666D02*
X27212Y-39711D01*
X27212Y-39711D02*
X27167Y-39748D01*
X27167Y-39748D02*
X27116Y-39776D01*
X27116Y-39776D02*
X27060Y-39793D01*
X27060Y-39793D02*
X27002Y-39799D01*
X27002Y-39799D02*
X26944Y-39794D01*
X26944Y-39794D02*
X26888Y-39778D01*
X26888Y-39778D02*
X26836Y-39751D01*
X26836Y-39751D02*
X26791Y-39714D01*
X26791Y-39714D02*
X26753Y-39669D01*
X26753Y-39669D02*
X26725Y-39618D01*
X26725Y-39618D02*
X26707Y-39562D01*
X26707Y-39562D02*
X26701Y-39504D01*
X26701Y-39504D02*
X26705Y-39446D01*
X26705Y-39446D02*
X26722Y-39390D01*
X26722Y-39390D02*
X26748Y-39338D01*
X26748Y-39338D02*
X26785Y-39292D01*
X26785Y-39292D02*
X26829Y-39254D01*
X26829Y-39254D02*
X26880Y-39226D01*
X26880Y-39226D02*
X26936Y-39207D01*
X26936Y-39207D02*
X26994Y-39201D01*
X26994Y-39201D02*
X27052Y-39205D01*
X27052Y-39205D02*
X27108Y-39221D01*
X27108Y-39221D02*
X27160Y-39247D01*
X27160Y-39247D02*
X27206Y-39283D01*
X27206Y-39283D02*
X27245Y-39328D01*
X27245Y-39328D02*
X27274Y-39378D01*
X27274Y-39378D02*
X27292Y-39434D01*
X27292Y-39434D02*
X27299Y-39492D01*
X27299Y-39492D02*
X27300Y-39500D01*
X27300Y-40500D02*
X27294Y-40558D01*
X27294Y-40558D02*
X27277Y-40614D01*
X27277Y-40614D02*
X27249Y-40666D01*
X27249Y-40666D02*
X27212Y-40711D01*
X27212Y-40711D02*
X27167Y-40748D01*
X27167Y-40748D02*
X27116Y-40776D01*
X27116Y-40776D02*
X27060Y-40793D01*
X27060Y-40793D02*
X27002Y-40799D01*
X27002Y-40799D02*
X26944Y-40794D01*
X26944Y-40794D02*
X26888Y-40778D01*
X26888Y-40778D02*
X26836Y-40751D01*
X26836Y-40751D02*
X26791Y-40714D01*
X26791Y-40714D02*
X26753Y-40669D01*
X26753Y-40669D02*
X26725Y-40618D01*
X26725Y-40618D02*
X26707Y-40562D01*
X26707Y-40562D02*
X26701Y-40504D01*
X26701Y-40504D02*
X26705Y-40446D01*
X26705Y-40446D02*
X26722Y-40390D01*
X26722Y-40390D02*
X26748Y-40338D01*
X26748Y-40338D02*
X26785Y-40292D01*
X26785Y-40292D02*
X26829Y-40254D01*
X26829Y-40254D02*
X26880Y-40226D01*
X26880Y-40226D02*
X26936Y-40207D01*
X26936Y-40207D02*
X26994Y-40201D01*
X26994Y-40201D02*
X27052Y-40205D01*
X27052Y-40205D02*
X27108Y-40221D01*
X27108Y-40221D02*
X27160Y-40247D01*
X27160Y-40247D02*
X27206Y-40283D01*
X27206Y-40283D02*
X27245Y-40328D01*
X27245Y-40328D02*
X27274Y-40378D01*
X27274Y-40378D02*
X27292Y-40434D01*
X27292Y-40434D02*
X27299Y-40492D01*
X27299Y-40492D02*
X27300Y-40500D01*
X27300Y-41500D02*
X27294Y-41558D01*
X27294Y-41558D02*
X27277Y-41614D01*
X27277Y-41614D02*
X27249Y-41666D01*
X27249Y-41666D02*
X27212Y-41711D01*
X27212Y-41711D02*
X27167Y-41748D01*
X27167Y-41748D02*
X27116Y-41776D01*
X27116Y-41776D02*
X27060Y-41793D01*
X27060Y-41793D02*
X27002Y-41799D01*
X27002Y-41799D02*
X26944Y-41794D01*
X26944Y-41794D02*
X26888Y-41778D01*
X26888Y-41778D02*
X26836Y-41751D01*
X26836Y-41751D02*
X26791Y-41714D01*
X26791Y-41714D02*
X26753Y-41669D01*
X26753Y-41669D02*
X26725Y-41618D01*
X26725Y-41618D02*
X26707Y-41562D01*
X26707Y-41562D02*
X26701Y-41504D01*
X26701Y-41504D02*
X26705Y-41446D01*
X26705Y-41446D02*
X26722Y-41390D01*
X26722Y-41390D02*
X26748Y-41338D01*
X26748Y-41338D02*
X26785Y-41292D01*
X26785Y-41292D02*
X26829Y-41254D01*
X26829Y-41254D02*
X26880Y-41226D01*
X26880Y-41226D02*
X26936Y-41207D01*
X26936Y-41207D02*
X26994Y-41201D01*
X26994Y-41201D02*
X27052Y-41205D01*
X27052Y-41205D02*
X27108Y-41221D01*
X27108Y-41221D02*
X27160Y-41247D01*
X27160Y-41247D02*
X27206Y-41283D01*
X27206Y-41283D02*
X27245Y-41328D01*
X27245Y-41328D02*
X27274Y-41378D01*
X27274Y-41378D02*
X27292Y-41434D01*
X27292Y-41434D02*
X27299Y-41492D01*
X27299Y-41492D02*
X27300Y-41500D01*
X27300Y-42500D02*
X27294Y-42558D01*
X27294Y-42558D02*
X27277Y-42614D01*
X27277Y-42614D02*
X27249Y-42666D01*
X27249Y-42666D02*
X27212Y-42711D01*
X27212Y-42711D02*
X27167Y-42748D01*
X27167Y-42748D02*
X27116Y-42776D01*
X27116Y-42776D02*
X27060Y-42793D01*
X27060Y-42793D02*
X27002Y-42799D01*
X27002Y-42799D02*
X26944Y-42794D01*
X26944Y-42794D02*
X26888Y-42778D01*
X26888Y-42778D02*
X26836Y-42751D01*
X26836Y-42751D02*
X26791Y-42714D01*
X26791Y-42714D02*
X26753Y-42669D01*
X26753Y-42669D02*
X26725Y-42618D01*
X26725Y-42618D02*
X26707Y-42562D01*
X26707Y-42562D02*
X26701Y-42504D01*
X26701Y-42504D02*
X26705Y-42446D01*
X26705Y-42446D02*
X26722Y-42390D01*
X26722Y-42390D02*
X26748Y-42338D01*
X26748Y-42338D02*
X26785Y-42292D01*
X26785Y-42292D02*
X26829Y-42254D01*
X26829Y-42254D02*
X26880Y-42226D01*
X26880Y-42226D02*
X26936Y-42207D01*
X26936Y-42207D02*
X26994Y-42201D01*
X26994Y-42201D02*
X27052Y-42205D01*
X27052Y-42205D02*
X27108Y-42221D01*
X27108Y-42221D02*
X27160Y-42247D01*
X27160Y-42247D02*
X27206Y-42283D01*
X27206Y-42283D02*
X27245Y-42328D01*
X27245Y-42328D02*
X27274Y-42378D01*
X27274Y-42378D02*
X27292Y-42434D01*
X27292Y-42434D02*
X27299Y-42492D01*
X27299Y-42492D02*
X27300Y-42500D01*
X26700Y-19700D02*
X27300Y-19700D01*
X27300Y-19700D02*
X27300Y-20300D01*
X27300Y-20300D02*
X26700Y-20300D01*
X26700Y-20300D02*
X26700Y-19700D01*
X27300Y-21000D02*
X27294Y-21058D01*
X27294Y-21058D02*
X27277Y-21114D01*
X27277Y-21114D02*
X27249Y-21166D01*
X27249Y-21166D02*
X27212Y-21211D01*
X27212Y-21211D02*
X27167Y-21248D01*
X27167Y-21248D02*
X27116Y-21276D01*
X27116Y-21276D02*
X27060Y-21293D01*
X27060Y-21293D02*
X27002Y-21299D01*
X27002Y-21299D02*
X26944Y-21294D01*
X26944Y-21294D02*
X26888Y-21278D01*
X26888Y-21278D02*
X26836Y-21251D01*
X26836Y-21251D02*
X26791Y-21214D01*
X26791Y-21214D02*
X26753Y-21169D01*
X26753Y-21169D02*
X26725Y-21118D01*
X26725Y-21118D02*
X26707Y-21062D01*
X26707Y-21062D02*
X26701Y-21004D01*
X26701Y-21004D02*
X26705Y-20946D01*
X26705Y-20946D02*
X26722Y-20890D01*
X26722Y-20890D02*
X26748Y-20838D01*
X26748Y-20838D02*
X26785Y-20792D01*
X26785Y-20792D02*
X26829Y-20754D01*
X26829Y-20754D02*
X26880Y-20726D01*
X26880Y-20726D02*
X26936Y-20707D01*
X26936Y-20707D02*
X26994Y-20701D01*
X26994Y-20701D02*
X27052Y-20705D01*
X27052Y-20705D02*
X27108Y-20721D01*
X27108Y-20721D02*
X27160Y-20747D01*
X27160Y-20747D02*
X27206Y-20783D01*
X27206Y-20783D02*
X27245Y-20828D01*
X27245Y-20828D02*
X27274Y-20878D01*
X27274Y-20878D02*
X27292Y-20934D01*
X27292Y-20934D02*
X27299Y-20992D01*
X27299Y-20992D02*
X27300Y-21000D01*
X27300Y-22000D02*
X27294Y-22058D01*
X27294Y-22058D02*
X27277Y-22114D01*
X27277Y-22114D02*
X27249Y-22166D01*
X27249Y-22166D02*
X27212Y-22211D01*
X27212Y-22211D02*
X27167Y-22248D01*
X27167Y-22248D02*
X27116Y-22276D01*
X27116Y-22276D02*
X27060Y-22293D01*
X27060Y-22293D02*
X27002Y-22299D01*
X27002Y-22299D02*
X26944Y-22294D01*
X26944Y-22294D02*
X26888Y-22278D01*
X26888Y-22278D02*
X26836Y-22251D01*
X26836Y-22251D02*
X26791Y-22214D01*
X26791Y-22214D02*
X26753Y-22169D01*
X26753Y-22169D02*
X26725Y-22118D01*
X26725Y-22118D02*
X26707Y-22062D01*
X26707Y-22062D02*
X26701Y-22004D01*
X26701Y-22004D02*
X26705Y-21946D01*
X26705Y-21946D02*
X26722Y-21890D01*
X26722Y-21890D02*
X26748Y-21838D01*
X26748Y-21838D02*
X26785Y-21792D01*
X26785Y-21792D02*
X26829Y-21754D01*
X26829Y-21754D02*
X26880Y-21726D01*
X26880Y-21726D02*
X26936Y-21707D01*
X26936Y-21707D02*
X26994Y-21701D01*
X26994Y-21701D02*
X27052Y-21705D01*
X27052Y-21705D02*
X27108Y-21721D01*
X27108Y-21721D02*
X27160Y-21747D01*
X27160Y-21747D02*
X27206Y-21783D01*
X27206Y-21783D02*
X27245Y-21828D01*
X27245Y-21828D02*
X27274Y-21878D01*
X27274Y-21878D02*
X27292Y-21934D01*
X27292Y-21934D02*
X27299Y-21992D01*
X27299Y-21992D02*
X27300Y-22000D01*
X27300Y-23000D02*
X27294Y-23058D01*
X27294Y-23058D02*
X27277Y-23114D01*
X27277Y-23114D02*
X27249Y-23166D01*
X27249Y-23166D02*
X27212Y-23211D01*
X27212Y-23211D02*
X27167Y-23248D01*
X27167Y-23248D02*
X27116Y-23276D01*
X27116Y-23276D02*
X27060Y-23293D01*
X27060Y-23293D02*
X27002Y-23299D01*
X27002Y-23299D02*
X26944Y-23294D01*
X26944Y-23294D02*
X26888Y-23278D01*
X26888Y-23278D02*
X26836Y-23251D01*
X26836Y-23251D02*
X26791Y-23214D01*
X26791Y-23214D02*
X26753Y-23169D01*
X26753Y-23169D02*
X26725Y-23118D01*
X26725Y-23118D02*
X26707Y-23062D01*
X26707Y-23062D02*
X26701Y-23004D01*
X26701Y-23004D02*
X26705Y-22946D01*
X26705Y-22946D02*
X26722Y-22890D01*
X26722Y-22890D02*
X26748Y-22838D01*
X26748Y-22838D02*
X26785Y-22792D01*
X26785Y-22792D02*
X26829Y-22754D01*
X26829Y-22754D02*
X26880Y-22726D01*
X26880Y-22726D02*
X26936Y-22707D01*
X26936Y-22707D02*
X26994Y-22701D01*
X26994Y-22701D02*
X27052Y-22705D01*
X27052Y-22705D02*
X27108Y-22721D01*
X27108Y-22721D02*
X27160Y-22747D01*
X27160Y-22747D02*
X27206Y-22783D01*
X27206Y-22783D02*
X27245Y-22828D01*
X27245Y-22828D02*
X27274Y-22878D01*
X27274Y-22878D02*
X27292Y-22934D01*
X27292Y-22934D02*
X27299Y-22992D01*
X27299Y-22992D02*
X27300Y-23000D01*
X27300Y-24000D02*
X27294Y-24058D01*
X27294Y-24058D02*
X27277Y-24114D01*
X27277Y-24114D02*
X27249Y-24166D01*
X27249Y-24166D02*
X27212Y-24211D01*
X27212Y-24211D02*
X27167Y-24248D01*
X27167Y-24248D02*
X27116Y-24276D01*
X27116Y-24276D02*
X27060Y-24293D01*
X27060Y-24293D02*
X27002Y-24299D01*
X27002Y-24299D02*
X26944Y-24294D01*
X26944Y-24294D02*
X26888Y-24278D01*
X26888Y-24278D02*
X26836Y-24251D01*
X26836Y-24251D02*
X26791Y-24214D01*
X26791Y-24214D02*
X26753Y-24169D01*
X26753Y-24169D02*
X26725Y-24118D01*
X26725Y-24118D02*
X26707Y-24062D01*
X26707Y-24062D02*
X26701Y-24004D01*
X26701Y-24004D02*
X26705Y-23946D01*
X26705Y-23946D02*
X26722Y-23890D01*
X26722Y-23890D02*
X26748Y-23838D01*
X26748Y-23838D02*
X26785Y-23792D01*
X26785Y-23792D02*
X26829Y-23754D01*
X26829Y-23754D02*
X26880Y-23726D01*
X26880Y-23726D02*
X26936Y-23707D01*
X26936Y-23707D02*
X26994Y-23701D01*
X26994Y-23701D02*
X27052Y-23705D01*
X27052Y-23705D02*
X27108Y-23721D01*
X27108Y-23721D02*
X27160Y-23747D01*
X27160Y-23747D02*
X27206Y-23783D01*
X27206Y-23783D02*
X27245Y-23828D01*
X27245Y-23828D02*
X27274Y-23878D01*
X27274Y-23878D02*
X27292Y-23934D01*
X27292Y-23934D02*
X27299Y-23992D01*
X27299Y-23992D02*
X27300Y-24000D01*
X27300Y-25000D02*
X27294Y-25058D01*
X27294Y-25058D02*
X27277Y-25114D01*
X27277Y-25114D02*
X27249Y-25166D01*
X27249Y-25166D02*
X27212Y-25211D01*
X27212Y-25211D02*
X27167Y-25248D01*
X27167Y-25248D02*
X27116Y-25276D01*
X27116Y-25276D02*
X27060Y-25293D01*
X27060Y-25293D02*
X27002Y-25299D01*
X27002Y-25299D02*
X26944Y-25294D01*
X26944Y-25294D02*
X26888Y-25278D01*
X26888Y-25278D02*
X26836Y-25251D01*
X26836Y-25251D02*
X26791Y-25214D01*
X26791Y-25214D02*
X26753Y-25169D01*
X26753Y-25169D02*
X26725Y-25118D01*
X26725Y-25118D02*
X26707Y-25062D01*
X26707Y-25062D02*
X26701Y-25004D01*
X26701Y-25004D02*
X26705Y-24946D01*
X26705Y-24946D02*
X26722Y-24890D01*
X26722Y-24890D02*
X26748Y-24838D01*
X26748Y-24838D02*
X26785Y-24792D01*
X26785Y-24792D02*
X26829Y-24754D01*
X26829Y-24754D02*
X26880Y-24726D01*
X26880Y-24726D02*
X26936Y-24707D01*
X26936Y-24707D02*
X26994Y-24701D01*
X26994Y-24701D02*
X27052Y-24705D01*
X27052Y-24705D02*
X27108Y-24721D01*
X27108Y-24721D02*
X27160Y-24747D01*
X27160Y-24747D02*
X27206Y-24783D01*
X27206Y-24783D02*
X27245Y-24828D01*
X27245Y-24828D02*
X27274Y-24878D01*
X27274Y-24878D02*
X27292Y-24934D01*
X27292Y-24934D02*
X27299Y-24992D01*
X27299Y-24992D02*
X27300Y-25000D01*
X21700Y-37200D02*
X22300Y-37200D01*
X22300Y-37200D02*
X22300Y-37800D01*
X22300Y-37800D02*
X21700Y-37800D01*
X21700Y-37800D02*
X21700Y-37200D01*
X22300Y-38500D02*
X22294Y-38558D01*
X22294Y-38558D02*
X22277Y-38614D01*
X22277Y-38614D02*
X22249Y-38666D01*
X22249Y-38666D02*
X22212Y-38711D01*
X22212Y-38711D02*
X22167Y-38748D01*
X22167Y-38748D02*
X22116Y-38776D01*
X22116Y-38776D02*
X22060Y-38793D01*
X22060Y-38793D02*
X22002Y-38799D01*
X22002Y-38799D02*
X21944Y-38794D01*
X21944Y-38794D02*
X21888Y-38778D01*
X21888Y-38778D02*
X21836Y-38751D01*
X21836Y-38751D02*
X21791Y-38714D01*
X21791Y-38714D02*
X21753Y-38669D01*
X21753Y-38669D02*
X21725Y-38618D01*
X21725Y-38618D02*
X21707Y-38562D01*
X21707Y-38562D02*
X21701Y-38504D01*
X21701Y-38504D02*
X21705Y-38446D01*
X21705Y-38446D02*
X21722Y-38390D01*
X21722Y-38390D02*
X21748Y-38338D01*
X21748Y-38338D02*
X21785Y-38292D01*
X21785Y-38292D02*
X21829Y-38254D01*
X21829Y-38254D02*
X21880Y-38226D01*
X21880Y-38226D02*
X21936Y-38207D01*
X21936Y-38207D02*
X21994Y-38201D01*
X21994Y-38201D02*
X22052Y-38205D01*
X22052Y-38205D02*
X22108Y-38221D01*
X22108Y-38221D02*
X22160Y-38247D01*
X22160Y-38247D02*
X22206Y-38283D01*
X22206Y-38283D02*
X22245Y-38328D01*
X22245Y-38328D02*
X22274Y-38378D01*
X22274Y-38378D02*
X22292Y-38434D01*
X22292Y-38434D02*
X22299Y-38492D01*
X22299Y-38492D02*
X22300Y-38500D01*
X22300Y-39500D02*
X22294Y-39558D01*
X22294Y-39558D02*
X22277Y-39614D01*
X22277Y-39614D02*
X22249Y-39666D01*
X22249Y-39666D02*
X22212Y-39711D01*
X22212Y-39711D02*
X22167Y-39748D01*
X22167Y-39748D02*
X22116Y-39776D01*
X22116Y-39776D02*
X22060Y-39793D01*
X22060Y-39793D02*
X22002Y-39799D01*
X22002Y-39799D02*
X21944Y-39794D01*
X21944Y-39794D02*
X21888Y-39778D01*
X21888Y-39778D02*
X21836Y-39751D01*
X21836Y-39751D02*
X21791Y-39714D01*
X21791Y-39714D02*
X21753Y-39669D01*
X21753Y-39669D02*
X21725Y-39618D01*
X21725Y-39618D02*
X21707Y-39562D01*
X21707Y-39562D02*
X21701Y-39504D01*
X21701Y-39504D02*
X21705Y-39446D01*
X21705Y-39446D02*
X21722Y-39390D01*
X21722Y-39390D02*
X21748Y-39338D01*
X21748Y-39338D02*
X21785Y-39292D01*
X21785Y-39292D02*
X21829Y-39254D01*
X21829Y-39254D02*
X21880Y-39226D01*
X21880Y-39226D02*
X21936Y-39207D01*
X21936Y-39207D02*
X21994Y-39201D01*
X21994Y-39201D02*
X22052Y-39205D01*
X22052Y-39205D02*
X22108Y-39221D01*
X22108Y-39221D02*
X22160Y-39247D01*
X22160Y-39247D02*
X22206Y-39283D01*
X22206Y-39283D02*
X22245Y-39328D01*
X22245Y-39328D02*
X22274Y-39378D01*
X22274Y-39378D02*
X22292Y-39434D01*
X22292Y-39434D02*
X22299Y-39492D01*
X22299Y-39492D02*
X22300Y-39500D01*
X22300Y-40500D02*
X22294Y-40558D01*
X22294Y-40558D02*
X22277Y-40614D01*
X22277Y-40614D02*
X22249Y-40666D01*
X22249Y-40666D02*
X22212Y-40711D01*
X22212Y-40711D02*
X22167Y-40748D01*
X22167Y-40748D02*
X22116Y-40776D01*
X22116Y-40776D02*
X22060Y-40793D01*
X22060Y-40793D02*
X22002Y-40799D01*
X22002Y-40799D02*
X21944Y-40794D01*
X21944Y-40794D02*
X21888Y-40778D01*
X21888Y-40778D02*
X21836Y-40751D01*
X21836Y-40751D02*
X21791Y-40714D01*
X21791Y-40714D02*
X21753Y-40669D01*
X21753Y-40669D02*
X21725Y-40618D01*
X21725Y-40618D02*
X21707Y-40562D01*
X21707Y-40562D02*
X21701Y-40504D01*
X21701Y-40504D02*
X21705Y-40446D01*
X21705Y-40446D02*
X21722Y-40390D01*
X21722Y-40390D02*
X21748Y-40338D01*
X21748Y-40338D02*
X21785Y-40292D01*
X21785Y-40292D02*
X21829Y-40254D01*
X21829Y-40254D02*
X21880Y-40226D01*
X21880Y-40226D02*
X21936Y-40207D01*
X21936Y-40207D02*
X21994Y-40201D01*
X21994Y-40201D02*
X22052Y-40205D01*
X22052Y-40205D02*
X22108Y-40221D01*
X22108Y-40221D02*
X22160Y-40247D01*
X22160Y-40247D02*
X22206Y-40283D01*
X22206Y-40283D02*
X22245Y-40328D01*
X22245Y-40328D02*
X22274Y-40378D01*
X22274Y-40378D02*
X22292Y-40434D01*
X22292Y-40434D02*
X22299Y-40492D01*
X22299Y-40492D02*
X22300Y-40500D01*
X22300Y-41500D02*
X22294Y-41558D01*
X22294Y-41558D02*
X22277Y-41614D01*
X22277Y-41614D02*
X22249Y-41666D01*
X22249Y-41666D02*
X22212Y-41711D01*
X22212Y-41711D02*
X22167Y-41748D01*
X22167Y-41748D02*
X22116Y-41776D01*
X22116Y-41776D02*
X22060Y-41793D01*
X22060Y-41793D02*
X22002Y-41799D01*
X22002Y-41799D02*
X21944Y-41794D01*
X21944Y-41794D02*
X21888Y-41778D01*
X21888Y-41778D02*
X21836Y-41751D01*
X21836Y-41751D02*
X21791Y-41714D01*
X21791Y-41714D02*
X21753Y-41669D01*
X21753Y-41669D02*
X21725Y-41618D01*
X21725Y-41618D02*
X21707Y-41562D01*
X21707Y-41562D02*
X21701Y-41504D01*
X21701Y-41504D02*
X21705Y-41446D01*
X21705Y-41446D02*
X21722Y-41390D01*
X21722Y-41390D02*
X21748Y-41338D01*
X21748Y-41338D02*
X21785Y-41292D01*
X21785Y-41292D02*
X21829Y-41254D01*
X21829Y-41254D02*
X21880Y-41226D01*
X21880Y-41226D02*
X21936Y-41207D01*
X21936Y-41207D02*
X21994Y-41201D01*
X21994Y-41201D02*
X22052Y-41205D01*
X22052Y-41205D02*
X22108Y-41221D01*
X22108Y-41221D02*
X22160Y-41247D01*
X22160Y-41247D02*
X22206Y-41283D01*
X22206Y-41283D02*
X22245Y-41328D01*
X22245Y-41328D02*
X22274Y-41378D01*
X22274Y-41378D02*
X22292Y-41434D01*
X22292Y-41434D02*
X22299Y-41492D01*
X22299Y-41492D02*
X22300Y-41500D01*
X22300Y-42500D02*
X22294Y-42558D01*
X22294Y-42558D02*
X22277Y-42614D01*
X22277Y-42614D02*
X22249Y-42666D01*
X22249Y-42666D02*
X22212Y-42711D01*
X22212Y-42711D02*
X22167Y-42748D01*
X22167Y-42748D02*
X22116Y-42776D01*
X22116Y-42776D02*
X22060Y-42793D01*
X22060Y-42793D02*
X22002Y-42799D01*
X22002Y-42799D02*
X21944Y-42794D01*
X21944Y-42794D02*
X21888Y-42778D01*
X21888Y-42778D02*
X21836Y-42751D01*
X21836Y-42751D02*
X21791Y-42714D01*
X21791Y-42714D02*
X21753Y-42669D01*
X21753Y-42669D02*
X21725Y-42618D01*
X21725Y-42618D02*
X21707Y-42562D01*
X21707Y-42562D02*
X21701Y-42504D01*
X21701Y-42504D02*
X21705Y-42446D01*
X21705Y-42446D02*
X21722Y-42390D01*
X21722Y-42390D02*
X21748Y-42338D01*
X21748Y-42338D02*
X21785Y-42292D01*
X21785Y-42292D02*
X21829Y-42254D01*
X21829Y-42254D02*
X21880Y-42226D01*
X21880Y-42226D02*
X21936Y-42207D01*
X21936Y-42207D02*
X21994Y-42201D01*
X21994Y-42201D02*
X22052Y-42205D01*
X22052Y-42205D02*
X22108Y-42221D01*
X22108Y-42221D02*
X22160Y-42247D01*
X22160Y-42247D02*
X22206Y-42283D01*
X22206Y-42283D02*
X22245Y-42328D01*
X22245Y-42328D02*
X22274Y-42378D01*
X22274Y-42378D02*
X22292Y-42434D01*
X22292Y-42434D02*
X22299Y-42492D01*
X22299Y-42492D02*
X22300Y-42500D01*
X21700Y-19700D02*
X22300Y-19700D01*
X22300Y-19700D02*
X22300Y-20300D01*
X22300Y-20300D02*
X21700Y-20300D01*
X21700Y-20300D02*
X21700Y-19700D01*
X22300Y-21000D02*
X22294Y-21058D01*
X22294Y-21058D02*
X22277Y-21114D01*
X22277Y-21114D02*
X22249Y-21166D01*
X22249Y-21166D02*
X22212Y-21211D01*
X22212Y-21211D02*
X22167Y-21248D01*
X22167Y-21248D02*
X22116Y-21276D01*
X22116Y-21276D02*
X22060Y-21293D01*
X22060Y-21293D02*
X22002Y-21299D01*
X22002Y-21299D02*
X21944Y-21294D01*
X21944Y-21294D02*
X21888Y-21278D01*
X21888Y-21278D02*
X21836Y-21251D01*
X21836Y-21251D02*
X21791Y-21214D01*
X21791Y-21214D02*
X21753Y-21169D01*
X21753Y-21169D02*
X21725Y-21118D01*
X21725Y-21118D02*
X21707Y-21062D01*
X21707Y-21062D02*
X21701Y-21004D01*
X21701Y-21004D02*
X21705Y-20946D01*
X21705Y-20946D02*
X21722Y-20890D01*
X21722Y-20890D02*
X21748Y-20838D01*
X21748Y-20838D02*
X21785Y-20792D01*
X21785Y-20792D02*
X21829Y-20754D01*
X21829Y-20754D02*
X21880Y-20726D01*
X21880Y-20726D02*
X21936Y-20707D01*
X21936Y-20707D02*
X21994Y-20701D01*
X21994Y-20701D02*
X22052Y-20705D01*
X22052Y-20705D02*
X22108Y-20721D01*
X22108Y-20721D02*
X22160Y-20747D01*
X22160Y-20747D02*
X22206Y-20783D01*
X22206Y-20783D02*
X22245Y-20828D01*
X22245Y-20828D02*
X22274Y-20878D01*
X22274Y-20878D02*
X22292Y-20934D01*
X22292Y-20934D02*
X22299Y-20992D01*
X22299Y-20992D02*
X22300Y-21000D01*
X22300Y-22000D02*
X22294Y-22058D01*
X22294Y-22058D02*
X22277Y-22114D01*
X22277Y-22114D02*
X22249Y-22166D01*
X22249Y-22166D02*
X22212Y-22211D01*
X22212Y-22211D02*
X22167Y-22248D01*
X22167Y-22248D02*
X22116Y-22276D01*
X22116Y-22276D02*
X22060Y-22293D01*
X22060Y-22293D02*
X22002Y-22299D01*
X22002Y-22299D02*
X21944Y-22294D01*
X21944Y-22294D02*
X21888Y-22278D01*
X21888Y-22278D02*
X21836Y-22251D01*
X21836Y-22251D02*
X21791Y-22214D01*
X21791Y-22214D02*
X21753Y-22169D01*
X21753Y-22169D02*
X21725Y-22118D01*
X21725Y-22118D02*
X21707Y-22062D01*
X21707Y-22062D02*
X21701Y-22004D01*
X21701Y-22004D02*
X21705Y-21946D01*
X21705Y-21946D02*
X21722Y-21890D01*
X21722Y-21890D02*
X21748Y-21838D01*
X21748Y-21838D02*
X21785Y-21792D01*
X21785Y-21792D02*
X21829Y-21754D01*
X21829Y-21754D02*
X21880Y-21726D01*
X21880Y-21726D02*
X21936Y-21707D01*
X21936Y-21707D02*
X21994Y-21701D01*
X21994Y-21701D02*
X22052Y-21705D01*
X22052Y-21705D02*
X22108Y-21721D01*
X22108Y-21721D02*
X22160Y-21747D01*
X22160Y-21747D02*
X22206Y-21783D01*
X22206Y-21783D02*
X22245Y-21828D01*
X22245Y-21828D02*
X22274Y-21878D01*
X22274Y-21878D02*
X22292Y-21934D01*
X22292Y-21934D02*
X22299Y-21992D01*
X22299Y-21992D02*
X22300Y-22000D01*
X22300Y-23000D02*
X22294Y-23058D01*
X22294Y-23058D02*
X22277Y-23114D01*
X22277Y-23114D02*
X22249Y-23166D01*
X22249Y-23166D02*
X22212Y-23211D01*
X22212Y-23211D02*
X22167Y-23248D01*
X22167Y-23248D02*
X22116Y-23276D01*
X22116Y-23276D02*
X22060Y-23293D01*
X22060Y-23293D02*
X22002Y-23299D01*
X22002Y-23299D02*
X21944Y-23294D01*
X21944Y-23294D02*
X21888Y-23278D01*
X21888Y-23278D02*
X21836Y-23251D01*
X21836Y-23251D02*
X21791Y-23214D01*
X21791Y-23214D02*
X21753Y-23169D01*
X21753Y-23169D02*
X21725Y-23118D01*
X21725Y-23118D02*
X21707Y-23062D01*
X21707Y-23062D02*
X21701Y-23004D01*
X21701Y-23004D02*
X21705Y-22946D01*
X21705Y-22946D02*
X21722Y-22890D01*
X21722Y-22890D02*
X21748Y-22838D01*
X21748Y-22838D02*
X21785Y-22792D01*
X21785Y-22792D02*
X21829Y-22754D01*
X21829Y-22754D02*
X21880Y-22726D01*
X21880Y-22726D02*
X21936Y-22707D01*
X21936Y-22707D02*
X21994Y-22701D01*
X21994Y-22701D02*
X22052Y-22705D01*
X22052Y-22705D02*
X22108Y-22721D01*
X22108Y-22721D02*
X22160Y-22747D01*
X22160Y-22747D02*
X22206Y-22783D01*
X22206Y-22783D02*
X22245Y-22828D01*
X22245Y-22828D02*
X22274Y-22878D01*
X22274Y-22878D02*
X22292Y-22934D01*
X22292Y-22934D02*
X22299Y-22992D01*
X22299Y-22992D02*
X22300Y-23000D01*
X22300Y-24000D02*
X22294Y-24058D01*
X22294Y-24058D02*
X22277Y-24114D01*
X22277Y-24114D02*
X22249Y-24166D01*
X22249Y-24166D02*
X22212Y-24211D01*
X22212Y-24211D02*
X22167Y-24248D01*
X22167Y-24248D02*
X22116Y-24276D01*
X22116Y-24276D02*
X22060Y-24293D01*
X22060Y-24293D02*
X22002Y-24299D01*
X22002Y-24299D02*
X21944Y-24294D01*
X21944Y-24294D02*
X21888Y-24278D01*
X21888Y-24278D02*
X21836Y-24251D01*
X21836Y-24251D02*
X21791Y-24214D01*
X21791Y-24214D02*
X21753Y-24169D01*
X21753Y-24169D02*
X21725Y-24118D01*
X21725Y-24118D02*
X21707Y-24062D01*
X21707Y-24062D02*
X21701Y-24004D01*
X21701Y-24004D02*
X21705Y-23946D01*
X21705Y-23946D02*
X21722Y-23890D01*
X21722Y-23890D02*
X21748Y-23838D01*
X21748Y-23838D02*
X21785Y-23792D01*
X21785Y-23792D02*
X21829Y-23754D01*
X21829Y-23754D02*
X21880Y-23726D01*
X21880Y-23726D02*
X21936Y-23707D01*
X21936Y-23707D02*
X21994Y-23701D01*
X21994Y-23701D02*
X22052Y-23705D01*
X22052Y-23705D02*
X22108Y-23721D01*
X22108Y-23721D02*
X22160Y-23747D01*
X22160Y-23747D02*
X22206Y-23783D01*
X22206Y-23783D02*
X22245Y-23828D01*
X22245Y-23828D02*
X22274Y-23878D01*
X22274Y-23878D02*
X22292Y-23934D01*
X22292Y-23934D02*
X22299Y-23992D01*
X22299Y-23992D02*
X22300Y-24000D01*
X22300Y-25000D02*
X22294Y-25058D01*
X22294Y-25058D02*
X22277Y-25114D01*
X22277Y-25114D02*
X22249Y-25166D01*
X22249Y-25166D02*
X22212Y-25211D01*
X22212Y-25211D02*
X22167Y-25248D01*
X22167Y-25248D02*
X22116Y-25276D01*
X22116Y-25276D02*
X22060Y-25293D01*
X22060Y-25293D02*
X22002Y-25299D01*
X22002Y-25299D02*
X21944Y-25294D01*
X21944Y-25294D02*
X21888Y-25278D01*
X21888Y-25278D02*
X21836Y-25251D01*
X21836Y-25251D02*
X21791Y-25214D01*
X21791Y-25214D02*
X21753Y-25169D01*
X21753Y-25169D02*
X21725Y-25118D01*
X21725Y-25118D02*
X21707Y-25062D01*
X21707Y-25062D02*
X21701Y-25004D01*
X21701Y-25004D02*
X21705Y-24946D01*
X21705Y-24946D02*
X21722Y-24890D01*
X21722Y-24890D02*
X21748Y-24838D01*
X21748Y-24838D02*
X21785Y-24792D01*
X21785Y-24792D02*
X21829Y-24754D01*
X21829Y-24754D02*
X21880Y-24726D01*
X21880Y-24726D02*
X21936Y-24707D01*
X21936Y-24707D02*
X21994Y-24701D01*
X21994Y-24701D02*
X22052Y-24705D01*
X22052Y-24705D02*
X22108Y-24721D01*
X22108Y-24721D02*
X22160Y-24747D01*
X22160Y-24747D02*
X22206Y-24783D01*
X22206Y-24783D02*
X22245Y-24828D01*
X22245Y-24828D02*
X22274Y-24878D01*
X22274Y-24878D02*
X22292Y-24934D01*
X22292Y-24934D02*
X22299Y-24992D01*
X22299Y-24992D02*
X22300Y-25000D01*
X16700Y-37200D02*
X17300Y-37200D01*
X17300Y-37200D02*
X17300Y-37800D01*
X17300Y-37800D02*
X16700Y-37800D01*
X16700Y-37800D02*
X16700Y-37200D01*
X17300Y-38500D02*
X17294Y-38558D01*
X17294Y-38558D02*
X17277Y-38614D01*
X17277Y-38614D02*
X17249Y-38666D01*
X17249Y-38666D02*
X17212Y-38711D01*
X17212Y-38711D02*
X17167Y-38748D01*
X17167Y-38748D02*
X17116Y-38776D01*
X17116Y-38776D02*
X17060Y-38793D01*
X17060Y-38793D02*
X17002Y-38799D01*
X17002Y-38799D02*
X16944Y-38794D01*
X16944Y-38794D02*
X16888Y-38778D01*
X16888Y-38778D02*
X16836Y-38751D01*
X16836Y-38751D02*
X16791Y-38714D01*
X16791Y-38714D02*
X16753Y-38669D01*
X16753Y-38669D02*
X16725Y-38618D01*
X16725Y-38618D02*
X16707Y-38562D01*
X16707Y-38562D02*
X16701Y-38504D01*
X16701Y-38504D02*
X16705Y-38446D01*
X16705Y-38446D02*
X16722Y-38390D01*
X16722Y-38390D02*
X16748Y-38338D01*
X16748Y-38338D02*
X16785Y-38292D01*
X16785Y-38292D02*
X16829Y-38254D01*
X16829Y-38254D02*
X16880Y-38226D01*
X16880Y-38226D02*
X16936Y-38207D01*
X16936Y-38207D02*
X16994Y-38201D01*
X16994Y-38201D02*
X17052Y-38205D01*
X17052Y-38205D02*
X17108Y-38221D01*
X17108Y-38221D02*
X17160Y-38247D01*
X17160Y-38247D02*
X17206Y-38283D01*
X17206Y-38283D02*
X17245Y-38328D01*
X17245Y-38328D02*
X17274Y-38378D01*
X17274Y-38378D02*
X17292Y-38434D01*
X17292Y-38434D02*
X17299Y-38492D01*
X17299Y-38492D02*
X17300Y-38500D01*
X17300Y-39500D02*
X17294Y-39558D01*
X17294Y-39558D02*
X17277Y-39614D01*
X17277Y-39614D02*
X17249Y-39666D01*
X17249Y-39666D02*
X17212Y-39711D01*
X17212Y-39711D02*
X17167Y-39748D01*
X17167Y-39748D02*
X17116Y-39776D01*
X17116Y-39776D02*
X17060Y-39793D01*
X17060Y-39793D02*
X17002Y-39799D01*
X17002Y-39799D02*
X16944Y-39794D01*
X16944Y-39794D02*
X16888Y-39778D01*
X16888Y-39778D02*
X16836Y-39751D01*
X16836Y-39751D02*
X16791Y-39714D01*
X16791Y-39714D02*
X16753Y-39669D01*
X16753Y-39669D02*
X16725Y-39618D01*
X16725Y-39618D02*
X16707Y-39562D01*
X16707Y-39562D02*
X16701Y-39504D01*
X16701Y-39504D02*
X16705Y-39446D01*
X16705Y-39446D02*
X16722Y-39390D01*
X16722Y-39390D02*
X16748Y-39338D01*
X16748Y-39338D02*
X16785Y-39292D01*
X16785Y-39292D02*
X16829Y-39254D01*
X16829Y-39254D02*
X16880Y-39226D01*
X16880Y-39226D02*
X16936Y-39207D01*
X16936Y-39207D02*
X16994Y-39201D01*
X16994Y-39201D02*
X17052Y-39205D01*
X17052Y-39205D02*
X17108Y-39221D01*
X17108Y-39221D02*
X17160Y-39247D01*
X17160Y-39247D02*
X17206Y-39283D01*
X17206Y-39283D02*
X17245Y-39328D01*
X17245Y-39328D02*
X17274Y-39378D01*
X17274Y-39378D02*
X17292Y-39434D01*
X17292Y-39434D02*
X17299Y-39492D01*
X17299Y-39492D02*
X17300Y-39500D01*
X17300Y-40500D02*
X17294Y-40558D01*
X17294Y-40558D02*
X17277Y-40614D01*
X17277Y-40614D02*
X17249Y-40666D01*
X17249Y-40666D02*
X17212Y-40711D01*
X17212Y-40711D02*
X17167Y-40748D01*
X17167Y-40748D02*
X17116Y-40776D01*
X17116Y-40776D02*
X17060Y-40793D01*
X17060Y-40793D02*
X17002Y-40799D01*
X17002Y-40799D02*
X16944Y-40794D01*
X16944Y-40794D02*
X16888Y-40778D01*
X16888Y-40778D02*
X16836Y-40751D01*
X16836Y-40751D02*
X16791Y-40714D01*
X16791Y-40714D02*
X16753Y-40669D01*
X16753Y-40669D02*
X16725Y-40618D01*
X16725Y-40618D02*
X16707Y-40562D01*
X16707Y-40562D02*
X16701Y-40504D01*
X16701Y-40504D02*
X16705Y-40446D01*
X16705Y-40446D02*
X16722Y-40390D01*
X16722Y-40390D02*
X16748Y-40338D01*
X16748Y-40338D02*
X16785Y-40292D01*
X16785Y-40292D02*
X16829Y-40254D01*
X16829Y-40254D02*
X16880Y-40226D01*
X16880Y-40226D02*
X16936Y-40207D01*
X16936Y-40207D02*
X16994Y-40201D01*
X16994Y-40201D02*
X17052Y-40205D01*
X17052Y-40205D02*
X17108Y-40221D01*
X17108Y-40221D02*
X17160Y-40247D01*
X17160Y-40247D02*
X17206Y-40283D01*
X17206Y-40283D02*
X17245Y-40328D01*
X17245Y-40328D02*
X17274Y-40378D01*
X17274Y-40378D02*
X17292Y-40434D01*
X17292Y-40434D02*
X17299Y-40492D01*
X17299Y-40492D02*
X17300Y-40500D01*
X17300Y-41500D02*
X17294Y-41558D01*
X17294Y-41558D02*
X17277Y-41614D01*
X17277Y-41614D02*
X17249Y-41666D01*
X17249Y-41666D02*
X17212Y-41711D01*
X17212Y-41711D02*
X17167Y-41748D01*
X17167Y-41748D02*
X17116Y-41776D01*
X17116Y-41776D02*
X17060Y-41793D01*
X17060Y-41793D02*
X17002Y-41799D01*
X17002Y-41799D02*
X16944Y-41794D01*
X16944Y-41794D02*
X16888Y-41778D01*
X16888Y-41778D02*
X16836Y-41751D01*
X16836Y-41751D02*
X16791Y-41714D01*
X16791Y-41714D02*
X16753Y-41669D01*
X16753Y-41669D02*
X16725Y-41618D01*
X16725Y-41618D02*
X16707Y-41562D01*
X16707Y-41562D02*
X16701Y-41504D01*
X16701Y-41504D02*
X16705Y-41446D01*
X16705Y-41446D02*
X16722Y-41390D01*
X16722Y-41390D02*
X16748Y-41338D01*
X16748Y-41338D02*
X16785Y-41292D01*
X16785Y-41292D02*
X16829Y-41254D01*
X16829Y-41254D02*
X16880Y-41226D01*
X16880Y-41226D02*
X16936Y-41207D01*
X16936Y-41207D02*
X16994Y-41201D01*
X16994Y-41201D02*
X17052Y-41205D01*
X17052Y-41205D02*
X17108Y-41221D01*
X17108Y-41221D02*
X17160Y-41247D01*
X17160Y-41247D02*
X17206Y-41283D01*
X17206Y-41283D02*
X17245Y-41328D01*
X17245Y-41328D02*
X17274Y-41378D01*
X17274Y-41378D02*
X17292Y-41434D01*
X17292Y-41434D02*
X17299Y-41492D01*
X17299Y-41492D02*
X17300Y-41500D01*
X17300Y-42500D02*
X17294Y-42558D01*
X17294Y-42558D02*
X17277Y-42614D01*
X17277Y-42614D02*
X17249Y-42666D01*
X17249Y-42666D02*
X17212Y-42711D01*
X17212Y-42711D02*
X17167Y-42748D01*
X17167Y-42748D02*
X17116Y-42776D01*
X17116Y-42776D02*
X17060Y-42793D01*
X17060Y-42793D02*
X17002Y-42799D01*
X17002Y-42799D02*
X16944Y-42794D01*
X16944Y-42794D02*
X16888Y-42778D01*
X16888Y-42778D02*
X16836Y-42751D01*
X16836Y-42751D02*
X16791Y-42714D01*
X16791Y-42714D02*
X16753Y-42669D01*
X16753Y-42669D02*
X16725Y-42618D01*
X16725Y-42618D02*
X16707Y-42562D01*
X16707Y-42562D02*
X16701Y-42504D01*
X16701Y-42504D02*
X16705Y-42446D01*
X16705Y-42446D02*
X16722Y-42390D01*
X16722Y-42390D02*
X16748Y-42338D01*
X16748Y-42338D02*
X16785Y-42292D01*
X16785Y-42292D02*
X16829Y-42254D01*
X16829Y-42254D02*
X16880Y-42226D01*
X16880Y-42226D02*
X16936Y-42207D01*
X16936Y-42207D02*
X16994Y-42201D01*
X16994Y-42201D02*
X17052Y-42205D01*
X17052Y-42205D02*
X17108Y-42221D01*
X17108Y-42221D02*
X17160Y-42247D01*
X17160Y-42247D02*
X17206Y-42283D01*
X17206Y-42283D02*
X17245Y-42328D01*
X17245Y-42328D02*
X17274Y-42378D01*
X17274Y-42378D02*
X17292Y-42434D01*
X17292Y-42434D02*
X17299Y-42492D01*
X17299Y-42492D02*
X17300Y-42500D01*
X16700Y-19700D02*
X17300Y-19700D01*
X17300Y-19700D02*
X17300Y-20300D01*
X17300Y-20300D02*
X16700Y-20300D01*
X16700Y-20300D02*
X16700Y-19700D01*
X17300Y-21000D02*
X17294Y-21058D01*
X17294Y-21058D02*
X17277Y-21114D01*
X17277Y-21114D02*
X17249Y-21166D01*
X17249Y-21166D02*
X17212Y-21211D01*
X17212Y-21211D02*
X17167Y-21248D01*
X17167Y-21248D02*
X17116Y-21276D01*
X17116Y-21276D02*
X17060Y-21293D01*
X17060Y-21293D02*
X17002Y-21299D01*
X17002Y-21299D02*
X16944Y-21294D01*
X16944Y-21294D02*
X16888Y-21278D01*
X16888Y-21278D02*
X16836Y-21251D01*
X16836Y-21251D02*
X16791Y-21214D01*
X16791Y-21214D02*
X16753Y-21169D01*
X16753Y-21169D02*
X16725Y-21118D01*
X16725Y-21118D02*
X16707Y-21062D01*
X16707Y-21062D02*
X16701Y-21004D01*
X16701Y-21004D02*
X16705Y-20946D01*
X16705Y-20946D02*
X16722Y-20890D01*
X16722Y-20890D02*
X16748Y-20838D01*
X16748Y-20838D02*
X16785Y-20792D01*
X16785Y-20792D02*
X16829Y-20754D01*
X16829Y-20754D02*
X16880Y-20726D01*
X16880Y-20726D02*
X16936Y-20707D01*
X16936Y-20707D02*
X16994Y-20701D01*
X16994Y-20701D02*
X17052Y-20705D01*
X17052Y-20705D02*
X17108Y-20721D01*
X17108Y-20721D02*
X17160Y-20747D01*
X17160Y-20747D02*
X17206Y-20783D01*
X17206Y-20783D02*
X17245Y-20828D01*
X17245Y-20828D02*
X17274Y-20878D01*
X17274Y-20878D02*
X17292Y-20934D01*
X17292Y-20934D02*
X17299Y-20992D01*
X17299Y-20992D02*
X17300Y-21000D01*
X17300Y-22000D02*
X17294Y-22058D01*
X17294Y-22058D02*
X17277Y-22114D01*
X17277Y-22114D02*
X17249Y-22166D01*
X17249Y-22166D02*
X17212Y-22211D01*
X17212Y-22211D02*
X17167Y-22248D01*
X17167Y-22248D02*
X17116Y-22276D01*
X17116Y-22276D02*
X17060Y-22293D01*
X17060Y-22293D02*
X17002Y-22299D01*
X17002Y-22299D02*
X16944Y-22294D01*
X16944Y-22294D02*
X16888Y-22278D01*
X16888Y-22278D02*
X16836Y-22251D01*
X16836Y-22251D02*
X16791Y-22214D01*
X16791Y-22214D02*
X16753Y-22169D01*
X16753Y-22169D02*
X16725Y-22118D01*
X16725Y-22118D02*
X16707Y-22062D01*
X16707Y-22062D02*
X16701Y-22004D01*
X16701Y-22004D02*
X16705Y-21946D01*
X16705Y-21946D02*
X16722Y-21890D01*
X16722Y-21890D02*
X16748Y-21838D01*
X16748Y-21838D02*
X16785Y-21792D01*
X16785Y-21792D02*
X16829Y-21754D01*
X16829Y-21754D02*
X16880Y-21726D01*
X16880Y-21726D02*
X16936Y-21707D01*
X16936Y-21707D02*
X16994Y-21701D01*
X16994Y-21701D02*
X17052Y-21705D01*
X17052Y-21705D02*
X17108Y-21721D01*
X17108Y-21721D02*
X17160Y-21747D01*
X17160Y-21747D02*
X17206Y-21783D01*
X17206Y-21783D02*
X17245Y-21828D01*
X17245Y-21828D02*
X17274Y-21878D01*
X17274Y-21878D02*
X17292Y-21934D01*
X17292Y-21934D02*
X17299Y-21992D01*
X17299Y-21992D02*
X17300Y-22000D01*
X17300Y-23000D02*
X17294Y-23058D01*
X17294Y-23058D02*
X17277Y-23114D01*
X17277Y-23114D02*
X17249Y-23166D01*
X17249Y-23166D02*
X17212Y-23211D01*
X17212Y-23211D02*
X17167Y-23248D01*
X17167Y-23248D02*
X17116Y-23276D01*
X17116Y-23276D02*
X17060Y-23293D01*
X17060Y-23293D02*
X17002Y-23299D01*
X17002Y-23299D02*
X16944Y-23294D01*
X16944Y-23294D02*
X16888Y-23278D01*
X16888Y-23278D02*
X16836Y-23251D01*
X16836Y-23251D02*
X16791Y-23214D01*
X16791Y-23214D02*
X16753Y-23169D01*
X16753Y-23169D02*
X16725Y-23118D01*
X16725Y-23118D02*
X16707Y-23062D01*
X16707Y-23062D02*
X16701Y-23004D01*
X16701Y-23004D02*
X16705Y-22946D01*
X16705Y-22946D02*
X16722Y-22890D01*
X16722Y-22890D02*
X16748Y-22838D01*
X16748Y-22838D02*
X16785Y-22792D01*
X16785Y-22792D02*
X16829Y-22754D01*
X16829Y-22754D02*
X16880Y-22726D01*
X16880Y-22726D02*
X16936Y-22707D01*
X16936Y-22707D02*
X16994Y-22701D01*
X16994Y-22701D02*
X17052Y-22705D01*
X17052Y-22705D02*
X17108Y-22721D01*
X17108Y-22721D02*
X17160Y-22747D01*
X17160Y-22747D02*
X17206Y-22783D01*
X17206Y-22783D02*
X17245Y-22828D01*
X17245Y-22828D02*
X17274Y-22878D01*
X17274Y-22878D02*
X17292Y-22934D01*
X17292Y-22934D02*
X17299Y-22992D01*
X17299Y-22992D02*
X17300Y-23000D01*
X17300Y-24000D02*
X17294Y-24058D01*
X17294Y-24058D02*
X17277Y-24114D01*
X17277Y-24114D02*
X17249Y-24166D01*
X17249Y-24166D02*
X17212Y-24211D01*
X17212Y-24211D02*
X17167Y-24248D01*
X17167Y-24248D02*
X17116Y-24276D01*
X17116Y-24276D02*
X17060Y-24293D01*
X17060Y-24293D02*
X17002Y-24299D01*
X17002Y-24299D02*
X16944Y-24294D01*
X16944Y-24294D02*
X16888Y-24278D01*
X16888Y-24278D02*
X16836Y-24251D01*
X16836Y-24251D02*
X16791Y-24214D01*
X16791Y-24214D02*
X16753Y-24169D01*
X16753Y-24169D02*
X16725Y-24118D01*
X16725Y-24118D02*
X16707Y-24062D01*
X16707Y-24062D02*
X16701Y-24004D01*
X16701Y-24004D02*
X16705Y-23946D01*
X16705Y-23946D02*
X16722Y-23890D01*
X16722Y-23890D02*
X16748Y-23838D01*
X16748Y-23838D02*
X16785Y-23792D01*
X16785Y-23792D02*
X16829Y-23754D01*
X16829Y-23754D02*
X16880Y-23726D01*
X16880Y-23726D02*
X16936Y-23707D01*
X16936Y-23707D02*
X16994Y-23701D01*
X16994Y-23701D02*
X17052Y-23705D01*
X17052Y-23705D02*
X17108Y-23721D01*
X17108Y-23721D02*
X17160Y-23747D01*
X17160Y-23747D02*
X17206Y-23783D01*
X17206Y-23783D02*
X17245Y-23828D01*
X17245Y-23828D02*
X17274Y-23878D01*
X17274Y-23878D02*
X17292Y-23934D01*
X17292Y-23934D02*
X17299Y-23992D01*
X17299Y-23992D02*
X17300Y-24000D01*
X17300Y-25000D02*
X17294Y-25058D01*
X17294Y-25058D02*
X17277Y-25114D01*
X17277Y-25114D02*
X17249Y-25166D01*
X17249Y-25166D02*
X17212Y-25211D01*
X17212Y-25211D02*
X17167Y-25248D01*
X17167Y-25248D02*
X17116Y-25276D01*
X17116Y-25276D02*
X17060Y-25293D01*
X17060Y-25293D02*
X17002Y-25299D01*
X17002Y-25299D02*
X16944Y-25294D01*
X16944Y-25294D02*
X16888Y-25278D01*
X16888Y-25278D02*
X16836Y-25251D01*
X16836Y-25251D02*
X16791Y-25214D01*
X16791Y-25214D02*
X16753Y-25169D01*
X16753Y-25169D02*
X16725Y-25118D01*
X16725Y-25118D02*
X16707Y-25062D01*
X16707Y-25062D02*
X16701Y-25004D01*
X16701Y-25004D02*
X16705Y-24946D01*
X16705Y-24946D02*
X16722Y-24890D01*
X16722Y-24890D02*
X16748Y-24838D01*
X16748Y-24838D02*
X16785Y-24792D01*
X16785Y-24792D02*
X16829Y-24754D01*
X16829Y-24754D02*
X16880Y-24726D01*
X16880Y-24726D02*
X16936Y-24707D01*
X16936Y-24707D02*
X16994Y-24701D01*
X16994Y-24701D02*
X17052Y-24705D01*
X17052Y-24705D02*
X17108Y-24721D01*
X17108Y-24721D02*
X17160Y-24747D01*
X17160Y-24747D02*
X17206Y-24783D01*
X17206Y-24783D02*
X17245Y-24828D01*
X17245Y-24828D02*
X17274Y-24878D01*
X17274Y-24878D02*
X17292Y-24934D01*
X17292Y-24934D02*
X17299Y-24992D01*
X17299Y-24992D02*
X17300Y-25000D01*
X11700Y-37200D02*
X12300Y-37200D01*
X12300Y-37200D02*
X12300Y-37800D01*
X12300Y-37800D02*
X11700Y-37800D01*
X11700Y-37800D02*
X11700Y-37200D01*
X12300Y-38500D02*
X12294Y-38558D01*
X12294Y-38558D02*
X12277Y-38614D01*
X12277Y-38614D02*
X12249Y-38666D01*
X12249Y-38666D02*
X12212Y-38711D01*
X12212Y-38711D02*
X12167Y-38748D01*
X12167Y-38748D02*
X12116Y-38776D01*
X12116Y-38776D02*
X12060Y-38793D01*
X12060Y-38793D02*
X12002Y-38799D01*
X12002Y-38799D02*
X11944Y-38794D01*
X11944Y-38794D02*
X11888Y-38778D01*
X11888Y-38778D02*
X11836Y-38751D01*
X11836Y-38751D02*
X11791Y-38714D01*
X11791Y-38714D02*
X11753Y-38669D01*
X11753Y-38669D02*
X11725Y-38618D01*
X11725Y-38618D02*
X11707Y-38562D01*
X11707Y-38562D02*
X11701Y-38504D01*
X11701Y-38504D02*
X11705Y-38446D01*
X11705Y-38446D02*
X11722Y-38390D01*
X11722Y-38390D02*
X11748Y-38338D01*
X11748Y-38338D02*
X11785Y-38292D01*
X11785Y-38292D02*
X11829Y-38254D01*
X11829Y-38254D02*
X11880Y-38226D01*
X11880Y-38226D02*
X11936Y-38207D01*
X11936Y-38207D02*
X11994Y-38201D01*
X11994Y-38201D02*
X12052Y-38205D01*
X12052Y-38205D02*
X12108Y-38221D01*
X12108Y-38221D02*
X12160Y-38247D01*
X12160Y-38247D02*
X12206Y-38283D01*
X12206Y-38283D02*
X12245Y-38328D01*
X12245Y-38328D02*
X12274Y-38378D01*
X12274Y-38378D02*
X12292Y-38434D01*
X12292Y-38434D02*
X12299Y-38492D01*
X12299Y-38492D02*
X12300Y-38500D01*
X12300Y-39500D02*
X12294Y-39558D01*
X12294Y-39558D02*
X12277Y-39614D01*
X12277Y-39614D02*
X12249Y-39666D01*
X12249Y-39666D02*
X12212Y-39711D01*
X12212Y-39711D02*
X12167Y-39748D01*
X12167Y-39748D02*
X12116Y-39776D01*
X12116Y-39776D02*
X12060Y-39793D01*
X12060Y-39793D02*
X12002Y-39799D01*
X12002Y-39799D02*
X11944Y-39794D01*
X11944Y-39794D02*
X11888Y-39778D01*
X11888Y-39778D02*
X11836Y-39751D01*
X11836Y-39751D02*
X11791Y-39714D01*
X11791Y-39714D02*
X11753Y-39669D01*
X11753Y-39669D02*
X11725Y-39618D01*
X11725Y-39618D02*
X11707Y-39562D01*
X11707Y-39562D02*
X11701Y-39504D01*
X11701Y-39504D02*
X11705Y-39446D01*
X11705Y-39446D02*
X11722Y-39390D01*
X11722Y-39390D02*
X11748Y-39338D01*
X11748Y-39338D02*
X11785Y-39292D01*
X11785Y-39292D02*
X11829Y-39254D01*
X11829Y-39254D02*
X11880Y-39226D01*
X11880Y-39226D02*
X11936Y-39207D01*
X11936Y-39207D02*
X11994Y-39201D01*
X11994Y-39201D02*
X12052Y-39205D01*
X12052Y-39205D02*
X12108Y-39221D01*
X12108Y-39221D02*
X12160Y-39247D01*
X12160Y-39247D02*
X12206Y-39283D01*
X12206Y-39283D02*
X12245Y-39328D01*
X12245Y-39328D02*
X12274Y-39378D01*
X12274Y-39378D02*
X12292Y-39434D01*
X12292Y-39434D02*
X12299Y-39492D01*
X12299Y-39492D02*
X12300Y-39500D01*
X12300Y-40500D02*
X12294Y-40558D01*
X12294Y-40558D02*
X12277Y-40614D01*
X12277Y-40614D02*
X12249Y-40666D01*
X12249Y-40666D02*
X12212Y-40711D01*
X12212Y-40711D02*
X12167Y-40748D01*
X12167Y-40748D02*
X12116Y-40776D01*
X12116Y-40776D02*
X12060Y-40793D01*
X12060Y-40793D02*
X12002Y-40799D01*
X12002Y-40799D02*
X11944Y-40794D01*
X11944Y-40794D02*
X11888Y-40778D01*
X11888Y-40778D02*
X11836Y-40751D01*
X11836Y-40751D02*
X11791Y-40714D01*
X11791Y-40714D02*
X11753Y-40669D01*
X11753Y-40669D02*
X11725Y-40618D01*
X11725Y-40618D02*
X11707Y-40562D01*
X11707Y-40562D02*
X11701Y-40504D01*
X11701Y-40504D02*
X11705Y-40446D01*
X11705Y-40446D02*
X11722Y-40390D01*
X11722Y-40390D02*
X11748Y-40338D01*
X11748Y-40338D02*
X11785Y-40292D01*
X11785Y-40292D02*
X11829Y-40254D01*
X11829Y-40254D02*
X11880Y-40226D01*
X11880Y-40226D02*
X11936Y-40207D01*
X11936Y-40207D02*
X11994Y-40201D01*
X11994Y-40201D02*
X12052Y-40205D01*
X12052Y-40205D02*
X12108Y-40221D01*
X12108Y-40221D02*
X12160Y-40247D01*
X12160Y-40247D02*
X12206Y-40283D01*
X12206Y-40283D02*
X12245Y-40328D01*
X12245Y-40328D02*
X12274Y-40378D01*
X12274Y-40378D02*
X12292Y-40434D01*
X12292Y-40434D02*
X12299Y-40492D01*
X12299Y-40492D02*
X12300Y-40500D01*
X12300Y-41500D02*
X12294Y-41558D01*
X12294Y-41558D02*
X12277Y-41614D01*
X12277Y-41614D02*
X12249Y-41666D01*
X12249Y-41666D02*
X12212Y-41711D01*
X12212Y-41711D02*
X12167Y-41748D01*
X12167Y-41748D02*
X12116Y-41776D01*
X12116Y-41776D02*
X12060Y-41793D01*
X12060Y-41793D02*
X12002Y-41799D01*
X12002Y-41799D02*
X11944Y-41794D01*
X11944Y-41794D02*
X11888Y-41778D01*
X11888Y-41778D02*
X11836Y-41751D01*
X11836Y-41751D02*
X11791Y-41714D01*
X11791Y-41714D02*
X11753Y-41669D01*
X11753Y-41669D02*
X11725Y-41618D01*
X11725Y-41618D02*
X11707Y-41562D01*
X11707Y-41562D02*
X11701Y-41504D01*
X11701Y-41504D02*
X11705Y-41446D01*
X11705Y-41446D02*
X11722Y-41390D01*
X11722Y-41390D02*
X11748Y-41338D01*
X11748Y-41338D02*
X11785Y-41292D01*
X11785Y-41292D02*
X11829Y-41254D01*
X11829Y-41254D02*
X11880Y-41226D01*
X11880Y-41226D02*
X11936Y-41207D01*
X11936Y-41207D02*
X11994Y-41201D01*
X11994Y-41201D02*
X12052Y-41205D01*
X12052Y-41205D02*
X12108Y-41221D01*
X12108Y-41221D02*
X12160Y-41247D01*
X12160Y-41247D02*
X12206Y-41283D01*
X12206Y-41283D02*
X12245Y-41328D01*
X12245Y-41328D02*
X12274Y-41378D01*
X12274Y-41378D02*
X12292Y-41434D01*
X12292Y-41434D02*
X12299Y-41492D01*
X12299Y-41492D02*
X12300Y-41500D01*
X12300Y-42500D02*
X12294Y-42558D01*
X12294Y-42558D02*
X12277Y-42614D01*
X12277Y-42614D02*
X12249Y-42666D01*
X12249Y-42666D02*
X12212Y-42711D01*
X12212Y-42711D02*
X12167Y-42748D01*
X12167Y-42748D02*
X12116Y-42776D01*
X12116Y-42776D02*
X12060Y-42793D01*
X12060Y-42793D02*
X12002Y-42799D01*
X12002Y-42799D02*
X11944Y-42794D01*
X11944Y-42794D02*
X11888Y-42778D01*
X11888Y-42778D02*
X11836Y-42751D01*
X11836Y-42751D02*
X11791Y-42714D01*
X11791Y-42714D02*
X11753Y-42669D01*
X11753Y-42669D02*
X11725Y-42618D01*
X11725Y-42618D02*
X11707Y-42562D01*
X11707Y-42562D02*
X11701Y-42504D01*
X11701Y-42504D02*
X11705Y-42446D01*
X11705Y-42446D02*
X11722Y-42390D01*
X11722Y-42390D02*
X11748Y-42338D01*
X11748Y-42338D02*
X11785Y-42292D01*
X11785Y-42292D02*
X11829Y-42254D01*
X11829Y-42254D02*
X11880Y-42226D01*
X11880Y-42226D02*
X11936Y-42207D01*
X11936Y-42207D02*
X11994Y-42201D01*
X11994Y-42201D02*
X12052Y-42205D01*
X12052Y-42205D02*
X12108Y-42221D01*
X12108Y-42221D02*
X12160Y-42247D01*
X12160Y-42247D02*
X12206Y-42283D01*
X12206Y-42283D02*
X12245Y-42328D01*
X12245Y-42328D02*
X12274Y-42378D01*
X12274Y-42378D02*
X12292Y-42434D01*
X12292Y-42434D02*
X12299Y-42492D01*
X12299Y-42492D02*
X12300Y-42500D01*
X11700Y-19700D02*
X12300Y-19700D01*
X12300Y-19700D02*
X12300Y-20300D01*
X12300Y-20300D02*
X11700Y-20300D01*
X11700Y-20300D02*
X11700Y-19700D01*
X12300Y-21000D02*
X12294Y-21058D01*
X12294Y-21058D02*
X12277Y-21114D01*
X12277Y-21114D02*
X12249Y-21166D01*
X12249Y-21166D02*
X12212Y-21211D01*
X12212Y-21211D02*
X12167Y-21248D01*
X12167Y-21248D02*
X12116Y-21276D01*
X12116Y-21276D02*
X12060Y-21293D01*
X12060Y-21293D02*
X12002Y-21299D01*
X12002Y-21299D02*
X11944Y-21294D01*
X11944Y-21294D02*
X11888Y-21278D01*
X11888Y-21278D02*
X11836Y-21251D01*
X11836Y-21251D02*
X11791Y-21214D01*
X11791Y-21214D02*
X11753Y-21169D01*
X11753Y-21169D02*
X11725Y-21118D01*
X11725Y-21118D02*
X11707Y-21062D01*
X11707Y-21062D02*
X11701Y-21004D01*
X11701Y-21004D02*
X11705Y-20946D01*
X11705Y-20946D02*
X11722Y-20890D01*
X11722Y-20890D02*
X11748Y-20838D01*
X11748Y-20838D02*
X11785Y-20792D01*
X11785Y-20792D02*
X11829Y-20754D01*
X11829Y-20754D02*
X11880Y-20726D01*
X11880Y-20726D02*
X11936Y-20707D01*
X11936Y-20707D02*
X11994Y-20701D01*
X11994Y-20701D02*
X12052Y-20705D01*
X12052Y-20705D02*
X12108Y-20721D01*
X12108Y-20721D02*
X12160Y-20747D01*
X12160Y-20747D02*
X12206Y-20783D01*
X12206Y-20783D02*
X12245Y-20828D01*
X12245Y-20828D02*
X12274Y-20878D01*
X12274Y-20878D02*
X12292Y-20934D01*
X12292Y-20934D02*
X12299Y-20992D01*
X12299Y-20992D02*
X12300Y-21000D01*
X12300Y-22000D02*
X12294Y-22058D01*
X12294Y-22058D02*
X12277Y-22114D01*
X12277Y-22114D02*
X12249Y-22166D01*
X12249Y-22166D02*
X12212Y-22211D01*
X12212Y-22211D02*
X12167Y-22248D01*
X12167Y-22248D02*
X12116Y-22276D01*
X12116Y-22276D02*
X12060Y-22293D01*
X12060Y-22293D02*
X12002Y-22299D01*
X12002Y-22299D02*
X11944Y-22294D01*
X11944Y-22294D02*
X11888Y-22278D01*
X11888Y-22278D02*
X11836Y-22251D01*
X11836Y-22251D02*
X11791Y-22214D01*
X11791Y-22214D02*
X11753Y-22169D01*
X11753Y-22169D02*
X11725Y-22118D01*
X11725Y-22118D02*
X11707Y-22062D01*
X11707Y-22062D02*
X11701Y-22004D01*
X11701Y-22004D02*
X11705Y-21946D01*
X11705Y-21946D02*
X11722Y-21890D01*
X11722Y-21890D02*
X11748Y-21838D01*
X11748Y-21838D02*
X11785Y-21792D01*
X11785Y-21792D02*
X11829Y-21754D01*
X11829Y-21754D02*
X11880Y-21726D01*
X11880Y-21726D02*
X11936Y-21707D01*
X11936Y-21707D02*
X11994Y-21701D01*
X11994Y-21701D02*
X12052Y-21705D01*
X12052Y-21705D02*
X12108Y-21721D01*
X12108Y-21721D02*
X12160Y-21747D01*
X12160Y-21747D02*
X12206Y-21783D01*
X12206Y-21783D02*
X12245Y-21828D01*
X12245Y-21828D02*
X12274Y-21878D01*
X12274Y-21878D02*
X12292Y-21934D01*
X12292Y-21934D02*
X12299Y-21992D01*
X12299Y-21992D02*
X12300Y-22000D01*
X12300Y-23000D02*
X12294Y-23058D01*
X12294Y-23058D02*
X12277Y-23114D01*
X12277Y-23114D02*
X12249Y-23166D01*
X12249Y-23166D02*
X12212Y-23211D01*
X12212Y-23211D02*
X12167Y-23248D01*
X12167Y-23248D02*
X12116Y-23276D01*
X12116Y-23276D02*
X12060Y-23293D01*
X12060Y-23293D02*
X12002Y-23299D01*
X12002Y-23299D02*
X11944Y-23294D01*
X11944Y-23294D02*
X11888Y-23278D01*
X11888Y-23278D02*
X11836Y-23251D01*
X11836Y-23251D02*
X11791Y-23214D01*
X11791Y-23214D02*
X11753Y-23169D01*
X11753Y-23169D02*
X11725Y-23118D01*
X11725Y-23118D02*
X11707Y-23062D01*
X11707Y-23062D02*
X11701Y-23004D01*
X11701Y-23004D02*
X11705Y-22946D01*
X11705Y-22946D02*
X11722Y-22890D01*
X11722Y-22890D02*
X11748Y-22838D01*
X11748Y-22838D02*
X11785Y-22792D01*
X11785Y-22792D02*
X11829Y-22754D01*
X11829Y-22754D02*
X11880Y-22726D01*
X11880Y-22726D02*
X11936Y-22707D01*
X11936Y-22707D02*
X11994Y-22701D01*
X11994Y-22701D02*
X12052Y-22705D01*
X12052Y-22705D02*
X12108Y-22721D01*
X12108Y-22721D02*
X12160Y-22747D01*
X12160Y-22747D02*
X12206Y-22783D01*
X12206Y-22783D02*
X12245Y-22828D01*
X12245Y-22828D02*
X12274Y-22878D01*
X12274Y-22878D02*
X12292Y-22934D01*
X12292Y-22934D02*
X12299Y-22992D01*
X12299Y-22992D02*
X12300Y-23000D01*
X12300Y-24000D02*
X12294Y-24058D01*
X12294Y-24058D02*
X12277Y-24114D01*
X12277Y-24114D02*
X12249Y-24166D01*
X12249Y-24166D02*
X12212Y-24211D01*
X12212Y-24211D02*
X12167Y-24248D01*
X12167Y-24248D02*
X12116Y-24276D01*
X12116Y-24276D02*
X12060Y-24293D01*
X12060Y-24293D02*
X12002Y-24299D01*
X12002Y-24299D02*
X11944Y-24294D01*
X11944Y-24294D02*
X11888Y-24278D01*
X11888Y-24278D02*
X11836Y-24251D01*
X11836Y-24251D02*
X11791Y-24214D01*
X11791Y-24214D02*
X11753Y-24169D01*
X11753Y-24169D02*
X11725Y-24118D01*
X11725Y-24118D02*
X11707Y-24062D01*
X11707Y-24062D02*
X11701Y-24004D01*
X11701Y-24004D02*
X11705Y-23946D01*
X11705Y-23946D02*
X11722Y-23890D01*
X11722Y-23890D02*
X11748Y-23838D01*
X11748Y-23838D02*
X11785Y-23792D01*
X11785Y-23792D02*
X11829Y-23754D01*
X11829Y-23754D02*
X11880Y-23726D01*
X11880Y-23726D02*
X11936Y-23707D01*
X11936Y-23707D02*
X11994Y-23701D01*
X11994Y-23701D02*
X12052Y-23705D01*
X12052Y-23705D02*
X12108Y-23721D01*
X12108Y-23721D02*
X12160Y-23747D01*
X12160Y-23747D02*
X12206Y-23783D01*
X12206Y-23783D02*
X12245Y-23828D01*
X12245Y-23828D02*
X12274Y-23878D01*
X12274Y-23878D02*
X12292Y-23934D01*
X12292Y-23934D02*
X12299Y-23992D01*
X12299Y-23992D02*
X12300Y-24000D01*
X12300Y-25000D02*
X12294Y-25058D01*
X12294Y-25058D02*
X12277Y-25114D01*
X12277Y-25114D02*
X12249Y-25166D01*
X12249Y-25166D02*
X12212Y-25211D01*
X12212Y-25211D02*
X12167Y-25248D01*
X12167Y-25248D02*
X12116Y-25276D01*
X12116Y-25276D02*
X12060Y-25293D01*
X12060Y-25293D02*
X12002Y-25299D01*
X12002Y-25299D02*
X11944Y-25294D01*
X11944Y-25294D02*
X11888Y-25278D01*
X11888Y-25278D02*
X11836Y-25251D01*
X11836Y-25251D02*
X11791Y-25214D01*
X11791Y-25214D02*
X11753Y-25169D01*
X11753Y-25169D02*
X11725Y-25118D01*
X11725Y-25118D02*
X11707Y-25062D01*
X11707Y-25062D02*
X11701Y-25004D01*
X11701Y-25004D02*
X11705Y-24946D01*
X11705Y-24946D02*
X11722Y-24890D01*
X11722Y-24890D02*
X11748Y-24838D01*
X11748Y-24838D02*
X11785Y-24792D01*
X11785Y-24792D02*
X11829Y-24754D01*
X11829Y-24754D02*
X11880Y-24726D01*
X11880Y-24726D02*
X11936Y-24707D01*
X11936Y-24707D02*
X11994Y-24701D01*
X11994Y-24701D02*
X12052Y-24705D01*
X12052Y-24705D02*
X12108Y-24721D01*
X12108Y-24721D02*
X12160Y-24747D01*
X12160Y-24747D02*
X12206Y-24783D01*
X12206Y-24783D02*
X12245Y-24828D01*
X12245Y-24828D02*
X12274Y-24878D01*
X12274Y-24878D02*
X12292Y-24934D01*
X12292Y-24934D02*
X12299Y-24992D01*
X12299Y-24992D02*
X12300Y-25000D01*
X62650Y-31250D02*
X62637Y-31376D01*
X62637Y-31376D02*
X62600Y-31497D01*
X62600Y-31497D02*
X62541Y-31609D01*
X62541Y-31609D02*
X62461Y-31708D01*
X62461Y-31708D02*
X62363Y-31788D01*
X62363Y-31788D02*
X62251Y-31849D01*
X62251Y-31849D02*
X62130Y-31886D01*
X62130Y-31886D02*
X62004Y-31899D01*
X62004Y-31899D02*
X61879Y-31888D01*
X61879Y-31888D02*
X61757Y-31852D01*
X61757Y-31852D02*
X61645Y-31793D01*
X61645Y-31793D02*
X61546Y-31714D01*
X61546Y-31714D02*
X61464Y-31617D01*
X61464Y-31617D02*
X61403Y-31506D01*
X61403Y-31506D02*
X61365Y-31385D01*
X61365Y-31385D02*
X61351Y-31259D01*
X61351Y-31259D02*
X61361Y-31133D01*
X61361Y-31133D02*
X61396Y-31011D01*
X61396Y-31011D02*
X61454Y-30898D01*
X61454Y-30898D02*
X61533Y-30799D01*
X61533Y-30799D02*
X61630Y-30717D01*
X61630Y-30717D02*
X61740Y-30655D01*
X61740Y-30655D02*
X61861Y-30616D01*
X61861Y-30616D02*
X61987Y-30601D01*
X61987Y-30601D02*
X62112Y-30610D01*
X62112Y-30610D02*
X62235Y-30644D01*
X62235Y-30644D02*
X62348Y-30702D01*
X62348Y-30702D02*
X62448Y-30780D01*
X62448Y-30780D02*
X62531Y-30876D01*
X62531Y-30876D02*
X62593Y-30986D01*
X62593Y-30986D02*
X62633Y-31106D01*
X62633Y-31106D02*
X62649Y-31232D01*
X62649Y-31232D02*
X62650Y-31250D01*
X57650Y-31250D02*
X57637Y-31376D01*
X57637Y-31376D02*
X57600Y-31497D01*
X57600Y-31497D02*
X57541Y-31609D01*
X57541Y-31609D02*
X57461Y-31708D01*
X57461Y-31708D02*
X57363Y-31788D01*
X57363Y-31788D02*
X57251Y-31849D01*
X57251Y-31849D02*
X57130Y-31886D01*
X57130Y-31886D02*
X57004Y-31899D01*
X57004Y-31899D02*
X56879Y-31888D01*
X56879Y-31888D02*
X56757Y-31852D01*
X56757Y-31852D02*
X56645Y-31793D01*
X56645Y-31793D02*
X56546Y-31714D01*
X56546Y-31714D02*
X56464Y-31617D01*
X56464Y-31617D02*
X56403Y-31506D01*
X56403Y-31506D02*
X56365Y-31385D01*
X56365Y-31385D02*
X56351Y-31259D01*
X56351Y-31259D02*
X56361Y-31133D01*
X56361Y-31133D02*
X56396Y-31011D01*
X56396Y-31011D02*
X56454Y-30898D01*
X56454Y-30898D02*
X56533Y-30799D01*
X56533Y-30799D02*
X56630Y-30717D01*
X56630Y-30717D02*
X56740Y-30655D01*
X56740Y-30655D02*
X56861Y-30616D01*
X56861Y-30616D02*
X56987Y-30601D01*
X56987Y-30601D02*
X57112Y-30610D01*
X57112Y-30610D02*
X57235Y-30644D01*
X57235Y-30644D02*
X57348Y-30702D01*
X57348Y-30702D02*
X57448Y-30780D01*
X57448Y-30780D02*
X57531Y-30876D01*
X57531Y-30876D02*
X57593Y-30986D01*
X57593Y-30986D02*
X57633Y-31106D01*
X57633Y-31106D02*
X57649Y-31232D01*
X57649Y-31232D02*
X57650Y-31250D01*
X52650Y-31250D02*
X52637Y-31376D01*
X52637Y-31376D02*
X52600Y-31497D01*
X52600Y-31497D02*
X52541Y-31609D01*
X52541Y-31609D02*
X52461Y-31708D01*
X52461Y-31708D02*
X52363Y-31788D01*
X52363Y-31788D02*
X52251Y-31849D01*
X52251Y-31849D02*
X52130Y-31886D01*
X52130Y-31886D02*
X52004Y-31899D01*
X52004Y-31899D02*
X51879Y-31888D01*
X51879Y-31888D02*
X51757Y-31852D01*
X51757Y-31852D02*
X51645Y-31793D01*
X51645Y-31793D02*
X51546Y-31714D01*
X51546Y-31714D02*
X51464Y-31617D01*
X51464Y-31617D02*
X51403Y-31506D01*
X51403Y-31506D02*
X51365Y-31385D01*
X51365Y-31385D02*
X51351Y-31259D01*
X51351Y-31259D02*
X51361Y-31133D01*
X51361Y-31133D02*
X51396Y-31011D01*
X51396Y-31011D02*
X51454Y-30898D01*
X51454Y-30898D02*
X51533Y-30799D01*
X51533Y-30799D02*
X51630Y-30717D01*
X51630Y-30717D02*
X51740Y-30655D01*
X51740Y-30655D02*
X51861Y-30616D01*
X51861Y-30616D02*
X51987Y-30601D01*
X51987Y-30601D02*
X52112Y-30610D01*
X52112Y-30610D02*
X52235Y-30644D01*
X52235Y-30644D02*
X52348Y-30702D01*
X52348Y-30702D02*
X52448Y-30780D01*
X52448Y-30780D02*
X52531Y-30876D01*
X52531Y-30876D02*
X52593Y-30986D01*
X52593Y-30986D02*
X52633Y-31106D01*
X52633Y-31106D02*
X52649Y-31232D01*
X52649Y-31232D02*
X52650Y-31250D01*
X47650Y-31250D02*
X47637Y-31376D01*
X47637Y-31376D02*
X47600Y-31497D01*
X47600Y-31497D02*
X47541Y-31609D01*
X47541Y-31609D02*
X47461Y-31708D01*
X47461Y-31708D02*
X47363Y-31788D01*
X47363Y-31788D02*
X47251Y-31849D01*
X47251Y-31849D02*
X47130Y-31886D01*
X47130Y-31886D02*
X47004Y-31899D01*
X47004Y-31899D02*
X46879Y-31888D01*
X46879Y-31888D02*
X46757Y-31852D01*
X46757Y-31852D02*
X46645Y-31793D01*
X46645Y-31793D02*
X46546Y-31714D01*
X46546Y-31714D02*
X46464Y-31617D01*
X46464Y-31617D02*
X46403Y-31506D01*
X46403Y-31506D02*
X46365Y-31385D01*
X46365Y-31385D02*
X46351Y-31259D01*
X46351Y-31259D02*
X46361Y-31133D01*
X46361Y-31133D02*
X46396Y-31011D01*
X46396Y-31011D02*
X46454Y-30898D01*
X46454Y-30898D02*
X46533Y-30799D01*
X46533Y-30799D02*
X46630Y-30717D01*
X46630Y-30717D02*
X46740Y-30655D01*
X46740Y-30655D02*
X46861Y-30616D01*
X46861Y-30616D02*
X46987Y-30601D01*
X46987Y-30601D02*
X47112Y-30610D01*
X47112Y-30610D02*
X47235Y-30644D01*
X47235Y-30644D02*
X47348Y-30702D01*
X47348Y-30702D02*
X47448Y-30780D01*
X47448Y-30780D02*
X47531Y-30876D01*
X47531Y-30876D02*
X47593Y-30986D01*
X47593Y-30986D02*
X47633Y-31106D01*
X47633Y-31106D02*
X47649Y-31232D01*
X47649Y-31232D02*
X47650Y-31250D01*
X42650Y-31250D02*
X42637Y-31376D01*
X42637Y-31376D02*
X42600Y-31497D01*
X42600Y-31497D02*
X42541Y-31609D01*
X42541Y-31609D02*
X42461Y-31708D01*
X42461Y-31708D02*
X42363Y-31788D01*
X42363Y-31788D02*
X42251Y-31849D01*
X42251Y-31849D02*
X42130Y-31886D01*
X42130Y-31886D02*
X42004Y-31899D01*
X42004Y-31899D02*
X41879Y-31888D01*
X41879Y-31888D02*
X41757Y-31852D01*
X41757Y-31852D02*
X41645Y-31793D01*
X41645Y-31793D02*
X41546Y-31714D01*
X41546Y-31714D02*
X41464Y-31617D01*
X41464Y-31617D02*
X41403Y-31506D01*
X41403Y-31506D02*
X41365Y-31385D01*
X41365Y-31385D02*
X41351Y-31259D01*
X41351Y-31259D02*
X41361Y-31133D01*
X41361Y-31133D02*
X41396Y-31011D01*
X41396Y-31011D02*
X41454Y-30898D01*
X41454Y-30898D02*
X41533Y-30799D01*
X41533Y-30799D02*
X41630Y-30717D01*
X41630Y-30717D02*
X41740Y-30655D01*
X41740Y-30655D02*
X41861Y-30616D01*
X41861Y-30616D02*
X41987Y-30601D01*
X41987Y-30601D02*
X42112Y-30610D01*
X42112Y-30610D02*
X42235Y-30644D01*
X42235Y-30644D02*
X42348Y-30702D01*
X42348Y-30702D02*
X42448Y-30780D01*
X42448Y-30780D02*
X42531Y-30876D01*
X42531Y-30876D02*
X42593Y-30986D01*
X42593Y-30986D02*
X42633Y-31106D01*
X42633Y-31106D02*
X42649Y-31232D01*
X42649Y-31232D02*
X42650Y-31250D01*
X37650Y-31250D02*
X37637Y-31376D01*
X37637Y-31376D02*
X37600Y-31497D01*
X37600Y-31497D02*
X37541Y-31609D01*
X37541Y-31609D02*
X37461Y-31708D01*
X37461Y-31708D02*
X37363Y-31788D01*
X37363Y-31788D02*
X37251Y-31849D01*
X37251Y-31849D02*
X37130Y-31886D01*
X37130Y-31886D02*
X37004Y-31899D01*
X37004Y-31899D02*
X36879Y-31888D01*
X36879Y-31888D02*
X36757Y-31852D01*
X36757Y-31852D02*
X36645Y-31793D01*
X36645Y-31793D02*
X36546Y-31714D01*
X36546Y-31714D02*
X36464Y-31617D01*
X36464Y-31617D02*
X36403Y-31506D01*
X36403Y-31506D02*
X36365Y-31385D01*
X36365Y-31385D02*
X36351Y-31259D01*
X36351Y-31259D02*
X36361Y-31133D01*
X36361Y-31133D02*
X36396Y-31011D01*
X36396Y-31011D02*
X36454Y-30898D01*
X36454Y-30898D02*
X36533Y-30799D01*
X36533Y-30799D02*
X36630Y-30717D01*
X36630Y-30717D02*
X36740Y-30655D01*
X36740Y-30655D02*
X36861Y-30616D01*
X36861Y-30616D02*
X36987Y-30601D01*
X36987Y-30601D02*
X37112Y-30610D01*
X37112Y-30610D02*
X37235Y-30644D01*
X37235Y-30644D02*
X37348Y-30702D01*
X37348Y-30702D02*
X37448Y-30780D01*
X37448Y-30780D02*
X37531Y-30876D01*
X37531Y-30876D02*
X37593Y-30986D01*
X37593Y-30986D02*
X37633Y-31106D01*
X37633Y-31106D02*
X37649Y-31232D01*
X37649Y-31232D02*
X37650Y-31250D01*
X32650Y-31250D02*
X32637Y-31376D01*
X32637Y-31376D02*
X32600Y-31497D01*
X32600Y-31497D02*
X32541Y-31609D01*
X32541Y-31609D02*
X32461Y-31708D01*
X32461Y-31708D02*
X32363Y-31788D01*
X32363Y-31788D02*
X32251Y-31849D01*
X32251Y-31849D02*
X32130Y-31886D01*
X32130Y-31886D02*
X32004Y-31899D01*
X32004Y-31899D02*
X31879Y-31888D01*
X31879Y-31888D02*
X31757Y-31852D01*
X31757Y-31852D02*
X31645Y-31793D01*
X31645Y-31793D02*
X31546Y-31714D01*
X31546Y-31714D02*
X31464Y-31617D01*
X31464Y-31617D02*
X31403Y-31506D01*
X31403Y-31506D02*
X31365Y-31385D01*
X31365Y-31385D02*
X31351Y-31259D01*
X31351Y-31259D02*
X31361Y-31133D01*
X31361Y-31133D02*
X31396Y-31011D01*
X31396Y-31011D02*
X31454Y-30898D01*
X31454Y-30898D02*
X31533Y-30799D01*
X31533Y-30799D02*
X31630Y-30717D01*
X31630Y-30717D02*
X31740Y-30655D01*
X31740Y-30655D02*
X31861Y-30616D01*
X31861Y-30616D02*
X31987Y-30601D01*
X31987Y-30601D02*
X32112Y-30610D01*
X32112Y-30610D02*
X32235Y-30644D01*
X32235Y-30644D02*
X32348Y-30702D01*
X32348Y-30702D02*
X32448Y-30780D01*
X32448Y-30780D02*
X32531Y-30876D01*
X32531Y-30876D02*
X32593Y-30986D01*
X32593Y-30986D02*
X32633Y-31106D01*
X32633Y-31106D02*
X32649Y-31232D01*
X32649Y-31232D02*
X32650Y-31250D01*
X27650Y-31250D02*
X27637Y-31376D01*
X27637Y-31376D02*
X27600Y-31497D01*
X27600Y-31497D02*
X27541Y-31609D01*
X27541Y-31609D02*
X27461Y-31708D01*
X27461Y-31708D02*
X27363Y-31788D01*
X27363Y-31788D02*
X27251Y-31849D01*
X27251Y-31849D02*
X27130Y-31886D01*
X27130Y-31886D02*
X27004Y-31899D01*
X27004Y-31899D02*
X26879Y-31888D01*
X26879Y-31888D02*
X26757Y-31852D01*
X26757Y-31852D02*
X26645Y-31793D01*
X26645Y-31793D02*
X26546Y-31714D01*
X26546Y-31714D02*
X26464Y-31617D01*
X26464Y-31617D02*
X26403Y-31506D01*
X26403Y-31506D02*
X26365Y-31385D01*
X26365Y-31385D02*
X26351Y-31259D01*
X26351Y-31259D02*
X26361Y-31133D01*
X26361Y-31133D02*
X26396Y-31011D01*
X26396Y-31011D02*
X26454Y-30898D01*
X26454Y-30898D02*
X26533Y-30799D01*
X26533Y-30799D02*
X26630Y-30717D01*
X26630Y-30717D02*
X26740Y-30655D01*
X26740Y-30655D02*
X26861Y-30616D01*
X26861Y-30616D02*
X26987Y-30601D01*
X26987Y-30601D02*
X27112Y-30610D01*
X27112Y-30610D02*
X27235Y-30644D01*
X27235Y-30644D02*
X27348Y-30702D01*
X27348Y-30702D02*
X27448Y-30780D01*
X27448Y-30780D02*
X27531Y-30876D01*
X27531Y-30876D02*
X27593Y-30986D01*
X27593Y-30986D02*
X27633Y-31106D01*
X27633Y-31106D02*
X27649Y-31232D01*
X27649Y-31232D02*
X27650Y-31250D01*
X22650Y-31250D02*
X22637Y-31376D01*
X22637Y-31376D02*
X22600Y-31497D01*
X22600Y-31497D02*
X22541Y-31609D01*
X22541Y-31609D02*
X22461Y-31708D01*
X22461Y-31708D02*
X22363Y-31788D01*
X22363Y-31788D02*
X22251Y-31849D01*
X22251Y-31849D02*
X22130Y-31886D01*
X22130Y-31886D02*
X22004Y-31899D01*
X22004Y-31899D02*
X21879Y-31888D01*
X21879Y-31888D02*
X21757Y-31852D01*
X21757Y-31852D02*
X21645Y-31793D01*
X21645Y-31793D02*
X21546Y-31714D01*
X21546Y-31714D02*
X21464Y-31617D01*
X21464Y-31617D02*
X21403Y-31506D01*
X21403Y-31506D02*
X21365Y-31385D01*
X21365Y-31385D02*
X21351Y-31259D01*
X21351Y-31259D02*
X21361Y-31133D01*
X21361Y-31133D02*
X21396Y-31011D01*
X21396Y-31011D02*
X21454Y-30898D01*
X21454Y-30898D02*
X21533Y-30799D01*
X21533Y-30799D02*
X21630Y-30717D01*
X21630Y-30717D02*
X21740Y-30655D01*
X21740Y-30655D02*
X21861Y-30616D01*
X21861Y-30616D02*
X21987Y-30601D01*
X21987Y-30601D02*
X22112Y-30610D01*
X22112Y-30610D02*
X22235Y-30644D01*
X22235Y-30644D02*
X22348Y-30702D01*
X22348Y-30702D02*
X22448Y-30780D01*
X22448Y-30780D02*
X22531Y-30876D01*
X22531Y-30876D02*
X22593Y-30986D01*
X22593Y-30986D02*
X22633Y-31106D01*
X22633Y-31106D02*
X22649Y-31232D01*
X22649Y-31232D02*
X22650Y-31250D01*
X17650Y-31250D02*
X17637Y-31376D01*
X17637Y-31376D02*
X17600Y-31497D01*
X17600Y-31497D02*
X17541Y-31609D01*
X17541Y-31609D02*
X17461Y-31708D01*
X17461Y-31708D02*
X17363Y-31788D01*
X17363Y-31788D02*
X17251Y-31849D01*
X17251Y-31849D02*
X17130Y-31886D01*
X17130Y-31886D02*
X17004Y-31899D01*
X17004Y-31899D02*
X16879Y-31888D01*
X16879Y-31888D02*
X16757Y-31852D01*
X16757Y-31852D02*
X16645Y-31793D01*
X16645Y-31793D02*
X16546Y-31714D01*
X16546Y-31714D02*
X16464Y-31617D01*
X16464Y-31617D02*
X16403Y-31506D01*
X16403Y-31506D02*
X16365Y-31385D01*
X16365Y-31385D02*
X16351Y-31259D01*
X16351Y-31259D02*
X16361Y-31133D01*
X16361Y-31133D02*
X16396Y-31011D01*
X16396Y-31011D02*
X16454Y-30898D01*
X16454Y-30898D02*
X16533Y-30799D01*
X16533Y-30799D02*
X16630Y-30717D01*
X16630Y-30717D02*
X16740Y-30655D01*
X16740Y-30655D02*
X16861Y-30616D01*
X16861Y-30616D02*
X16987Y-30601D01*
X16987Y-30601D02*
X17112Y-30610D01*
X17112Y-30610D02*
X17235Y-30644D01*
X17235Y-30644D02*
X17348Y-30702D01*
X17348Y-30702D02*
X17448Y-30780D01*
X17448Y-30780D02*
X17531Y-30876D01*
X17531Y-30876D02*
X17593Y-30986D01*
X17593Y-30986D02*
X17633Y-31106D01*
X17633Y-31106D02*
X17649Y-31232D01*
X17649Y-31232D02*
X17650Y-31250D01*
X12650Y-31250D02*
X12637Y-31376D01*
X12637Y-31376D02*
X12600Y-31497D01*
X12600Y-31497D02*
X12541Y-31609D01*
X12541Y-31609D02*
X12461Y-31708D01*
X12461Y-31708D02*
X12363Y-31788D01*
X12363Y-31788D02*
X12251Y-31849D01*
X12251Y-31849D02*
X12130Y-31886D01*
X12130Y-31886D02*
X12004Y-31899D01*
X12004Y-31899D02*
X11879Y-31888D01*
X11879Y-31888D02*
X11757Y-31852D01*
X11757Y-31852D02*
X11645Y-31793D01*
X11645Y-31793D02*
X11546Y-31714D01*
X11546Y-31714D02*
X11464Y-31617D01*
X11464Y-31617D02*
X11403Y-31506D01*
X11403Y-31506D02*
X11365Y-31385D01*
X11365Y-31385D02*
X11351Y-31259D01*
X11351Y-31259D02*
X11361Y-31133D01*
X11361Y-31133D02*
X11396Y-31011D01*
X11396Y-31011D02*
X11454Y-30898D01*
X11454Y-30898D02*
X11533Y-30799D01*
X11533Y-30799D02*
X11630Y-30717D01*
X11630Y-30717D02*
X11740Y-30655D01*
X11740Y-30655D02*
X11861Y-30616D01*
X11861Y-30616D02*
X11987Y-30601D01*
X11987Y-30601D02*
X12112Y-30610D01*
X12112Y-30610D02*
X12235Y-30644D01*
X12235Y-30644D02*
X12348Y-30702D01*
X12348Y-30702D02*
X12448Y-30780D01*
X12448Y-30780D02*
X12531Y-30876D01*
X12531Y-30876D02*
X12593Y-30986D01*
X12593Y-30986D02*
X12633Y-31106D01*
X12633Y-31106D02*
X12649Y-31232D01*
X12649Y-31232D02*
X12650Y-31250D01*
M02*
