G04 (created by PCBnew (20090216-final)) date Wed 18 May 2011 09:12:20 PM PDT*
G01*
G70*
G90*
%MOIN*%
G04 Gerber Fmt 3.4, Leading zero omitted, Abs format*
%FSLAX34Y34*%
G04 APERTURE LIST*
%ADD10C,0.015000*%
%ADD11R,0.060000X0.060000*%
%ADD12C,0.060000*%
%ADD13C,0.130000*%
%ADD14C,0.010000*%
%ADD15C,0.005000*%
%ADD16C,0.012000*%
%ADD17R,0.080000X0.080000*%
%ADD18C,0.080000*%
%ADD19C,0.150000*%
G04 APERTURE END LIST*
G54D10*
X64000Y-10000D02*
X64000Y-52500D01*
X59000Y-48800D02*
X59011Y-48904D01*
X59011Y-48904D02*
X59043Y-49003D01*
X59043Y-49003D02*
X59095Y-49094D01*
X59095Y-49094D02*
X59165Y-49172D01*
X59165Y-49172D02*
X59250Y-49233D01*
X59250Y-49233D02*
X59345Y-49276D01*
X59345Y-49276D02*
X59448Y-49297D01*
X59448Y-49297D02*
X59500Y-49300D01*
X59500Y-49300D02*
X59604Y-49289D01*
X59604Y-49289D02*
X59703Y-49257D01*
X59703Y-49257D02*
X59794Y-49205D01*
X59794Y-49205D02*
X59872Y-49135D01*
X59872Y-49135D02*
X59933Y-49050D01*
X59933Y-49050D02*
X59976Y-48955D01*
X59976Y-48955D02*
X59997Y-48852D01*
X59997Y-48852D02*
X60000Y-48800D01*
X60000Y-13700D02*
X59989Y-13596D01*
X59989Y-13596D02*
X59957Y-13497D01*
X59957Y-13497D02*
X59905Y-13406D01*
X59905Y-13406D02*
X59835Y-13328D01*
X59835Y-13328D02*
X59750Y-13267D01*
X59750Y-13267D02*
X59655Y-13224D01*
X59655Y-13224D02*
X59552Y-13203D01*
X59552Y-13203D02*
X59500Y-13200D01*
X59500Y-13200D02*
X59396Y-13211D01*
X59396Y-13211D02*
X59297Y-13243D01*
X59297Y-13243D02*
X59206Y-13295D01*
X59206Y-13295D02*
X59128Y-13365D01*
X59128Y-13365D02*
X59067Y-13450D01*
X59067Y-13450D02*
X59024Y-13545D01*
X59024Y-13545D02*
X59003Y-13648D01*
X59003Y-13648D02*
X59000Y-13700D01*
X60000Y-13750D02*
X60000Y-48750D01*
X59000Y-13750D02*
X59000Y-48750D01*
X54000Y-48800D02*
X54011Y-48904D01*
X54011Y-48904D02*
X54043Y-49003D01*
X54043Y-49003D02*
X54095Y-49094D01*
X54095Y-49094D02*
X54165Y-49172D01*
X54165Y-49172D02*
X54250Y-49233D01*
X54250Y-49233D02*
X54345Y-49276D01*
X54345Y-49276D02*
X54448Y-49297D01*
X54448Y-49297D02*
X54500Y-49300D01*
X54500Y-49300D02*
X54604Y-49289D01*
X54604Y-49289D02*
X54703Y-49257D01*
X54703Y-49257D02*
X54794Y-49205D01*
X54794Y-49205D02*
X54872Y-49135D01*
X54872Y-49135D02*
X54933Y-49050D01*
X54933Y-49050D02*
X54976Y-48955D01*
X54976Y-48955D02*
X54997Y-48852D01*
X54997Y-48852D02*
X55000Y-48800D01*
X55000Y-13700D02*
X54989Y-13596D01*
X54989Y-13596D02*
X54957Y-13497D01*
X54957Y-13497D02*
X54905Y-13406D01*
X54905Y-13406D02*
X54835Y-13328D01*
X54835Y-13328D02*
X54750Y-13267D01*
X54750Y-13267D02*
X54655Y-13224D01*
X54655Y-13224D02*
X54552Y-13203D01*
X54552Y-13203D02*
X54500Y-13200D01*
X54500Y-13200D02*
X54396Y-13211D01*
X54396Y-13211D02*
X54297Y-13243D01*
X54297Y-13243D02*
X54206Y-13295D01*
X54206Y-13295D02*
X54128Y-13365D01*
X54128Y-13365D02*
X54067Y-13450D01*
X54067Y-13450D02*
X54024Y-13545D01*
X54024Y-13545D02*
X54003Y-13648D01*
X54003Y-13648D02*
X54000Y-13700D01*
X55000Y-13750D02*
X55000Y-48750D01*
X54000Y-13750D02*
X54000Y-48750D01*
X49000Y-48800D02*
X49011Y-48904D01*
X49011Y-48904D02*
X49043Y-49003D01*
X49043Y-49003D02*
X49095Y-49094D01*
X49095Y-49094D02*
X49165Y-49172D01*
X49165Y-49172D02*
X49250Y-49233D01*
X49250Y-49233D02*
X49345Y-49276D01*
X49345Y-49276D02*
X49448Y-49297D01*
X49448Y-49297D02*
X49500Y-49300D01*
X49500Y-49300D02*
X49604Y-49289D01*
X49604Y-49289D02*
X49703Y-49257D01*
X49703Y-49257D02*
X49794Y-49205D01*
X49794Y-49205D02*
X49872Y-49135D01*
X49872Y-49135D02*
X49933Y-49050D01*
X49933Y-49050D02*
X49976Y-48955D01*
X49976Y-48955D02*
X49997Y-48852D01*
X49997Y-48852D02*
X50000Y-48800D01*
X50000Y-13700D02*
X49989Y-13596D01*
X49989Y-13596D02*
X49957Y-13497D01*
X49957Y-13497D02*
X49905Y-13406D01*
X49905Y-13406D02*
X49835Y-13328D01*
X49835Y-13328D02*
X49750Y-13267D01*
X49750Y-13267D02*
X49655Y-13224D01*
X49655Y-13224D02*
X49552Y-13203D01*
X49552Y-13203D02*
X49500Y-13200D01*
X49500Y-13200D02*
X49396Y-13211D01*
X49396Y-13211D02*
X49297Y-13243D01*
X49297Y-13243D02*
X49206Y-13295D01*
X49206Y-13295D02*
X49128Y-13365D01*
X49128Y-13365D02*
X49067Y-13450D01*
X49067Y-13450D02*
X49024Y-13545D01*
X49024Y-13545D02*
X49003Y-13648D01*
X49003Y-13648D02*
X49000Y-13700D01*
X50000Y-13750D02*
X50000Y-48750D01*
X49000Y-13750D02*
X49000Y-48750D01*
X44000Y-48800D02*
X44011Y-48904D01*
X44011Y-48904D02*
X44043Y-49003D01*
X44043Y-49003D02*
X44095Y-49094D01*
X44095Y-49094D02*
X44165Y-49172D01*
X44165Y-49172D02*
X44250Y-49233D01*
X44250Y-49233D02*
X44345Y-49276D01*
X44345Y-49276D02*
X44448Y-49297D01*
X44448Y-49297D02*
X44500Y-49300D01*
X44500Y-49300D02*
X44604Y-49289D01*
X44604Y-49289D02*
X44703Y-49257D01*
X44703Y-49257D02*
X44794Y-49205D01*
X44794Y-49205D02*
X44872Y-49135D01*
X44872Y-49135D02*
X44933Y-49050D01*
X44933Y-49050D02*
X44976Y-48955D01*
X44976Y-48955D02*
X44997Y-48852D01*
X44997Y-48852D02*
X45000Y-48800D01*
X45000Y-13700D02*
X44989Y-13596D01*
X44989Y-13596D02*
X44957Y-13497D01*
X44957Y-13497D02*
X44905Y-13406D01*
X44905Y-13406D02*
X44835Y-13328D01*
X44835Y-13328D02*
X44750Y-13267D01*
X44750Y-13267D02*
X44655Y-13224D01*
X44655Y-13224D02*
X44552Y-13203D01*
X44552Y-13203D02*
X44500Y-13200D01*
X44500Y-13200D02*
X44396Y-13211D01*
X44396Y-13211D02*
X44297Y-13243D01*
X44297Y-13243D02*
X44206Y-13295D01*
X44206Y-13295D02*
X44128Y-13365D01*
X44128Y-13365D02*
X44067Y-13450D01*
X44067Y-13450D02*
X44024Y-13545D01*
X44024Y-13545D02*
X44003Y-13648D01*
X44003Y-13648D02*
X44000Y-13700D01*
X45000Y-13750D02*
X45000Y-48750D01*
X44000Y-13750D02*
X44000Y-48750D01*
X39000Y-48800D02*
X39011Y-48904D01*
X39011Y-48904D02*
X39043Y-49003D01*
X39043Y-49003D02*
X39095Y-49094D01*
X39095Y-49094D02*
X39165Y-49172D01*
X39165Y-49172D02*
X39250Y-49233D01*
X39250Y-49233D02*
X39345Y-49276D01*
X39345Y-49276D02*
X39448Y-49297D01*
X39448Y-49297D02*
X39500Y-49300D01*
X39500Y-49300D02*
X39604Y-49289D01*
X39604Y-49289D02*
X39703Y-49257D01*
X39703Y-49257D02*
X39794Y-49205D01*
X39794Y-49205D02*
X39872Y-49135D01*
X39872Y-49135D02*
X39933Y-49050D01*
X39933Y-49050D02*
X39976Y-48955D01*
X39976Y-48955D02*
X39997Y-48852D01*
X39997Y-48852D02*
X40000Y-48800D01*
X40000Y-13700D02*
X39989Y-13596D01*
X39989Y-13596D02*
X39957Y-13497D01*
X39957Y-13497D02*
X39905Y-13406D01*
X39905Y-13406D02*
X39835Y-13328D01*
X39835Y-13328D02*
X39750Y-13267D01*
X39750Y-13267D02*
X39655Y-13224D01*
X39655Y-13224D02*
X39552Y-13203D01*
X39552Y-13203D02*
X39500Y-13200D01*
X39500Y-13200D02*
X39396Y-13211D01*
X39396Y-13211D02*
X39297Y-13243D01*
X39297Y-13243D02*
X39206Y-13295D01*
X39206Y-13295D02*
X39128Y-13365D01*
X39128Y-13365D02*
X39067Y-13450D01*
X39067Y-13450D02*
X39024Y-13545D01*
X39024Y-13545D02*
X39003Y-13648D01*
X39003Y-13648D02*
X39000Y-13700D01*
X40000Y-13750D02*
X40000Y-48750D01*
X39000Y-13750D02*
X39000Y-48750D01*
X34000Y-48800D02*
X34011Y-48904D01*
X34011Y-48904D02*
X34043Y-49003D01*
X34043Y-49003D02*
X34095Y-49094D01*
X34095Y-49094D02*
X34165Y-49172D01*
X34165Y-49172D02*
X34250Y-49233D01*
X34250Y-49233D02*
X34345Y-49276D01*
X34345Y-49276D02*
X34448Y-49297D01*
X34448Y-49297D02*
X34500Y-49300D01*
X34500Y-49300D02*
X34604Y-49289D01*
X34604Y-49289D02*
X34703Y-49257D01*
X34703Y-49257D02*
X34794Y-49205D01*
X34794Y-49205D02*
X34872Y-49135D01*
X34872Y-49135D02*
X34933Y-49050D01*
X34933Y-49050D02*
X34976Y-48955D01*
X34976Y-48955D02*
X34997Y-48852D01*
X34997Y-48852D02*
X35000Y-48800D01*
X35000Y-13700D02*
X34989Y-13596D01*
X34989Y-13596D02*
X34957Y-13497D01*
X34957Y-13497D02*
X34905Y-13406D01*
X34905Y-13406D02*
X34835Y-13328D01*
X34835Y-13328D02*
X34750Y-13267D01*
X34750Y-13267D02*
X34655Y-13224D01*
X34655Y-13224D02*
X34552Y-13203D01*
X34552Y-13203D02*
X34500Y-13200D01*
X34500Y-13200D02*
X34396Y-13211D01*
X34396Y-13211D02*
X34297Y-13243D01*
X34297Y-13243D02*
X34206Y-13295D01*
X34206Y-13295D02*
X34128Y-13365D01*
X34128Y-13365D02*
X34067Y-13450D01*
X34067Y-13450D02*
X34024Y-13545D01*
X34024Y-13545D02*
X34003Y-13648D01*
X34003Y-13648D02*
X34000Y-13700D01*
X35000Y-13750D02*
X35000Y-48750D01*
X34000Y-13750D02*
X34000Y-48750D01*
X29000Y-48800D02*
X29011Y-48904D01*
X29011Y-48904D02*
X29043Y-49003D01*
X29043Y-49003D02*
X29095Y-49094D01*
X29095Y-49094D02*
X29165Y-49172D01*
X29165Y-49172D02*
X29250Y-49233D01*
X29250Y-49233D02*
X29345Y-49276D01*
X29345Y-49276D02*
X29448Y-49297D01*
X29448Y-49297D02*
X29500Y-49300D01*
X29500Y-49300D02*
X29604Y-49289D01*
X29604Y-49289D02*
X29703Y-49257D01*
X29703Y-49257D02*
X29794Y-49205D01*
X29794Y-49205D02*
X29872Y-49135D01*
X29872Y-49135D02*
X29933Y-49050D01*
X29933Y-49050D02*
X29976Y-48955D01*
X29976Y-48955D02*
X29997Y-48852D01*
X29997Y-48852D02*
X30000Y-48800D01*
X30000Y-13700D02*
X29989Y-13596D01*
X29989Y-13596D02*
X29957Y-13497D01*
X29957Y-13497D02*
X29905Y-13406D01*
X29905Y-13406D02*
X29835Y-13328D01*
X29835Y-13328D02*
X29750Y-13267D01*
X29750Y-13267D02*
X29655Y-13224D01*
X29655Y-13224D02*
X29552Y-13203D01*
X29552Y-13203D02*
X29500Y-13200D01*
X29500Y-13200D02*
X29396Y-13211D01*
X29396Y-13211D02*
X29297Y-13243D01*
X29297Y-13243D02*
X29206Y-13295D01*
X29206Y-13295D02*
X29128Y-13365D01*
X29128Y-13365D02*
X29067Y-13450D01*
X29067Y-13450D02*
X29024Y-13545D01*
X29024Y-13545D02*
X29003Y-13648D01*
X29003Y-13648D02*
X29000Y-13700D01*
X30000Y-13750D02*
X30000Y-48750D01*
X29000Y-13750D02*
X29000Y-48750D01*
X24000Y-48800D02*
X24011Y-48904D01*
X24011Y-48904D02*
X24043Y-49003D01*
X24043Y-49003D02*
X24095Y-49094D01*
X24095Y-49094D02*
X24165Y-49172D01*
X24165Y-49172D02*
X24250Y-49233D01*
X24250Y-49233D02*
X24345Y-49276D01*
X24345Y-49276D02*
X24448Y-49297D01*
X24448Y-49297D02*
X24500Y-49300D01*
X24500Y-49300D02*
X24604Y-49289D01*
X24604Y-49289D02*
X24703Y-49257D01*
X24703Y-49257D02*
X24794Y-49205D01*
X24794Y-49205D02*
X24872Y-49135D01*
X24872Y-49135D02*
X24933Y-49050D01*
X24933Y-49050D02*
X24976Y-48955D01*
X24976Y-48955D02*
X24997Y-48852D01*
X24997Y-48852D02*
X25000Y-48800D01*
X25000Y-13700D02*
X24989Y-13596D01*
X24989Y-13596D02*
X24957Y-13497D01*
X24957Y-13497D02*
X24905Y-13406D01*
X24905Y-13406D02*
X24835Y-13328D01*
X24835Y-13328D02*
X24750Y-13267D01*
X24750Y-13267D02*
X24655Y-13224D01*
X24655Y-13224D02*
X24552Y-13203D01*
X24552Y-13203D02*
X24500Y-13200D01*
X24500Y-13200D02*
X24396Y-13211D01*
X24396Y-13211D02*
X24297Y-13243D01*
X24297Y-13243D02*
X24206Y-13295D01*
X24206Y-13295D02*
X24128Y-13365D01*
X24128Y-13365D02*
X24067Y-13450D01*
X24067Y-13450D02*
X24024Y-13545D01*
X24024Y-13545D02*
X24003Y-13648D01*
X24003Y-13648D02*
X24000Y-13700D01*
X25000Y-13750D02*
X25000Y-48750D01*
X24000Y-13750D02*
X24000Y-48750D01*
X19000Y-48800D02*
X19011Y-48904D01*
X19011Y-48904D02*
X19043Y-49003D01*
X19043Y-49003D02*
X19095Y-49094D01*
X19095Y-49094D02*
X19165Y-49172D01*
X19165Y-49172D02*
X19250Y-49233D01*
X19250Y-49233D02*
X19345Y-49276D01*
X19345Y-49276D02*
X19448Y-49297D01*
X19448Y-49297D02*
X19500Y-49300D01*
X19500Y-49300D02*
X19604Y-49289D01*
X19604Y-49289D02*
X19703Y-49257D01*
X19703Y-49257D02*
X19794Y-49205D01*
X19794Y-49205D02*
X19872Y-49135D01*
X19872Y-49135D02*
X19933Y-49050D01*
X19933Y-49050D02*
X19976Y-48955D01*
X19976Y-48955D02*
X19997Y-48852D01*
X19997Y-48852D02*
X20000Y-48800D01*
X20000Y-13700D02*
X19989Y-13596D01*
X19989Y-13596D02*
X19957Y-13497D01*
X19957Y-13497D02*
X19905Y-13406D01*
X19905Y-13406D02*
X19835Y-13328D01*
X19835Y-13328D02*
X19750Y-13267D01*
X19750Y-13267D02*
X19655Y-13224D01*
X19655Y-13224D02*
X19552Y-13203D01*
X19552Y-13203D02*
X19500Y-13200D01*
X19500Y-13200D02*
X19396Y-13211D01*
X19396Y-13211D02*
X19297Y-13243D01*
X19297Y-13243D02*
X19206Y-13295D01*
X19206Y-13295D02*
X19128Y-13365D01*
X19128Y-13365D02*
X19067Y-13450D01*
X19067Y-13450D02*
X19024Y-13545D01*
X19024Y-13545D02*
X19003Y-13648D01*
X19003Y-13648D02*
X19000Y-13700D01*
X20000Y-13750D02*
X20000Y-48750D01*
X19000Y-13750D02*
X19000Y-48750D01*
X15000Y-13700D02*
X14989Y-13596D01*
X14989Y-13596D02*
X14957Y-13497D01*
X14957Y-13497D02*
X14905Y-13406D01*
X14905Y-13406D02*
X14835Y-13328D01*
X14835Y-13328D02*
X14750Y-13267D01*
X14750Y-13267D02*
X14655Y-13224D01*
X14655Y-13224D02*
X14552Y-13203D01*
X14552Y-13203D02*
X14500Y-13200D01*
X14500Y-13200D02*
X14396Y-13211D01*
X14396Y-13211D02*
X14297Y-13243D01*
X14297Y-13243D02*
X14206Y-13295D01*
X14206Y-13295D02*
X14128Y-13365D01*
X14128Y-13365D02*
X14067Y-13450D01*
X14067Y-13450D02*
X14024Y-13545D01*
X14024Y-13545D02*
X14003Y-13648D01*
X14003Y-13648D02*
X14000Y-13700D01*
X14000Y-13750D02*
X14000Y-48750D01*
X14000Y-48800D02*
X14011Y-48904D01*
X14011Y-48904D02*
X14043Y-49003D01*
X14043Y-49003D02*
X14095Y-49094D01*
X14095Y-49094D02*
X14165Y-49172D01*
X14165Y-49172D02*
X14250Y-49233D01*
X14250Y-49233D02*
X14345Y-49276D01*
X14345Y-49276D02*
X14448Y-49297D01*
X14448Y-49297D02*
X14500Y-49300D01*
X14500Y-49300D02*
X14604Y-49289D01*
X14604Y-49289D02*
X14703Y-49257D01*
X14703Y-49257D02*
X14794Y-49205D01*
X14794Y-49205D02*
X14872Y-49135D01*
X14872Y-49135D02*
X14933Y-49050D01*
X14933Y-49050D02*
X14976Y-48955D01*
X14976Y-48955D02*
X14997Y-48852D01*
X14997Y-48852D02*
X15000Y-48800D01*
X15000Y-13750D02*
X15000Y-48750D01*
X10000Y-52500D02*
X64000Y-52500D01*
X10000Y-10000D02*
X64000Y-10000D01*
X10000Y-10000D02*
X10000Y-52500D01*
G54D16*
X61500Y-38667D02*
X62500Y-38667D01*
X62500Y-38667D02*
X62500Y-44667D01*
X62500Y-44667D02*
X61500Y-44667D01*
X61500Y-44667D02*
X61500Y-38667D01*
X61500Y-39667D02*
X62500Y-39667D01*
X61500Y-17833D02*
X62500Y-17833D01*
X62500Y-17833D02*
X62500Y-23833D01*
X62500Y-23833D02*
X61500Y-23833D01*
X61500Y-23833D02*
X61500Y-17833D01*
X61500Y-18833D02*
X62500Y-18833D01*
X56500Y-38667D02*
X57500Y-38667D01*
X57500Y-38667D02*
X57500Y-44667D01*
X57500Y-44667D02*
X56500Y-44667D01*
X56500Y-44667D02*
X56500Y-38667D01*
X56500Y-39667D02*
X57500Y-39667D01*
X56500Y-17833D02*
X57500Y-17833D01*
X57500Y-17833D02*
X57500Y-23833D01*
X57500Y-23833D02*
X56500Y-23833D01*
X56500Y-23833D02*
X56500Y-17833D01*
X56500Y-18833D02*
X57500Y-18833D01*
X51500Y-38667D02*
X52500Y-38667D01*
X52500Y-38667D02*
X52500Y-44667D01*
X52500Y-44667D02*
X51500Y-44667D01*
X51500Y-44667D02*
X51500Y-38667D01*
X51500Y-39667D02*
X52500Y-39667D01*
X51500Y-17833D02*
X52500Y-17833D01*
X52500Y-17833D02*
X52500Y-23833D01*
X52500Y-23833D02*
X51500Y-23833D01*
X51500Y-23833D02*
X51500Y-17833D01*
X51500Y-18833D02*
X52500Y-18833D01*
X46500Y-38667D02*
X47500Y-38667D01*
X47500Y-38667D02*
X47500Y-44667D01*
X47500Y-44667D02*
X46500Y-44667D01*
X46500Y-44667D02*
X46500Y-38667D01*
X46500Y-39667D02*
X47500Y-39667D01*
X46500Y-17833D02*
X47500Y-17833D01*
X47500Y-17833D02*
X47500Y-23833D01*
X47500Y-23833D02*
X46500Y-23833D01*
X46500Y-23833D02*
X46500Y-17833D01*
X46500Y-18833D02*
X47500Y-18833D01*
X41500Y-38667D02*
X42500Y-38667D01*
X42500Y-38667D02*
X42500Y-44667D01*
X42500Y-44667D02*
X41500Y-44667D01*
X41500Y-44667D02*
X41500Y-38667D01*
X41500Y-39667D02*
X42500Y-39667D01*
X41500Y-17833D02*
X42500Y-17833D01*
X42500Y-17833D02*
X42500Y-23833D01*
X42500Y-23833D02*
X41500Y-23833D01*
X41500Y-23833D02*
X41500Y-17833D01*
X41500Y-18833D02*
X42500Y-18833D01*
X36500Y-38667D02*
X37500Y-38667D01*
X37500Y-38667D02*
X37500Y-44667D01*
X37500Y-44667D02*
X36500Y-44667D01*
X36500Y-44667D02*
X36500Y-38667D01*
X36500Y-39667D02*
X37500Y-39667D01*
X36500Y-17833D02*
X37500Y-17833D01*
X37500Y-17833D02*
X37500Y-23833D01*
X37500Y-23833D02*
X36500Y-23833D01*
X36500Y-23833D02*
X36500Y-17833D01*
X36500Y-18833D02*
X37500Y-18833D01*
X31500Y-38667D02*
X32500Y-38667D01*
X32500Y-38667D02*
X32500Y-44667D01*
X32500Y-44667D02*
X31500Y-44667D01*
X31500Y-44667D02*
X31500Y-38667D01*
X31500Y-39667D02*
X32500Y-39667D01*
X31500Y-17833D02*
X32500Y-17833D01*
X32500Y-17833D02*
X32500Y-23833D01*
X32500Y-23833D02*
X31500Y-23833D01*
X31500Y-23833D02*
X31500Y-17833D01*
X31500Y-18833D02*
X32500Y-18833D01*
X26500Y-38667D02*
X27500Y-38667D01*
X27500Y-38667D02*
X27500Y-44667D01*
X27500Y-44667D02*
X26500Y-44667D01*
X26500Y-44667D02*
X26500Y-38667D01*
X26500Y-39667D02*
X27500Y-39667D01*
X26500Y-17833D02*
X27500Y-17833D01*
X27500Y-17833D02*
X27500Y-23833D01*
X27500Y-23833D02*
X26500Y-23833D01*
X26500Y-23833D02*
X26500Y-17833D01*
X26500Y-18833D02*
X27500Y-18833D01*
X21500Y-38667D02*
X22500Y-38667D01*
X22500Y-38667D02*
X22500Y-44667D01*
X22500Y-44667D02*
X21500Y-44667D01*
X21500Y-44667D02*
X21500Y-38667D01*
X21500Y-39667D02*
X22500Y-39667D01*
X21500Y-17833D02*
X22500Y-17833D01*
X22500Y-17833D02*
X22500Y-23833D01*
X22500Y-23833D02*
X21500Y-23833D01*
X21500Y-23833D02*
X21500Y-17833D01*
X21500Y-18833D02*
X22500Y-18833D01*
X16500Y-38667D02*
X17500Y-38667D01*
X17500Y-38667D02*
X17500Y-44667D01*
X17500Y-44667D02*
X16500Y-44667D01*
X16500Y-44667D02*
X16500Y-38667D01*
X16500Y-39667D02*
X17500Y-39667D01*
X16500Y-17833D02*
X17500Y-17833D01*
X17500Y-17833D02*
X17500Y-23833D01*
X17500Y-23833D02*
X16500Y-23833D01*
X16500Y-23833D02*
X16500Y-17833D01*
X16500Y-18833D02*
X17500Y-18833D01*
X11500Y-38667D02*
X12500Y-38667D01*
X12500Y-38667D02*
X12500Y-44667D01*
X12500Y-44667D02*
X11500Y-44667D01*
X11500Y-44667D02*
X11500Y-38667D01*
X11500Y-39667D02*
X12500Y-39667D01*
X11500Y-17833D02*
X12500Y-17833D01*
X12500Y-17833D02*
X12500Y-23833D01*
X12500Y-23833D02*
X11500Y-23833D01*
X11500Y-23833D02*
X11500Y-17833D01*
X11500Y-18833D02*
X12500Y-18833D01*
G54D15*
X61700Y-38867D02*
X62300Y-38867D01*
X62300Y-38867D02*
X62300Y-39467D01*
X62300Y-39467D02*
X61700Y-39467D01*
X61700Y-39467D02*
X61700Y-38867D01*
X62300Y-40167D02*
X62294Y-40225D01*
X62294Y-40225D02*
X62277Y-40281D01*
X62277Y-40281D02*
X62249Y-40333D01*
X62249Y-40333D02*
X62212Y-40378D01*
X62212Y-40378D02*
X62167Y-40415D01*
X62167Y-40415D02*
X62116Y-40443D01*
X62116Y-40443D02*
X62060Y-40460D01*
X62060Y-40460D02*
X62002Y-40466D01*
X62002Y-40466D02*
X61944Y-40461D01*
X61944Y-40461D02*
X61888Y-40445D01*
X61888Y-40445D02*
X61836Y-40418D01*
X61836Y-40418D02*
X61791Y-40381D01*
X61791Y-40381D02*
X61753Y-40336D01*
X61753Y-40336D02*
X61725Y-40285D01*
X61725Y-40285D02*
X61707Y-40229D01*
X61707Y-40229D02*
X61701Y-40171D01*
X61701Y-40171D02*
X61705Y-40113D01*
X61705Y-40113D02*
X61722Y-40057D01*
X61722Y-40057D02*
X61748Y-40005D01*
X61748Y-40005D02*
X61785Y-39959D01*
X61785Y-39959D02*
X61829Y-39921D01*
X61829Y-39921D02*
X61880Y-39893D01*
X61880Y-39893D02*
X61936Y-39874D01*
X61936Y-39874D02*
X61994Y-39868D01*
X61994Y-39868D02*
X62052Y-39872D01*
X62052Y-39872D02*
X62108Y-39888D01*
X62108Y-39888D02*
X62160Y-39914D01*
X62160Y-39914D02*
X62206Y-39950D01*
X62206Y-39950D02*
X62245Y-39995D01*
X62245Y-39995D02*
X62274Y-40045D01*
X62274Y-40045D02*
X62292Y-40101D01*
X62292Y-40101D02*
X62299Y-40159D01*
X62299Y-40159D02*
X62300Y-40167D01*
X62300Y-41167D02*
X62294Y-41225D01*
X62294Y-41225D02*
X62277Y-41281D01*
X62277Y-41281D02*
X62249Y-41333D01*
X62249Y-41333D02*
X62212Y-41378D01*
X62212Y-41378D02*
X62167Y-41415D01*
X62167Y-41415D02*
X62116Y-41443D01*
X62116Y-41443D02*
X62060Y-41460D01*
X62060Y-41460D02*
X62002Y-41466D01*
X62002Y-41466D02*
X61944Y-41461D01*
X61944Y-41461D02*
X61888Y-41445D01*
X61888Y-41445D02*
X61836Y-41418D01*
X61836Y-41418D02*
X61791Y-41381D01*
X61791Y-41381D02*
X61753Y-41336D01*
X61753Y-41336D02*
X61725Y-41285D01*
X61725Y-41285D02*
X61707Y-41229D01*
X61707Y-41229D02*
X61701Y-41171D01*
X61701Y-41171D02*
X61705Y-41113D01*
X61705Y-41113D02*
X61722Y-41057D01*
X61722Y-41057D02*
X61748Y-41005D01*
X61748Y-41005D02*
X61785Y-40959D01*
X61785Y-40959D02*
X61829Y-40921D01*
X61829Y-40921D02*
X61880Y-40893D01*
X61880Y-40893D02*
X61936Y-40874D01*
X61936Y-40874D02*
X61994Y-40868D01*
X61994Y-40868D02*
X62052Y-40872D01*
X62052Y-40872D02*
X62108Y-40888D01*
X62108Y-40888D02*
X62160Y-40914D01*
X62160Y-40914D02*
X62206Y-40950D01*
X62206Y-40950D02*
X62245Y-40995D01*
X62245Y-40995D02*
X62274Y-41045D01*
X62274Y-41045D02*
X62292Y-41101D01*
X62292Y-41101D02*
X62299Y-41159D01*
X62299Y-41159D02*
X62300Y-41167D01*
X62300Y-42167D02*
X62294Y-42225D01*
X62294Y-42225D02*
X62277Y-42281D01*
X62277Y-42281D02*
X62249Y-42333D01*
X62249Y-42333D02*
X62212Y-42378D01*
X62212Y-42378D02*
X62167Y-42415D01*
X62167Y-42415D02*
X62116Y-42443D01*
X62116Y-42443D02*
X62060Y-42460D01*
X62060Y-42460D02*
X62002Y-42466D01*
X62002Y-42466D02*
X61944Y-42461D01*
X61944Y-42461D02*
X61888Y-42445D01*
X61888Y-42445D02*
X61836Y-42418D01*
X61836Y-42418D02*
X61791Y-42381D01*
X61791Y-42381D02*
X61753Y-42336D01*
X61753Y-42336D02*
X61725Y-42285D01*
X61725Y-42285D02*
X61707Y-42229D01*
X61707Y-42229D02*
X61701Y-42171D01*
X61701Y-42171D02*
X61705Y-42113D01*
X61705Y-42113D02*
X61722Y-42057D01*
X61722Y-42057D02*
X61748Y-42005D01*
X61748Y-42005D02*
X61785Y-41959D01*
X61785Y-41959D02*
X61829Y-41921D01*
X61829Y-41921D02*
X61880Y-41893D01*
X61880Y-41893D02*
X61936Y-41874D01*
X61936Y-41874D02*
X61994Y-41868D01*
X61994Y-41868D02*
X62052Y-41872D01*
X62052Y-41872D02*
X62108Y-41888D01*
X62108Y-41888D02*
X62160Y-41914D01*
X62160Y-41914D02*
X62206Y-41950D01*
X62206Y-41950D02*
X62245Y-41995D01*
X62245Y-41995D02*
X62274Y-42045D01*
X62274Y-42045D02*
X62292Y-42101D01*
X62292Y-42101D02*
X62299Y-42159D01*
X62299Y-42159D02*
X62300Y-42167D01*
X62300Y-43167D02*
X62294Y-43225D01*
X62294Y-43225D02*
X62277Y-43281D01*
X62277Y-43281D02*
X62249Y-43333D01*
X62249Y-43333D02*
X62212Y-43378D01*
X62212Y-43378D02*
X62167Y-43415D01*
X62167Y-43415D02*
X62116Y-43443D01*
X62116Y-43443D02*
X62060Y-43460D01*
X62060Y-43460D02*
X62002Y-43466D01*
X62002Y-43466D02*
X61944Y-43461D01*
X61944Y-43461D02*
X61888Y-43445D01*
X61888Y-43445D02*
X61836Y-43418D01*
X61836Y-43418D02*
X61791Y-43381D01*
X61791Y-43381D02*
X61753Y-43336D01*
X61753Y-43336D02*
X61725Y-43285D01*
X61725Y-43285D02*
X61707Y-43229D01*
X61707Y-43229D02*
X61701Y-43171D01*
X61701Y-43171D02*
X61705Y-43113D01*
X61705Y-43113D02*
X61722Y-43057D01*
X61722Y-43057D02*
X61748Y-43005D01*
X61748Y-43005D02*
X61785Y-42959D01*
X61785Y-42959D02*
X61829Y-42921D01*
X61829Y-42921D02*
X61880Y-42893D01*
X61880Y-42893D02*
X61936Y-42874D01*
X61936Y-42874D02*
X61994Y-42868D01*
X61994Y-42868D02*
X62052Y-42872D01*
X62052Y-42872D02*
X62108Y-42888D01*
X62108Y-42888D02*
X62160Y-42914D01*
X62160Y-42914D02*
X62206Y-42950D01*
X62206Y-42950D02*
X62245Y-42995D01*
X62245Y-42995D02*
X62274Y-43045D01*
X62274Y-43045D02*
X62292Y-43101D01*
X62292Y-43101D02*
X62299Y-43159D01*
X62299Y-43159D02*
X62300Y-43167D01*
X62300Y-44167D02*
X62294Y-44225D01*
X62294Y-44225D02*
X62277Y-44281D01*
X62277Y-44281D02*
X62249Y-44333D01*
X62249Y-44333D02*
X62212Y-44378D01*
X62212Y-44378D02*
X62167Y-44415D01*
X62167Y-44415D02*
X62116Y-44443D01*
X62116Y-44443D02*
X62060Y-44460D01*
X62060Y-44460D02*
X62002Y-44466D01*
X62002Y-44466D02*
X61944Y-44461D01*
X61944Y-44461D02*
X61888Y-44445D01*
X61888Y-44445D02*
X61836Y-44418D01*
X61836Y-44418D02*
X61791Y-44381D01*
X61791Y-44381D02*
X61753Y-44336D01*
X61753Y-44336D02*
X61725Y-44285D01*
X61725Y-44285D02*
X61707Y-44229D01*
X61707Y-44229D02*
X61701Y-44171D01*
X61701Y-44171D02*
X61705Y-44113D01*
X61705Y-44113D02*
X61722Y-44057D01*
X61722Y-44057D02*
X61748Y-44005D01*
X61748Y-44005D02*
X61785Y-43959D01*
X61785Y-43959D02*
X61829Y-43921D01*
X61829Y-43921D02*
X61880Y-43893D01*
X61880Y-43893D02*
X61936Y-43874D01*
X61936Y-43874D02*
X61994Y-43868D01*
X61994Y-43868D02*
X62052Y-43872D01*
X62052Y-43872D02*
X62108Y-43888D01*
X62108Y-43888D02*
X62160Y-43914D01*
X62160Y-43914D02*
X62206Y-43950D01*
X62206Y-43950D02*
X62245Y-43995D01*
X62245Y-43995D02*
X62274Y-44045D01*
X62274Y-44045D02*
X62292Y-44101D01*
X62292Y-44101D02*
X62299Y-44159D01*
X62299Y-44159D02*
X62300Y-44167D01*
X61700Y-18033D02*
X62300Y-18033D01*
X62300Y-18033D02*
X62300Y-18633D01*
X62300Y-18633D02*
X61700Y-18633D01*
X61700Y-18633D02*
X61700Y-18033D01*
X62300Y-19333D02*
X62294Y-19391D01*
X62294Y-19391D02*
X62277Y-19447D01*
X62277Y-19447D02*
X62249Y-19499D01*
X62249Y-19499D02*
X62212Y-19544D01*
X62212Y-19544D02*
X62167Y-19581D01*
X62167Y-19581D02*
X62116Y-19609D01*
X62116Y-19609D02*
X62060Y-19626D01*
X62060Y-19626D02*
X62002Y-19632D01*
X62002Y-19632D02*
X61944Y-19627D01*
X61944Y-19627D02*
X61888Y-19611D01*
X61888Y-19611D02*
X61836Y-19584D01*
X61836Y-19584D02*
X61791Y-19547D01*
X61791Y-19547D02*
X61753Y-19502D01*
X61753Y-19502D02*
X61725Y-19451D01*
X61725Y-19451D02*
X61707Y-19395D01*
X61707Y-19395D02*
X61701Y-19337D01*
X61701Y-19337D02*
X61705Y-19279D01*
X61705Y-19279D02*
X61722Y-19223D01*
X61722Y-19223D02*
X61748Y-19171D01*
X61748Y-19171D02*
X61785Y-19125D01*
X61785Y-19125D02*
X61829Y-19087D01*
X61829Y-19087D02*
X61880Y-19059D01*
X61880Y-19059D02*
X61936Y-19040D01*
X61936Y-19040D02*
X61994Y-19034D01*
X61994Y-19034D02*
X62052Y-19038D01*
X62052Y-19038D02*
X62108Y-19054D01*
X62108Y-19054D02*
X62160Y-19080D01*
X62160Y-19080D02*
X62206Y-19116D01*
X62206Y-19116D02*
X62245Y-19161D01*
X62245Y-19161D02*
X62274Y-19211D01*
X62274Y-19211D02*
X62292Y-19267D01*
X62292Y-19267D02*
X62299Y-19325D01*
X62299Y-19325D02*
X62300Y-19333D01*
X62300Y-20333D02*
X62294Y-20391D01*
X62294Y-20391D02*
X62277Y-20447D01*
X62277Y-20447D02*
X62249Y-20499D01*
X62249Y-20499D02*
X62212Y-20544D01*
X62212Y-20544D02*
X62167Y-20581D01*
X62167Y-20581D02*
X62116Y-20609D01*
X62116Y-20609D02*
X62060Y-20626D01*
X62060Y-20626D02*
X62002Y-20632D01*
X62002Y-20632D02*
X61944Y-20627D01*
X61944Y-20627D02*
X61888Y-20611D01*
X61888Y-20611D02*
X61836Y-20584D01*
X61836Y-20584D02*
X61791Y-20547D01*
X61791Y-20547D02*
X61753Y-20502D01*
X61753Y-20502D02*
X61725Y-20451D01*
X61725Y-20451D02*
X61707Y-20395D01*
X61707Y-20395D02*
X61701Y-20337D01*
X61701Y-20337D02*
X61705Y-20279D01*
X61705Y-20279D02*
X61722Y-20223D01*
X61722Y-20223D02*
X61748Y-20171D01*
X61748Y-20171D02*
X61785Y-20125D01*
X61785Y-20125D02*
X61829Y-20087D01*
X61829Y-20087D02*
X61880Y-20059D01*
X61880Y-20059D02*
X61936Y-20040D01*
X61936Y-20040D02*
X61994Y-20034D01*
X61994Y-20034D02*
X62052Y-20038D01*
X62052Y-20038D02*
X62108Y-20054D01*
X62108Y-20054D02*
X62160Y-20080D01*
X62160Y-20080D02*
X62206Y-20116D01*
X62206Y-20116D02*
X62245Y-20161D01*
X62245Y-20161D02*
X62274Y-20211D01*
X62274Y-20211D02*
X62292Y-20267D01*
X62292Y-20267D02*
X62299Y-20325D01*
X62299Y-20325D02*
X62300Y-20333D01*
X62300Y-21333D02*
X62294Y-21391D01*
X62294Y-21391D02*
X62277Y-21447D01*
X62277Y-21447D02*
X62249Y-21499D01*
X62249Y-21499D02*
X62212Y-21544D01*
X62212Y-21544D02*
X62167Y-21581D01*
X62167Y-21581D02*
X62116Y-21609D01*
X62116Y-21609D02*
X62060Y-21626D01*
X62060Y-21626D02*
X62002Y-21632D01*
X62002Y-21632D02*
X61944Y-21627D01*
X61944Y-21627D02*
X61888Y-21611D01*
X61888Y-21611D02*
X61836Y-21584D01*
X61836Y-21584D02*
X61791Y-21547D01*
X61791Y-21547D02*
X61753Y-21502D01*
X61753Y-21502D02*
X61725Y-21451D01*
X61725Y-21451D02*
X61707Y-21395D01*
X61707Y-21395D02*
X61701Y-21337D01*
X61701Y-21337D02*
X61705Y-21279D01*
X61705Y-21279D02*
X61722Y-21223D01*
X61722Y-21223D02*
X61748Y-21171D01*
X61748Y-21171D02*
X61785Y-21125D01*
X61785Y-21125D02*
X61829Y-21087D01*
X61829Y-21087D02*
X61880Y-21059D01*
X61880Y-21059D02*
X61936Y-21040D01*
X61936Y-21040D02*
X61994Y-21034D01*
X61994Y-21034D02*
X62052Y-21038D01*
X62052Y-21038D02*
X62108Y-21054D01*
X62108Y-21054D02*
X62160Y-21080D01*
X62160Y-21080D02*
X62206Y-21116D01*
X62206Y-21116D02*
X62245Y-21161D01*
X62245Y-21161D02*
X62274Y-21211D01*
X62274Y-21211D02*
X62292Y-21267D01*
X62292Y-21267D02*
X62299Y-21325D01*
X62299Y-21325D02*
X62300Y-21333D01*
X62300Y-22333D02*
X62294Y-22391D01*
X62294Y-22391D02*
X62277Y-22447D01*
X62277Y-22447D02*
X62249Y-22499D01*
X62249Y-22499D02*
X62212Y-22544D01*
X62212Y-22544D02*
X62167Y-22581D01*
X62167Y-22581D02*
X62116Y-22609D01*
X62116Y-22609D02*
X62060Y-22626D01*
X62060Y-22626D02*
X62002Y-22632D01*
X62002Y-22632D02*
X61944Y-22627D01*
X61944Y-22627D02*
X61888Y-22611D01*
X61888Y-22611D02*
X61836Y-22584D01*
X61836Y-22584D02*
X61791Y-22547D01*
X61791Y-22547D02*
X61753Y-22502D01*
X61753Y-22502D02*
X61725Y-22451D01*
X61725Y-22451D02*
X61707Y-22395D01*
X61707Y-22395D02*
X61701Y-22337D01*
X61701Y-22337D02*
X61705Y-22279D01*
X61705Y-22279D02*
X61722Y-22223D01*
X61722Y-22223D02*
X61748Y-22171D01*
X61748Y-22171D02*
X61785Y-22125D01*
X61785Y-22125D02*
X61829Y-22087D01*
X61829Y-22087D02*
X61880Y-22059D01*
X61880Y-22059D02*
X61936Y-22040D01*
X61936Y-22040D02*
X61994Y-22034D01*
X61994Y-22034D02*
X62052Y-22038D01*
X62052Y-22038D02*
X62108Y-22054D01*
X62108Y-22054D02*
X62160Y-22080D01*
X62160Y-22080D02*
X62206Y-22116D01*
X62206Y-22116D02*
X62245Y-22161D01*
X62245Y-22161D02*
X62274Y-22211D01*
X62274Y-22211D02*
X62292Y-22267D01*
X62292Y-22267D02*
X62299Y-22325D01*
X62299Y-22325D02*
X62300Y-22333D01*
X62300Y-23333D02*
X62294Y-23391D01*
X62294Y-23391D02*
X62277Y-23447D01*
X62277Y-23447D02*
X62249Y-23499D01*
X62249Y-23499D02*
X62212Y-23544D01*
X62212Y-23544D02*
X62167Y-23581D01*
X62167Y-23581D02*
X62116Y-23609D01*
X62116Y-23609D02*
X62060Y-23626D01*
X62060Y-23626D02*
X62002Y-23632D01*
X62002Y-23632D02*
X61944Y-23627D01*
X61944Y-23627D02*
X61888Y-23611D01*
X61888Y-23611D02*
X61836Y-23584D01*
X61836Y-23584D02*
X61791Y-23547D01*
X61791Y-23547D02*
X61753Y-23502D01*
X61753Y-23502D02*
X61725Y-23451D01*
X61725Y-23451D02*
X61707Y-23395D01*
X61707Y-23395D02*
X61701Y-23337D01*
X61701Y-23337D02*
X61705Y-23279D01*
X61705Y-23279D02*
X61722Y-23223D01*
X61722Y-23223D02*
X61748Y-23171D01*
X61748Y-23171D02*
X61785Y-23125D01*
X61785Y-23125D02*
X61829Y-23087D01*
X61829Y-23087D02*
X61880Y-23059D01*
X61880Y-23059D02*
X61936Y-23040D01*
X61936Y-23040D02*
X61994Y-23034D01*
X61994Y-23034D02*
X62052Y-23038D01*
X62052Y-23038D02*
X62108Y-23054D01*
X62108Y-23054D02*
X62160Y-23080D01*
X62160Y-23080D02*
X62206Y-23116D01*
X62206Y-23116D02*
X62245Y-23161D01*
X62245Y-23161D02*
X62274Y-23211D01*
X62274Y-23211D02*
X62292Y-23267D01*
X62292Y-23267D02*
X62299Y-23325D01*
X62299Y-23325D02*
X62300Y-23333D01*
X56700Y-38867D02*
X57300Y-38867D01*
X57300Y-38867D02*
X57300Y-39467D01*
X57300Y-39467D02*
X56700Y-39467D01*
X56700Y-39467D02*
X56700Y-38867D01*
X57300Y-40167D02*
X57294Y-40225D01*
X57294Y-40225D02*
X57277Y-40281D01*
X57277Y-40281D02*
X57249Y-40333D01*
X57249Y-40333D02*
X57212Y-40378D01*
X57212Y-40378D02*
X57167Y-40415D01*
X57167Y-40415D02*
X57116Y-40443D01*
X57116Y-40443D02*
X57060Y-40460D01*
X57060Y-40460D02*
X57002Y-40466D01*
X57002Y-40466D02*
X56944Y-40461D01*
X56944Y-40461D02*
X56888Y-40445D01*
X56888Y-40445D02*
X56836Y-40418D01*
X56836Y-40418D02*
X56791Y-40381D01*
X56791Y-40381D02*
X56753Y-40336D01*
X56753Y-40336D02*
X56725Y-40285D01*
X56725Y-40285D02*
X56707Y-40229D01*
X56707Y-40229D02*
X56701Y-40171D01*
X56701Y-40171D02*
X56705Y-40113D01*
X56705Y-40113D02*
X56722Y-40057D01*
X56722Y-40057D02*
X56748Y-40005D01*
X56748Y-40005D02*
X56785Y-39959D01*
X56785Y-39959D02*
X56829Y-39921D01*
X56829Y-39921D02*
X56880Y-39893D01*
X56880Y-39893D02*
X56936Y-39874D01*
X56936Y-39874D02*
X56994Y-39868D01*
X56994Y-39868D02*
X57052Y-39872D01*
X57052Y-39872D02*
X57108Y-39888D01*
X57108Y-39888D02*
X57160Y-39914D01*
X57160Y-39914D02*
X57206Y-39950D01*
X57206Y-39950D02*
X57245Y-39995D01*
X57245Y-39995D02*
X57274Y-40045D01*
X57274Y-40045D02*
X57292Y-40101D01*
X57292Y-40101D02*
X57299Y-40159D01*
X57299Y-40159D02*
X57300Y-40167D01*
X57300Y-41167D02*
X57294Y-41225D01*
X57294Y-41225D02*
X57277Y-41281D01*
X57277Y-41281D02*
X57249Y-41333D01*
X57249Y-41333D02*
X57212Y-41378D01*
X57212Y-41378D02*
X57167Y-41415D01*
X57167Y-41415D02*
X57116Y-41443D01*
X57116Y-41443D02*
X57060Y-41460D01*
X57060Y-41460D02*
X57002Y-41466D01*
X57002Y-41466D02*
X56944Y-41461D01*
X56944Y-41461D02*
X56888Y-41445D01*
X56888Y-41445D02*
X56836Y-41418D01*
X56836Y-41418D02*
X56791Y-41381D01*
X56791Y-41381D02*
X56753Y-41336D01*
X56753Y-41336D02*
X56725Y-41285D01*
X56725Y-41285D02*
X56707Y-41229D01*
X56707Y-41229D02*
X56701Y-41171D01*
X56701Y-41171D02*
X56705Y-41113D01*
X56705Y-41113D02*
X56722Y-41057D01*
X56722Y-41057D02*
X56748Y-41005D01*
X56748Y-41005D02*
X56785Y-40959D01*
X56785Y-40959D02*
X56829Y-40921D01*
X56829Y-40921D02*
X56880Y-40893D01*
X56880Y-40893D02*
X56936Y-40874D01*
X56936Y-40874D02*
X56994Y-40868D01*
X56994Y-40868D02*
X57052Y-40872D01*
X57052Y-40872D02*
X57108Y-40888D01*
X57108Y-40888D02*
X57160Y-40914D01*
X57160Y-40914D02*
X57206Y-40950D01*
X57206Y-40950D02*
X57245Y-40995D01*
X57245Y-40995D02*
X57274Y-41045D01*
X57274Y-41045D02*
X57292Y-41101D01*
X57292Y-41101D02*
X57299Y-41159D01*
X57299Y-41159D02*
X57300Y-41167D01*
X57300Y-42167D02*
X57294Y-42225D01*
X57294Y-42225D02*
X57277Y-42281D01*
X57277Y-42281D02*
X57249Y-42333D01*
X57249Y-42333D02*
X57212Y-42378D01*
X57212Y-42378D02*
X57167Y-42415D01*
X57167Y-42415D02*
X57116Y-42443D01*
X57116Y-42443D02*
X57060Y-42460D01*
X57060Y-42460D02*
X57002Y-42466D01*
X57002Y-42466D02*
X56944Y-42461D01*
X56944Y-42461D02*
X56888Y-42445D01*
X56888Y-42445D02*
X56836Y-42418D01*
X56836Y-42418D02*
X56791Y-42381D01*
X56791Y-42381D02*
X56753Y-42336D01*
X56753Y-42336D02*
X56725Y-42285D01*
X56725Y-42285D02*
X56707Y-42229D01*
X56707Y-42229D02*
X56701Y-42171D01*
X56701Y-42171D02*
X56705Y-42113D01*
X56705Y-42113D02*
X56722Y-42057D01*
X56722Y-42057D02*
X56748Y-42005D01*
X56748Y-42005D02*
X56785Y-41959D01*
X56785Y-41959D02*
X56829Y-41921D01*
X56829Y-41921D02*
X56880Y-41893D01*
X56880Y-41893D02*
X56936Y-41874D01*
X56936Y-41874D02*
X56994Y-41868D01*
X56994Y-41868D02*
X57052Y-41872D01*
X57052Y-41872D02*
X57108Y-41888D01*
X57108Y-41888D02*
X57160Y-41914D01*
X57160Y-41914D02*
X57206Y-41950D01*
X57206Y-41950D02*
X57245Y-41995D01*
X57245Y-41995D02*
X57274Y-42045D01*
X57274Y-42045D02*
X57292Y-42101D01*
X57292Y-42101D02*
X57299Y-42159D01*
X57299Y-42159D02*
X57300Y-42167D01*
X57300Y-43167D02*
X57294Y-43225D01*
X57294Y-43225D02*
X57277Y-43281D01*
X57277Y-43281D02*
X57249Y-43333D01*
X57249Y-43333D02*
X57212Y-43378D01*
X57212Y-43378D02*
X57167Y-43415D01*
X57167Y-43415D02*
X57116Y-43443D01*
X57116Y-43443D02*
X57060Y-43460D01*
X57060Y-43460D02*
X57002Y-43466D01*
X57002Y-43466D02*
X56944Y-43461D01*
X56944Y-43461D02*
X56888Y-43445D01*
X56888Y-43445D02*
X56836Y-43418D01*
X56836Y-43418D02*
X56791Y-43381D01*
X56791Y-43381D02*
X56753Y-43336D01*
X56753Y-43336D02*
X56725Y-43285D01*
X56725Y-43285D02*
X56707Y-43229D01*
X56707Y-43229D02*
X56701Y-43171D01*
X56701Y-43171D02*
X56705Y-43113D01*
X56705Y-43113D02*
X56722Y-43057D01*
X56722Y-43057D02*
X56748Y-43005D01*
X56748Y-43005D02*
X56785Y-42959D01*
X56785Y-42959D02*
X56829Y-42921D01*
X56829Y-42921D02*
X56880Y-42893D01*
X56880Y-42893D02*
X56936Y-42874D01*
X56936Y-42874D02*
X56994Y-42868D01*
X56994Y-42868D02*
X57052Y-42872D01*
X57052Y-42872D02*
X57108Y-42888D01*
X57108Y-42888D02*
X57160Y-42914D01*
X57160Y-42914D02*
X57206Y-42950D01*
X57206Y-42950D02*
X57245Y-42995D01*
X57245Y-42995D02*
X57274Y-43045D01*
X57274Y-43045D02*
X57292Y-43101D01*
X57292Y-43101D02*
X57299Y-43159D01*
X57299Y-43159D02*
X57300Y-43167D01*
X57300Y-44167D02*
X57294Y-44225D01*
X57294Y-44225D02*
X57277Y-44281D01*
X57277Y-44281D02*
X57249Y-44333D01*
X57249Y-44333D02*
X57212Y-44378D01*
X57212Y-44378D02*
X57167Y-44415D01*
X57167Y-44415D02*
X57116Y-44443D01*
X57116Y-44443D02*
X57060Y-44460D01*
X57060Y-44460D02*
X57002Y-44466D01*
X57002Y-44466D02*
X56944Y-44461D01*
X56944Y-44461D02*
X56888Y-44445D01*
X56888Y-44445D02*
X56836Y-44418D01*
X56836Y-44418D02*
X56791Y-44381D01*
X56791Y-44381D02*
X56753Y-44336D01*
X56753Y-44336D02*
X56725Y-44285D01*
X56725Y-44285D02*
X56707Y-44229D01*
X56707Y-44229D02*
X56701Y-44171D01*
X56701Y-44171D02*
X56705Y-44113D01*
X56705Y-44113D02*
X56722Y-44057D01*
X56722Y-44057D02*
X56748Y-44005D01*
X56748Y-44005D02*
X56785Y-43959D01*
X56785Y-43959D02*
X56829Y-43921D01*
X56829Y-43921D02*
X56880Y-43893D01*
X56880Y-43893D02*
X56936Y-43874D01*
X56936Y-43874D02*
X56994Y-43868D01*
X56994Y-43868D02*
X57052Y-43872D01*
X57052Y-43872D02*
X57108Y-43888D01*
X57108Y-43888D02*
X57160Y-43914D01*
X57160Y-43914D02*
X57206Y-43950D01*
X57206Y-43950D02*
X57245Y-43995D01*
X57245Y-43995D02*
X57274Y-44045D01*
X57274Y-44045D02*
X57292Y-44101D01*
X57292Y-44101D02*
X57299Y-44159D01*
X57299Y-44159D02*
X57300Y-44167D01*
X56700Y-18033D02*
X57300Y-18033D01*
X57300Y-18033D02*
X57300Y-18633D01*
X57300Y-18633D02*
X56700Y-18633D01*
X56700Y-18633D02*
X56700Y-18033D01*
X57300Y-19333D02*
X57294Y-19391D01*
X57294Y-19391D02*
X57277Y-19447D01*
X57277Y-19447D02*
X57249Y-19499D01*
X57249Y-19499D02*
X57212Y-19544D01*
X57212Y-19544D02*
X57167Y-19581D01*
X57167Y-19581D02*
X57116Y-19609D01*
X57116Y-19609D02*
X57060Y-19626D01*
X57060Y-19626D02*
X57002Y-19632D01*
X57002Y-19632D02*
X56944Y-19627D01*
X56944Y-19627D02*
X56888Y-19611D01*
X56888Y-19611D02*
X56836Y-19584D01*
X56836Y-19584D02*
X56791Y-19547D01*
X56791Y-19547D02*
X56753Y-19502D01*
X56753Y-19502D02*
X56725Y-19451D01*
X56725Y-19451D02*
X56707Y-19395D01*
X56707Y-19395D02*
X56701Y-19337D01*
X56701Y-19337D02*
X56705Y-19279D01*
X56705Y-19279D02*
X56722Y-19223D01*
X56722Y-19223D02*
X56748Y-19171D01*
X56748Y-19171D02*
X56785Y-19125D01*
X56785Y-19125D02*
X56829Y-19087D01*
X56829Y-19087D02*
X56880Y-19059D01*
X56880Y-19059D02*
X56936Y-19040D01*
X56936Y-19040D02*
X56994Y-19034D01*
X56994Y-19034D02*
X57052Y-19038D01*
X57052Y-19038D02*
X57108Y-19054D01*
X57108Y-19054D02*
X57160Y-19080D01*
X57160Y-19080D02*
X57206Y-19116D01*
X57206Y-19116D02*
X57245Y-19161D01*
X57245Y-19161D02*
X57274Y-19211D01*
X57274Y-19211D02*
X57292Y-19267D01*
X57292Y-19267D02*
X57299Y-19325D01*
X57299Y-19325D02*
X57300Y-19333D01*
X57300Y-20333D02*
X57294Y-20391D01*
X57294Y-20391D02*
X57277Y-20447D01*
X57277Y-20447D02*
X57249Y-20499D01*
X57249Y-20499D02*
X57212Y-20544D01*
X57212Y-20544D02*
X57167Y-20581D01*
X57167Y-20581D02*
X57116Y-20609D01*
X57116Y-20609D02*
X57060Y-20626D01*
X57060Y-20626D02*
X57002Y-20632D01*
X57002Y-20632D02*
X56944Y-20627D01*
X56944Y-20627D02*
X56888Y-20611D01*
X56888Y-20611D02*
X56836Y-20584D01*
X56836Y-20584D02*
X56791Y-20547D01*
X56791Y-20547D02*
X56753Y-20502D01*
X56753Y-20502D02*
X56725Y-20451D01*
X56725Y-20451D02*
X56707Y-20395D01*
X56707Y-20395D02*
X56701Y-20337D01*
X56701Y-20337D02*
X56705Y-20279D01*
X56705Y-20279D02*
X56722Y-20223D01*
X56722Y-20223D02*
X56748Y-20171D01*
X56748Y-20171D02*
X56785Y-20125D01*
X56785Y-20125D02*
X56829Y-20087D01*
X56829Y-20087D02*
X56880Y-20059D01*
X56880Y-20059D02*
X56936Y-20040D01*
X56936Y-20040D02*
X56994Y-20034D01*
X56994Y-20034D02*
X57052Y-20038D01*
X57052Y-20038D02*
X57108Y-20054D01*
X57108Y-20054D02*
X57160Y-20080D01*
X57160Y-20080D02*
X57206Y-20116D01*
X57206Y-20116D02*
X57245Y-20161D01*
X57245Y-20161D02*
X57274Y-20211D01*
X57274Y-20211D02*
X57292Y-20267D01*
X57292Y-20267D02*
X57299Y-20325D01*
X57299Y-20325D02*
X57300Y-20333D01*
X57300Y-21333D02*
X57294Y-21391D01*
X57294Y-21391D02*
X57277Y-21447D01*
X57277Y-21447D02*
X57249Y-21499D01*
X57249Y-21499D02*
X57212Y-21544D01*
X57212Y-21544D02*
X57167Y-21581D01*
X57167Y-21581D02*
X57116Y-21609D01*
X57116Y-21609D02*
X57060Y-21626D01*
X57060Y-21626D02*
X57002Y-21632D01*
X57002Y-21632D02*
X56944Y-21627D01*
X56944Y-21627D02*
X56888Y-21611D01*
X56888Y-21611D02*
X56836Y-21584D01*
X56836Y-21584D02*
X56791Y-21547D01*
X56791Y-21547D02*
X56753Y-21502D01*
X56753Y-21502D02*
X56725Y-21451D01*
X56725Y-21451D02*
X56707Y-21395D01*
X56707Y-21395D02*
X56701Y-21337D01*
X56701Y-21337D02*
X56705Y-21279D01*
X56705Y-21279D02*
X56722Y-21223D01*
X56722Y-21223D02*
X56748Y-21171D01*
X56748Y-21171D02*
X56785Y-21125D01*
X56785Y-21125D02*
X56829Y-21087D01*
X56829Y-21087D02*
X56880Y-21059D01*
X56880Y-21059D02*
X56936Y-21040D01*
X56936Y-21040D02*
X56994Y-21034D01*
X56994Y-21034D02*
X57052Y-21038D01*
X57052Y-21038D02*
X57108Y-21054D01*
X57108Y-21054D02*
X57160Y-21080D01*
X57160Y-21080D02*
X57206Y-21116D01*
X57206Y-21116D02*
X57245Y-21161D01*
X57245Y-21161D02*
X57274Y-21211D01*
X57274Y-21211D02*
X57292Y-21267D01*
X57292Y-21267D02*
X57299Y-21325D01*
X57299Y-21325D02*
X57300Y-21333D01*
X57300Y-22333D02*
X57294Y-22391D01*
X57294Y-22391D02*
X57277Y-22447D01*
X57277Y-22447D02*
X57249Y-22499D01*
X57249Y-22499D02*
X57212Y-22544D01*
X57212Y-22544D02*
X57167Y-22581D01*
X57167Y-22581D02*
X57116Y-22609D01*
X57116Y-22609D02*
X57060Y-22626D01*
X57060Y-22626D02*
X57002Y-22632D01*
X57002Y-22632D02*
X56944Y-22627D01*
X56944Y-22627D02*
X56888Y-22611D01*
X56888Y-22611D02*
X56836Y-22584D01*
X56836Y-22584D02*
X56791Y-22547D01*
X56791Y-22547D02*
X56753Y-22502D01*
X56753Y-22502D02*
X56725Y-22451D01*
X56725Y-22451D02*
X56707Y-22395D01*
X56707Y-22395D02*
X56701Y-22337D01*
X56701Y-22337D02*
X56705Y-22279D01*
X56705Y-22279D02*
X56722Y-22223D01*
X56722Y-22223D02*
X56748Y-22171D01*
X56748Y-22171D02*
X56785Y-22125D01*
X56785Y-22125D02*
X56829Y-22087D01*
X56829Y-22087D02*
X56880Y-22059D01*
X56880Y-22059D02*
X56936Y-22040D01*
X56936Y-22040D02*
X56994Y-22034D01*
X56994Y-22034D02*
X57052Y-22038D01*
X57052Y-22038D02*
X57108Y-22054D01*
X57108Y-22054D02*
X57160Y-22080D01*
X57160Y-22080D02*
X57206Y-22116D01*
X57206Y-22116D02*
X57245Y-22161D01*
X57245Y-22161D02*
X57274Y-22211D01*
X57274Y-22211D02*
X57292Y-22267D01*
X57292Y-22267D02*
X57299Y-22325D01*
X57299Y-22325D02*
X57300Y-22333D01*
X57300Y-23333D02*
X57294Y-23391D01*
X57294Y-23391D02*
X57277Y-23447D01*
X57277Y-23447D02*
X57249Y-23499D01*
X57249Y-23499D02*
X57212Y-23544D01*
X57212Y-23544D02*
X57167Y-23581D01*
X57167Y-23581D02*
X57116Y-23609D01*
X57116Y-23609D02*
X57060Y-23626D01*
X57060Y-23626D02*
X57002Y-23632D01*
X57002Y-23632D02*
X56944Y-23627D01*
X56944Y-23627D02*
X56888Y-23611D01*
X56888Y-23611D02*
X56836Y-23584D01*
X56836Y-23584D02*
X56791Y-23547D01*
X56791Y-23547D02*
X56753Y-23502D01*
X56753Y-23502D02*
X56725Y-23451D01*
X56725Y-23451D02*
X56707Y-23395D01*
X56707Y-23395D02*
X56701Y-23337D01*
X56701Y-23337D02*
X56705Y-23279D01*
X56705Y-23279D02*
X56722Y-23223D01*
X56722Y-23223D02*
X56748Y-23171D01*
X56748Y-23171D02*
X56785Y-23125D01*
X56785Y-23125D02*
X56829Y-23087D01*
X56829Y-23087D02*
X56880Y-23059D01*
X56880Y-23059D02*
X56936Y-23040D01*
X56936Y-23040D02*
X56994Y-23034D01*
X56994Y-23034D02*
X57052Y-23038D01*
X57052Y-23038D02*
X57108Y-23054D01*
X57108Y-23054D02*
X57160Y-23080D01*
X57160Y-23080D02*
X57206Y-23116D01*
X57206Y-23116D02*
X57245Y-23161D01*
X57245Y-23161D02*
X57274Y-23211D01*
X57274Y-23211D02*
X57292Y-23267D01*
X57292Y-23267D02*
X57299Y-23325D01*
X57299Y-23325D02*
X57300Y-23333D01*
X51700Y-38867D02*
X52300Y-38867D01*
X52300Y-38867D02*
X52300Y-39467D01*
X52300Y-39467D02*
X51700Y-39467D01*
X51700Y-39467D02*
X51700Y-38867D01*
X52300Y-40167D02*
X52294Y-40225D01*
X52294Y-40225D02*
X52277Y-40281D01*
X52277Y-40281D02*
X52249Y-40333D01*
X52249Y-40333D02*
X52212Y-40378D01*
X52212Y-40378D02*
X52167Y-40415D01*
X52167Y-40415D02*
X52116Y-40443D01*
X52116Y-40443D02*
X52060Y-40460D01*
X52060Y-40460D02*
X52002Y-40466D01*
X52002Y-40466D02*
X51944Y-40461D01*
X51944Y-40461D02*
X51888Y-40445D01*
X51888Y-40445D02*
X51836Y-40418D01*
X51836Y-40418D02*
X51791Y-40381D01*
X51791Y-40381D02*
X51753Y-40336D01*
X51753Y-40336D02*
X51725Y-40285D01*
X51725Y-40285D02*
X51707Y-40229D01*
X51707Y-40229D02*
X51701Y-40171D01*
X51701Y-40171D02*
X51705Y-40113D01*
X51705Y-40113D02*
X51722Y-40057D01*
X51722Y-40057D02*
X51748Y-40005D01*
X51748Y-40005D02*
X51785Y-39959D01*
X51785Y-39959D02*
X51829Y-39921D01*
X51829Y-39921D02*
X51880Y-39893D01*
X51880Y-39893D02*
X51936Y-39874D01*
X51936Y-39874D02*
X51994Y-39868D01*
X51994Y-39868D02*
X52052Y-39872D01*
X52052Y-39872D02*
X52108Y-39888D01*
X52108Y-39888D02*
X52160Y-39914D01*
X52160Y-39914D02*
X52206Y-39950D01*
X52206Y-39950D02*
X52245Y-39995D01*
X52245Y-39995D02*
X52274Y-40045D01*
X52274Y-40045D02*
X52292Y-40101D01*
X52292Y-40101D02*
X52299Y-40159D01*
X52299Y-40159D02*
X52300Y-40167D01*
X52300Y-41167D02*
X52294Y-41225D01*
X52294Y-41225D02*
X52277Y-41281D01*
X52277Y-41281D02*
X52249Y-41333D01*
X52249Y-41333D02*
X52212Y-41378D01*
X52212Y-41378D02*
X52167Y-41415D01*
X52167Y-41415D02*
X52116Y-41443D01*
X52116Y-41443D02*
X52060Y-41460D01*
X52060Y-41460D02*
X52002Y-41466D01*
X52002Y-41466D02*
X51944Y-41461D01*
X51944Y-41461D02*
X51888Y-41445D01*
X51888Y-41445D02*
X51836Y-41418D01*
X51836Y-41418D02*
X51791Y-41381D01*
X51791Y-41381D02*
X51753Y-41336D01*
X51753Y-41336D02*
X51725Y-41285D01*
X51725Y-41285D02*
X51707Y-41229D01*
X51707Y-41229D02*
X51701Y-41171D01*
X51701Y-41171D02*
X51705Y-41113D01*
X51705Y-41113D02*
X51722Y-41057D01*
X51722Y-41057D02*
X51748Y-41005D01*
X51748Y-41005D02*
X51785Y-40959D01*
X51785Y-40959D02*
X51829Y-40921D01*
X51829Y-40921D02*
X51880Y-40893D01*
X51880Y-40893D02*
X51936Y-40874D01*
X51936Y-40874D02*
X51994Y-40868D01*
X51994Y-40868D02*
X52052Y-40872D01*
X52052Y-40872D02*
X52108Y-40888D01*
X52108Y-40888D02*
X52160Y-40914D01*
X52160Y-40914D02*
X52206Y-40950D01*
X52206Y-40950D02*
X52245Y-40995D01*
X52245Y-40995D02*
X52274Y-41045D01*
X52274Y-41045D02*
X52292Y-41101D01*
X52292Y-41101D02*
X52299Y-41159D01*
X52299Y-41159D02*
X52300Y-41167D01*
X52300Y-42167D02*
X52294Y-42225D01*
X52294Y-42225D02*
X52277Y-42281D01*
X52277Y-42281D02*
X52249Y-42333D01*
X52249Y-42333D02*
X52212Y-42378D01*
X52212Y-42378D02*
X52167Y-42415D01*
X52167Y-42415D02*
X52116Y-42443D01*
X52116Y-42443D02*
X52060Y-42460D01*
X52060Y-42460D02*
X52002Y-42466D01*
X52002Y-42466D02*
X51944Y-42461D01*
X51944Y-42461D02*
X51888Y-42445D01*
X51888Y-42445D02*
X51836Y-42418D01*
X51836Y-42418D02*
X51791Y-42381D01*
X51791Y-42381D02*
X51753Y-42336D01*
X51753Y-42336D02*
X51725Y-42285D01*
X51725Y-42285D02*
X51707Y-42229D01*
X51707Y-42229D02*
X51701Y-42171D01*
X51701Y-42171D02*
X51705Y-42113D01*
X51705Y-42113D02*
X51722Y-42057D01*
X51722Y-42057D02*
X51748Y-42005D01*
X51748Y-42005D02*
X51785Y-41959D01*
X51785Y-41959D02*
X51829Y-41921D01*
X51829Y-41921D02*
X51880Y-41893D01*
X51880Y-41893D02*
X51936Y-41874D01*
X51936Y-41874D02*
X51994Y-41868D01*
X51994Y-41868D02*
X52052Y-41872D01*
X52052Y-41872D02*
X52108Y-41888D01*
X52108Y-41888D02*
X52160Y-41914D01*
X52160Y-41914D02*
X52206Y-41950D01*
X52206Y-41950D02*
X52245Y-41995D01*
X52245Y-41995D02*
X52274Y-42045D01*
X52274Y-42045D02*
X52292Y-42101D01*
X52292Y-42101D02*
X52299Y-42159D01*
X52299Y-42159D02*
X52300Y-42167D01*
X52300Y-43167D02*
X52294Y-43225D01*
X52294Y-43225D02*
X52277Y-43281D01*
X52277Y-43281D02*
X52249Y-43333D01*
X52249Y-43333D02*
X52212Y-43378D01*
X52212Y-43378D02*
X52167Y-43415D01*
X52167Y-43415D02*
X52116Y-43443D01*
X52116Y-43443D02*
X52060Y-43460D01*
X52060Y-43460D02*
X52002Y-43466D01*
X52002Y-43466D02*
X51944Y-43461D01*
X51944Y-43461D02*
X51888Y-43445D01*
X51888Y-43445D02*
X51836Y-43418D01*
X51836Y-43418D02*
X51791Y-43381D01*
X51791Y-43381D02*
X51753Y-43336D01*
X51753Y-43336D02*
X51725Y-43285D01*
X51725Y-43285D02*
X51707Y-43229D01*
X51707Y-43229D02*
X51701Y-43171D01*
X51701Y-43171D02*
X51705Y-43113D01*
X51705Y-43113D02*
X51722Y-43057D01*
X51722Y-43057D02*
X51748Y-43005D01*
X51748Y-43005D02*
X51785Y-42959D01*
X51785Y-42959D02*
X51829Y-42921D01*
X51829Y-42921D02*
X51880Y-42893D01*
X51880Y-42893D02*
X51936Y-42874D01*
X51936Y-42874D02*
X51994Y-42868D01*
X51994Y-42868D02*
X52052Y-42872D01*
X52052Y-42872D02*
X52108Y-42888D01*
X52108Y-42888D02*
X52160Y-42914D01*
X52160Y-42914D02*
X52206Y-42950D01*
X52206Y-42950D02*
X52245Y-42995D01*
X52245Y-42995D02*
X52274Y-43045D01*
X52274Y-43045D02*
X52292Y-43101D01*
X52292Y-43101D02*
X52299Y-43159D01*
X52299Y-43159D02*
X52300Y-43167D01*
X52300Y-44167D02*
X52294Y-44225D01*
X52294Y-44225D02*
X52277Y-44281D01*
X52277Y-44281D02*
X52249Y-44333D01*
X52249Y-44333D02*
X52212Y-44378D01*
X52212Y-44378D02*
X52167Y-44415D01*
X52167Y-44415D02*
X52116Y-44443D01*
X52116Y-44443D02*
X52060Y-44460D01*
X52060Y-44460D02*
X52002Y-44466D01*
X52002Y-44466D02*
X51944Y-44461D01*
X51944Y-44461D02*
X51888Y-44445D01*
X51888Y-44445D02*
X51836Y-44418D01*
X51836Y-44418D02*
X51791Y-44381D01*
X51791Y-44381D02*
X51753Y-44336D01*
X51753Y-44336D02*
X51725Y-44285D01*
X51725Y-44285D02*
X51707Y-44229D01*
X51707Y-44229D02*
X51701Y-44171D01*
X51701Y-44171D02*
X51705Y-44113D01*
X51705Y-44113D02*
X51722Y-44057D01*
X51722Y-44057D02*
X51748Y-44005D01*
X51748Y-44005D02*
X51785Y-43959D01*
X51785Y-43959D02*
X51829Y-43921D01*
X51829Y-43921D02*
X51880Y-43893D01*
X51880Y-43893D02*
X51936Y-43874D01*
X51936Y-43874D02*
X51994Y-43868D01*
X51994Y-43868D02*
X52052Y-43872D01*
X52052Y-43872D02*
X52108Y-43888D01*
X52108Y-43888D02*
X52160Y-43914D01*
X52160Y-43914D02*
X52206Y-43950D01*
X52206Y-43950D02*
X52245Y-43995D01*
X52245Y-43995D02*
X52274Y-44045D01*
X52274Y-44045D02*
X52292Y-44101D01*
X52292Y-44101D02*
X52299Y-44159D01*
X52299Y-44159D02*
X52300Y-44167D01*
X51700Y-18033D02*
X52300Y-18033D01*
X52300Y-18033D02*
X52300Y-18633D01*
X52300Y-18633D02*
X51700Y-18633D01*
X51700Y-18633D02*
X51700Y-18033D01*
X52300Y-19333D02*
X52294Y-19391D01*
X52294Y-19391D02*
X52277Y-19447D01*
X52277Y-19447D02*
X52249Y-19499D01*
X52249Y-19499D02*
X52212Y-19544D01*
X52212Y-19544D02*
X52167Y-19581D01*
X52167Y-19581D02*
X52116Y-19609D01*
X52116Y-19609D02*
X52060Y-19626D01*
X52060Y-19626D02*
X52002Y-19632D01*
X52002Y-19632D02*
X51944Y-19627D01*
X51944Y-19627D02*
X51888Y-19611D01*
X51888Y-19611D02*
X51836Y-19584D01*
X51836Y-19584D02*
X51791Y-19547D01*
X51791Y-19547D02*
X51753Y-19502D01*
X51753Y-19502D02*
X51725Y-19451D01*
X51725Y-19451D02*
X51707Y-19395D01*
X51707Y-19395D02*
X51701Y-19337D01*
X51701Y-19337D02*
X51705Y-19279D01*
X51705Y-19279D02*
X51722Y-19223D01*
X51722Y-19223D02*
X51748Y-19171D01*
X51748Y-19171D02*
X51785Y-19125D01*
X51785Y-19125D02*
X51829Y-19087D01*
X51829Y-19087D02*
X51880Y-19059D01*
X51880Y-19059D02*
X51936Y-19040D01*
X51936Y-19040D02*
X51994Y-19034D01*
X51994Y-19034D02*
X52052Y-19038D01*
X52052Y-19038D02*
X52108Y-19054D01*
X52108Y-19054D02*
X52160Y-19080D01*
X52160Y-19080D02*
X52206Y-19116D01*
X52206Y-19116D02*
X52245Y-19161D01*
X52245Y-19161D02*
X52274Y-19211D01*
X52274Y-19211D02*
X52292Y-19267D01*
X52292Y-19267D02*
X52299Y-19325D01*
X52299Y-19325D02*
X52300Y-19333D01*
X52300Y-20333D02*
X52294Y-20391D01*
X52294Y-20391D02*
X52277Y-20447D01*
X52277Y-20447D02*
X52249Y-20499D01*
X52249Y-20499D02*
X52212Y-20544D01*
X52212Y-20544D02*
X52167Y-20581D01*
X52167Y-20581D02*
X52116Y-20609D01*
X52116Y-20609D02*
X52060Y-20626D01*
X52060Y-20626D02*
X52002Y-20632D01*
X52002Y-20632D02*
X51944Y-20627D01*
X51944Y-20627D02*
X51888Y-20611D01*
X51888Y-20611D02*
X51836Y-20584D01*
X51836Y-20584D02*
X51791Y-20547D01*
X51791Y-20547D02*
X51753Y-20502D01*
X51753Y-20502D02*
X51725Y-20451D01*
X51725Y-20451D02*
X51707Y-20395D01*
X51707Y-20395D02*
X51701Y-20337D01*
X51701Y-20337D02*
X51705Y-20279D01*
X51705Y-20279D02*
X51722Y-20223D01*
X51722Y-20223D02*
X51748Y-20171D01*
X51748Y-20171D02*
X51785Y-20125D01*
X51785Y-20125D02*
X51829Y-20087D01*
X51829Y-20087D02*
X51880Y-20059D01*
X51880Y-20059D02*
X51936Y-20040D01*
X51936Y-20040D02*
X51994Y-20034D01*
X51994Y-20034D02*
X52052Y-20038D01*
X52052Y-20038D02*
X52108Y-20054D01*
X52108Y-20054D02*
X52160Y-20080D01*
X52160Y-20080D02*
X52206Y-20116D01*
X52206Y-20116D02*
X52245Y-20161D01*
X52245Y-20161D02*
X52274Y-20211D01*
X52274Y-20211D02*
X52292Y-20267D01*
X52292Y-20267D02*
X52299Y-20325D01*
X52299Y-20325D02*
X52300Y-20333D01*
X52300Y-21333D02*
X52294Y-21391D01*
X52294Y-21391D02*
X52277Y-21447D01*
X52277Y-21447D02*
X52249Y-21499D01*
X52249Y-21499D02*
X52212Y-21544D01*
X52212Y-21544D02*
X52167Y-21581D01*
X52167Y-21581D02*
X52116Y-21609D01*
X52116Y-21609D02*
X52060Y-21626D01*
X52060Y-21626D02*
X52002Y-21632D01*
X52002Y-21632D02*
X51944Y-21627D01*
X51944Y-21627D02*
X51888Y-21611D01*
X51888Y-21611D02*
X51836Y-21584D01*
X51836Y-21584D02*
X51791Y-21547D01*
X51791Y-21547D02*
X51753Y-21502D01*
X51753Y-21502D02*
X51725Y-21451D01*
X51725Y-21451D02*
X51707Y-21395D01*
X51707Y-21395D02*
X51701Y-21337D01*
X51701Y-21337D02*
X51705Y-21279D01*
X51705Y-21279D02*
X51722Y-21223D01*
X51722Y-21223D02*
X51748Y-21171D01*
X51748Y-21171D02*
X51785Y-21125D01*
X51785Y-21125D02*
X51829Y-21087D01*
X51829Y-21087D02*
X51880Y-21059D01*
X51880Y-21059D02*
X51936Y-21040D01*
X51936Y-21040D02*
X51994Y-21034D01*
X51994Y-21034D02*
X52052Y-21038D01*
X52052Y-21038D02*
X52108Y-21054D01*
X52108Y-21054D02*
X52160Y-21080D01*
X52160Y-21080D02*
X52206Y-21116D01*
X52206Y-21116D02*
X52245Y-21161D01*
X52245Y-21161D02*
X52274Y-21211D01*
X52274Y-21211D02*
X52292Y-21267D01*
X52292Y-21267D02*
X52299Y-21325D01*
X52299Y-21325D02*
X52300Y-21333D01*
X52300Y-22333D02*
X52294Y-22391D01*
X52294Y-22391D02*
X52277Y-22447D01*
X52277Y-22447D02*
X52249Y-22499D01*
X52249Y-22499D02*
X52212Y-22544D01*
X52212Y-22544D02*
X52167Y-22581D01*
X52167Y-22581D02*
X52116Y-22609D01*
X52116Y-22609D02*
X52060Y-22626D01*
X52060Y-22626D02*
X52002Y-22632D01*
X52002Y-22632D02*
X51944Y-22627D01*
X51944Y-22627D02*
X51888Y-22611D01*
X51888Y-22611D02*
X51836Y-22584D01*
X51836Y-22584D02*
X51791Y-22547D01*
X51791Y-22547D02*
X51753Y-22502D01*
X51753Y-22502D02*
X51725Y-22451D01*
X51725Y-22451D02*
X51707Y-22395D01*
X51707Y-22395D02*
X51701Y-22337D01*
X51701Y-22337D02*
X51705Y-22279D01*
X51705Y-22279D02*
X51722Y-22223D01*
X51722Y-22223D02*
X51748Y-22171D01*
X51748Y-22171D02*
X51785Y-22125D01*
X51785Y-22125D02*
X51829Y-22087D01*
X51829Y-22087D02*
X51880Y-22059D01*
X51880Y-22059D02*
X51936Y-22040D01*
X51936Y-22040D02*
X51994Y-22034D01*
X51994Y-22034D02*
X52052Y-22038D01*
X52052Y-22038D02*
X52108Y-22054D01*
X52108Y-22054D02*
X52160Y-22080D01*
X52160Y-22080D02*
X52206Y-22116D01*
X52206Y-22116D02*
X52245Y-22161D01*
X52245Y-22161D02*
X52274Y-22211D01*
X52274Y-22211D02*
X52292Y-22267D01*
X52292Y-22267D02*
X52299Y-22325D01*
X52299Y-22325D02*
X52300Y-22333D01*
X52300Y-23333D02*
X52294Y-23391D01*
X52294Y-23391D02*
X52277Y-23447D01*
X52277Y-23447D02*
X52249Y-23499D01*
X52249Y-23499D02*
X52212Y-23544D01*
X52212Y-23544D02*
X52167Y-23581D01*
X52167Y-23581D02*
X52116Y-23609D01*
X52116Y-23609D02*
X52060Y-23626D01*
X52060Y-23626D02*
X52002Y-23632D01*
X52002Y-23632D02*
X51944Y-23627D01*
X51944Y-23627D02*
X51888Y-23611D01*
X51888Y-23611D02*
X51836Y-23584D01*
X51836Y-23584D02*
X51791Y-23547D01*
X51791Y-23547D02*
X51753Y-23502D01*
X51753Y-23502D02*
X51725Y-23451D01*
X51725Y-23451D02*
X51707Y-23395D01*
X51707Y-23395D02*
X51701Y-23337D01*
X51701Y-23337D02*
X51705Y-23279D01*
X51705Y-23279D02*
X51722Y-23223D01*
X51722Y-23223D02*
X51748Y-23171D01*
X51748Y-23171D02*
X51785Y-23125D01*
X51785Y-23125D02*
X51829Y-23087D01*
X51829Y-23087D02*
X51880Y-23059D01*
X51880Y-23059D02*
X51936Y-23040D01*
X51936Y-23040D02*
X51994Y-23034D01*
X51994Y-23034D02*
X52052Y-23038D01*
X52052Y-23038D02*
X52108Y-23054D01*
X52108Y-23054D02*
X52160Y-23080D01*
X52160Y-23080D02*
X52206Y-23116D01*
X52206Y-23116D02*
X52245Y-23161D01*
X52245Y-23161D02*
X52274Y-23211D01*
X52274Y-23211D02*
X52292Y-23267D01*
X52292Y-23267D02*
X52299Y-23325D01*
X52299Y-23325D02*
X52300Y-23333D01*
X46700Y-38867D02*
X47300Y-38867D01*
X47300Y-38867D02*
X47300Y-39467D01*
X47300Y-39467D02*
X46700Y-39467D01*
X46700Y-39467D02*
X46700Y-38867D01*
X47300Y-40167D02*
X47294Y-40225D01*
X47294Y-40225D02*
X47277Y-40281D01*
X47277Y-40281D02*
X47249Y-40333D01*
X47249Y-40333D02*
X47212Y-40378D01*
X47212Y-40378D02*
X47167Y-40415D01*
X47167Y-40415D02*
X47116Y-40443D01*
X47116Y-40443D02*
X47060Y-40460D01*
X47060Y-40460D02*
X47002Y-40466D01*
X47002Y-40466D02*
X46944Y-40461D01*
X46944Y-40461D02*
X46888Y-40445D01*
X46888Y-40445D02*
X46836Y-40418D01*
X46836Y-40418D02*
X46791Y-40381D01*
X46791Y-40381D02*
X46753Y-40336D01*
X46753Y-40336D02*
X46725Y-40285D01*
X46725Y-40285D02*
X46707Y-40229D01*
X46707Y-40229D02*
X46701Y-40171D01*
X46701Y-40171D02*
X46705Y-40113D01*
X46705Y-40113D02*
X46722Y-40057D01*
X46722Y-40057D02*
X46748Y-40005D01*
X46748Y-40005D02*
X46785Y-39959D01*
X46785Y-39959D02*
X46829Y-39921D01*
X46829Y-39921D02*
X46880Y-39893D01*
X46880Y-39893D02*
X46936Y-39874D01*
X46936Y-39874D02*
X46994Y-39868D01*
X46994Y-39868D02*
X47052Y-39872D01*
X47052Y-39872D02*
X47108Y-39888D01*
X47108Y-39888D02*
X47160Y-39914D01*
X47160Y-39914D02*
X47206Y-39950D01*
X47206Y-39950D02*
X47245Y-39995D01*
X47245Y-39995D02*
X47274Y-40045D01*
X47274Y-40045D02*
X47292Y-40101D01*
X47292Y-40101D02*
X47299Y-40159D01*
X47299Y-40159D02*
X47300Y-40167D01*
X47300Y-41167D02*
X47294Y-41225D01*
X47294Y-41225D02*
X47277Y-41281D01*
X47277Y-41281D02*
X47249Y-41333D01*
X47249Y-41333D02*
X47212Y-41378D01*
X47212Y-41378D02*
X47167Y-41415D01*
X47167Y-41415D02*
X47116Y-41443D01*
X47116Y-41443D02*
X47060Y-41460D01*
X47060Y-41460D02*
X47002Y-41466D01*
X47002Y-41466D02*
X46944Y-41461D01*
X46944Y-41461D02*
X46888Y-41445D01*
X46888Y-41445D02*
X46836Y-41418D01*
X46836Y-41418D02*
X46791Y-41381D01*
X46791Y-41381D02*
X46753Y-41336D01*
X46753Y-41336D02*
X46725Y-41285D01*
X46725Y-41285D02*
X46707Y-41229D01*
X46707Y-41229D02*
X46701Y-41171D01*
X46701Y-41171D02*
X46705Y-41113D01*
X46705Y-41113D02*
X46722Y-41057D01*
X46722Y-41057D02*
X46748Y-41005D01*
X46748Y-41005D02*
X46785Y-40959D01*
X46785Y-40959D02*
X46829Y-40921D01*
X46829Y-40921D02*
X46880Y-40893D01*
X46880Y-40893D02*
X46936Y-40874D01*
X46936Y-40874D02*
X46994Y-40868D01*
X46994Y-40868D02*
X47052Y-40872D01*
X47052Y-40872D02*
X47108Y-40888D01*
X47108Y-40888D02*
X47160Y-40914D01*
X47160Y-40914D02*
X47206Y-40950D01*
X47206Y-40950D02*
X47245Y-40995D01*
X47245Y-40995D02*
X47274Y-41045D01*
X47274Y-41045D02*
X47292Y-41101D01*
X47292Y-41101D02*
X47299Y-41159D01*
X47299Y-41159D02*
X47300Y-41167D01*
X47300Y-42167D02*
X47294Y-42225D01*
X47294Y-42225D02*
X47277Y-42281D01*
X47277Y-42281D02*
X47249Y-42333D01*
X47249Y-42333D02*
X47212Y-42378D01*
X47212Y-42378D02*
X47167Y-42415D01*
X47167Y-42415D02*
X47116Y-42443D01*
X47116Y-42443D02*
X47060Y-42460D01*
X47060Y-42460D02*
X47002Y-42466D01*
X47002Y-42466D02*
X46944Y-42461D01*
X46944Y-42461D02*
X46888Y-42445D01*
X46888Y-42445D02*
X46836Y-42418D01*
X46836Y-42418D02*
X46791Y-42381D01*
X46791Y-42381D02*
X46753Y-42336D01*
X46753Y-42336D02*
X46725Y-42285D01*
X46725Y-42285D02*
X46707Y-42229D01*
X46707Y-42229D02*
X46701Y-42171D01*
X46701Y-42171D02*
X46705Y-42113D01*
X46705Y-42113D02*
X46722Y-42057D01*
X46722Y-42057D02*
X46748Y-42005D01*
X46748Y-42005D02*
X46785Y-41959D01*
X46785Y-41959D02*
X46829Y-41921D01*
X46829Y-41921D02*
X46880Y-41893D01*
X46880Y-41893D02*
X46936Y-41874D01*
X46936Y-41874D02*
X46994Y-41868D01*
X46994Y-41868D02*
X47052Y-41872D01*
X47052Y-41872D02*
X47108Y-41888D01*
X47108Y-41888D02*
X47160Y-41914D01*
X47160Y-41914D02*
X47206Y-41950D01*
X47206Y-41950D02*
X47245Y-41995D01*
X47245Y-41995D02*
X47274Y-42045D01*
X47274Y-42045D02*
X47292Y-42101D01*
X47292Y-42101D02*
X47299Y-42159D01*
X47299Y-42159D02*
X47300Y-42167D01*
X47300Y-43167D02*
X47294Y-43225D01*
X47294Y-43225D02*
X47277Y-43281D01*
X47277Y-43281D02*
X47249Y-43333D01*
X47249Y-43333D02*
X47212Y-43378D01*
X47212Y-43378D02*
X47167Y-43415D01*
X47167Y-43415D02*
X47116Y-43443D01*
X47116Y-43443D02*
X47060Y-43460D01*
X47060Y-43460D02*
X47002Y-43466D01*
X47002Y-43466D02*
X46944Y-43461D01*
X46944Y-43461D02*
X46888Y-43445D01*
X46888Y-43445D02*
X46836Y-43418D01*
X46836Y-43418D02*
X46791Y-43381D01*
X46791Y-43381D02*
X46753Y-43336D01*
X46753Y-43336D02*
X46725Y-43285D01*
X46725Y-43285D02*
X46707Y-43229D01*
X46707Y-43229D02*
X46701Y-43171D01*
X46701Y-43171D02*
X46705Y-43113D01*
X46705Y-43113D02*
X46722Y-43057D01*
X46722Y-43057D02*
X46748Y-43005D01*
X46748Y-43005D02*
X46785Y-42959D01*
X46785Y-42959D02*
X46829Y-42921D01*
X46829Y-42921D02*
X46880Y-42893D01*
X46880Y-42893D02*
X46936Y-42874D01*
X46936Y-42874D02*
X46994Y-42868D01*
X46994Y-42868D02*
X47052Y-42872D01*
X47052Y-42872D02*
X47108Y-42888D01*
X47108Y-42888D02*
X47160Y-42914D01*
X47160Y-42914D02*
X47206Y-42950D01*
X47206Y-42950D02*
X47245Y-42995D01*
X47245Y-42995D02*
X47274Y-43045D01*
X47274Y-43045D02*
X47292Y-43101D01*
X47292Y-43101D02*
X47299Y-43159D01*
X47299Y-43159D02*
X47300Y-43167D01*
X47300Y-44167D02*
X47294Y-44225D01*
X47294Y-44225D02*
X47277Y-44281D01*
X47277Y-44281D02*
X47249Y-44333D01*
X47249Y-44333D02*
X47212Y-44378D01*
X47212Y-44378D02*
X47167Y-44415D01*
X47167Y-44415D02*
X47116Y-44443D01*
X47116Y-44443D02*
X47060Y-44460D01*
X47060Y-44460D02*
X47002Y-44466D01*
X47002Y-44466D02*
X46944Y-44461D01*
X46944Y-44461D02*
X46888Y-44445D01*
X46888Y-44445D02*
X46836Y-44418D01*
X46836Y-44418D02*
X46791Y-44381D01*
X46791Y-44381D02*
X46753Y-44336D01*
X46753Y-44336D02*
X46725Y-44285D01*
X46725Y-44285D02*
X46707Y-44229D01*
X46707Y-44229D02*
X46701Y-44171D01*
X46701Y-44171D02*
X46705Y-44113D01*
X46705Y-44113D02*
X46722Y-44057D01*
X46722Y-44057D02*
X46748Y-44005D01*
X46748Y-44005D02*
X46785Y-43959D01*
X46785Y-43959D02*
X46829Y-43921D01*
X46829Y-43921D02*
X46880Y-43893D01*
X46880Y-43893D02*
X46936Y-43874D01*
X46936Y-43874D02*
X46994Y-43868D01*
X46994Y-43868D02*
X47052Y-43872D01*
X47052Y-43872D02*
X47108Y-43888D01*
X47108Y-43888D02*
X47160Y-43914D01*
X47160Y-43914D02*
X47206Y-43950D01*
X47206Y-43950D02*
X47245Y-43995D01*
X47245Y-43995D02*
X47274Y-44045D01*
X47274Y-44045D02*
X47292Y-44101D01*
X47292Y-44101D02*
X47299Y-44159D01*
X47299Y-44159D02*
X47300Y-44167D01*
X46700Y-18033D02*
X47300Y-18033D01*
X47300Y-18033D02*
X47300Y-18633D01*
X47300Y-18633D02*
X46700Y-18633D01*
X46700Y-18633D02*
X46700Y-18033D01*
X47300Y-19333D02*
X47294Y-19391D01*
X47294Y-19391D02*
X47277Y-19447D01*
X47277Y-19447D02*
X47249Y-19499D01*
X47249Y-19499D02*
X47212Y-19544D01*
X47212Y-19544D02*
X47167Y-19581D01*
X47167Y-19581D02*
X47116Y-19609D01*
X47116Y-19609D02*
X47060Y-19626D01*
X47060Y-19626D02*
X47002Y-19632D01*
X47002Y-19632D02*
X46944Y-19627D01*
X46944Y-19627D02*
X46888Y-19611D01*
X46888Y-19611D02*
X46836Y-19584D01*
X46836Y-19584D02*
X46791Y-19547D01*
X46791Y-19547D02*
X46753Y-19502D01*
X46753Y-19502D02*
X46725Y-19451D01*
X46725Y-19451D02*
X46707Y-19395D01*
X46707Y-19395D02*
X46701Y-19337D01*
X46701Y-19337D02*
X46705Y-19279D01*
X46705Y-19279D02*
X46722Y-19223D01*
X46722Y-19223D02*
X46748Y-19171D01*
X46748Y-19171D02*
X46785Y-19125D01*
X46785Y-19125D02*
X46829Y-19087D01*
X46829Y-19087D02*
X46880Y-19059D01*
X46880Y-19059D02*
X46936Y-19040D01*
X46936Y-19040D02*
X46994Y-19034D01*
X46994Y-19034D02*
X47052Y-19038D01*
X47052Y-19038D02*
X47108Y-19054D01*
X47108Y-19054D02*
X47160Y-19080D01*
X47160Y-19080D02*
X47206Y-19116D01*
X47206Y-19116D02*
X47245Y-19161D01*
X47245Y-19161D02*
X47274Y-19211D01*
X47274Y-19211D02*
X47292Y-19267D01*
X47292Y-19267D02*
X47299Y-19325D01*
X47299Y-19325D02*
X47300Y-19333D01*
X47300Y-20333D02*
X47294Y-20391D01*
X47294Y-20391D02*
X47277Y-20447D01*
X47277Y-20447D02*
X47249Y-20499D01*
X47249Y-20499D02*
X47212Y-20544D01*
X47212Y-20544D02*
X47167Y-20581D01*
X47167Y-20581D02*
X47116Y-20609D01*
X47116Y-20609D02*
X47060Y-20626D01*
X47060Y-20626D02*
X47002Y-20632D01*
X47002Y-20632D02*
X46944Y-20627D01*
X46944Y-20627D02*
X46888Y-20611D01*
X46888Y-20611D02*
X46836Y-20584D01*
X46836Y-20584D02*
X46791Y-20547D01*
X46791Y-20547D02*
X46753Y-20502D01*
X46753Y-20502D02*
X46725Y-20451D01*
X46725Y-20451D02*
X46707Y-20395D01*
X46707Y-20395D02*
X46701Y-20337D01*
X46701Y-20337D02*
X46705Y-20279D01*
X46705Y-20279D02*
X46722Y-20223D01*
X46722Y-20223D02*
X46748Y-20171D01*
X46748Y-20171D02*
X46785Y-20125D01*
X46785Y-20125D02*
X46829Y-20087D01*
X46829Y-20087D02*
X46880Y-20059D01*
X46880Y-20059D02*
X46936Y-20040D01*
X46936Y-20040D02*
X46994Y-20034D01*
X46994Y-20034D02*
X47052Y-20038D01*
X47052Y-20038D02*
X47108Y-20054D01*
X47108Y-20054D02*
X47160Y-20080D01*
X47160Y-20080D02*
X47206Y-20116D01*
X47206Y-20116D02*
X47245Y-20161D01*
X47245Y-20161D02*
X47274Y-20211D01*
X47274Y-20211D02*
X47292Y-20267D01*
X47292Y-20267D02*
X47299Y-20325D01*
X47299Y-20325D02*
X47300Y-20333D01*
X47300Y-21333D02*
X47294Y-21391D01*
X47294Y-21391D02*
X47277Y-21447D01*
X47277Y-21447D02*
X47249Y-21499D01*
X47249Y-21499D02*
X47212Y-21544D01*
X47212Y-21544D02*
X47167Y-21581D01*
X47167Y-21581D02*
X47116Y-21609D01*
X47116Y-21609D02*
X47060Y-21626D01*
X47060Y-21626D02*
X47002Y-21632D01*
X47002Y-21632D02*
X46944Y-21627D01*
X46944Y-21627D02*
X46888Y-21611D01*
X46888Y-21611D02*
X46836Y-21584D01*
X46836Y-21584D02*
X46791Y-21547D01*
X46791Y-21547D02*
X46753Y-21502D01*
X46753Y-21502D02*
X46725Y-21451D01*
X46725Y-21451D02*
X46707Y-21395D01*
X46707Y-21395D02*
X46701Y-21337D01*
X46701Y-21337D02*
X46705Y-21279D01*
X46705Y-21279D02*
X46722Y-21223D01*
X46722Y-21223D02*
X46748Y-21171D01*
X46748Y-21171D02*
X46785Y-21125D01*
X46785Y-21125D02*
X46829Y-21087D01*
X46829Y-21087D02*
X46880Y-21059D01*
X46880Y-21059D02*
X46936Y-21040D01*
X46936Y-21040D02*
X46994Y-21034D01*
X46994Y-21034D02*
X47052Y-21038D01*
X47052Y-21038D02*
X47108Y-21054D01*
X47108Y-21054D02*
X47160Y-21080D01*
X47160Y-21080D02*
X47206Y-21116D01*
X47206Y-21116D02*
X47245Y-21161D01*
X47245Y-21161D02*
X47274Y-21211D01*
X47274Y-21211D02*
X47292Y-21267D01*
X47292Y-21267D02*
X47299Y-21325D01*
X47299Y-21325D02*
X47300Y-21333D01*
X47300Y-22333D02*
X47294Y-22391D01*
X47294Y-22391D02*
X47277Y-22447D01*
X47277Y-22447D02*
X47249Y-22499D01*
X47249Y-22499D02*
X47212Y-22544D01*
X47212Y-22544D02*
X47167Y-22581D01*
X47167Y-22581D02*
X47116Y-22609D01*
X47116Y-22609D02*
X47060Y-22626D01*
X47060Y-22626D02*
X47002Y-22632D01*
X47002Y-22632D02*
X46944Y-22627D01*
X46944Y-22627D02*
X46888Y-22611D01*
X46888Y-22611D02*
X46836Y-22584D01*
X46836Y-22584D02*
X46791Y-22547D01*
X46791Y-22547D02*
X46753Y-22502D01*
X46753Y-22502D02*
X46725Y-22451D01*
X46725Y-22451D02*
X46707Y-22395D01*
X46707Y-22395D02*
X46701Y-22337D01*
X46701Y-22337D02*
X46705Y-22279D01*
X46705Y-22279D02*
X46722Y-22223D01*
X46722Y-22223D02*
X46748Y-22171D01*
X46748Y-22171D02*
X46785Y-22125D01*
X46785Y-22125D02*
X46829Y-22087D01*
X46829Y-22087D02*
X46880Y-22059D01*
X46880Y-22059D02*
X46936Y-22040D01*
X46936Y-22040D02*
X46994Y-22034D01*
X46994Y-22034D02*
X47052Y-22038D01*
X47052Y-22038D02*
X47108Y-22054D01*
X47108Y-22054D02*
X47160Y-22080D01*
X47160Y-22080D02*
X47206Y-22116D01*
X47206Y-22116D02*
X47245Y-22161D01*
X47245Y-22161D02*
X47274Y-22211D01*
X47274Y-22211D02*
X47292Y-22267D01*
X47292Y-22267D02*
X47299Y-22325D01*
X47299Y-22325D02*
X47300Y-22333D01*
X47300Y-23333D02*
X47294Y-23391D01*
X47294Y-23391D02*
X47277Y-23447D01*
X47277Y-23447D02*
X47249Y-23499D01*
X47249Y-23499D02*
X47212Y-23544D01*
X47212Y-23544D02*
X47167Y-23581D01*
X47167Y-23581D02*
X47116Y-23609D01*
X47116Y-23609D02*
X47060Y-23626D01*
X47060Y-23626D02*
X47002Y-23632D01*
X47002Y-23632D02*
X46944Y-23627D01*
X46944Y-23627D02*
X46888Y-23611D01*
X46888Y-23611D02*
X46836Y-23584D01*
X46836Y-23584D02*
X46791Y-23547D01*
X46791Y-23547D02*
X46753Y-23502D01*
X46753Y-23502D02*
X46725Y-23451D01*
X46725Y-23451D02*
X46707Y-23395D01*
X46707Y-23395D02*
X46701Y-23337D01*
X46701Y-23337D02*
X46705Y-23279D01*
X46705Y-23279D02*
X46722Y-23223D01*
X46722Y-23223D02*
X46748Y-23171D01*
X46748Y-23171D02*
X46785Y-23125D01*
X46785Y-23125D02*
X46829Y-23087D01*
X46829Y-23087D02*
X46880Y-23059D01*
X46880Y-23059D02*
X46936Y-23040D01*
X46936Y-23040D02*
X46994Y-23034D01*
X46994Y-23034D02*
X47052Y-23038D01*
X47052Y-23038D02*
X47108Y-23054D01*
X47108Y-23054D02*
X47160Y-23080D01*
X47160Y-23080D02*
X47206Y-23116D01*
X47206Y-23116D02*
X47245Y-23161D01*
X47245Y-23161D02*
X47274Y-23211D01*
X47274Y-23211D02*
X47292Y-23267D01*
X47292Y-23267D02*
X47299Y-23325D01*
X47299Y-23325D02*
X47300Y-23333D01*
X41700Y-38867D02*
X42300Y-38867D01*
X42300Y-38867D02*
X42300Y-39467D01*
X42300Y-39467D02*
X41700Y-39467D01*
X41700Y-39467D02*
X41700Y-38867D01*
X42300Y-40167D02*
X42294Y-40225D01*
X42294Y-40225D02*
X42277Y-40281D01*
X42277Y-40281D02*
X42249Y-40333D01*
X42249Y-40333D02*
X42212Y-40378D01*
X42212Y-40378D02*
X42167Y-40415D01*
X42167Y-40415D02*
X42116Y-40443D01*
X42116Y-40443D02*
X42060Y-40460D01*
X42060Y-40460D02*
X42002Y-40466D01*
X42002Y-40466D02*
X41944Y-40461D01*
X41944Y-40461D02*
X41888Y-40445D01*
X41888Y-40445D02*
X41836Y-40418D01*
X41836Y-40418D02*
X41791Y-40381D01*
X41791Y-40381D02*
X41753Y-40336D01*
X41753Y-40336D02*
X41725Y-40285D01*
X41725Y-40285D02*
X41707Y-40229D01*
X41707Y-40229D02*
X41701Y-40171D01*
X41701Y-40171D02*
X41705Y-40113D01*
X41705Y-40113D02*
X41722Y-40057D01*
X41722Y-40057D02*
X41748Y-40005D01*
X41748Y-40005D02*
X41785Y-39959D01*
X41785Y-39959D02*
X41829Y-39921D01*
X41829Y-39921D02*
X41880Y-39893D01*
X41880Y-39893D02*
X41936Y-39874D01*
X41936Y-39874D02*
X41994Y-39868D01*
X41994Y-39868D02*
X42052Y-39872D01*
X42052Y-39872D02*
X42108Y-39888D01*
X42108Y-39888D02*
X42160Y-39914D01*
X42160Y-39914D02*
X42206Y-39950D01*
X42206Y-39950D02*
X42245Y-39995D01*
X42245Y-39995D02*
X42274Y-40045D01*
X42274Y-40045D02*
X42292Y-40101D01*
X42292Y-40101D02*
X42299Y-40159D01*
X42299Y-40159D02*
X42300Y-40167D01*
X42300Y-41167D02*
X42294Y-41225D01*
X42294Y-41225D02*
X42277Y-41281D01*
X42277Y-41281D02*
X42249Y-41333D01*
X42249Y-41333D02*
X42212Y-41378D01*
X42212Y-41378D02*
X42167Y-41415D01*
X42167Y-41415D02*
X42116Y-41443D01*
X42116Y-41443D02*
X42060Y-41460D01*
X42060Y-41460D02*
X42002Y-41466D01*
X42002Y-41466D02*
X41944Y-41461D01*
X41944Y-41461D02*
X41888Y-41445D01*
X41888Y-41445D02*
X41836Y-41418D01*
X41836Y-41418D02*
X41791Y-41381D01*
X41791Y-41381D02*
X41753Y-41336D01*
X41753Y-41336D02*
X41725Y-41285D01*
X41725Y-41285D02*
X41707Y-41229D01*
X41707Y-41229D02*
X41701Y-41171D01*
X41701Y-41171D02*
X41705Y-41113D01*
X41705Y-41113D02*
X41722Y-41057D01*
X41722Y-41057D02*
X41748Y-41005D01*
X41748Y-41005D02*
X41785Y-40959D01*
X41785Y-40959D02*
X41829Y-40921D01*
X41829Y-40921D02*
X41880Y-40893D01*
X41880Y-40893D02*
X41936Y-40874D01*
X41936Y-40874D02*
X41994Y-40868D01*
X41994Y-40868D02*
X42052Y-40872D01*
X42052Y-40872D02*
X42108Y-40888D01*
X42108Y-40888D02*
X42160Y-40914D01*
X42160Y-40914D02*
X42206Y-40950D01*
X42206Y-40950D02*
X42245Y-40995D01*
X42245Y-40995D02*
X42274Y-41045D01*
X42274Y-41045D02*
X42292Y-41101D01*
X42292Y-41101D02*
X42299Y-41159D01*
X42299Y-41159D02*
X42300Y-41167D01*
X42300Y-42167D02*
X42294Y-42225D01*
X42294Y-42225D02*
X42277Y-42281D01*
X42277Y-42281D02*
X42249Y-42333D01*
X42249Y-42333D02*
X42212Y-42378D01*
X42212Y-42378D02*
X42167Y-42415D01*
X42167Y-42415D02*
X42116Y-42443D01*
X42116Y-42443D02*
X42060Y-42460D01*
X42060Y-42460D02*
X42002Y-42466D01*
X42002Y-42466D02*
X41944Y-42461D01*
X41944Y-42461D02*
X41888Y-42445D01*
X41888Y-42445D02*
X41836Y-42418D01*
X41836Y-42418D02*
X41791Y-42381D01*
X41791Y-42381D02*
X41753Y-42336D01*
X41753Y-42336D02*
X41725Y-42285D01*
X41725Y-42285D02*
X41707Y-42229D01*
X41707Y-42229D02*
X41701Y-42171D01*
X41701Y-42171D02*
X41705Y-42113D01*
X41705Y-42113D02*
X41722Y-42057D01*
X41722Y-42057D02*
X41748Y-42005D01*
X41748Y-42005D02*
X41785Y-41959D01*
X41785Y-41959D02*
X41829Y-41921D01*
X41829Y-41921D02*
X41880Y-41893D01*
X41880Y-41893D02*
X41936Y-41874D01*
X41936Y-41874D02*
X41994Y-41868D01*
X41994Y-41868D02*
X42052Y-41872D01*
X42052Y-41872D02*
X42108Y-41888D01*
X42108Y-41888D02*
X42160Y-41914D01*
X42160Y-41914D02*
X42206Y-41950D01*
X42206Y-41950D02*
X42245Y-41995D01*
X42245Y-41995D02*
X42274Y-42045D01*
X42274Y-42045D02*
X42292Y-42101D01*
X42292Y-42101D02*
X42299Y-42159D01*
X42299Y-42159D02*
X42300Y-42167D01*
X42300Y-43167D02*
X42294Y-43225D01*
X42294Y-43225D02*
X42277Y-43281D01*
X42277Y-43281D02*
X42249Y-43333D01*
X42249Y-43333D02*
X42212Y-43378D01*
X42212Y-43378D02*
X42167Y-43415D01*
X42167Y-43415D02*
X42116Y-43443D01*
X42116Y-43443D02*
X42060Y-43460D01*
X42060Y-43460D02*
X42002Y-43466D01*
X42002Y-43466D02*
X41944Y-43461D01*
X41944Y-43461D02*
X41888Y-43445D01*
X41888Y-43445D02*
X41836Y-43418D01*
X41836Y-43418D02*
X41791Y-43381D01*
X41791Y-43381D02*
X41753Y-43336D01*
X41753Y-43336D02*
X41725Y-43285D01*
X41725Y-43285D02*
X41707Y-43229D01*
X41707Y-43229D02*
X41701Y-43171D01*
X41701Y-43171D02*
X41705Y-43113D01*
X41705Y-43113D02*
X41722Y-43057D01*
X41722Y-43057D02*
X41748Y-43005D01*
X41748Y-43005D02*
X41785Y-42959D01*
X41785Y-42959D02*
X41829Y-42921D01*
X41829Y-42921D02*
X41880Y-42893D01*
X41880Y-42893D02*
X41936Y-42874D01*
X41936Y-42874D02*
X41994Y-42868D01*
X41994Y-42868D02*
X42052Y-42872D01*
X42052Y-42872D02*
X42108Y-42888D01*
X42108Y-42888D02*
X42160Y-42914D01*
X42160Y-42914D02*
X42206Y-42950D01*
X42206Y-42950D02*
X42245Y-42995D01*
X42245Y-42995D02*
X42274Y-43045D01*
X42274Y-43045D02*
X42292Y-43101D01*
X42292Y-43101D02*
X42299Y-43159D01*
X42299Y-43159D02*
X42300Y-43167D01*
X42300Y-44167D02*
X42294Y-44225D01*
X42294Y-44225D02*
X42277Y-44281D01*
X42277Y-44281D02*
X42249Y-44333D01*
X42249Y-44333D02*
X42212Y-44378D01*
X42212Y-44378D02*
X42167Y-44415D01*
X42167Y-44415D02*
X42116Y-44443D01*
X42116Y-44443D02*
X42060Y-44460D01*
X42060Y-44460D02*
X42002Y-44466D01*
X42002Y-44466D02*
X41944Y-44461D01*
X41944Y-44461D02*
X41888Y-44445D01*
X41888Y-44445D02*
X41836Y-44418D01*
X41836Y-44418D02*
X41791Y-44381D01*
X41791Y-44381D02*
X41753Y-44336D01*
X41753Y-44336D02*
X41725Y-44285D01*
X41725Y-44285D02*
X41707Y-44229D01*
X41707Y-44229D02*
X41701Y-44171D01*
X41701Y-44171D02*
X41705Y-44113D01*
X41705Y-44113D02*
X41722Y-44057D01*
X41722Y-44057D02*
X41748Y-44005D01*
X41748Y-44005D02*
X41785Y-43959D01*
X41785Y-43959D02*
X41829Y-43921D01*
X41829Y-43921D02*
X41880Y-43893D01*
X41880Y-43893D02*
X41936Y-43874D01*
X41936Y-43874D02*
X41994Y-43868D01*
X41994Y-43868D02*
X42052Y-43872D01*
X42052Y-43872D02*
X42108Y-43888D01*
X42108Y-43888D02*
X42160Y-43914D01*
X42160Y-43914D02*
X42206Y-43950D01*
X42206Y-43950D02*
X42245Y-43995D01*
X42245Y-43995D02*
X42274Y-44045D01*
X42274Y-44045D02*
X42292Y-44101D01*
X42292Y-44101D02*
X42299Y-44159D01*
X42299Y-44159D02*
X42300Y-44167D01*
X41700Y-18033D02*
X42300Y-18033D01*
X42300Y-18033D02*
X42300Y-18633D01*
X42300Y-18633D02*
X41700Y-18633D01*
X41700Y-18633D02*
X41700Y-18033D01*
X42300Y-19333D02*
X42294Y-19391D01*
X42294Y-19391D02*
X42277Y-19447D01*
X42277Y-19447D02*
X42249Y-19499D01*
X42249Y-19499D02*
X42212Y-19544D01*
X42212Y-19544D02*
X42167Y-19581D01*
X42167Y-19581D02*
X42116Y-19609D01*
X42116Y-19609D02*
X42060Y-19626D01*
X42060Y-19626D02*
X42002Y-19632D01*
X42002Y-19632D02*
X41944Y-19627D01*
X41944Y-19627D02*
X41888Y-19611D01*
X41888Y-19611D02*
X41836Y-19584D01*
X41836Y-19584D02*
X41791Y-19547D01*
X41791Y-19547D02*
X41753Y-19502D01*
X41753Y-19502D02*
X41725Y-19451D01*
X41725Y-19451D02*
X41707Y-19395D01*
X41707Y-19395D02*
X41701Y-19337D01*
X41701Y-19337D02*
X41705Y-19279D01*
X41705Y-19279D02*
X41722Y-19223D01*
X41722Y-19223D02*
X41748Y-19171D01*
X41748Y-19171D02*
X41785Y-19125D01*
X41785Y-19125D02*
X41829Y-19087D01*
X41829Y-19087D02*
X41880Y-19059D01*
X41880Y-19059D02*
X41936Y-19040D01*
X41936Y-19040D02*
X41994Y-19034D01*
X41994Y-19034D02*
X42052Y-19038D01*
X42052Y-19038D02*
X42108Y-19054D01*
X42108Y-19054D02*
X42160Y-19080D01*
X42160Y-19080D02*
X42206Y-19116D01*
X42206Y-19116D02*
X42245Y-19161D01*
X42245Y-19161D02*
X42274Y-19211D01*
X42274Y-19211D02*
X42292Y-19267D01*
X42292Y-19267D02*
X42299Y-19325D01*
X42299Y-19325D02*
X42300Y-19333D01*
X42300Y-20333D02*
X42294Y-20391D01*
X42294Y-20391D02*
X42277Y-20447D01*
X42277Y-20447D02*
X42249Y-20499D01*
X42249Y-20499D02*
X42212Y-20544D01*
X42212Y-20544D02*
X42167Y-20581D01*
X42167Y-20581D02*
X42116Y-20609D01*
X42116Y-20609D02*
X42060Y-20626D01*
X42060Y-20626D02*
X42002Y-20632D01*
X42002Y-20632D02*
X41944Y-20627D01*
X41944Y-20627D02*
X41888Y-20611D01*
X41888Y-20611D02*
X41836Y-20584D01*
X41836Y-20584D02*
X41791Y-20547D01*
X41791Y-20547D02*
X41753Y-20502D01*
X41753Y-20502D02*
X41725Y-20451D01*
X41725Y-20451D02*
X41707Y-20395D01*
X41707Y-20395D02*
X41701Y-20337D01*
X41701Y-20337D02*
X41705Y-20279D01*
X41705Y-20279D02*
X41722Y-20223D01*
X41722Y-20223D02*
X41748Y-20171D01*
X41748Y-20171D02*
X41785Y-20125D01*
X41785Y-20125D02*
X41829Y-20087D01*
X41829Y-20087D02*
X41880Y-20059D01*
X41880Y-20059D02*
X41936Y-20040D01*
X41936Y-20040D02*
X41994Y-20034D01*
X41994Y-20034D02*
X42052Y-20038D01*
X42052Y-20038D02*
X42108Y-20054D01*
X42108Y-20054D02*
X42160Y-20080D01*
X42160Y-20080D02*
X42206Y-20116D01*
X42206Y-20116D02*
X42245Y-20161D01*
X42245Y-20161D02*
X42274Y-20211D01*
X42274Y-20211D02*
X42292Y-20267D01*
X42292Y-20267D02*
X42299Y-20325D01*
X42299Y-20325D02*
X42300Y-20333D01*
X42300Y-21333D02*
X42294Y-21391D01*
X42294Y-21391D02*
X42277Y-21447D01*
X42277Y-21447D02*
X42249Y-21499D01*
X42249Y-21499D02*
X42212Y-21544D01*
X42212Y-21544D02*
X42167Y-21581D01*
X42167Y-21581D02*
X42116Y-21609D01*
X42116Y-21609D02*
X42060Y-21626D01*
X42060Y-21626D02*
X42002Y-21632D01*
X42002Y-21632D02*
X41944Y-21627D01*
X41944Y-21627D02*
X41888Y-21611D01*
X41888Y-21611D02*
X41836Y-21584D01*
X41836Y-21584D02*
X41791Y-21547D01*
X41791Y-21547D02*
X41753Y-21502D01*
X41753Y-21502D02*
X41725Y-21451D01*
X41725Y-21451D02*
X41707Y-21395D01*
X41707Y-21395D02*
X41701Y-21337D01*
X41701Y-21337D02*
X41705Y-21279D01*
X41705Y-21279D02*
X41722Y-21223D01*
X41722Y-21223D02*
X41748Y-21171D01*
X41748Y-21171D02*
X41785Y-21125D01*
X41785Y-21125D02*
X41829Y-21087D01*
X41829Y-21087D02*
X41880Y-21059D01*
X41880Y-21059D02*
X41936Y-21040D01*
X41936Y-21040D02*
X41994Y-21034D01*
X41994Y-21034D02*
X42052Y-21038D01*
X42052Y-21038D02*
X42108Y-21054D01*
X42108Y-21054D02*
X42160Y-21080D01*
X42160Y-21080D02*
X42206Y-21116D01*
X42206Y-21116D02*
X42245Y-21161D01*
X42245Y-21161D02*
X42274Y-21211D01*
X42274Y-21211D02*
X42292Y-21267D01*
X42292Y-21267D02*
X42299Y-21325D01*
X42299Y-21325D02*
X42300Y-21333D01*
X42300Y-22333D02*
X42294Y-22391D01*
X42294Y-22391D02*
X42277Y-22447D01*
X42277Y-22447D02*
X42249Y-22499D01*
X42249Y-22499D02*
X42212Y-22544D01*
X42212Y-22544D02*
X42167Y-22581D01*
X42167Y-22581D02*
X42116Y-22609D01*
X42116Y-22609D02*
X42060Y-22626D01*
X42060Y-22626D02*
X42002Y-22632D01*
X42002Y-22632D02*
X41944Y-22627D01*
X41944Y-22627D02*
X41888Y-22611D01*
X41888Y-22611D02*
X41836Y-22584D01*
X41836Y-22584D02*
X41791Y-22547D01*
X41791Y-22547D02*
X41753Y-22502D01*
X41753Y-22502D02*
X41725Y-22451D01*
X41725Y-22451D02*
X41707Y-22395D01*
X41707Y-22395D02*
X41701Y-22337D01*
X41701Y-22337D02*
X41705Y-22279D01*
X41705Y-22279D02*
X41722Y-22223D01*
X41722Y-22223D02*
X41748Y-22171D01*
X41748Y-22171D02*
X41785Y-22125D01*
X41785Y-22125D02*
X41829Y-22087D01*
X41829Y-22087D02*
X41880Y-22059D01*
X41880Y-22059D02*
X41936Y-22040D01*
X41936Y-22040D02*
X41994Y-22034D01*
X41994Y-22034D02*
X42052Y-22038D01*
X42052Y-22038D02*
X42108Y-22054D01*
X42108Y-22054D02*
X42160Y-22080D01*
X42160Y-22080D02*
X42206Y-22116D01*
X42206Y-22116D02*
X42245Y-22161D01*
X42245Y-22161D02*
X42274Y-22211D01*
X42274Y-22211D02*
X42292Y-22267D01*
X42292Y-22267D02*
X42299Y-22325D01*
X42299Y-22325D02*
X42300Y-22333D01*
X42300Y-23333D02*
X42294Y-23391D01*
X42294Y-23391D02*
X42277Y-23447D01*
X42277Y-23447D02*
X42249Y-23499D01*
X42249Y-23499D02*
X42212Y-23544D01*
X42212Y-23544D02*
X42167Y-23581D01*
X42167Y-23581D02*
X42116Y-23609D01*
X42116Y-23609D02*
X42060Y-23626D01*
X42060Y-23626D02*
X42002Y-23632D01*
X42002Y-23632D02*
X41944Y-23627D01*
X41944Y-23627D02*
X41888Y-23611D01*
X41888Y-23611D02*
X41836Y-23584D01*
X41836Y-23584D02*
X41791Y-23547D01*
X41791Y-23547D02*
X41753Y-23502D01*
X41753Y-23502D02*
X41725Y-23451D01*
X41725Y-23451D02*
X41707Y-23395D01*
X41707Y-23395D02*
X41701Y-23337D01*
X41701Y-23337D02*
X41705Y-23279D01*
X41705Y-23279D02*
X41722Y-23223D01*
X41722Y-23223D02*
X41748Y-23171D01*
X41748Y-23171D02*
X41785Y-23125D01*
X41785Y-23125D02*
X41829Y-23087D01*
X41829Y-23087D02*
X41880Y-23059D01*
X41880Y-23059D02*
X41936Y-23040D01*
X41936Y-23040D02*
X41994Y-23034D01*
X41994Y-23034D02*
X42052Y-23038D01*
X42052Y-23038D02*
X42108Y-23054D01*
X42108Y-23054D02*
X42160Y-23080D01*
X42160Y-23080D02*
X42206Y-23116D01*
X42206Y-23116D02*
X42245Y-23161D01*
X42245Y-23161D02*
X42274Y-23211D01*
X42274Y-23211D02*
X42292Y-23267D01*
X42292Y-23267D02*
X42299Y-23325D01*
X42299Y-23325D02*
X42300Y-23333D01*
X36700Y-38867D02*
X37300Y-38867D01*
X37300Y-38867D02*
X37300Y-39467D01*
X37300Y-39467D02*
X36700Y-39467D01*
X36700Y-39467D02*
X36700Y-38867D01*
X37300Y-40167D02*
X37294Y-40225D01*
X37294Y-40225D02*
X37277Y-40281D01*
X37277Y-40281D02*
X37249Y-40333D01*
X37249Y-40333D02*
X37212Y-40378D01*
X37212Y-40378D02*
X37167Y-40415D01*
X37167Y-40415D02*
X37116Y-40443D01*
X37116Y-40443D02*
X37060Y-40460D01*
X37060Y-40460D02*
X37002Y-40466D01*
X37002Y-40466D02*
X36944Y-40461D01*
X36944Y-40461D02*
X36888Y-40445D01*
X36888Y-40445D02*
X36836Y-40418D01*
X36836Y-40418D02*
X36791Y-40381D01*
X36791Y-40381D02*
X36753Y-40336D01*
X36753Y-40336D02*
X36725Y-40285D01*
X36725Y-40285D02*
X36707Y-40229D01*
X36707Y-40229D02*
X36701Y-40171D01*
X36701Y-40171D02*
X36705Y-40113D01*
X36705Y-40113D02*
X36722Y-40057D01*
X36722Y-40057D02*
X36748Y-40005D01*
X36748Y-40005D02*
X36785Y-39959D01*
X36785Y-39959D02*
X36829Y-39921D01*
X36829Y-39921D02*
X36880Y-39893D01*
X36880Y-39893D02*
X36936Y-39874D01*
X36936Y-39874D02*
X36994Y-39868D01*
X36994Y-39868D02*
X37052Y-39872D01*
X37052Y-39872D02*
X37108Y-39888D01*
X37108Y-39888D02*
X37160Y-39914D01*
X37160Y-39914D02*
X37206Y-39950D01*
X37206Y-39950D02*
X37245Y-39995D01*
X37245Y-39995D02*
X37274Y-40045D01*
X37274Y-40045D02*
X37292Y-40101D01*
X37292Y-40101D02*
X37299Y-40159D01*
X37299Y-40159D02*
X37300Y-40167D01*
X37300Y-41167D02*
X37294Y-41225D01*
X37294Y-41225D02*
X37277Y-41281D01*
X37277Y-41281D02*
X37249Y-41333D01*
X37249Y-41333D02*
X37212Y-41378D01*
X37212Y-41378D02*
X37167Y-41415D01*
X37167Y-41415D02*
X37116Y-41443D01*
X37116Y-41443D02*
X37060Y-41460D01*
X37060Y-41460D02*
X37002Y-41466D01*
X37002Y-41466D02*
X36944Y-41461D01*
X36944Y-41461D02*
X36888Y-41445D01*
X36888Y-41445D02*
X36836Y-41418D01*
X36836Y-41418D02*
X36791Y-41381D01*
X36791Y-41381D02*
X36753Y-41336D01*
X36753Y-41336D02*
X36725Y-41285D01*
X36725Y-41285D02*
X36707Y-41229D01*
X36707Y-41229D02*
X36701Y-41171D01*
X36701Y-41171D02*
X36705Y-41113D01*
X36705Y-41113D02*
X36722Y-41057D01*
X36722Y-41057D02*
X36748Y-41005D01*
X36748Y-41005D02*
X36785Y-40959D01*
X36785Y-40959D02*
X36829Y-40921D01*
X36829Y-40921D02*
X36880Y-40893D01*
X36880Y-40893D02*
X36936Y-40874D01*
X36936Y-40874D02*
X36994Y-40868D01*
X36994Y-40868D02*
X37052Y-40872D01*
X37052Y-40872D02*
X37108Y-40888D01*
X37108Y-40888D02*
X37160Y-40914D01*
X37160Y-40914D02*
X37206Y-40950D01*
X37206Y-40950D02*
X37245Y-40995D01*
X37245Y-40995D02*
X37274Y-41045D01*
X37274Y-41045D02*
X37292Y-41101D01*
X37292Y-41101D02*
X37299Y-41159D01*
X37299Y-41159D02*
X37300Y-41167D01*
X37300Y-42167D02*
X37294Y-42225D01*
X37294Y-42225D02*
X37277Y-42281D01*
X37277Y-42281D02*
X37249Y-42333D01*
X37249Y-42333D02*
X37212Y-42378D01*
X37212Y-42378D02*
X37167Y-42415D01*
X37167Y-42415D02*
X37116Y-42443D01*
X37116Y-42443D02*
X37060Y-42460D01*
X37060Y-42460D02*
X37002Y-42466D01*
X37002Y-42466D02*
X36944Y-42461D01*
X36944Y-42461D02*
X36888Y-42445D01*
X36888Y-42445D02*
X36836Y-42418D01*
X36836Y-42418D02*
X36791Y-42381D01*
X36791Y-42381D02*
X36753Y-42336D01*
X36753Y-42336D02*
X36725Y-42285D01*
X36725Y-42285D02*
X36707Y-42229D01*
X36707Y-42229D02*
X36701Y-42171D01*
X36701Y-42171D02*
X36705Y-42113D01*
X36705Y-42113D02*
X36722Y-42057D01*
X36722Y-42057D02*
X36748Y-42005D01*
X36748Y-42005D02*
X36785Y-41959D01*
X36785Y-41959D02*
X36829Y-41921D01*
X36829Y-41921D02*
X36880Y-41893D01*
X36880Y-41893D02*
X36936Y-41874D01*
X36936Y-41874D02*
X36994Y-41868D01*
X36994Y-41868D02*
X37052Y-41872D01*
X37052Y-41872D02*
X37108Y-41888D01*
X37108Y-41888D02*
X37160Y-41914D01*
X37160Y-41914D02*
X37206Y-41950D01*
X37206Y-41950D02*
X37245Y-41995D01*
X37245Y-41995D02*
X37274Y-42045D01*
X37274Y-42045D02*
X37292Y-42101D01*
X37292Y-42101D02*
X37299Y-42159D01*
X37299Y-42159D02*
X37300Y-42167D01*
X37300Y-43167D02*
X37294Y-43225D01*
X37294Y-43225D02*
X37277Y-43281D01*
X37277Y-43281D02*
X37249Y-43333D01*
X37249Y-43333D02*
X37212Y-43378D01*
X37212Y-43378D02*
X37167Y-43415D01*
X37167Y-43415D02*
X37116Y-43443D01*
X37116Y-43443D02*
X37060Y-43460D01*
X37060Y-43460D02*
X37002Y-43466D01*
X37002Y-43466D02*
X36944Y-43461D01*
X36944Y-43461D02*
X36888Y-43445D01*
X36888Y-43445D02*
X36836Y-43418D01*
X36836Y-43418D02*
X36791Y-43381D01*
X36791Y-43381D02*
X36753Y-43336D01*
X36753Y-43336D02*
X36725Y-43285D01*
X36725Y-43285D02*
X36707Y-43229D01*
X36707Y-43229D02*
X36701Y-43171D01*
X36701Y-43171D02*
X36705Y-43113D01*
X36705Y-43113D02*
X36722Y-43057D01*
X36722Y-43057D02*
X36748Y-43005D01*
X36748Y-43005D02*
X36785Y-42959D01*
X36785Y-42959D02*
X36829Y-42921D01*
X36829Y-42921D02*
X36880Y-42893D01*
X36880Y-42893D02*
X36936Y-42874D01*
X36936Y-42874D02*
X36994Y-42868D01*
X36994Y-42868D02*
X37052Y-42872D01*
X37052Y-42872D02*
X37108Y-42888D01*
X37108Y-42888D02*
X37160Y-42914D01*
X37160Y-42914D02*
X37206Y-42950D01*
X37206Y-42950D02*
X37245Y-42995D01*
X37245Y-42995D02*
X37274Y-43045D01*
X37274Y-43045D02*
X37292Y-43101D01*
X37292Y-43101D02*
X37299Y-43159D01*
X37299Y-43159D02*
X37300Y-43167D01*
X37300Y-44167D02*
X37294Y-44225D01*
X37294Y-44225D02*
X37277Y-44281D01*
X37277Y-44281D02*
X37249Y-44333D01*
X37249Y-44333D02*
X37212Y-44378D01*
X37212Y-44378D02*
X37167Y-44415D01*
X37167Y-44415D02*
X37116Y-44443D01*
X37116Y-44443D02*
X37060Y-44460D01*
X37060Y-44460D02*
X37002Y-44466D01*
X37002Y-44466D02*
X36944Y-44461D01*
X36944Y-44461D02*
X36888Y-44445D01*
X36888Y-44445D02*
X36836Y-44418D01*
X36836Y-44418D02*
X36791Y-44381D01*
X36791Y-44381D02*
X36753Y-44336D01*
X36753Y-44336D02*
X36725Y-44285D01*
X36725Y-44285D02*
X36707Y-44229D01*
X36707Y-44229D02*
X36701Y-44171D01*
X36701Y-44171D02*
X36705Y-44113D01*
X36705Y-44113D02*
X36722Y-44057D01*
X36722Y-44057D02*
X36748Y-44005D01*
X36748Y-44005D02*
X36785Y-43959D01*
X36785Y-43959D02*
X36829Y-43921D01*
X36829Y-43921D02*
X36880Y-43893D01*
X36880Y-43893D02*
X36936Y-43874D01*
X36936Y-43874D02*
X36994Y-43868D01*
X36994Y-43868D02*
X37052Y-43872D01*
X37052Y-43872D02*
X37108Y-43888D01*
X37108Y-43888D02*
X37160Y-43914D01*
X37160Y-43914D02*
X37206Y-43950D01*
X37206Y-43950D02*
X37245Y-43995D01*
X37245Y-43995D02*
X37274Y-44045D01*
X37274Y-44045D02*
X37292Y-44101D01*
X37292Y-44101D02*
X37299Y-44159D01*
X37299Y-44159D02*
X37300Y-44167D01*
X36700Y-18033D02*
X37300Y-18033D01*
X37300Y-18033D02*
X37300Y-18633D01*
X37300Y-18633D02*
X36700Y-18633D01*
X36700Y-18633D02*
X36700Y-18033D01*
X37300Y-19333D02*
X37294Y-19391D01*
X37294Y-19391D02*
X37277Y-19447D01*
X37277Y-19447D02*
X37249Y-19499D01*
X37249Y-19499D02*
X37212Y-19544D01*
X37212Y-19544D02*
X37167Y-19581D01*
X37167Y-19581D02*
X37116Y-19609D01*
X37116Y-19609D02*
X37060Y-19626D01*
X37060Y-19626D02*
X37002Y-19632D01*
X37002Y-19632D02*
X36944Y-19627D01*
X36944Y-19627D02*
X36888Y-19611D01*
X36888Y-19611D02*
X36836Y-19584D01*
X36836Y-19584D02*
X36791Y-19547D01*
X36791Y-19547D02*
X36753Y-19502D01*
X36753Y-19502D02*
X36725Y-19451D01*
X36725Y-19451D02*
X36707Y-19395D01*
X36707Y-19395D02*
X36701Y-19337D01*
X36701Y-19337D02*
X36705Y-19279D01*
X36705Y-19279D02*
X36722Y-19223D01*
X36722Y-19223D02*
X36748Y-19171D01*
X36748Y-19171D02*
X36785Y-19125D01*
X36785Y-19125D02*
X36829Y-19087D01*
X36829Y-19087D02*
X36880Y-19059D01*
X36880Y-19059D02*
X36936Y-19040D01*
X36936Y-19040D02*
X36994Y-19034D01*
X36994Y-19034D02*
X37052Y-19038D01*
X37052Y-19038D02*
X37108Y-19054D01*
X37108Y-19054D02*
X37160Y-19080D01*
X37160Y-19080D02*
X37206Y-19116D01*
X37206Y-19116D02*
X37245Y-19161D01*
X37245Y-19161D02*
X37274Y-19211D01*
X37274Y-19211D02*
X37292Y-19267D01*
X37292Y-19267D02*
X37299Y-19325D01*
X37299Y-19325D02*
X37300Y-19333D01*
X37300Y-20333D02*
X37294Y-20391D01*
X37294Y-20391D02*
X37277Y-20447D01*
X37277Y-20447D02*
X37249Y-20499D01*
X37249Y-20499D02*
X37212Y-20544D01*
X37212Y-20544D02*
X37167Y-20581D01*
X37167Y-20581D02*
X37116Y-20609D01*
X37116Y-20609D02*
X37060Y-20626D01*
X37060Y-20626D02*
X37002Y-20632D01*
X37002Y-20632D02*
X36944Y-20627D01*
X36944Y-20627D02*
X36888Y-20611D01*
X36888Y-20611D02*
X36836Y-20584D01*
X36836Y-20584D02*
X36791Y-20547D01*
X36791Y-20547D02*
X36753Y-20502D01*
X36753Y-20502D02*
X36725Y-20451D01*
X36725Y-20451D02*
X36707Y-20395D01*
X36707Y-20395D02*
X36701Y-20337D01*
X36701Y-20337D02*
X36705Y-20279D01*
X36705Y-20279D02*
X36722Y-20223D01*
X36722Y-20223D02*
X36748Y-20171D01*
X36748Y-20171D02*
X36785Y-20125D01*
X36785Y-20125D02*
X36829Y-20087D01*
X36829Y-20087D02*
X36880Y-20059D01*
X36880Y-20059D02*
X36936Y-20040D01*
X36936Y-20040D02*
X36994Y-20034D01*
X36994Y-20034D02*
X37052Y-20038D01*
X37052Y-20038D02*
X37108Y-20054D01*
X37108Y-20054D02*
X37160Y-20080D01*
X37160Y-20080D02*
X37206Y-20116D01*
X37206Y-20116D02*
X37245Y-20161D01*
X37245Y-20161D02*
X37274Y-20211D01*
X37274Y-20211D02*
X37292Y-20267D01*
X37292Y-20267D02*
X37299Y-20325D01*
X37299Y-20325D02*
X37300Y-20333D01*
X37300Y-21333D02*
X37294Y-21391D01*
X37294Y-21391D02*
X37277Y-21447D01*
X37277Y-21447D02*
X37249Y-21499D01*
X37249Y-21499D02*
X37212Y-21544D01*
X37212Y-21544D02*
X37167Y-21581D01*
X37167Y-21581D02*
X37116Y-21609D01*
X37116Y-21609D02*
X37060Y-21626D01*
X37060Y-21626D02*
X37002Y-21632D01*
X37002Y-21632D02*
X36944Y-21627D01*
X36944Y-21627D02*
X36888Y-21611D01*
X36888Y-21611D02*
X36836Y-21584D01*
X36836Y-21584D02*
X36791Y-21547D01*
X36791Y-21547D02*
X36753Y-21502D01*
X36753Y-21502D02*
X36725Y-21451D01*
X36725Y-21451D02*
X36707Y-21395D01*
X36707Y-21395D02*
X36701Y-21337D01*
X36701Y-21337D02*
X36705Y-21279D01*
X36705Y-21279D02*
X36722Y-21223D01*
X36722Y-21223D02*
X36748Y-21171D01*
X36748Y-21171D02*
X36785Y-21125D01*
X36785Y-21125D02*
X36829Y-21087D01*
X36829Y-21087D02*
X36880Y-21059D01*
X36880Y-21059D02*
X36936Y-21040D01*
X36936Y-21040D02*
X36994Y-21034D01*
X36994Y-21034D02*
X37052Y-21038D01*
X37052Y-21038D02*
X37108Y-21054D01*
X37108Y-21054D02*
X37160Y-21080D01*
X37160Y-21080D02*
X37206Y-21116D01*
X37206Y-21116D02*
X37245Y-21161D01*
X37245Y-21161D02*
X37274Y-21211D01*
X37274Y-21211D02*
X37292Y-21267D01*
X37292Y-21267D02*
X37299Y-21325D01*
X37299Y-21325D02*
X37300Y-21333D01*
X37300Y-22333D02*
X37294Y-22391D01*
X37294Y-22391D02*
X37277Y-22447D01*
X37277Y-22447D02*
X37249Y-22499D01*
X37249Y-22499D02*
X37212Y-22544D01*
X37212Y-22544D02*
X37167Y-22581D01*
X37167Y-22581D02*
X37116Y-22609D01*
X37116Y-22609D02*
X37060Y-22626D01*
X37060Y-22626D02*
X37002Y-22632D01*
X37002Y-22632D02*
X36944Y-22627D01*
X36944Y-22627D02*
X36888Y-22611D01*
X36888Y-22611D02*
X36836Y-22584D01*
X36836Y-22584D02*
X36791Y-22547D01*
X36791Y-22547D02*
X36753Y-22502D01*
X36753Y-22502D02*
X36725Y-22451D01*
X36725Y-22451D02*
X36707Y-22395D01*
X36707Y-22395D02*
X36701Y-22337D01*
X36701Y-22337D02*
X36705Y-22279D01*
X36705Y-22279D02*
X36722Y-22223D01*
X36722Y-22223D02*
X36748Y-22171D01*
X36748Y-22171D02*
X36785Y-22125D01*
X36785Y-22125D02*
X36829Y-22087D01*
X36829Y-22087D02*
X36880Y-22059D01*
X36880Y-22059D02*
X36936Y-22040D01*
X36936Y-22040D02*
X36994Y-22034D01*
X36994Y-22034D02*
X37052Y-22038D01*
X37052Y-22038D02*
X37108Y-22054D01*
X37108Y-22054D02*
X37160Y-22080D01*
X37160Y-22080D02*
X37206Y-22116D01*
X37206Y-22116D02*
X37245Y-22161D01*
X37245Y-22161D02*
X37274Y-22211D01*
X37274Y-22211D02*
X37292Y-22267D01*
X37292Y-22267D02*
X37299Y-22325D01*
X37299Y-22325D02*
X37300Y-22333D01*
X37300Y-23333D02*
X37294Y-23391D01*
X37294Y-23391D02*
X37277Y-23447D01*
X37277Y-23447D02*
X37249Y-23499D01*
X37249Y-23499D02*
X37212Y-23544D01*
X37212Y-23544D02*
X37167Y-23581D01*
X37167Y-23581D02*
X37116Y-23609D01*
X37116Y-23609D02*
X37060Y-23626D01*
X37060Y-23626D02*
X37002Y-23632D01*
X37002Y-23632D02*
X36944Y-23627D01*
X36944Y-23627D02*
X36888Y-23611D01*
X36888Y-23611D02*
X36836Y-23584D01*
X36836Y-23584D02*
X36791Y-23547D01*
X36791Y-23547D02*
X36753Y-23502D01*
X36753Y-23502D02*
X36725Y-23451D01*
X36725Y-23451D02*
X36707Y-23395D01*
X36707Y-23395D02*
X36701Y-23337D01*
X36701Y-23337D02*
X36705Y-23279D01*
X36705Y-23279D02*
X36722Y-23223D01*
X36722Y-23223D02*
X36748Y-23171D01*
X36748Y-23171D02*
X36785Y-23125D01*
X36785Y-23125D02*
X36829Y-23087D01*
X36829Y-23087D02*
X36880Y-23059D01*
X36880Y-23059D02*
X36936Y-23040D01*
X36936Y-23040D02*
X36994Y-23034D01*
X36994Y-23034D02*
X37052Y-23038D01*
X37052Y-23038D02*
X37108Y-23054D01*
X37108Y-23054D02*
X37160Y-23080D01*
X37160Y-23080D02*
X37206Y-23116D01*
X37206Y-23116D02*
X37245Y-23161D01*
X37245Y-23161D02*
X37274Y-23211D01*
X37274Y-23211D02*
X37292Y-23267D01*
X37292Y-23267D02*
X37299Y-23325D01*
X37299Y-23325D02*
X37300Y-23333D01*
X31700Y-38867D02*
X32300Y-38867D01*
X32300Y-38867D02*
X32300Y-39467D01*
X32300Y-39467D02*
X31700Y-39467D01*
X31700Y-39467D02*
X31700Y-38867D01*
X32300Y-40167D02*
X32294Y-40225D01*
X32294Y-40225D02*
X32277Y-40281D01*
X32277Y-40281D02*
X32249Y-40333D01*
X32249Y-40333D02*
X32212Y-40378D01*
X32212Y-40378D02*
X32167Y-40415D01*
X32167Y-40415D02*
X32116Y-40443D01*
X32116Y-40443D02*
X32060Y-40460D01*
X32060Y-40460D02*
X32002Y-40466D01*
X32002Y-40466D02*
X31944Y-40461D01*
X31944Y-40461D02*
X31888Y-40445D01*
X31888Y-40445D02*
X31836Y-40418D01*
X31836Y-40418D02*
X31791Y-40381D01*
X31791Y-40381D02*
X31753Y-40336D01*
X31753Y-40336D02*
X31725Y-40285D01*
X31725Y-40285D02*
X31707Y-40229D01*
X31707Y-40229D02*
X31701Y-40171D01*
X31701Y-40171D02*
X31705Y-40113D01*
X31705Y-40113D02*
X31722Y-40057D01*
X31722Y-40057D02*
X31748Y-40005D01*
X31748Y-40005D02*
X31785Y-39959D01*
X31785Y-39959D02*
X31829Y-39921D01*
X31829Y-39921D02*
X31880Y-39893D01*
X31880Y-39893D02*
X31936Y-39874D01*
X31936Y-39874D02*
X31994Y-39868D01*
X31994Y-39868D02*
X32052Y-39872D01*
X32052Y-39872D02*
X32108Y-39888D01*
X32108Y-39888D02*
X32160Y-39914D01*
X32160Y-39914D02*
X32206Y-39950D01*
X32206Y-39950D02*
X32245Y-39995D01*
X32245Y-39995D02*
X32274Y-40045D01*
X32274Y-40045D02*
X32292Y-40101D01*
X32292Y-40101D02*
X32299Y-40159D01*
X32299Y-40159D02*
X32300Y-40167D01*
X32300Y-41167D02*
X32294Y-41225D01*
X32294Y-41225D02*
X32277Y-41281D01*
X32277Y-41281D02*
X32249Y-41333D01*
X32249Y-41333D02*
X32212Y-41378D01*
X32212Y-41378D02*
X32167Y-41415D01*
X32167Y-41415D02*
X32116Y-41443D01*
X32116Y-41443D02*
X32060Y-41460D01*
X32060Y-41460D02*
X32002Y-41466D01*
X32002Y-41466D02*
X31944Y-41461D01*
X31944Y-41461D02*
X31888Y-41445D01*
X31888Y-41445D02*
X31836Y-41418D01*
X31836Y-41418D02*
X31791Y-41381D01*
X31791Y-41381D02*
X31753Y-41336D01*
X31753Y-41336D02*
X31725Y-41285D01*
X31725Y-41285D02*
X31707Y-41229D01*
X31707Y-41229D02*
X31701Y-41171D01*
X31701Y-41171D02*
X31705Y-41113D01*
X31705Y-41113D02*
X31722Y-41057D01*
X31722Y-41057D02*
X31748Y-41005D01*
X31748Y-41005D02*
X31785Y-40959D01*
X31785Y-40959D02*
X31829Y-40921D01*
X31829Y-40921D02*
X31880Y-40893D01*
X31880Y-40893D02*
X31936Y-40874D01*
X31936Y-40874D02*
X31994Y-40868D01*
X31994Y-40868D02*
X32052Y-40872D01*
X32052Y-40872D02*
X32108Y-40888D01*
X32108Y-40888D02*
X32160Y-40914D01*
X32160Y-40914D02*
X32206Y-40950D01*
X32206Y-40950D02*
X32245Y-40995D01*
X32245Y-40995D02*
X32274Y-41045D01*
X32274Y-41045D02*
X32292Y-41101D01*
X32292Y-41101D02*
X32299Y-41159D01*
X32299Y-41159D02*
X32300Y-41167D01*
X32300Y-42167D02*
X32294Y-42225D01*
X32294Y-42225D02*
X32277Y-42281D01*
X32277Y-42281D02*
X32249Y-42333D01*
X32249Y-42333D02*
X32212Y-42378D01*
X32212Y-42378D02*
X32167Y-42415D01*
X32167Y-42415D02*
X32116Y-42443D01*
X32116Y-42443D02*
X32060Y-42460D01*
X32060Y-42460D02*
X32002Y-42466D01*
X32002Y-42466D02*
X31944Y-42461D01*
X31944Y-42461D02*
X31888Y-42445D01*
X31888Y-42445D02*
X31836Y-42418D01*
X31836Y-42418D02*
X31791Y-42381D01*
X31791Y-42381D02*
X31753Y-42336D01*
X31753Y-42336D02*
X31725Y-42285D01*
X31725Y-42285D02*
X31707Y-42229D01*
X31707Y-42229D02*
X31701Y-42171D01*
X31701Y-42171D02*
X31705Y-42113D01*
X31705Y-42113D02*
X31722Y-42057D01*
X31722Y-42057D02*
X31748Y-42005D01*
X31748Y-42005D02*
X31785Y-41959D01*
X31785Y-41959D02*
X31829Y-41921D01*
X31829Y-41921D02*
X31880Y-41893D01*
X31880Y-41893D02*
X31936Y-41874D01*
X31936Y-41874D02*
X31994Y-41868D01*
X31994Y-41868D02*
X32052Y-41872D01*
X32052Y-41872D02*
X32108Y-41888D01*
X32108Y-41888D02*
X32160Y-41914D01*
X32160Y-41914D02*
X32206Y-41950D01*
X32206Y-41950D02*
X32245Y-41995D01*
X32245Y-41995D02*
X32274Y-42045D01*
X32274Y-42045D02*
X32292Y-42101D01*
X32292Y-42101D02*
X32299Y-42159D01*
X32299Y-42159D02*
X32300Y-42167D01*
X32300Y-43167D02*
X32294Y-43225D01*
X32294Y-43225D02*
X32277Y-43281D01*
X32277Y-43281D02*
X32249Y-43333D01*
X32249Y-43333D02*
X32212Y-43378D01*
X32212Y-43378D02*
X32167Y-43415D01*
X32167Y-43415D02*
X32116Y-43443D01*
X32116Y-43443D02*
X32060Y-43460D01*
X32060Y-43460D02*
X32002Y-43466D01*
X32002Y-43466D02*
X31944Y-43461D01*
X31944Y-43461D02*
X31888Y-43445D01*
X31888Y-43445D02*
X31836Y-43418D01*
X31836Y-43418D02*
X31791Y-43381D01*
X31791Y-43381D02*
X31753Y-43336D01*
X31753Y-43336D02*
X31725Y-43285D01*
X31725Y-43285D02*
X31707Y-43229D01*
X31707Y-43229D02*
X31701Y-43171D01*
X31701Y-43171D02*
X31705Y-43113D01*
X31705Y-43113D02*
X31722Y-43057D01*
X31722Y-43057D02*
X31748Y-43005D01*
X31748Y-43005D02*
X31785Y-42959D01*
X31785Y-42959D02*
X31829Y-42921D01*
X31829Y-42921D02*
X31880Y-42893D01*
X31880Y-42893D02*
X31936Y-42874D01*
X31936Y-42874D02*
X31994Y-42868D01*
X31994Y-42868D02*
X32052Y-42872D01*
X32052Y-42872D02*
X32108Y-42888D01*
X32108Y-42888D02*
X32160Y-42914D01*
X32160Y-42914D02*
X32206Y-42950D01*
X32206Y-42950D02*
X32245Y-42995D01*
X32245Y-42995D02*
X32274Y-43045D01*
X32274Y-43045D02*
X32292Y-43101D01*
X32292Y-43101D02*
X32299Y-43159D01*
X32299Y-43159D02*
X32300Y-43167D01*
X32300Y-44167D02*
X32294Y-44225D01*
X32294Y-44225D02*
X32277Y-44281D01*
X32277Y-44281D02*
X32249Y-44333D01*
X32249Y-44333D02*
X32212Y-44378D01*
X32212Y-44378D02*
X32167Y-44415D01*
X32167Y-44415D02*
X32116Y-44443D01*
X32116Y-44443D02*
X32060Y-44460D01*
X32060Y-44460D02*
X32002Y-44466D01*
X32002Y-44466D02*
X31944Y-44461D01*
X31944Y-44461D02*
X31888Y-44445D01*
X31888Y-44445D02*
X31836Y-44418D01*
X31836Y-44418D02*
X31791Y-44381D01*
X31791Y-44381D02*
X31753Y-44336D01*
X31753Y-44336D02*
X31725Y-44285D01*
X31725Y-44285D02*
X31707Y-44229D01*
X31707Y-44229D02*
X31701Y-44171D01*
X31701Y-44171D02*
X31705Y-44113D01*
X31705Y-44113D02*
X31722Y-44057D01*
X31722Y-44057D02*
X31748Y-44005D01*
X31748Y-44005D02*
X31785Y-43959D01*
X31785Y-43959D02*
X31829Y-43921D01*
X31829Y-43921D02*
X31880Y-43893D01*
X31880Y-43893D02*
X31936Y-43874D01*
X31936Y-43874D02*
X31994Y-43868D01*
X31994Y-43868D02*
X32052Y-43872D01*
X32052Y-43872D02*
X32108Y-43888D01*
X32108Y-43888D02*
X32160Y-43914D01*
X32160Y-43914D02*
X32206Y-43950D01*
X32206Y-43950D02*
X32245Y-43995D01*
X32245Y-43995D02*
X32274Y-44045D01*
X32274Y-44045D02*
X32292Y-44101D01*
X32292Y-44101D02*
X32299Y-44159D01*
X32299Y-44159D02*
X32300Y-44167D01*
X31700Y-18033D02*
X32300Y-18033D01*
X32300Y-18033D02*
X32300Y-18633D01*
X32300Y-18633D02*
X31700Y-18633D01*
X31700Y-18633D02*
X31700Y-18033D01*
X32300Y-19333D02*
X32294Y-19391D01*
X32294Y-19391D02*
X32277Y-19447D01*
X32277Y-19447D02*
X32249Y-19499D01*
X32249Y-19499D02*
X32212Y-19544D01*
X32212Y-19544D02*
X32167Y-19581D01*
X32167Y-19581D02*
X32116Y-19609D01*
X32116Y-19609D02*
X32060Y-19626D01*
X32060Y-19626D02*
X32002Y-19632D01*
X32002Y-19632D02*
X31944Y-19627D01*
X31944Y-19627D02*
X31888Y-19611D01*
X31888Y-19611D02*
X31836Y-19584D01*
X31836Y-19584D02*
X31791Y-19547D01*
X31791Y-19547D02*
X31753Y-19502D01*
X31753Y-19502D02*
X31725Y-19451D01*
X31725Y-19451D02*
X31707Y-19395D01*
X31707Y-19395D02*
X31701Y-19337D01*
X31701Y-19337D02*
X31705Y-19279D01*
X31705Y-19279D02*
X31722Y-19223D01*
X31722Y-19223D02*
X31748Y-19171D01*
X31748Y-19171D02*
X31785Y-19125D01*
X31785Y-19125D02*
X31829Y-19087D01*
X31829Y-19087D02*
X31880Y-19059D01*
X31880Y-19059D02*
X31936Y-19040D01*
X31936Y-19040D02*
X31994Y-19034D01*
X31994Y-19034D02*
X32052Y-19038D01*
X32052Y-19038D02*
X32108Y-19054D01*
X32108Y-19054D02*
X32160Y-19080D01*
X32160Y-19080D02*
X32206Y-19116D01*
X32206Y-19116D02*
X32245Y-19161D01*
X32245Y-19161D02*
X32274Y-19211D01*
X32274Y-19211D02*
X32292Y-19267D01*
X32292Y-19267D02*
X32299Y-19325D01*
X32299Y-19325D02*
X32300Y-19333D01*
X32300Y-20333D02*
X32294Y-20391D01*
X32294Y-20391D02*
X32277Y-20447D01*
X32277Y-20447D02*
X32249Y-20499D01*
X32249Y-20499D02*
X32212Y-20544D01*
X32212Y-20544D02*
X32167Y-20581D01*
X32167Y-20581D02*
X32116Y-20609D01*
X32116Y-20609D02*
X32060Y-20626D01*
X32060Y-20626D02*
X32002Y-20632D01*
X32002Y-20632D02*
X31944Y-20627D01*
X31944Y-20627D02*
X31888Y-20611D01*
X31888Y-20611D02*
X31836Y-20584D01*
X31836Y-20584D02*
X31791Y-20547D01*
X31791Y-20547D02*
X31753Y-20502D01*
X31753Y-20502D02*
X31725Y-20451D01*
X31725Y-20451D02*
X31707Y-20395D01*
X31707Y-20395D02*
X31701Y-20337D01*
X31701Y-20337D02*
X31705Y-20279D01*
X31705Y-20279D02*
X31722Y-20223D01*
X31722Y-20223D02*
X31748Y-20171D01*
X31748Y-20171D02*
X31785Y-20125D01*
X31785Y-20125D02*
X31829Y-20087D01*
X31829Y-20087D02*
X31880Y-20059D01*
X31880Y-20059D02*
X31936Y-20040D01*
X31936Y-20040D02*
X31994Y-20034D01*
X31994Y-20034D02*
X32052Y-20038D01*
X32052Y-20038D02*
X32108Y-20054D01*
X32108Y-20054D02*
X32160Y-20080D01*
X32160Y-20080D02*
X32206Y-20116D01*
X32206Y-20116D02*
X32245Y-20161D01*
X32245Y-20161D02*
X32274Y-20211D01*
X32274Y-20211D02*
X32292Y-20267D01*
X32292Y-20267D02*
X32299Y-20325D01*
X32299Y-20325D02*
X32300Y-20333D01*
X32300Y-21333D02*
X32294Y-21391D01*
X32294Y-21391D02*
X32277Y-21447D01*
X32277Y-21447D02*
X32249Y-21499D01*
X32249Y-21499D02*
X32212Y-21544D01*
X32212Y-21544D02*
X32167Y-21581D01*
X32167Y-21581D02*
X32116Y-21609D01*
X32116Y-21609D02*
X32060Y-21626D01*
X32060Y-21626D02*
X32002Y-21632D01*
X32002Y-21632D02*
X31944Y-21627D01*
X31944Y-21627D02*
X31888Y-21611D01*
X31888Y-21611D02*
X31836Y-21584D01*
X31836Y-21584D02*
X31791Y-21547D01*
X31791Y-21547D02*
X31753Y-21502D01*
X31753Y-21502D02*
X31725Y-21451D01*
X31725Y-21451D02*
X31707Y-21395D01*
X31707Y-21395D02*
X31701Y-21337D01*
X31701Y-21337D02*
X31705Y-21279D01*
X31705Y-21279D02*
X31722Y-21223D01*
X31722Y-21223D02*
X31748Y-21171D01*
X31748Y-21171D02*
X31785Y-21125D01*
X31785Y-21125D02*
X31829Y-21087D01*
X31829Y-21087D02*
X31880Y-21059D01*
X31880Y-21059D02*
X31936Y-21040D01*
X31936Y-21040D02*
X31994Y-21034D01*
X31994Y-21034D02*
X32052Y-21038D01*
X32052Y-21038D02*
X32108Y-21054D01*
X32108Y-21054D02*
X32160Y-21080D01*
X32160Y-21080D02*
X32206Y-21116D01*
X32206Y-21116D02*
X32245Y-21161D01*
X32245Y-21161D02*
X32274Y-21211D01*
X32274Y-21211D02*
X32292Y-21267D01*
X32292Y-21267D02*
X32299Y-21325D01*
X32299Y-21325D02*
X32300Y-21333D01*
X32300Y-22333D02*
X32294Y-22391D01*
X32294Y-22391D02*
X32277Y-22447D01*
X32277Y-22447D02*
X32249Y-22499D01*
X32249Y-22499D02*
X32212Y-22544D01*
X32212Y-22544D02*
X32167Y-22581D01*
X32167Y-22581D02*
X32116Y-22609D01*
X32116Y-22609D02*
X32060Y-22626D01*
X32060Y-22626D02*
X32002Y-22632D01*
X32002Y-22632D02*
X31944Y-22627D01*
X31944Y-22627D02*
X31888Y-22611D01*
X31888Y-22611D02*
X31836Y-22584D01*
X31836Y-22584D02*
X31791Y-22547D01*
X31791Y-22547D02*
X31753Y-22502D01*
X31753Y-22502D02*
X31725Y-22451D01*
X31725Y-22451D02*
X31707Y-22395D01*
X31707Y-22395D02*
X31701Y-22337D01*
X31701Y-22337D02*
X31705Y-22279D01*
X31705Y-22279D02*
X31722Y-22223D01*
X31722Y-22223D02*
X31748Y-22171D01*
X31748Y-22171D02*
X31785Y-22125D01*
X31785Y-22125D02*
X31829Y-22087D01*
X31829Y-22087D02*
X31880Y-22059D01*
X31880Y-22059D02*
X31936Y-22040D01*
X31936Y-22040D02*
X31994Y-22034D01*
X31994Y-22034D02*
X32052Y-22038D01*
X32052Y-22038D02*
X32108Y-22054D01*
X32108Y-22054D02*
X32160Y-22080D01*
X32160Y-22080D02*
X32206Y-22116D01*
X32206Y-22116D02*
X32245Y-22161D01*
X32245Y-22161D02*
X32274Y-22211D01*
X32274Y-22211D02*
X32292Y-22267D01*
X32292Y-22267D02*
X32299Y-22325D01*
X32299Y-22325D02*
X32300Y-22333D01*
X32300Y-23333D02*
X32294Y-23391D01*
X32294Y-23391D02*
X32277Y-23447D01*
X32277Y-23447D02*
X32249Y-23499D01*
X32249Y-23499D02*
X32212Y-23544D01*
X32212Y-23544D02*
X32167Y-23581D01*
X32167Y-23581D02*
X32116Y-23609D01*
X32116Y-23609D02*
X32060Y-23626D01*
X32060Y-23626D02*
X32002Y-23632D01*
X32002Y-23632D02*
X31944Y-23627D01*
X31944Y-23627D02*
X31888Y-23611D01*
X31888Y-23611D02*
X31836Y-23584D01*
X31836Y-23584D02*
X31791Y-23547D01*
X31791Y-23547D02*
X31753Y-23502D01*
X31753Y-23502D02*
X31725Y-23451D01*
X31725Y-23451D02*
X31707Y-23395D01*
X31707Y-23395D02*
X31701Y-23337D01*
X31701Y-23337D02*
X31705Y-23279D01*
X31705Y-23279D02*
X31722Y-23223D01*
X31722Y-23223D02*
X31748Y-23171D01*
X31748Y-23171D02*
X31785Y-23125D01*
X31785Y-23125D02*
X31829Y-23087D01*
X31829Y-23087D02*
X31880Y-23059D01*
X31880Y-23059D02*
X31936Y-23040D01*
X31936Y-23040D02*
X31994Y-23034D01*
X31994Y-23034D02*
X32052Y-23038D01*
X32052Y-23038D02*
X32108Y-23054D01*
X32108Y-23054D02*
X32160Y-23080D01*
X32160Y-23080D02*
X32206Y-23116D01*
X32206Y-23116D02*
X32245Y-23161D01*
X32245Y-23161D02*
X32274Y-23211D01*
X32274Y-23211D02*
X32292Y-23267D01*
X32292Y-23267D02*
X32299Y-23325D01*
X32299Y-23325D02*
X32300Y-23333D01*
X26700Y-38867D02*
X27300Y-38867D01*
X27300Y-38867D02*
X27300Y-39467D01*
X27300Y-39467D02*
X26700Y-39467D01*
X26700Y-39467D02*
X26700Y-38867D01*
X27300Y-40167D02*
X27294Y-40225D01*
X27294Y-40225D02*
X27277Y-40281D01*
X27277Y-40281D02*
X27249Y-40333D01*
X27249Y-40333D02*
X27212Y-40378D01*
X27212Y-40378D02*
X27167Y-40415D01*
X27167Y-40415D02*
X27116Y-40443D01*
X27116Y-40443D02*
X27060Y-40460D01*
X27060Y-40460D02*
X27002Y-40466D01*
X27002Y-40466D02*
X26944Y-40461D01*
X26944Y-40461D02*
X26888Y-40445D01*
X26888Y-40445D02*
X26836Y-40418D01*
X26836Y-40418D02*
X26791Y-40381D01*
X26791Y-40381D02*
X26753Y-40336D01*
X26753Y-40336D02*
X26725Y-40285D01*
X26725Y-40285D02*
X26707Y-40229D01*
X26707Y-40229D02*
X26701Y-40171D01*
X26701Y-40171D02*
X26705Y-40113D01*
X26705Y-40113D02*
X26722Y-40057D01*
X26722Y-40057D02*
X26748Y-40005D01*
X26748Y-40005D02*
X26785Y-39959D01*
X26785Y-39959D02*
X26829Y-39921D01*
X26829Y-39921D02*
X26880Y-39893D01*
X26880Y-39893D02*
X26936Y-39874D01*
X26936Y-39874D02*
X26994Y-39868D01*
X26994Y-39868D02*
X27052Y-39872D01*
X27052Y-39872D02*
X27108Y-39888D01*
X27108Y-39888D02*
X27160Y-39914D01*
X27160Y-39914D02*
X27206Y-39950D01*
X27206Y-39950D02*
X27245Y-39995D01*
X27245Y-39995D02*
X27274Y-40045D01*
X27274Y-40045D02*
X27292Y-40101D01*
X27292Y-40101D02*
X27299Y-40159D01*
X27299Y-40159D02*
X27300Y-40167D01*
X27300Y-41167D02*
X27294Y-41225D01*
X27294Y-41225D02*
X27277Y-41281D01*
X27277Y-41281D02*
X27249Y-41333D01*
X27249Y-41333D02*
X27212Y-41378D01*
X27212Y-41378D02*
X27167Y-41415D01*
X27167Y-41415D02*
X27116Y-41443D01*
X27116Y-41443D02*
X27060Y-41460D01*
X27060Y-41460D02*
X27002Y-41466D01*
X27002Y-41466D02*
X26944Y-41461D01*
X26944Y-41461D02*
X26888Y-41445D01*
X26888Y-41445D02*
X26836Y-41418D01*
X26836Y-41418D02*
X26791Y-41381D01*
X26791Y-41381D02*
X26753Y-41336D01*
X26753Y-41336D02*
X26725Y-41285D01*
X26725Y-41285D02*
X26707Y-41229D01*
X26707Y-41229D02*
X26701Y-41171D01*
X26701Y-41171D02*
X26705Y-41113D01*
X26705Y-41113D02*
X26722Y-41057D01*
X26722Y-41057D02*
X26748Y-41005D01*
X26748Y-41005D02*
X26785Y-40959D01*
X26785Y-40959D02*
X26829Y-40921D01*
X26829Y-40921D02*
X26880Y-40893D01*
X26880Y-40893D02*
X26936Y-40874D01*
X26936Y-40874D02*
X26994Y-40868D01*
X26994Y-40868D02*
X27052Y-40872D01*
X27052Y-40872D02*
X27108Y-40888D01*
X27108Y-40888D02*
X27160Y-40914D01*
X27160Y-40914D02*
X27206Y-40950D01*
X27206Y-40950D02*
X27245Y-40995D01*
X27245Y-40995D02*
X27274Y-41045D01*
X27274Y-41045D02*
X27292Y-41101D01*
X27292Y-41101D02*
X27299Y-41159D01*
X27299Y-41159D02*
X27300Y-41167D01*
X27300Y-42167D02*
X27294Y-42225D01*
X27294Y-42225D02*
X27277Y-42281D01*
X27277Y-42281D02*
X27249Y-42333D01*
X27249Y-42333D02*
X27212Y-42378D01*
X27212Y-42378D02*
X27167Y-42415D01*
X27167Y-42415D02*
X27116Y-42443D01*
X27116Y-42443D02*
X27060Y-42460D01*
X27060Y-42460D02*
X27002Y-42466D01*
X27002Y-42466D02*
X26944Y-42461D01*
X26944Y-42461D02*
X26888Y-42445D01*
X26888Y-42445D02*
X26836Y-42418D01*
X26836Y-42418D02*
X26791Y-42381D01*
X26791Y-42381D02*
X26753Y-42336D01*
X26753Y-42336D02*
X26725Y-42285D01*
X26725Y-42285D02*
X26707Y-42229D01*
X26707Y-42229D02*
X26701Y-42171D01*
X26701Y-42171D02*
X26705Y-42113D01*
X26705Y-42113D02*
X26722Y-42057D01*
X26722Y-42057D02*
X26748Y-42005D01*
X26748Y-42005D02*
X26785Y-41959D01*
X26785Y-41959D02*
X26829Y-41921D01*
X26829Y-41921D02*
X26880Y-41893D01*
X26880Y-41893D02*
X26936Y-41874D01*
X26936Y-41874D02*
X26994Y-41868D01*
X26994Y-41868D02*
X27052Y-41872D01*
X27052Y-41872D02*
X27108Y-41888D01*
X27108Y-41888D02*
X27160Y-41914D01*
X27160Y-41914D02*
X27206Y-41950D01*
X27206Y-41950D02*
X27245Y-41995D01*
X27245Y-41995D02*
X27274Y-42045D01*
X27274Y-42045D02*
X27292Y-42101D01*
X27292Y-42101D02*
X27299Y-42159D01*
X27299Y-42159D02*
X27300Y-42167D01*
X27300Y-43167D02*
X27294Y-43225D01*
X27294Y-43225D02*
X27277Y-43281D01*
X27277Y-43281D02*
X27249Y-43333D01*
X27249Y-43333D02*
X27212Y-43378D01*
X27212Y-43378D02*
X27167Y-43415D01*
X27167Y-43415D02*
X27116Y-43443D01*
X27116Y-43443D02*
X27060Y-43460D01*
X27060Y-43460D02*
X27002Y-43466D01*
X27002Y-43466D02*
X26944Y-43461D01*
X26944Y-43461D02*
X26888Y-43445D01*
X26888Y-43445D02*
X26836Y-43418D01*
X26836Y-43418D02*
X26791Y-43381D01*
X26791Y-43381D02*
X26753Y-43336D01*
X26753Y-43336D02*
X26725Y-43285D01*
X26725Y-43285D02*
X26707Y-43229D01*
X26707Y-43229D02*
X26701Y-43171D01*
X26701Y-43171D02*
X26705Y-43113D01*
X26705Y-43113D02*
X26722Y-43057D01*
X26722Y-43057D02*
X26748Y-43005D01*
X26748Y-43005D02*
X26785Y-42959D01*
X26785Y-42959D02*
X26829Y-42921D01*
X26829Y-42921D02*
X26880Y-42893D01*
X26880Y-42893D02*
X26936Y-42874D01*
X26936Y-42874D02*
X26994Y-42868D01*
X26994Y-42868D02*
X27052Y-42872D01*
X27052Y-42872D02*
X27108Y-42888D01*
X27108Y-42888D02*
X27160Y-42914D01*
X27160Y-42914D02*
X27206Y-42950D01*
X27206Y-42950D02*
X27245Y-42995D01*
X27245Y-42995D02*
X27274Y-43045D01*
X27274Y-43045D02*
X27292Y-43101D01*
X27292Y-43101D02*
X27299Y-43159D01*
X27299Y-43159D02*
X27300Y-43167D01*
X27300Y-44167D02*
X27294Y-44225D01*
X27294Y-44225D02*
X27277Y-44281D01*
X27277Y-44281D02*
X27249Y-44333D01*
X27249Y-44333D02*
X27212Y-44378D01*
X27212Y-44378D02*
X27167Y-44415D01*
X27167Y-44415D02*
X27116Y-44443D01*
X27116Y-44443D02*
X27060Y-44460D01*
X27060Y-44460D02*
X27002Y-44466D01*
X27002Y-44466D02*
X26944Y-44461D01*
X26944Y-44461D02*
X26888Y-44445D01*
X26888Y-44445D02*
X26836Y-44418D01*
X26836Y-44418D02*
X26791Y-44381D01*
X26791Y-44381D02*
X26753Y-44336D01*
X26753Y-44336D02*
X26725Y-44285D01*
X26725Y-44285D02*
X26707Y-44229D01*
X26707Y-44229D02*
X26701Y-44171D01*
X26701Y-44171D02*
X26705Y-44113D01*
X26705Y-44113D02*
X26722Y-44057D01*
X26722Y-44057D02*
X26748Y-44005D01*
X26748Y-44005D02*
X26785Y-43959D01*
X26785Y-43959D02*
X26829Y-43921D01*
X26829Y-43921D02*
X26880Y-43893D01*
X26880Y-43893D02*
X26936Y-43874D01*
X26936Y-43874D02*
X26994Y-43868D01*
X26994Y-43868D02*
X27052Y-43872D01*
X27052Y-43872D02*
X27108Y-43888D01*
X27108Y-43888D02*
X27160Y-43914D01*
X27160Y-43914D02*
X27206Y-43950D01*
X27206Y-43950D02*
X27245Y-43995D01*
X27245Y-43995D02*
X27274Y-44045D01*
X27274Y-44045D02*
X27292Y-44101D01*
X27292Y-44101D02*
X27299Y-44159D01*
X27299Y-44159D02*
X27300Y-44167D01*
X26700Y-18033D02*
X27300Y-18033D01*
X27300Y-18033D02*
X27300Y-18633D01*
X27300Y-18633D02*
X26700Y-18633D01*
X26700Y-18633D02*
X26700Y-18033D01*
X27300Y-19333D02*
X27294Y-19391D01*
X27294Y-19391D02*
X27277Y-19447D01*
X27277Y-19447D02*
X27249Y-19499D01*
X27249Y-19499D02*
X27212Y-19544D01*
X27212Y-19544D02*
X27167Y-19581D01*
X27167Y-19581D02*
X27116Y-19609D01*
X27116Y-19609D02*
X27060Y-19626D01*
X27060Y-19626D02*
X27002Y-19632D01*
X27002Y-19632D02*
X26944Y-19627D01*
X26944Y-19627D02*
X26888Y-19611D01*
X26888Y-19611D02*
X26836Y-19584D01*
X26836Y-19584D02*
X26791Y-19547D01*
X26791Y-19547D02*
X26753Y-19502D01*
X26753Y-19502D02*
X26725Y-19451D01*
X26725Y-19451D02*
X26707Y-19395D01*
X26707Y-19395D02*
X26701Y-19337D01*
X26701Y-19337D02*
X26705Y-19279D01*
X26705Y-19279D02*
X26722Y-19223D01*
X26722Y-19223D02*
X26748Y-19171D01*
X26748Y-19171D02*
X26785Y-19125D01*
X26785Y-19125D02*
X26829Y-19087D01*
X26829Y-19087D02*
X26880Y-19059D01*
X26880Y-19059D02*
X26936Y-19040D01*
X26936Y-19040D02*
X26994Y-19034D01*
X26994Y-19034D02*
X27052Y-19038D01*
X27052Y-19038D02*
X27108Y-19054D01*
X27108Y-19054D02*
X27160Y-19080D01*
X27160Y-19080D02*
X27206Y-19116D01*
X27206Y-19116D02*
X27245Y-19161D01*
X27245Y-19161D02*
X27274Y-19211D01*
X27274Y-19211D02*
X27292Y-19267D01*
X27292Y-19267D02*
X27299Y-19325D01*
X27299Y-19325D02*
X27300Y-19333D01*
X27300Y-20333D02*
X27294Y-20391D01*
X27294Y-20391D02*
X27277Y-20447D01*
X27277Y-20447D02*
X27249Y-20499D01*
X27249Y-20499D02*
X27212Y-20544D01*
X27212Y-20544D02*
X27167Y-20581D01*
X27167Y-20581D02*
X27116Y-20609D01*
X27116Y-20609D02*
X27060Y-20626D01*
X27060Y-20626D02*
X27002Y-20632D01*
X27002Y-20632D02*
X26944Y-20627D01*
X26944Y-20627D02*
X26888Y-20611D01*
X26888Y-20611D02*
X26836Y-20584D01*
X26836Y-20584D02*
X26791Y-20547D01*
X26791Y-20547D02*
X26753Y-20502D01*
X26753Y-20502D02*
X26725Y-20451D01*
X26725Y-20451D02*
X26707Y-20395D01*
X26707Y-20395D02*
X26701Y-20337D01*
X26701Y-20337D02*
X26705Y-20279D01*
X26705Y-20279D02*
X26722Y-20223D01*
X26722Y-20223D02*
X26748Y-20171D01*
X26748Y-20171D02*
X26785Y-20125D01*
X26785Y-20125D02*
X26829Y-20087D01*
X26829Y-20087D02*
X26880Y-20059D01*
X26880Y-20059D02*
X26936Y-20040D01*
X26936Y-20040D02*
X26994Y-20034D01*
X26994Y-20034D02*
X27052Y-20038D01*
X27052Y-20038D02*
X27108Y-20054D01*
X27108Y-20054D02*
X27160Y-20080D01*
X27160Y-20080D02*
X27206Y-20116D01*
X27206Y-20116D02*
X27245Y-20161D01*
X27245Y-20161D02*
X27274Y-20211D01*
X27274Y-20211D02*
X27292Y-20267D01*
X27292Y-20267D02*
X27299Y-20325D01*
X27299Y-20325D02*
X27300Y-20333D01*
X27300Y-21333D02*
X27294Y-21391D01*
X27294Y-21391D02*
X27277Y-21447D01*
X27277Y-21447D02*
X27249Y-21499D01*
X27249Y-21499D02*
X27212Y-21544D01*
X27212Y-21544D02*
X27167Y-21581D01*
X27167Y-21581D02*
X27116Y-21609D01*
X27116Y-21609D02*
X27060Y-21626D01*
X27060Y-21626D02*
X27002Y-21632D01*
X27002Y-21632D02*
X26944Y-21627D01*
X26944Y-21627D02*
X26888Y-21611D01*
X26888Y-21611D02*
X26836Y-21584D01*
X26836Y-21584D02*
X26791Y-21547D01*
X26791Y-21547D02*
X26753Y-21502D01*
X26753Y-21502D02*
X26725Y-21451D01*
X26725Y-21451D02*
X26707Y-21395D01*
X26707Y-21395D02*
X26701Y-21337D01*
X26701Y-21337D02*
X26705Y-21279D01*
X26705Y-21279D02*
X26722Y-21223D01*
X26722Y-21223D02*
X26748Y-21171D01*
X26748Y-21171D02*
X26785Y-21125D01*
X26785Y-21125D02*
X26829Y-21087D01*
X26829Y-21087D02*
X26880Y-21059D01*
X26880Y-21059D02*
X26936Y-21040D01*
X26936Y-21040D02*
X26994Y-21034D01*
X26994Y-21034D02*
X27052Y-21038D01*
X27052Y-21038D02*
X27108Y-21054D01*
X27108Y-21054D02*
X27160Y-21080D01*
X27160Y-21080D02*
X27206Y-21116D01*
X27206Y-21116D02*
X27245Y-21161D01*
X27245Y-21161D02*
X27274Y-21211D01*
X27274Y-21211D02*
X27292Y-21267D01*
X27292Y-21267D02*
X27299Y-21325D01*
X27299Y-21325D02*
X27300Y-21333D01*
X27300Y-22333D02*
X27294Y-22391D01*
X27294Y-22391D02*
X27277Y-22447D01*
X27277Y-22447D02*
X27249Y-22499D01*
X27249Y-22499D02*
X27212Y-22544D01*
X27212Y-22544D02*
X27167Y-22581D01*
X27167Y-22581D02*
X27116Y-22609D01*
X27116Y-22609D02*
X27060Y-22626D01*
X27060Y-22626D02*
X27002Y-22632D01*
X27002Y-22632D02*
X26944Y-22627D01*
X26944Y-22627D02*
X26888Y-22611D01*
X26888Y-22611D02*
X26836Y-22584D01*
X26836Y-22584D02*
X26791Y-22547D01*
X26791Y-22547D02*
X26753Y-22502D01*
X26753Y-22502D02*
X26725Y-22451D01*
X26725Y-22451D02*
X26707Y-22395D01*
X26707Y-22395D02*
X26701Y-22337D01*
X26701Y-22337D02*
X26705Y-22279D01*
X26705Y-22279D02*
X26722Y-22223D01*
X26722Y-22223D02*
X26748Y-22171D01*
X26748Y-22171D02*
X26785Y-22125D01*
X26785Y-22125D02*
X26829Y-22087D01*
X26829Y-22087D02*
X26880Y-22059D01*
X26880Y-22059D02*
X26936Y-22040D01*
X26936Y-22040D02*
X26994Y-22034D01*
X26994Y-22034D02*
X27052Y-22038D01*
X27052Y-22038D02*
X27108Y-22054D01*
X27108Y-22054D02*
X27160Y-22080D01*
X27160Y-22080D02*
X27206Y-22116D01*
X27206Y-22116D02*
X27245Y-22161D01*
X27245Y-22161D02*
X27274Y-22211D01*
X27274Y-22211D02*
X27292Y-22267D01*
X27292Y-22267D02*
X27299Y-22325D01*
X27299Y-22325D02*
X27300Y-22333D01*
X27300Y-23333D02*
X27294Y-23391D01*
X27294Y-23391D02*
X27277Y-23447D01*
X27277Y-23447D02*
X27249Y-23499D01*
X27249Y-23499D02*
X27212Y-23544D01*
X27212Y-23544D02*
X27167Y-23581D01*
X27167Y-23581D02*
X27116Y-23609D01*
X27116Y-23609D02*
X27060Y-23626D01*
X27060Y-23626D02*
X27002Y-23632D01*
X27002Y-23632D02*
X26944Y-23627D01*
X26944Y-23627D02*
X26888Y-23611D01*
X26888Y-23611D02*
X26836Y-23584D01*
X26836Y-23584D02*
X26791Y-23547D01*
X26791Y-23547D02*
X26753Y-23502D01*
X26753Y-23502D02*
X26725Y-23451D01*
X26725Y-23451D02*
X26707Y-23395D01*
X26707Y-23395D02*
X26701Y-23337D01*
X26701Y-23337D02*
X26705Y-23279D01*
X26705Y-23279D02*
X26722Y-23223D01*
X26722Y-23223D02*
X26748Y-23171D01*
X26748Y-23171D02*
X26785Y-23125D01*
X26785Y-23125D02*
X26829Y-23087D01*
X26829Y-23087D02*
X26880Y-23059D01*
X26880Y-23059D02*
X26936Y-23040D01*
X26936Y-23040D02*
X26994Y-23034D01*
X26994Y-23034D02*
X27052Y-23038D01*
X27052Y-23038D02*
X27108Y-23054D01*
X27108Y-23054D02*
X27160Y-23080D01*
X27160Y-23080D02*
X27206Y-23116D01*
X27206Y-23116D02*
X27245Y-23161D01*
X27245Y-23161D02*
X27274Y-23211D01*
X27274Y-23211D02*
X27292Y-23267D01*
X27292Y-23267D02*
X27299Y-23325D01*
X27299Y-23325D02*
X27300Y-23333D01*
X21700Y-38867D02*
X22300Y-38867D01*
X22300Y-38867D02*
X22300Y-39467D01*
X22300Y-39467D02*
X21700Y-39467D01*
X21700Y-39467D02*
X21700Y-38867D01*
X22300Y-40167D02*
X22294Y-40225D01*
X22294Y-40225D02*
X22277Y-40281D01*
X22277Y-40281D02*
X22249Y-40333D01*
X22249Y-40333D02*
X22212Y-40378D01*
X22212Y-40378D02*
X22167Y-40415D01*
X22167Y-40415D02*
X22116Y-40443D01*
X22116Y-40443D02*
X22060Y-40460D01*
X22060Y-40460D02*
X22002Y-40466D01*
X22002Y-40466D02*
X21944Y-40461D01*
X21944Y-40461D02*
X21888Y-40445D01*
X21888Y-40445D02*
X21836Y-40418D01*
X21836Y-40418D02*
X21791Y-40381D01*
X21791Y-40381D02*
X21753Y-40336D01*
X21753Y-40336D02*
X21725Y-40285D01*
X21725Y-40285D02*
X21707Y-40229D01*
X21707Y-40229D02*
X21701Y-40171D01*
X21701Y-40171D02*
X21705Y-40113D01*
X21705Y-40113D02*
X21722Y-40057D01*
X21722Y-40057D02*
X21748Y-40005D01*
X21748Y-40005D02*
X21785Y-39959D01*
X21785Y-39959D02*
X21829Y-39921D01*
X21829Y-39921D02*
X21880Y-39893D01*
X21880Y-39893D02*
X21936Y-39874D01*
X21936Y-39874D02*
X21994Y-39868D01*
X21994Y-39868D02*
X22052Y-39872D01*
X22052Y-39872D02*
X22108Y-39888D01*
X22108Y-39888D02*
X22160Y-39914D01*
X22160Y-39914D02*
X22206Y-39950D01*
X22206Y-39950D02*
X22245Y-39995D01*
X22245Y-39995D02*
X22274Y-40045D01*
X22274Y-40045D02*
X22292Y-40101D01*
X22292Y-40101D02*
X22299Y-40159D01*
X22299Y-40159D02*
X22300Y-40167D01*
X22300Y-41167D02*
X22294Y-41225D01*
X22294Y-41225D02*
X22277Y-41281D01*
X22277Y-41281D02*
X22249Y-41333D01*
X22249Y-41333D02*
X22212Y-41378D01*
X22212Y-41378D02*
X22167Y-41415D01*
X22167Y-41415D02*
X22116Y-41443D01*
X22116Y-41443D02*
X22060Y-41460D01*
X22060Y-41460D02*
X22002Y-41466D01*
X22002Y-41466D02*
X21944Y-41461D01*
X21944Y-41461D02*
X21888Y-41445D01*
X21888Y-41445D02*
X21836Y-41418D01*
X21836Y-41418D02*
X21791Y-41381D01*
X21791Y-41381D02*
X21753Y-41336D01*
X21753Y-41336D02*
X21725Y-41285D01*
X21725Y-41285D02*
X21707Y-41229D01*
X21707Y-41229D02*
X21701Y-41171D01*
X21701Y-41171D02*
X21705Y-41113D01*
X21705Y-41113D02*
X21722Y-41057D01*
X21722Y-41057D02*
X21748Y-41005D01*
X21748Y-41005D02*
X21785Y-40959D01*
X21785Y-40959D02*
X21829Y-40921D01*
X21829Y-40921D02*
X21880Y-40893D01*
X21880Y-40893D02*
X21936Y-40874D01*
X21936Y-40874D02*
X21994Y-40868D01*
X21994Y-40868D02*
X22052Y-40872D01*
X22052Y-40872D02*
X22108Y-40888D01*
X22108Y-40888D02*
X22160Y-40914D01*
X22160Y-40914D02*
X22206Y-40950D01*
X22206Y-40950D02*
X22245Y-40995D01*
X22245Y-40995D02*
X22274Y-41045D01*
X22274Y-41045D02*
X22292Y-41101D01*
X22292Y-41101D02*
X22299Y-41159D01*
X22299Y-41159D02*
X22300Y-41167D01*
X22300Y-42167D02*
X22294Y-42225D01*
X22294Y-42225D02*
X22277Y-42281D01*
X22277Y-42281D02*
X22249Y-42333D01*
X22249Y-42333D02*
X22212Y-42378D01*
X22212Y-42378D02*
X22167Y-42415D01*
X22167Y-42415D02*
X22116Y-42443D01*
X22116Y-42443D02*
X22060Y-42460D01*
X22060Y-42460D02*
X22002Y-42466D01*
X22002Y-42466D02*
X21944Y-42461D01*
X21944Y-42461D02*
X21888Y-42445D01*
X21888Y-42445D02*
X21836Y-42418D01*
X21836Y-42418D02*
X21791Y-42381D01*
X21791Y-42381D02*
X21753Y-42336D01*
X21753Y-42336D02*
X21725Y-42285D01*
X21725Y-42285D02*
X21707Y-42229D01*
X21707Y-42229D02*
X21701Y-42171D01*
X21701Y-42171D02*
X21705Y-42113D01*
X21705Y-42113D02*
X21722Y-42057D01*
X21722Y-42057D02*
X21748Y-42005D01*
X21748Y-42005D02*
X21785Y-41959D01*
X21785Y-41959D02*
X21829Y-41921D01*
X21829Y-41921D02*
X21880Y-41893D01*
X21880Y-41893D02*
X21936Y-41874D01*
X21936Y-41874D02*
X21994Y-41868D01*
X21994Y-41868D02*
X22052Y-41872D01*
X22052Y-41872D02*
X22108Y-41888D01*
X22108Y-41888D02*
X22160Y-41914D01*
X22160Y-41914D02*
X22206Y-41950D01*
X22206Y-41950D02*
X22245Y-41995D01*
X22245Y-41995D02*
X22274Y-42045D01*
X22274Y-42045D02*
X22292Y-42101D01*
X22292Y-42101D02*
X22299Y-42159D01*
X22299Y-42159D02*
X22300Y-42167D01*
X22300Y-43167D02*
X22294Y-43225D01*
X22294Y-43225D02*
X22277Y-43281D01*
X22277Y-43281D02*
X22249Y-43333D01*
X22249Y-43333D02*
X22212Y-43378D01*
X22212Y-43378D02*
X22167Y-43415D01*
X22167Y-43415D02*
X22116Y-43443D01*
X22116Y-43443D02*
X22060Y-43460D01*
X22060Y-43460D02*
X22002Y-43466D01*
X22002Y-43466D02*
X21944Y-43461D01*
X21944Y-43461D02*
X21888Y-43445D01*
X21888Y-43445D02*
X21836Y-43418D01*
X21836Y-43418D02*
X21791Y-43381D01*
X21791Y-43381D02*
X21753Y-43336D01*
X21753Y-43336D02*
X21725Y-43285D01*
X21725Y-43285D02*
X21707Y-43229D01*
X21707Y-43229D02*
X21701Y-43171D01*
X21701Y-43171D02*
X21705Y-43113D01*
X21705Y-43113D02*
X21722Y-43057D01*
X21722Y-43057D02*
X21748Y-43005D01*
X21748Y-43005D02*
X21785Y-42959D01*
X21785Y-42959D02*
X21829Y-42921D01*
X21829Y-42921D02*
X21880Y-42893D01*
X21880Y-42893D02*
X21936Y-42874D01*
X21936Y-42874D02*
X21994Y-42868D01*
X21994Y-42868D02*
X22052Y-42872D01*
X22052Y-42872D02*
X22108Y-42888D01*
X22108Y-42888D02*
X22160Y-42914D01*
X22160Y-42914D02*
X22206Y-42950D01*
X22206Y-42950D02*
X22245Y-42995D01*
X22245Y-42995D02*
X22274Y-43045D01*
X22274Y-43045D02*
X22292Y-43101D01*
X22292Y-43101D02*
X22299Y-43159D01*
X22299Y-43159D02*
X22300Y-43167D01*
X22300Y-44167D02*
X22294Y-44225D01*
X22294Y-44225D02*
X22277Y-44281D01*
X22277Y-44281D02*
X22249Y-44333D01*
X22249Y-44333D02*
X22212Y-44378D01*
X22212Y-44378D02*
X22167Y-44415D01*
X22167Y-44415D02*
X22116Y-44443D01*
X22116Y-44443D02*
X22060Y-44460D01*
X22060Y-44460D02*
X22002Y-44466D01*
X22002Y-44466D02*
X21944Y-44461D01*
X21944Y-44461D02*
X21888Y-44445D01*
X21888Y-44445D02*
X21836Y-44418D01*
X21836Y-44418D02*
X21791Y-44381D01*
X21791Y-44381D02*
X21753Y-44336D01*
X21753Y-44336D02*
X21725Y-44285D01*
X21725Y-44285D02*
X21707Y-44229D01*
X21707Y-44229D02*
X21701Y-44171D01*
X21701Y-44171D02*
X21705Y-44113D01*
X21705Y-44113D02*
X21722Y-44057D01*
X21722Y-44057D02*
X21748Y-44005D01*
X21748Y-44005D02*
X21785Y-43959D01*
X21785Y-43959D02*
X21829Y-43921D01*
X21829Y-43921D02*
X21880Y-43893D01*
X21880Y-43893D02*
X21936Y-43874D01*
X21936Y-43874D02*
X21994Y-43868D01*
X21994Y-43868D02*
X22052Y-43872D01*
X22052Y-43872D02*
X22108Y-43888D01*
X22108Y-43888D02*
X22160Y-43914D01*
X22160Y-43914D02*
X22206Y-43950D01*
X22206Y-43950D02*
X22245Y-43995D01*
X22245Y-43995D02*
X22274Y-44045D01*
X22274Y-44045D02*
X22292Y-44101D01*
X22292Y-44101D02*
X22299Y-44159D01*
X22299Y-44159D02*
X22300Y-44167D01*
X21700Y-18033D02*
X22300Y-18033D01*
X22300Y-18033D02*
X22300Y-18633D01*
X22300Y-18633D02*
X21700Y-18633D01*
X21700Y-18633D02*
X21700Y-18033D01*
X22300Y-19333D02*
X22294Y-19391D01*
X22294Y-19391D02*
X22277Y-19447D01*
X22277Y-19447D02*
X22249Y-19499D01*
X22249Y-19499D02*
X22212Y-19544D01*
X22212Y-19544D02*
X22167Y-19581D01*
X22167Y-19581D02*
X22116Y-19609D01*
X22116Y-19609D02*
X22060Y-19626D01*
X22060Y-19626D02*
X22002Y-19632D01*
X22002Y-19632D02*
X21944Y-19627D01*
X21944Y-19627D02*
X21888Y-19611D01*
X21888Y-19611D02*
X21836Y-19584D01*
X21836Y-19584D02*
X21791Y-19547D01*
X21791Y-19547D02*
X21753Y-19502D01*
X21753Y-19502D02*
X21725Y-19451D01*
X21725Y-19451D02*
X21707Y-19395D01*
X21707Y-19395D02*
X21701Y-19337D01*
X21701Y-19337D02*
X21705Y-19279D01*
X21705Y-19279D02*
X21722Y-19223D01*
X21722Y-19223D02*
X21748Y-19171D01*
X21748Y-19171D02*
X21785Y-19125D01*
X21785Y-19125D02*
X21829Y-19087D01*
X21829Y-19087D02*
X21880Y-19059D01*
X21880Y-19059D02*
X21936Y-19040D01*
X21936Y-19040D02*
X21994Y-19034D01*
X21994Y-19034D02*
X22052Y-19038D01*
X22052Y-19038D02*
X22108Y-19054D01*
X22108Y-19054D02*
X22160Y-19080D01*
X22160Y-19080D02*
X22206Y-19116D01*
X22206Y-19116D02*
X22245Y-19161D01*
X22245Y-19161D02*
X22274Y-19211D01*
X22274Y-19211D02*
X22292Y-19267D01*
X22292Y-19267D02*
X22299Y-19325D01*
X22299Y-19325D02*
X22300Y-19333D01*
X22300Y-20333D02*
X22294Y-20391D01*
X22294Y-20391D02*
X22277Y-20447D01*
X22277Y-20447D02*
X22249Y-20499D01*
X22249Y-20499D02*
X22212Y-20544D01*
X22212Y-20544D02*
X22167Y-20581D01*
X22167Y-20581D02*
X22116Y-20609D01*
X22116Y-20609D02*
X22060Y-20626D01*
X22060Y-20626D02*
X22002Y-20632D01*
X22002Y-20632D02*
X21944Y-20627D01*
X21944Y-20627D02*
X21888Y-20611D01*
X21888Y-20611D02*
X21836Y-20584D01*
X21836Y-20584D02*
X21791Y-20547D01*
X21791Y-20547D02*
X21753Y-20502D01*
X21753Y-20502D02*
X21725Y-20451D01*
X21725Y-20451D02*
X21707Y-20395D01*
X21707Y-20395D02*
X21701Y-20337D01*
X21701Y-20337D02*
X21705Y-20279D01*
X21705Y-20279D02*
X21722Y-20223D01*
X21722Y-20223D02*
X21748Y-20171D01*
X21748Y-20171D02*
X21785Y-20125D01*
X21785Y-20125D02*
X21829Y-20087D01*
X21829Y-20087D02*
X21880Y-20059D01*
X21880Y-20059D02*
X21936Y-20040D01*
X21936Y-20040D02*
X21994Y-20034D01*
X21994Y-20034D02*
X22052Y-20038D01*
X22052Y-20038D02*
X22108Y-20054D01*
X22108Y-20054D02*
X22160Y-20080D01*
X22160Y-20080D02*
X22206Y-20116D01*
X22206Y-20116D02*
X22245Y-20161D01*
X22245Y-20161D02*
X22274Y-20211D01*
X22274Y-20211D02*
X22292Y-20267D01*
X22292Y-20267D02*
X22299Y-20325D01*
X22299Y-20325D02*
X22300Y-20333D01*
X22300Y-21333D02*
X22294Y-21391D01*
X22294Y-21391D02*
X22277Y-21447D01*
X22277Y-21447D02*
X22249Y-21499D01*
X22249Y-21499D02*
X22212Y-21544D01*
X22212Y-21544D02*
X22167Y-21581D01*
X22167Y-21581D02*
X22116Y-21609D01*
X22116Y-21609D02*
X22060Y-21626D01*
X22060Y-21626D02*
X22002Y-21632D01*
X22002Y-21632D02*
X21944Y-21627D01*
X21944Y-21627D02*
X21888Y-21611D01*
X21888Y-21611D02*
X21836Y-21584D01*
X21836Y-21584D02*
X21791Y-21547D01*
X21791Y-21547D02*
X21753Y-21502D01*
X21753Y-21502D02*
X21725Y-21451D01*
X21725Y-21451D02*
X21707Y-21395D01*
X21707Y-21395D02*
X21701Y-21337D01*
X21701Y-21337D02*
X21705Y-21279D01*
X21705Y-21279D02*
X21722Y-21223D01*
X21722Y-21223D02*
X21748Y-21171D01*
X21748Y-21171D02*
X21785Y-21125D01*
X21785Y-21125D02*
X21829Y-21087D01*
X21829Y-21087D02*
X21880Y-21059D01*
X21880Y-21059D02*
X21936Y-21040D01*
X21936Y-21040D02*
X21994Y-21034D01*
X21994Y-21034D02*
X22052Y-21038D01*
X22052Y-21038D02*
X22108Y-21054D01*
X22108Y-21054D02*
X22160Y-21080D01*
X22160Y-21080D02*
X22206Y-21116D01*
X22206Y-21116D02*
X22245Y-21161D01*
X22245Y-21161D02*
X22274Y-21211D01*
X22274Y-21211D02*
X22292Y-21267D01*
X22292Y-21267D02*
X22299Y-21325D01*
X22299Y-21325D02*
X22300Y-21333D01*
X22300Y-22333D02*
X22294Y-22391D01*
X22294Y-22391D02*
X22277Y-22447D01*
X22277Y-22447D02*
X22249Y-22499D01*
X22249Y-22499D02*
X22212Y-22544D01*
X22212Y-22544D02*
X22167Y-22581D01*
X22167Y-22581D02*
X22116Y-22609D01*
X22116Y-22609D02*
X22060Y-22626D01*
X22060Y-22626D02*
X22002Y-22632D01*
X22002Y-22632D02*
X21944Y-22627D01*
X21944Y-22627D02*
X21888Y-22611D01*
X21888Y-22611D02*
X21836Y-22584D01*
X21836Y-22584D02*
X21791Y-22547D01*
X21791Y-22547D02*
X21753Y-22502D01*
X21753Y-22502D02*
X21725Y-22451D01*
X21725Y-22451D02*
X21707Y-22395D01*
X21707Y-22395D02*
X21701Y-22337D01*
X21701Y-22337D02*
X21705Y-22279D01*
X21705Y-22279D02*
X21722Y-22223D01*
X21722Y-22223D02*
X21748Y-22171D01*
X21748Y-22171D02*
X21785Y-22125D01*
X21785Y-22125D02*
X21829Y-22087D01*
X21829Y-22087D02*
X21880Y-22059D01*
X21880Y-22059D02*
X21936Y-22040D01*
X21936Y-22040D02*
X21994Y-22034D01*
X21994Y-22034D02*
X22052Y-22038D01*
X22052Y-22038D02*
X22108Y-22054D01*
X22108Y-22054D02*
X22160Y-22080D01*
X22160Y-22080D02*
X22206Y-22116D01*
X22206Y-22116D02*
X22245Y-22161D01*
X22245Y-22161D02*
X22274Y-22211D01*
X22274Y-22211D02*
X22292Y-22267D01*
X22292Y-22267D02*
X22299Y-22325D01*
X22299Y-22325D02*
X22300Y-22333D01*
X22300Y-23333D02*
X22294Y-23391D01*
X22294Y-23391D02*
X22277Y-23447D01*
X22277Y-23447D02*
X22249Y-23499D01*
X22249Y-23499D02*
X22212Y-23544D01*
X22212Y-23544D02*
X22167Y-23581D01*
X22167Y-23581D02*
X22116Y-23609D01*
X22116Y-23609D02*
X22060Y-23626D01*
X22060Y-23626D02*
X22002Y-23632D01*
X22002Y-23632D02*
X21944Y-23627D01*
X21944Y-23627D02*
X21888Y-23611D01*
X21888Y-23611D02*
X21836Y-23584D01*
X21836Y-23584D02*
X21791Y-23547D01*
X21791Y-23547D02*
X21753Y-23502D01*
X21753Y-23502D02*
X21725Y-23451D01*
X21725Y-23451D02*
X21707Y-23395D01*
X21707Y-23395D02*
X21701Y-23337D01*
X21701Y-23337D02*
X21705Y-23279D01*
X21705Y-23279D02*
X21722Y-23223D01*
X21722Y-23223D02*
X21748Y-23171D01*
X21748Y-23171D02*
X21785Y-23125D01*
X21785Y-23125D02*
X21829Y-23087D01*
X21829Y-23087D02*
X21880Y-23059D01*
X21880Y-23059D02*
X21936Y-23040D01*
X21936Y-23040D02*
X21994Y-23034D01*
X21994Y-23034D02*
X22052Y-23038D01*
X22052Y-23038D02*
X22108Y-23054D01*
X22108Y-23054D02*
X22160Y-23080D01*
X22160Y-23080D02*
X22206Y-23116D01*
X22206Y-23116D02*
X22245Y-23161D01*
X22245Y-23161D02*
X22274Y-23211D01*
X22274Y-23211D02*
X22292Y-23267D01*
X22292Y-23267D02*
X22299Y-23325D01*
X22299Y-23325D02*
X22300Y-23333D01*
X16700Y-38867D02*
X17300Y-38867D01*
X17300Y-38867D02*
X17300Y-39467D01*
X17300Y-39467D02*
X16700Y-39467D01*
X16700Y-39467D02*
X16700Y-38867D01*
X17300Y-40167D02*
X17294Y-40225D01*
X17294Y-40225D02*
X17277Y-40281D01*
X17277Y-40281D02*
X17249Y-40333D01*
X17249Y-40333D02*
X17212Y-40378D01*
X17212Y-40378D02*
X17167Y-40415D01*
X17167Y-40415D02*
X17116Y-40443D01*
X17116Y-40443D02*
X17060Y-40460D01*
X17060Y-40460D02*
X17002Y-40466D01*
X17002Y-40466D02*
X16944Y-40461D01*
X16944Y-40461D02*
X16888Y-40445D01*
X16888Y-40445D02*
X16836Y-40418D01*
X16836Y-40418D02*
X16791Y-40381D01*
X16791Y-40381D02*
X16753Y-40336D01*
X16753Y-40336D02*
X16725Y-40285D01*
X16725Y-40285D02*
X16707Y-40229D01*
X16707Y-40229D02*
X16701Y-40171D01*
X16701Y-40171D02*
X16705Y-40113D01*
X16705Y-40113D02*
X16722Y-40057D01*
X16722Y-40057D02*
X16748Y-40005D01*
X16748Y-40005D02*
X16785Y-39959D01*
X16785Y-39959D02*
X16829Y-39921D01*
X16829Y-39921D02*
X16880Y-39893D01*
X16880Y-39893D02*
X16936Y-39874D01*
X16936Y-39874D02*
X16994Y-39868D01*
X16994Y-39868D02*
X17052Y-39872D01*
X17052Y-39872D02*
X17108Y-39888D01*
X17108Y-39888D02*
X17160Y-39914D01*
X17160Y-39914D02*
X17206Y-39950D01*
X17206Y-39950D02*
X17245Y-39995D01*
X17245Y-39995D02*
X17274Y-40045D01*
X17274Y-40045D02*
X17292Y-40101D01*
X17292Y-40101D02*
X17299Y-40159D01*
X17299Y-40159D02*
X17300Y-40167D01*
X17300Y-41167D02*
X17294Y-41225D01*
X17294Y-41225D02*
X17277Y-41281D01*
X17277Y-41281D02*
X17249Y-41333D01*
X17249Y-41333D02*
X17212Y-41378D01*
X17212Y-41378D02*
X17167Y-41415D01*
X17167Y-41415D02*
X17116Y-41443D01*
X17116Y-41443D02*
X17060Y-41460D01*
X17060Y-41460D02*
X17002Y-41466D01*
X17002Y-41466D02*
X16944Y-41461D01*
X16944Y-41461D02*
X16888Y-41445D01*
X16888Y-41445D02*
X16836Y-41418D01*
X16836Y-41418D02*
X16791Y-41381D01*
X16791Y-41381D02*
X16753Y-41336D01*
X16753Y-41336D02*
X16725Y-41285D01*
X16725Y-41285D02*
X16707Y-41229D01*
X16707Y-41229D02*
X16701Y-41171D01*
X16701Y-41171D02*
X16705Y-41113D01*
X16705Y-41113D02*
X16722Y-41057D01*
X16722Y-41057D02*
X16748Y-41005D01*
X16748Y-41005D02*
X16785Y-40959D01*
X16785Y-40959D02*
X16829Y-40921D01*
X16829Y-40921D02*
X16880Y-40893D01*
X16880Y-40893D02*
X16936Y-40874D01*
X16936Y-40874D02*
X16994Y-40868D01*
X16994Y-40868D02*
X17052Y-40872D01*
X17052Y-40872D02*
X17108Y-40888D01*
X17108Y-40888D02*
X17160Y-40914D01*
X17160Y-40914D02*
X17206Y-40950D01*
X17206Y-40950D02*
X17245Y-40995D01*
X17245Y-40995D02*
X17274Y-41045D01*
X17274Y-41045D02*
X17292Y-41101D01*
X17292Y-41101D02*
X17299Y-41159D01*
X17299Y-41159D02*
X17300Y-41167D01*
X17300Y-42167D02*
X17294Y-42225D01*
X17294Y-42225D02*
X17277Y-42281D01*
X17277Y-42281D02*
X17249Y-42333D01*
X17249Y-42333D02*
X17212Y-42378D01*
X17212Y-42378D02*
X17167Y-42415D01*
X17167Y-42415D02*
X17116Y-42443D01*
X17116Y-42443D02*
X17060Y-42460D01*
X17060Y-42460D02*
X17002Y-42466D01*
X17002Y-42466D02*
X16944Y-42461D01*
X16944Y-42461D02*
X16888Y-42445D01*
X16888Y-42445D02*
X16836Y-42418D01*
X16836Y-42418D02*
X16791Y-42381D01*
X16791Y-42381D02*
X16753Y-42336D01*
X16753Y-42336D02*
X16725Y-42285D01*
X16725Y-42285D02*
X16707Y-42229D01*
X16707Y-42229D02*
X16701Y-42171D01*
X16701Y-42171D02*
X16705Y-42113D01*
X16705Y-42113D02*
X16722Y-42057D01*
X16722Y-42057D02*
X16748Y-42005D01*
X16748Y-42005D02*
X16785Y-41959D01*
X16785Y-41959D02*
X16829Y-41921D01*
X16829Y-41921D02*
X16880Y-41893D01*
X16880Y-41893D02*
X16936Y-41874D01*
X16936Y-41874D02*
X16994Y-41868D01*
X16994Y-41868D02*
X17052Y-41872D01*
X17052Y-41872D02*
X17108Y-41888D01*
X17108Y-41888D02*
X17160Y-41914D01*
X17160Y-41914D02*
X17206Y-41950D01*
X17206Y-41950D02*
X17245Y-41995D01*
X17245Y-41995D02*
X17274Y-42045D01*
X17274Y-42045D02*
X17292Y-42101D01*
X17292Y-42101D02*
X17299Y-42159D01*
X17299Y-42159D02*
X17300Y-42167D01*
X17300Y-43167D02*
X17294Y-43225D01*
X17294Y-43225D02*
X17277Y-43281D01*
X17277Y-43281D02*
X17249Y-43333D01*
X17249Y-43333D02*
X17212Y-43378D01*
X17212Y-43378D02*
X17167Y-43415D01*
X17167Y-43415D02*
X17116Y-43443D01*
X17116Y-43443D02*
X17060Y-43460D01*
X17060Y-43460D02*
X17002Y-43466D01*
X17002Y-43466D02*
X16944Y-43461D01*
X16944Y-43461D02*
X16888Y-43445D01*
X16888Y-43445D02*
X16836Y-43418D01*
X16836Y-43418D02*
X16791Y-43381D01*
X16791Y-43381D02*
X16753Y-43336D01*
X16753Y-43336D02*
X16725Y-43285D01*
X16725Y-43285D02*
X16707Y-43229D01*
X16707Y-43229D02*
X16701Y-43171D01*
X16701Y-43171D02*
X16705Y-43113D01*
X16705Y-43113D02*
X16722Y-43057D01*
X16722Y-43057D02*
X16748Y-43005D01*
X16748Y-43005D02*
X16785Y-42959D01*
X16785Y-42959D02*
X16829Y-42921D01*
X16829Y-42921D02*
X16880Y-42893D01*
X16880Y-42893D02*
X16936Y-42874D01*
X16936Y-42874D02*
X16994Y-42868D01*
X16994Y-42868D02*
X17052Y-42872D01*
X17052Y-42872D02*
X17108Y-42888D01*
X17108Y-42888D02*
X17160Y-42914D01*
X17160Y-42914D02*
X17206Y-42950D01*
X17206Y-42950D02*
X17245Y-42995D01*
X17245Y-42995D02*
X17274Y-43045D01*
X17274Y-43045D02*
X17292Y-43101D01*
X17292Y-43101D02*
X17299Y-43159D01*
X17299Y-43159D02*
X17300Y-43167D01*
X17300Y-44167D02*
X17294Y-44225D01*
X17294Y-44225D02*
X17277Y-44281D01*
X17277Y-44281D02*
X17249Y-44333D01*
X17249Y-44333D02*
X17212Y-44378D01*
X17212Y-44378D02*
X17167Y-44415D01*
X17167Y-44415D02*
X17116Y-44443D01*
X17116Y-44443D02*
X17060Y-44460D01*
X17060Y-44460D02*
X17002Y-44466D01*
X17002Y-44466D02*
X16944Y-44461D01*
X16944Y-44461D02*
X16888Y-44445D01*
X16888Y-44445D02*
X16836Y-44418D01*
X16836Y-44418D02*
X16791Y-44381D01*
X16791Y-44381D02*
X16753Y-44336D01*
X16753Y-44336D02*
X16725Y-44285D01*
X16725Y-44285D02*
X16707Y-44229D01*
X16707Y-44229D02*
X16701Y-44171D01*
X16701Y-44171D02*
X16705Y-44113D01*
X16705Y-44113D02*
X16722Y-44057D01*
X16722Y-44057D02*
X16748Y-44005D01*
X16748Y-44005D02*
X16785Y-43959D01*
X16785Y-43959D02*
X16829Y-43921D01*
X16829Y-43921D02*
X16880Y-43893D01*
X16880Y-43893D02*
X16936Y-43874D01*
X16936Y-43874D02*
X16994Y-43868D01*
X16994Y-43868D02*
X17052Y-43872D01*
X17052Y-43872D02*
X17108Y-43888D01*
X17108Y-43888D02*
X17160Y-43914D01*
X17160Y-43914D02*
X17206Y-43950D01*
X17206Y-43950D02*
X17245Y-43995D01*
X17245Y-43995D02*
X17274Y-44045D01*
X17274Y-44045D02*
X17292Y-44101D01*
X17292Y-44101D02*
X17299Y-44159D01*
X17299Y-44159D02*
X17300Y-44167D01*
X16700Y-18033D02*
X17300Y-18033D01*
X17300Y-18033D02*
X17300Y-18633D01*
X17300Y-18633D02*
X16700Y-18633D01*
X16700Y-18633D02*
X16700Y-18033D01*
X17300Y-19333D02*
X17294Y-19391D01*
X17294Y-19391D02*
X17277Y-19447D01*
X17277Y-19447D02*
X17249Y-19499D01*
X17249Y-19499D02*
X17212Y-19544D01*
X17212Y-19544D02*
X17167Y-19581D01*
X17167Y-19581D02*
X17116Y-19609D01*
X17116Y-19609D02*
X17060Y-19626D01*
X17060Y-19626D02*
X17002Y-19632D01*
X17002Y-19632D02*
X16944Y-19627D01*
X16944Y-19627D02*
X16888Y-19611D01*
X16888Y-19611D02*
X16836Y-19584D01*
X16836Y-19584D02*
X16791Y-19547D01*
X16791Y-19547D02*
X16753Y-19502D01*
X16753Y-19502D02*
X16725Y-19451D01*
X16725Y-19451D02*
X16707Y-19395D01*
X16707Y-19395D02*
X16701Y-19337D01*
X16701Y-19337D02*
X16705Y-19279D01*
X16705Y-19279D02*
X16722Y-19223D01*
X16722Y-19223D02*
X16748Y-19171D01*
X16748Y-19171D02*
X16785Y-19125D01*
X16785Y-19125D02*
X16829Y-19087D01*
X16829Y-19087D02*
X16880Y-19059D01*
X16880Y-19059D02*
X16936Y-19040D01*
X16936Y-19040D02*
X16994Y-19034D01*
X16994Y-19034D02*
X17052Y-19038D01*
X17052Y-19038D02*
X17108Y-19054D01*
X17108Y-19054D02*
X17160Y-19080D01*
X17160Y-19080D02*
X17206Y-19116D01*
X17206Y-19116D02*
X17245Y-19161D01*
X17245Y-19161D02*
X17274Y-19211D01*
X17274Y-19211D02*
X17292Y-19267D01*
X17292Y-19267D02*
X17299Y-19325D01*
X17299Y-19325D02*
X17300Y-19333D01*
X17300Y-20333D02*
X17294Y-20391D01*
X17294Y-20391D02*
X17277Y-20447D01*
X17277Y-20447D02*
X17249Y-20499D01*
X17249Y-20499D02*
X17212Y-20544D01*
X17212Y-20544D02*
X17167Y-20581D01*
X17167Y-20581D02*
X17116Y-20609D01*
X17116Y-20609D02*
X17060Y-20626D01*
X17060Y-20626D02*
X17002Y-20632D01*
X17002Y-20632D02*
X16944Y-20627D01*
X16944Y-20627D02*
X16888Y-20611D01*
X16888Y-20611D02*
X16836Y-20584D01*
X16836Y-20584D02*
X16791Y-20547D01*
X16791Y-20547D02*
X16753Y-20502D01*
X16753Y-20502D02*
X16725Y-20451D01*
X16725Y-20451D02*
X16707Y-20395D01*
X16707Y-20395D02*
X16701Y-20337D01*
X16701Y-20337D02*
X16705Y-20279D01*
X16705Y-20279D02*
X16722Y-20223D01*
X16722Y-20223D02*
X16748Y-20171D01*
X16748Y-20171D02*
X16785Y-20125D01*
X16785Y-20125D02*
X16829Y-20087D01*
X16829Y-20087D02*
X16880Y-20059D01*
X16880Y-20059D02*
X16936Y-20040D01*
X16936Y-20040D02*
X16994Y-20034D01*
X16994Y-20034D02*
X17052Y-20038D01*
X17052Y-20038D02*
X17108Y-20054D01*
X17108Y-20054D02*
X17160Y-20080D01*
X17160Y-20080D02*
X17206Y-20116D01*
X17206Y-20116D02*
X17245Y-20161D01*
X17245Y-20161D02*
X17274Y-20211D01*
X17274Y-20211D02*
X17292Y-20267D01*
X17292Y-20267D02*
X17299Y-20325D01*
X17299Y-20325D02*
X17300Y-20333D01*
X17300Y-21333D02*
X17294Y-21391D01*
X17294Y-21391D02*
X17277Y-21447D01*
X17277Y-21447D02*
X17249Y-21499D01*
X17249Y-21499D02*
X17212Y-21544D01*
X17212Y-21544D02*
X17167Y-21581D01*
X17167Y-21581D02*
X17116Y-21609D01*
X17116Y-21609D02*
X17060Y-21626D01*
X17060Y-21626D02*
X17002Y-21632D01*
X17002Y-21632D02*
X16944Y-21627D01*
X16944Y-21627D02*
X16888Y-21611D01*
X16888Y-21611D02*
X16836Y-21584D01*
X16836Y-21584D02*
X16791Y-21547D01*
X16791Y-21547D02*
X16753Y-21502D01*
X16753Y-21502D02*
X16725Y-21451D01*
X16725Y-21451D02*
X16707Y-21395D01*
X16707Y-21395D02*
X16701Y-21337D01*
X16701Y-21337D02*
X16705Y-21279D01*
X16705Y-21279D02*
X16722Y-21223D01*
X16722Y-21223D02*
X16748Y-21171D01*
X16748Y-21171D02*
X16785Y-21125D01*
X16785Y-21125D02*
X16829Y-21087D01*
X16829Y-21087D02*
X16880Y-21059D01*
X16880Y-21059D02*
X16936Y-21040D01*
X16936Y-21040D02*
X16994Y-21034D01*
X16994Y-21034D02*
X17052Y-21038D01*
X17052Y-21038D02*
X17108Y-21054D01*
X17108Y-21054D02*
X17160Y-21080D01*
X17160Y-21080D02*
X17206Y-21116D01*
X17206Y-21116D02*
X17245Y-21161D01*
X17245Y-21161D02*
X17274Y-21211D01*
X17274Y-21211D02*
X17292Y-21267D01*
X17292Y-21267D02*
X17299Y-21325D01*
X17299Y-21325D02*
X17300Y-21333D01*
X17300Y-22333D02*
X17294Y-22391D01*
X17294Y-22391D02*
X17277Y-22447D01*
X17277Y-22447D02*
X17249Y-22499D01*
X17249Y-22499D02*
X17212Y-22544D01*
X17212Y-22544D02*
X17167Y-22581D01*
X17167Y-22581D02*
X17116Y-22609D01*
X17116Y-22609D02*
X17060Y-22626D01*
X17060Y-22626D02*
X17002Y-22632D01*
X17002Y-22632D02*
X16944Y-22627D01*
X16944Y-22627D02*
X16888Y-22611D01*
X16888Y-22611D02*
X16836Y-22584D01*
X16836Y-22584D02*
X16791Y-22547D01*
X16791Y-22547D02*
X16753Y-22502D01*
X16753Y-22502D02*
X16725Y-22451D01*
X16725Y-22451D02*
X16707Y-22395D01*
X16707Y-22395D02*
X16701Y-22337D01*
X16701Y-22337D02*
X16705Y-22279D01*
X16705Y-22279D02*
X16722Y-22223D01*
X16722Y-22223D02*
X16748Y-22171D01*
X16748Y-22171D02*
X16785Y-22125D01*
X16785Y-22125D02*
X16829Y-22087D01*
X16829Y-22087D02*
X16880Y-22059D01*
X16880Y-22059D02*
X16936Y-22040D01*
X16936Y-22040D02*
X16994Y-22034D01*
X16994Y-22034D02*
X17052Y-22038D01*
X17052Y-22038D02*
X17108Y-22054D01*
X17108Y-22054D02*
X17160Y-22080D01*
X17160Y-22080D02*
X17206Y-22116D01*
X17206Y-22116D02*
X17245Y-22161D01*
X17245Y-22161D02*
X17274Y-22211D01*
X17274Y-22211D02*
X17292Y-22267D01*
X17292Y-22267D02*
X17299Y-22325D01*
X17299Y-22325D02*
X17300Y-22333D01*
X17300Y-23333D02*
X17294Y-23391D01*
X17294Y-23391D02*
X17277Y-23447D01*
X17277Y-23447D02*
X17249Y-23499D01*
X17249Y-23499D02*
X17212Y-23544D01*
X17212Y-23544D02*
X17167Y-23581D01*
X17167Y-23581D02*
X17116Y-23609D01*
X17116Y-23609D02*
X17060Y-23626D01*
X17060Y-23626D02*
X17002Y-23632D01*
X17002Y-23632D02*
X16944Y-23627D01*
X16944Y-23627D02*
X16888Y-23611D01*
X16888Y-23611D02*
X16836Y-23584D01*
X16836Y-23584D02*
X16791Y-23547D01*
X16791Y-23547D02*
X16753Y-23502D01*
X16753Y-23502D02*
X16725Y-23451D01*
X16725Y-23451D02*
X16707Y-23395D01*
X16707Y-23395D02*
X16701Y-23337D01*
X16701Y-23337D02*
X16705Y-23279D01*
X16705Y-23279D02*
X16722Y-23223D01*
X16722Y-23223D02*
X16748Y-23171D01*
X16748Y-23171D02*
X16785Y-23125D01*
X16785Y-23125D02*
X16829Y-23087D01*
X16829Y-23087D02*
X16880Y-23059D01*
X16880Y-23059D02*
X16936Y-23040D01*
X16936Y-23040D02*
X16994Y-23034D01*
X16994Y-23034D02*
X17052Y-23038D01*
X17052Y-23038D02*
X17108Y-23054D01*
X17108Y-23054D02*
X17160Y-23080D01*
X17160Y-23080D02*
X17206Y-23116D01*
X17206Y-23116D02*
X17245Y-23161D01*
X17245Y-23161D02*
X17274Y-23211D01*
X17274Y-23211D02*
X17292Y-23267D01*
X17292Y-23267D02*
X17299Y-23325D01*
X17299Y-23325D02*
X17300Y-23333D01*
X11700Y-38867D02*
X12300Y-38867D01*
X12300Y-38867D02*
X12300Y-39467D01*
X12300Y-39467D02*
X11700Y-39467D01*
X11700Y-39467D02*
X11700Y-38867D01*
X12300Y-40167D02*
X12294Y-40225D01*
X12294Y-40225D02*
X12277Y-40281D01*
X12277Y-40281D02*
X12249Y-40333D01*
X12249Y-40333D02*
X12212Y-40378D01*
X12212Y-40378D02*
X12167Y-40415D01*
X12167Y-40415D02*
X12116Y-40443D01*
X12116Y-40443D02*
X12060Y-40460D01*
X12060Y-40460D02*
X12002Y-40466D01*
X12002Y-40466D02*
X11944Y-40461D01*
X11944Y-40461D02*
X11888Y-40445D01*
X11888Y-40445D02*
X11836Y-40418D01*
X11836Y-40418D02*
X11791Y-40381D01*
X11791Y-40381D02*
X11753Y-40336D01*
X11753Y-40336D02*
X11725Y-40285D01*
X11725Y-40285D02*
X11707Y-40229D01*
X11707Y-40229D02*
X11701Y-40171D01*
X11701Y-40171D02*
X11705Y-40113D01*
X11705Y-40113D02*
X11722Y-40057D01*
X11722Y-40057D02*
X11748Y-40005D01*
X11748Y-40005D02*
X11785Y-39959D01*
X11785Y-39959D02*
X11829Y-39921D01*
X11829Y-39921D02*
X11880Y-39893D01*
X11880Y-39893D02*
X11936Y-39874D01*
X11936Y-39874D02*
X11994Y-39868D01*
X11994Y-39868D02*
X12052Y-39872D01*
X12052Y-39872D02*
X12108Y-39888D01*
X12108Y-39888D02*
X12160Y-39914D01*
X12160Y-39914D02*
X12206Y-39950D01*
X12206Y-39950D02*
X12245Y-39995D01*
X12245Y-39995D02*
X12274Y-40045D01*
X12274Y-40045D02*
X12292Y-40101D01*
X12292Y-40101D02*
X12299Y-40159D01*
X12299Y-40159D02*
X12300Y-40167D01*
X12300Y-41167D02*
X12294Y-41225D01*
X12294Y-41225D02*
X12277Y-41281D01*
X12277Y-41281D02*
X12249Y-41333D01*
X12249Y-41333D02*
X12212Y-41378D01*
X12212Y-41378D02*
X12167Y-41415D01*
X12167Y-41415D02*
X12116Y-41443D01*
X12116Y-41443D02*
X12060Y-41460D01*
X12060Y-41460D02*
X12002Y-41466D01*
X12002Y-41466D02*
X11944Y-41461D01*
X11944Y-41461D02*
X11888Y-41445D01*
X11888Y-41445D02*
X11836Y-41418D01*
X11836Y-41418D02*
X11791Y-41381D01*
X11791Y-41381D02*
X11753Y-41336D01*
X11753Y-41336D02*
X11725Y-41285D01*
X11725Y-41285D02*
X11707Y-41229D01*
X11707Y-41229D02*
X11701Y-41171D01*
X11701Y-41171D02*
X11705Y-41113D01*
X11705Y-41113D02*
X11722Y-41057D01*
X11722Y-41057D02*
X11748Y-41005D01*
X11748Y-41005D02*
X11785Y-40959D01*
X11785Y-40959D02*
X11829Y-40921D01*
X11829Y-40921D02*
X11880Y-40893D01*
X11880Y-40893D02*
X11936Y-40874D01*
X11936Y-40874D02*
X11994Y-40868D01*
X11994Y-40868D02*
X12052Y-40872D01*
X12052Y-40872D02*
X12108Y-40888D01*
X12108Y-40888D02*
X12160Y-40914D01*
X12160Y-40914D02*
X12206Y-40950D01*
X12206Y-40950D02*
X12245Y-40995D01*
X12245Y-40995D02*
X12274Y-41045D01*
X12274Y-41045D02*
X12292Y-41101D01*
X12292Y-41101D02*
X12299Y-41159D01*
X12299Y-41159D02*
X12300Y-41167D01*
X12300Y-42167D02*
X12294Y-42225D01*
X12294Y-42225D02*
X12277Y-42281D01*
X12277Y-42281D02*
X12249Y-42333D01*
X12249Y-42333D02*
X12212Y-42378D01*
X12212Y-42378D02*
X12167Y-42415D01*
X12167Y-42415D02*
X12116Y-42443D01*
X12116Y-42443D02*
X12060Y-42460D01*
X12060Y-42460D02*
X12002Y-42466D01*
X12002Y-42466D02*
X11944Y-42461D01*
X11944Y-42461D02*
X11888Y-42445D01*
X11888Y-42445D02*
X11836Y-42418D01*
X11836Y-42418D02*
X11791Y-42381D01*
X11791Y-42381D02*
X11753Y-42336D01*
X11753Y-42336D02*
X11725Y-42285D01*
X11725Y-42285D02*
X11707Y-42229D01*
X11707Y-42229D02*
X11701Y-42171D01*
X11701Y-42171D02*
X11705Y-42113D01*
X11705Y-42113D02*
X11722Y-42057D01*
X11722Y-42057D02*
X11748Y-42005D01*
X11748Y-42005D02*
X11785Y-41959D01*
X11785Y-41959D02*
X11829Y-41921D01*
X11829Y-41921D02*
X11880Y-41893D01*
X11880Y-41893D02*
X11936Y-41874D01*
X11936Y-41874D02*
X11994Y-41868D01*
X11994Y-41868D02*
X12052Y-41872D01*
X12052Y-41872D02*
X12108Y-41888D01*
X12108Y-41888D02*
X12160Y-41914D01*
X12160Y-41914D02*
X12206Y-41950D01*
X12206Y-41950D02*
X12245Y-41995D01*
X12245Y-41995D02*
X12274Y-42045D01*
X12274Y-42045D02*
X12292Y-42101D01*
X12292Y-42101D02*
X12299Y-42159D01*
X12299Y-42159D02*
X12300Y-42167D01*
X12300Y-43167D02*
X12294Y-43225D01*
X12294Y-43225D02*
X12277Y-43281D01*
X12277Y-43281D02*
X12249Y-43333D01*
X12249Y-43333D02*
X12212Y-43378D01*
X12212Y-43378D02*
X12167Y-43415D01*
X12167Y-43415D02*
X12116Y-43443D01*
X12116Y-43443D02*
X12060Y-43460D01*
X12060Y-43460D02*
X12002Y-43466D01*
X12002Y-43466D02*
X11944Y-43461D01*
X11944Y-43461D02*
X11888Y-43445D01*
X11888Y-43445D02*
X11836Y-43418D01*
X11836Y-43418D02*
X11791Y-43381D01*
X11791Y-43381D02*
X11753Y-43336D01*
X11753Y-43336D02*
X11725Y-43285D01*
X11725Y-43285D02*
X11707Y-43229D01*
X11707Y-43229D02*
X11701Y-43171D01*
X11701Y-43171D02*
X11705Y-43113D01*
X11705Y-43113D02*
X11722Y-43057D01*
X11722Y-43057D02*
X11748Y-43005D01*
X11748Y-43005D02*
X11785Y-42959D01*
X11785Y-42959D02*
X11829Y-42921D01*
X11829Y-42921D02*
X11880Y-42893D01*
X11880Y-42893D02*
X11936Y-42874D01*
X11936Y-42874D02*
X11994Y-42868D01*
X11994Y-42868D02*
X12052Y-42872D01*
X12052Y-42872D02*
X12108Y-42888D01*
X12108Y-42888D02*
X12160Y-42914D01*
X12160Y-42914D02*
X12206Y-42950D01*
X12206Y-42950D02*
X12245Y-42995D01*
X12245Y-42995D02*
X12274Y-43045D01*
X12274Y-43045D02*
X12292Y-43101D01*
X12292Y-43101D02*
X12299Y-43159D01*
X12299Y-43159D02*
X12300Y-43167D01*
X12300Y-44167D02*
X12294Y-44225D01*
X12294Y-44225D02*
X12277Y-44281D01*
X12277Y-44281D02*
X12249Y-44333D01*
X12249Y-44333D02*
X12212Y-44378D01*
X12212Y-44378D02*
X12167Y-44415D01*
X12167Y-44415D02*
X12116Y-44443D01*
X12116Y-44443D02*
X12060Y-44460D01*
X12060Y-44460D02*
X12002Y-44466D01*
X12002Y-44466D02*
X11944Y-44461D01*
X11944Y-44461D02*
X11888Y-44445D01*
X11888Y-44445D02*
X11836Y-44418D01*
X11836Y-44418D02*
X11791Y-44381D01*
X11791Y-44381D02*
X11753Y-44336D01*
X11753Y-44336D02*
X11725Y-44285D01*
X11725Y-44285D02*
X11707Y-44229D01*
X11707Y-44229D02*
X11701Y-44171D01*
X11701Y-44171D02*
X11705Y-44113D01*
X11705Y-44113D02*
X11722Y-44057D01*
X11722Y-44057D02*
X11748Y-44005D01*
X11748Y-44005D02*
X11785Y-43959D01*
X11785Y-43959D02*
X11829Y-43921D01*
X11829Y-43921D02*
X11880Y-43893D01*
X11880Y-43893D02*
X11936Y-43874D01*
X11936Y-43874D02*
X11994Y-43868D01*
X11994Y-43868D02*
X12052Y-43872D01*
X12052Y-43872D02*
X12108Y-43888D01*
X12108Y-43888D02*
X12160Y-43914D01*
X12160Y-43914D02*
X12206Y-43950D01*
X12206Y-43950D02*
X12245Y-43995D01*
X12245Y-43995D02*
X12274Y-44045D01*
X12274Y-44045D02*
X12292Y-44101D01*
X12292Y-44101D02*
X12299Y-44159D01*
X12299Y-44159D02*
X12300Y-44167D01*
X11700Y-18033D02*
X12300Y-18033D01*
X12300Y-18033D02*
X12300Y-18633D01*
X12300Y-18633D02*
X11700Y-18633D01*
X11700Y-18633D02*
X11700Y-18033D01*
X12300Y-19333D02*
X12294Y-19391D01*
X12294Y-19391D02*
X12277Y-19447D01*
X12277Y-19447D02*
X12249Y-19499D01*
X12249Y-19499D02*
X12212Y-19544D01*
X12212Y-19544D02*
X12167Y-19581D01*
X12167Y-19581D02*
X12116Y-19609D01*
X12116Y-19609D02*
X12060Y-19626D01*
X12060Y-19626D02*
X12002Y-19632D01*
X12002Y-19632D02*
X11944Y-19627D01*
X11944Y-19627D02*
X11888Y-19611D01*
X11888Y-19611D02*
X11836Y-19584D01*
X11836Y-19584D02*
X11791Y-19547D01*
X11791Y-19547D02*
X11753Y-19502D01*
X11753Y-19502D02*
X11725Y-19451D01*
X11725Y-19451D02*
X11707Y-19395D01*
X11707Y-19395D02*
X11701Y-19337D01*
X11701Y-19337D02*
X11705Y-19279D01*
X11705Y-19279D02*
X11722Y-19223D01*
X11722Y-19223D02*
X11748Y-19171D01*
X11748Y-19171D02*
X11785Y-19125D01*
X11785Y-19125D02*
X11829Y-19087D01*
X11829Y-19087D02*
X11880Y-19059D01*
X11880Y-19059D02*
X11936Y-19040D01*
X11936Y-19040D02*
X11994Y-19034D01*
X11994Y-19034D02*
X12052Y-19038D01*
X12052Y-19038D02*
X12108Y-19054D01*
X12108Y-19054D02*
X12160Y-19080D01*
X12160Y-19080D02*
X12206Y-19116D01*
X12206Y-19116D02*
X12245Y-19161D01*
X12245Y-19161D02*
X12274Y-19211D01*
X12274Y-19211D02*
X12292Y-19267D01*
X12292Y-19267D02*
X12299Y-19325D01*
X12299Y-19325D02*
X12300Y-19333D01*
X12300Y-20333D02*
X12294Y-20391D01*
X12294Y-20391D02*
X12277Y-20447D01*
X12277Y-20447D02*
X12249Y-20499D01*
X12249Y-20499D02*
X12212Y-20544D01*
X12212Y-20544D02*
X12167Y-20581D01*
X12167Y-20581D02*
X12116Y-20609D01*
X12116Y-20609D02*
X12060Y-20626D01*
X12060Y-20626D02*
X12002Y-20632D01*
X12002Y-20632D02*
X11944Y-20627D01*
X11944Y-20627D02*
X11888Y-20611D01*
X11888Y-20611D02*
X11836Y-20584D01*
X11836Y-20584D02*
X11791Y-20547D01*
X11791Y-20547D02*
X11753Y-20502D01*
X11753Y-20502D02*
X11725Y-20451D01*
X11725Y-20451D02*
X11707Y-20395D01*
X11707Y-20395D02*
X11701Y-20337D01*
X11701Y-20337D02*
X11705Y-20279D01*
X11705Y-20279D02*
X11722Y-20223D01*
X11722Y-20223D02*
X11748Y-20171D01*
X11748Y-20171D02*
X11785Y-20125D01*
X11785Y-20125D02*
X11829Y-20087D01*
X11829Y-20087D02*
X11880Y-20059D01*
X11880Y-20059D02*
X11936Y-20040D01*
X11936Y-20040D02*
X11994Y-20034D01*
X11994Y-20034D02*
X12052Y-20038D01*
X12052Y-20038D02*
X12108Y-20054D01*
X12108Y-20054D02*
X12160Y-20080D01*
X12160Y-20080D02*
X12206Y-20116D01*
X12206Y-20116D02*
X12245Y-20161D01*
X12245Y-20161D02*
X12274Y-20211D01*
X12274Y-20211D02*
X12292Y-20267D01*
X12292Y-20267D02*
X12299Y-20325D01*
X12299Y-20325D02*
X12300Y-20333D01*
X12300Y-21333D02*
X12294Y-21391D01*
X12294Y-21391D02*
X12277Y-21447D01*
X12277Y-21447D02*
X12249Y-21499D01*
X12249Y-21499D02*
X12212Y-21544D01*
X12212Y-21544D02*
X12167Y-21581D01*
X12167Y-21581D02*
X12116Y-21609D01*
X12116Y-21609D02*
X12060Y-21626D01*
X12060Y-21626D02*
X12002Y-21632D01*
X12002Y-21632D02*
X11944Y-21627D01*
X11944Y-21627D02*
X11888Y-21611D01*
X11888Y-21611D02*
X11836Y-21584D01*
X11836Y-21584D02*
X11791Y-21547D01*
X11791Y-21547D02*
X11753Y-21502D01*
X11753Y-21502D02*
X11725Y-21451D01*
X11725Y-21451D02*
X11707Y-21395D01*
X11707Y-21395D02*
X11701Y-21337D01*
X11701Y-21337D02*
X11705Y-21279D01*
X11705Y-21279D02*
X11722Y-21223D01*
X11722Y-21223D02*
X11748Y-21171D01*
X11748Y-21171D02*
X11785Y-21125D01*
X11785Y-21125D02*
X11829Y-21087D01*
X11829Y-21087D02*
X11880Y-21059D01*
X11880Y-21059D02*
X11936Y-21040D01*
X11936Y-21040D02*
X11994Y-21034D01*
X11994Y-21034D02*
X12052Y-21038D01*
X12052Y-21038D02*
X12108Y-21054D01*
X12108Y-21054D02*
X12160Y-21080D01*
X12160Y-21080D02*
X12206Y-21116D01*
X12206Y-21116D02*
X12245Y-21161D01*
X12245Y-21161D02*
X12274Y-21211D01*
X12274Y-21211D02*
X12292Y-21267D01*
X12292Y-21267D02*
X12299Y-21325D01*
X12299Y-21325D02*
X12300Y-21333D01*
X12300Y-22333D02*
X12294Y-22391D01*
X12294Y-22391D02*
X12277Y-22447D01*
X12277Y-22447D02*
X12249Y-22499D01*
X12249Y-22499D02*
X12212Y-22544D01*
X12212Y-22544D02*
X12167Y-22581D01*
X12167Y-22581D02*
X12116Y-22609D01*
X12116Y-22609D02*
X12060Y-22626D01*
X12060Y-22626D02*
X12002Y-22632D01*
X12002Y-22632D02*
X11944Y-22627D01*
X11944Y-22627D02*
X11888Y-22611D01*
X11888Y-22611D02*
X11836Y-22584D01*
X11836Y-22584D02*
X11791Y-22547D01*
X11791Y-22547D02*
X11753Y-22502D01*
X11753Y-22502D02*
X11725Y-22451D01*
X11725Y-22451D02*
X11707Y-22395D01*
X11707Y-22395D02*
X11701Y-22337D01*
X11701Y-22337D02*
X11705Y-22279D01*
X11705Y-22279D02*
X11722Y-22223D01*
X11722Y-22223D02*
X11748Y-22171D01*
X11748Y-22171D02*
X11785Y-22125D01*
X11785Y-22125D02*
X11829Y-22087D01*
X11829Y-22087D02*
X11880Y-22059D01*
X11880Y-22059D02*
X11936Y-22040D01*
X11936Y-22040D02*
X11994Y-22034D01*
X11994Y-22034D02*
X12052Y-22038D01*
X12052Y-22038D02*
X12108Y-22054D01*
X12108Y-22054D02*
X12160Y-22080D01*
X12160Y-22080D02*
X12206Y-22116D01*
X12206Y-22116D02*
X12245Y-22161D01*
X12245Y-22161D02*
X12274Y-22211D01*
X12274Y-22211D02*
X12292Y-22267D01*
X12292Y-22267D02*
X12299Y-22325D01*
X12299Y-22325D02*
X12300Y-22333D01*
X12300Y-23333D02*
X12294Y-23391D01*
X12294Y-23391D02*
X12277Y-23447D01*
X12277Y-23447D02*
X12249Y-23499D01*
X12249Y-23499D02*
X12212Y-23544D01*
X12212Y-23544D02*
X12167Y-23581D01*
X12167Y-23581D02*
X12116Y-23609D01*
X12116Y-23609D02*
X12060Y-23626D01*
X12060Y-23626D02*
X12002Y-23632D01*
X12002Y-23632D02*
X11944Y-23627D01*
X11944Y-23627D02*
X11888Y-23611D01*
X11888Y-23611D02*
X11836Y-23584D01*
X11836Y-23584D02*
X11791Y-23547D01*
X11791Y-23547D02*
X11753Y-23502D01*
X11753Y-23502D02*
X11725Y-23451D01*
X11725Y-23451D02*
X11707Y-23395D01*
X11707Y-23395D02*
X11701Y-23337D01*
X11701Y-23337D02*
X11705Y-23279D01*
X11705Y-23279D02*
X11722Y-23223D01*
X11722Y-23223D02*
X11748Y-23171D01*
X11748Y-23171D02*
X11785Y-23125D01*
X11785Y-23125D02*
X11829Y-23087D01*
X11829Y-23087D02*
X11880Y-23059D01*
X11880Y-23059D02*
X11936Y-23040D01*
X11936Y-23040D02*
X11994Y-23034D01*
X11994Y-23034D02*
X12052Y-23038D01*
X12052Y-23038D02*
X12108Y-23054D01*
X12108Y-23054D02*
X12160Y-23080D01*
X12160Y-23080D02*
X12206Y-23116D01*
X12206Y-23116D02*
X12245Y-23161D01*
X12245Y-23161D02*
X12274Y-23211D01*
X12274Y-23211D02*
X12292Y-23267D01*
X12292Y-23267D02*
X12299Y-23325D01*
X12299Y-23325D02*
X12300Y-23333D01*
X62650Y-31750D02*
X62637Y-31876D01*
X62637Y-31876D02*
X62600Y-31997D01*
X62600Y-31997D02*
X62541Y-32109D01*
X62541Y-32109D02*
X62461Y-32208D01*
X62461Y-32208D02*
X62363Y-32288D01*
X62363Y-32288D02*
X62251Y-32349D01*
X62251Y-32349D02*
X62130Y-32386D01*
X62130Y-32386D02*
X62004Y-32399D01*
X62004Y-32399D02*
X61879Y-32388D01*
X61879Y-32388D02*
X61757Y-32352D01*
X61757Y-32352D02*
X61645Y-32293D01*
X61645Y-32293D02*
X61546Y-32214D01*
X61546Y-32214D02*
X61464Y-32117D01*
X61464Y-32117D02*
X61403Y-32006D01*
X61403Y-32006D02*
X61365Y-31885D01*
X61365Y-31885D02*
X61351Y-31759D01*
X61351Y-31759D02*
X61361Y-31633D01*
X61361Y-31633D02*
X61396Y-31511D01*
X61396Y-31511D02*
X61454Y-31398D01*
X61454Y-31398D02*
X61533Y-31299D01*
X61533Y-31299D02*
X61630Y-31217D01*
X61630Y-31217D02*
X61740Y-31155D01*
X61740Y-31155D02*
X61861Y-31116D01*
X61861Y-31116D02*
X61987Y-31101D01*
X61987Y-31101D02*
X62112Y-31110D01*
X62112Y-31110D02*
X62235Y-31144D01*
X62235Y-31144D02*
X62348Y-31202D01*
X62348Y-31202D02*
X62448Y-31280D01*
X62448Y-31280D02*
X62531Y-31376D01*
X62531Y-31376D02*
X62593Y-31486D01*
X62593Y-31486D02*
X62633Y-31606D01*
X62633Y-31606D02*
X62649Y-31732D01*
X62649Y-31732D02*
X62650Y-31750D01*
X57650Y-31750D02*
X57637Y-31876D01*
X57637Y-31876D02*
X57600Y-31997D01*
X57600Y-31997D02*
X57541Y-32109D01*
X57541Y-32109D02*
X57461Y-32208D01*
X57461Y-32208D02*
X57363Y-32288D01*
X57363Y-32288D02*
X57251Y-32349D01*
X57251Y-32349D02*
X57130Y-32386D01*
X57130Y-32386D02*
X57004Y-32399D01*
X57004Y-32399D02*
X56879Y-32388D01*
X56879Y-32388D02*
X56757Y-32352D01*
X56757Y-32352D02*
X56645Y-32293D01*
X56645Y-32293D02*
X56546Y-32214D01*
X56546Y-32214D02*
X56464Y-32117D01*
X56464Y-32117D02*
X56403Y-32006D01*
X56403Y-32006D02*
X56365Y-31885D01*
X56365Y-31885D02*
X56351Y-31759D01*
X56351Y-31759D02*
X56361Y-31633D01*
X56361Y-31633D02*
X56396Y-31511D01*
X56396Y-31511D02*
X56454Y-31398D01*
X56454Y-31398D02*
X56533Y-31299D01*
X56533Y-31299D02*
X56630Y-31217D01*
X56630Y-31217D02*
X56740Y-31155D01*
X56740Y-31155D02*
X56861Y-31116D01*
X56861Y-31116D02*
X56987Y-31101D01*
X56987Y-31101D02*
X57112Y-31110D01*
X57112Y-31110D02*
X57235Y-31144D01*
X57235Y-31144D02*
X57348Y-31202D01*
X57348Y-31202D02*
X57448Y-31280D01*
X57448Y-31280D02*
X57531Y-31376D01*
X57531Y-31376D02*
X57593Y-31486D01*
X57593Y-31486D02*
X57633Y-31606D01*
X57633Y-31606D02*
X57649Y-31732D01*
X57649Y-31732D02*
X57650Y-31750D01*
X52650Y-31750D02*
X52637Y-31876D01*
X52637Y-31876D02*
X52600Y-31997D01*
X52600Y-31997D02*
X52541Y-32109D01*
X52541Y-32109D02*
X52461Y-32208D01*
X52461Y-32208D02*
X52363Y-32288D01*
X52363Y-32288D02*
X52251Y-32349D01*
X52251Y-32349D02*
X52130Y-32386D01*
X52130Y-32386D02*
X52004Y-32399D01*
X52004Y-32399D02*
X51879Y-32388D01*
X51879Y-32388D02*
X51757Y-32352D01*
X51757Y-32352D02*
X51645Y-32293D01*
X51645Y-32293D02*
X51546Y-32214D01*
X51546Y-32214D02*
X51464Y-32117D01*
X51464Y-32117D02*
X51403Y-32006D01*
X51403Y-32006D02*
X51365Y-31885D01*
X51365Y-31885D02*
X51351Y-31759D01*
X51351Y-31759D02*
X51361Y-31633D01*
X51361Y-31633D02*
X51396Y-31511D01*
X51396Y-31511D02*
X51454Y-31398D01*
X51454Y-31398D02*
X51533Y-31299D01*
X51533Y-31299D02*
X51630Y-31217D01*
X51630Y-31217D02*
X51740Y-31155D01*
X51740Y-31155D02*
X51861Y-31116D01*
X51861Y-31116D02*
X51987Y-31101D01*
X51987Y-31101D02*
X52112Y-31110D01*
X52112Y-31110D02*
X52235Y-31144D01*
X52235Y-31144D02*
X52348Y-31202D01*
X52348Y-31202D02*
X52448Y-31280D01*
X52448Y-31280D02*
X52531Y-31376D01*
X52531Y-31376D02*
X52593Y-31486D01*
X52593Y-31486D02*
X52633Y-31606D01*
X52633Y-31606D02*
X52649Y-31732D01*
X52649Y-31732D02*
X52650Y-31750D01*
X47650Y-31750D02*
X47637Y-31876D01*
X47637Y-31876D02*
X47600Y-31997D01*
X47600Y-31997D02*
X47541Y-32109D01*
X47541Y-32109D02*
X47461Y-32208D01*
X47461Y-32208D02*
X47363Y-32288D01*
X47363Y-32288D02*
X47251Y-32349D01*
X47251Y-32349D02*
X47130Y-32386D01*
X47130Y-32386D02*
X47004Y-32399D01*
X47004Y-32399D02*
X46879Y-32388D01*
X46879Y-32388D02*
X46757Y-32352D01*
X46757Y-32352D02*
X46645Y-32293D01*
X46645Y-32293D02*
X46546Y-32214D01*
X46546Y-32214D02*
X46464Y-32117D01*
X46464Y-32117D02*
X46403Y-32006D01*
X46403Y-32006D02*
X46365Y-31885D01*
X46365Y-31885D02*
X46351Y-31759D01*
X46351Y-31759D02*
X46361Y-31633D01*
X46361Y-31633D02*
X46396Y-31511D01*
X46396Y-31511D02*
X46454Y-31398D01*
X46454Y-31398D02*
X46533Y-31299D01*
X46533Y-31299D02*
X46630Y-31217D01*
X46630Y-31217D02*
X46740Y-31155D01*
X46740Y-31155D02*
X46861Y-31116D01*
X46861Y-31116D02*
X46987Y-31101D01*
X46987Y-31101D02*
X47112Y-31110D01*
X47112Y-31110D02*
X47235Y-31144D01*
X47235Y-31144D02*
X47348Y-31202D01*
X47348Y-31202D02*
X47448Y-31280D01*
X47448Y-31280D02*
X47531Y-31376D01*
X47531Y-31376D02*
X47593Y-31486D01*
X47593Y-31486D02*
X47633Y-31606D01*
X47633Y-31606D02*
X47649Y-31732D01*
X47649Y-31732D02*
X47650Y-31750D01*
X42650Y-31750D02*
X42637Y-31876D01*
X42637Y-31876D02*
X42600Y-31997D01*
X42600Y-31997D02*
X42541Y-32109D01*
X42541Y-32109D02*
X42461Y-32208D01*
X42461Y-32208D02*
X42363Y-32288D01*
X42363Y-32288D02*
X42251Y-32349D01*
X42251Y-32349D02*
X42130Y-32386D01*
X42130Y-32386D02*
X42004Y-32399D01*
X42004Y-32399D02*
X41879Y-32388D01*
X41879Y-32388D02*
X41757Y-32352D01*
X41757Y-32352D02*
X41645Y-32293D01*
X41645Y-32293D02*
X41546Y-32214D01*
X41546Y-32214D02*
X41464Y-32117D01*
X41464Y-32117D02*
X41403Y-32006D01*
X41403Y-32006D02*
X41365Y-31885D01*
X41365Y-31885D02*
X41351Y-31759D01*
X41351Y-31759D02*
X41361Y-31633D01*
X41361Y-31633D02*
X41396Y-31511D01*
X41396Y-31511D02*
X41454Y-31398D01*
X41454Y-31398D02*
X41533Y-31299D01*
X41533Y-31299D02*
X41630Y-31217D01*
X41630Y-31217D02*
X41740Y-31155D01*
X41740Y-31155D02*
X41861Y-31116D01*
X41861Y-31116D02*
X41987Y-31101D01*
X41987Y-31101D02*
X42112Y-31110D01*
X42112Y-31110D02*
X42235Y-31144D01*
X42235Y-31144D02*
X42348Y-31202D01*
X42348Y-31202D02*
X42448Y-31280D01*
X42448Y-31280D02*
X42531Y-31376D01*
X42531Y-31376D02*
X42593Y-31486D01*
X42593Y-31486D02*
X42633Y-31606D01*
X42633Y-31606D02*
X42649Y-31732D01*
X42649Y-31732D02*
X42650Y-31750D01*
X37650Y-31750D02*
X37637Y-31876D01*
X37637Y-31876D02*
X37600Y-31997D01*
X37600Y-31997D02*
X37541Y-32109D01*
X37541Y-32109D02*
X37461Y-32208D01*
X37461Y-32208D02*
X37363Y-32288D01*
X37363Y-32288D02*
X37251Y-32349D01*
X37251Y-32349D02*
X37130Y-32386D01*
X37130Y-32386D02*
X37004Y-32399D01*
X37004Y-32399D02*
X36879Y-32388D01*
X36879Y-32388D02*
X36757Y-32352D01*
X36757Y-32352D02*
X36645Y-32293D01*
X36645Y-32293D02*
X36546Y-32214D01*
X36546Y-32214D02*
X36464Y-32117D01*
X36464Y-32117D02*
X36403Y-32006D01*
X36403Y-32006D02*
X36365Y-31885D01*
X36365Y-31885D02*
X36351Y-31759D01*
X36351Y-31759D02*
X36361Y-31633D01*
X36361Y-31633D02*
X36396Y-31511D01*
X36396Y-31511D02*
X36454Y-31398D01*
X36454Y-31398D02*
X36533Y-31299D01*
X36533Y-31299D02*
X36630Y-31217D01*
X36630Y-31217D02*
X36740Y-31155D01*
X36740Y-31155D02*
X36861Y-31116D01*
X36861Y-31116D02*
X36987Y-31101D01*
X36987Y-31101D02*
X37112Y-31110D01*
X37112Y-31110D02*
X37235Y-31144D01*
X37235Y-31144D02*
X37348Y-31202D01*
X37348Y-31202D02*
X37448Y-31280D01*
X37448Y-31280D02*
X37531Y-31376D01*
X37531Y-31376D02*
X37593Y-31486D01*
X37593Y-31486D02*
X37633Y-31606D01*
X37633Y-31606D02*
X37649Y-31732D01*
X37649Y-31732D02*
X37650Y-31750D01*
X32650Y-31750D02*
X32637Y-31876D01*
X32637Y-31876D02*
X32600Y-31997D01*
X32600Y-31997D02*
X32541Y-32109D01*
X32541Y-32109D02*
X32461Y-32208D01*
X32461Y-32208D02*
X32363Y-32288D01*
X32363Y-32288D02*
X32251Y-32349D01*
X32251Y-32349D02*
X32130Y-32386D01*
X32130Y-32386D02*
X32004Y-32399D01*
X32004Y-32399D02*
X31879Y-32388D01*
X31879Y-32388D02*
X31757Y-32352D01*
X31757Y-32352D02*
X31645Y-32293D01*
X31645Y-32293D02*
X31546Y-32214D01*
X31546Y-32214D02*
X31464Y-32117D01*
X31464Y-32117D02*
X31403Y-32006D01*
X31403Y-32006D02*
X31365Y-31885D01*
X31365Y-31885D02*
X31351Y-31759D01*
X31351Y-31759D02*
X31361Y-31633D01*
X31361Y-31633D02*
X31396Y-31511D01*
X31396Y-31511D02*
X31454Y-31398D01*
X31454Y-31398D02*
X31533Y-31299D01*
X31533Y-31299D02*
X31630Y-31217D01*
X31630Y-31217D02*
X31740Y-31155D01*
X31740Y-31155D02*
X31861Y-31116D01*
X31861Y-31116D02*
X31987Y-31101D01*
X31987Y-31101D02*
X32112Y-31110D01*
X32112Y-31110D02*
X32235Y-31144D01*
X32235Y-31144D02*
X32348Y-31202D01*
X32348Y-31202D02*
X32448Y-31280D01*
X32448Y-31280D02*
X32531Y-31376D01*
X32531Y-31376D02*
X32593Y-31486D01*
X32593Y-31486D02*
X32633Y-31606D01*
X32633Y-31606D02*
X32649Y-31732D01*
X32649Y-31732D02*
X32650Y-31750D01*
X27650Y-31750D02*
X27637Y-31876D01*
X27637Y-31876D02*
X27600Y-31997D01*
X27600Y-31997D02*
X27541Y-32109D01*
X27541Y-32109D02*
X27461Y-32208D01*
X27461Y-32208D02*
X27363Y-32288D01*
X27363Y-32288D02*
X27251Y-32349D01*
X27251Y-32349D02*
X27130Y-32386D01*
X27130Y-32386D02*
X27004Y-32399D01*
X27004Y-32399D02*
X26879Y-32388D01*
X26879Y-32388D02*
X26757Y-32352D01*
X26757Y-32352D02*
X26645Y-32293D01*
X26645Y-32293D02*
X26546Y-32214D01*
X26546Y-32214D02*
X26464Y-32117D01*
X26464Y-32117D02*
X26403Y-32006D01*
X26403Y-32006D02*
X26365Y-31885D01*
X26365Y-31885D02*
X26351Y-31759D01*
X26351Y-31759D02*
X26361Y-31633D01*
X26361Y-31633D02*
X26396Y-31511D01*
X26396Y-31511D02*
X26454Y-31398D01*
X26454Y-31398D02*
X26533Y-31299D01*
X26533Y-31299D02*
X26630Y-31217D01*
X26630Y-31217D02*
X26740Y-31155D01*
X26740Y-31155D02*
X26861Y-31116D01*
X26861Y-31116D02*
X26987Y-31101D01*
X26987Y-31101D02*
X27112Y-31110D01*
X27112Y-31110D02*
X27235Y-31144D01*
X27235Y-31144D02*
X27348Y-31202D01*
X27348Y-31202D02*
X27448Y-31280D01*
X27448Y-31280D02*
X27531Y-31376D01*
X27531Y-31376D02*
X27593Y-31486D01*
X27593Y-31486D02*
X27633Y-31606D01*
X27633Y-31606D02*
X27649Y-31732D01*
X27649Y-31732D02*
X27650Y-31750D01*
X22650Y-31750D02*
X22637Y-31876D01*
X22637Y-31876D02*
X22600Y-31997D01*
X22600Y-31997D02*
X22541Y-32109D01*
X22541Y-32109D02*
X22461Y-32208D01*
X22461Y-32208D02*
X22363Y-32288D01*
X22363Y-32288D02*
X22251Y-32349D01*
X22251Y-32349D02*
X22130Y-32386D01*
X22130Y-32386D02*
X22004Y-32399D01*
X22004Y-32399D02*
X21879Y-32388D01*
X21879Y-32388D02*
X21757Y-32352D01*
X21757Y-32352D02*
X21645Y-32293D01*
X21645Y-32293D02*
X21546Y-32214D01*
X21546Y-32214D02*
X21464Y-32117D01*
X21464Y-32117D02*
X21403Y-32006D01*
X21403Y-32006D02*
X21365Y-31885D01*
X21365Y-31885D02*
X21351Y-31759D01*
X21351Y-31759D02*
X21361Y-31633D01*
X21361Y-31633D02*
X21396Y-31511D01*
X21396Y-31511D02*
X21454Y-31398D01*
X21454Y-31398D02*
X21533Y-31299D01*
X21533Y-31299D02*
X21630Y-31217D01*
X21630Y-31217D02*
X21740Y-31155D01*
X21740Y-31155D02*
X21861Y-31116D01*
X21861Y-31116D02*
X21987Y-31101D01*
X21987Y-31101D02*
X22112Y-31110D01*
X22112Y-31110D02*
X22235Y-31144D01*
X22235Y-31144D02*
X22348Y-31202D01*
X22348Y-31202D02*
X22448Y-31280D01*
X22448Y-31280D02*
X22531Y-31376D01*
X22531Y-31376D02*
X22593Y-31486D01*
X22593Y-31486D02*
X22633Y-31606D01*
X22633Y-31606D02*
X22649Y-31732D01*
X22649Y-31732D02*
X22650Y-31750D01*
X17650Y-31750D02*
X17637Y-31876D01*
X17637Y-31876D02*
X17600Y-31997D01*
X17600Y-31997D02*
X17541Y-32109D01*
X17541Y-32109D02*
X17461Y-32208D01*
X17461Y-32208D02*
X17363Y-32288D01*
X17363Y-32288D02*
X17251Y-32349D01*
X17251Y-32349D02*
X17130Y-32386D01*
X17130Y-32386D02*
X17004Y-32399D01*
X17004Y-32399D02*
X16879Y-32388D01*
X16879Y-32388D02*
X16757Y-32352D01*
X16757Y-32352D02*
X16645Y-32293D01*
X16645Y-32293D02*
X16546Y-32214D01*
X16546Y-32214D02*
X16464Y-32117D01*
X16464Y-32117D02*
X16403Y-32006D01*
X16403Y-32006D02*
X16365Y-31885D01*
X16365Y-31885D02*
X16351Y-31759D01*
X16351Y-31759D02*
X16361Y-31633D01*
X16361Y-31633D02*
X16396Y-31511D01*
X16396Y-31511D02*
X16454Y-31398D01*
X16454Y-31398D02*
X16533Y-31299D01*
X16533Y-31299D02*
X16630Y-31217D01*
X16630Y-31217D02*
X16740Y-31155D01*
X16740Y-31155D02*
X16861Y-31116D01*
X16861Y-31116D02*
X16987Y-31101D01*
X16987Y-31101D02*
X17112Y-31110D01*
X17112Y-31110D02*
X17235Y-31144D01*
X17235Y-31144D02*
X17348Y-31202D01*
X17348Y-31202D02*
X17448Y-31280D01*
X17448Y-31280D02*
X17531Y-31376D01*
X17531Y-31376D02*
X17593Y-31486D01*
X17593Y-31486D02*
X17633Y-31606D01*
X17633Y-31606D02*
X17649Y-31732D01*
X17649Y-31732D02*
X17650Y-31750D01*
X12650Y-31750D02*
X12637Y-31876D01*
X12637Y-31876D02*
X12600Y-31997D01*
X12600Y-31997D02*
X12541Y-32109D01*
X12541Y-32109D02*
X12461Y-32208D01*
X12461Y-32208D02*
X12363Y-32288D01*
X12363Y-32288D02*
X12251Y-32349D01*
X12251Y-32349D02*
X12130Y-32386D01*
X12130Y-32386D02*
X12004Y-32399D01*
X12004Y-32399D02*
X11879Y-32388D01*
X11879Y-32388D02*
X11757Y-32352D01*
X11757Y-32352D02*
X11645Y-32293D01*
X11645Y-32293D02*
X11546Y-32214D01*
X11546Y-32214D02*
X11464Y-32117D01*
X11464Y-32117D02*
X11403Y-32006D01*
X11403Y-32006D02*
X11365Y-31885D01*
X11365Y-31885D02*
X11351Y-31759D01*
X11351Y-31759D02*
X11361Y-31633D01*
X11361Y-31633D02*
X11396Y-31511D01*
X11396Y-31511D02*
X11454Y-31398D01*
X11454Y-31398D02*
X11533Y-31299D01*
X11533Y-31299D02*
X11630Y-31217D01*
X11630Y-31217D02*
X11740Y-31155D01*
X11740Y-31155D02*
X11861Y-31116D01*
X11861Y-31116D02*
X11987Y-31101D01*
X11987Y-31101D02*
X12112Y-31110D01*
X12112Y-31110D02*
X12235Y-31144D01*
X12235Y-31144D02*
X12348Y-31202D01*
X12348Y-31202D02*
X12448Y-31280D01*
X12448Y-31280D02*
X12531Y-31376D01*
X12531Y-31376D02*
X12593Y-31486D01*
X12593Y-31486D02*
X12633Y-31606D01*
X12633Y-31606D02*
X12649Y-31732D01*
X12649Y-31732D02*
X12650Y-31750D01*
M02*
