G04 (created by PCBnew (20090216-final)) date Thu 19 May 2011 06:32:33 PM PDT*
G01*
G70*
G90*
%MOIN*%
G04 Gerber Fmt 3.4, Leading zero omitted, Abs format*
%FSLAX34Y34*%
G04 APERTURE LIST*
%ADD10C,0.015000*%
%ADD11R,0.060000X0.060000*%
%ADD12C,0.060000*%
%ADD13C,0.130000*%
%ADD14C,0.010000*%
%ADD15C,0.005000*%
%ADD16C,0.012000*%
%ADD17R,0.080000X0.080000*%
%ADD18C,0.080000*%
%ADD19C,0.150000*%
G04 APERTURE END LIST*
G54D10*
X64000Y-10000D02*
X64000Y-52500D01*
X59000Y-48800D02*
X59011Y-48904D01*
X59011Y-48904D02*
X59043Y-49003D01*
X59043Y-49003D02*
X59095Y-49094D01*
X59095Y-49094D02*
X59165Y-49172D01*
X59165Y-49172D02*
X59250Y-49233D01*
X59250Y-49233D02*
X59345Y-49276D01*
X59345Y-49276D02*
X59448Y-49297D01*
X59448Y-49297D02*
X59500Y-49300D01*
X59500Y-49300D02*
X59604Y-49289D01*
X59604Y-49289D02*
X59703Y-49257D01*
X59703Y-49257D02*
X59794Y-49205D01*
X59794Y-49205D02*
X59872Y-49135D01*
X59872Y-49135D02*
X59933Y-49050D01*
X59933Y-49050D02*
X59976Y-48955D01*
X59976Y-48955D02*
X59997Y-48852D01*
X59997Y-48852D02*
X60000Y-48800D01*
X60000Y-13700D02*
X59989Y-13596D01*
X59989Y-13596D02*
X59957Y-13497D01*
X59957Y-13497D02*
X59905Y-13406D01*
X59905Y-13406D02*
X59835Y-13328D01*
X59835Y-13328D02*
X59750Y-13267D01*
X59750Y-13267D02*
X59655Y-13224D01*
X59655Y-13224D02*
X59552Y-13203D01*
X59552Y-13203D02*
X59500Y-13200D01*
X59500Y-13200D02*
X59396Y-13211D01*
X59396Y-13211D02*
X59297Y-13243D01*
X59297Y-13243D02*
X59206Y-13295D01*
X59206Y-13295D02*
X59128Y-13365D01*
X59128Y-13365D02*
X59067Y-13450D01*
X59067Y-13450D02*
X59024Y-13545D01*
X59024Y-13545D02*
X59003Y-13648D01*
X59003Y-13648D02*
X59000Y-13700D01*
X60000Y-13750D02*
X60000Y-48750D01*
X59000Y-13750D02*
X59000Y-48750D01*
X54000Y-48800D02*
X54011Y-48904D01*
X54011Y-48904D02*
X54043Y-49003D01*
X54043Y-49003D02*
X54095Y-49094D01*
X54095Y-49094D02*
X54165Y-49172D01*
X54165Y-49172D02*
X54250Y-49233D01*
X54250Y-49233D02*
X54345Y-49276D01*
X54345Y-49276D02*
X54448Y-49297D01*
X54448Y-49297D02*
X54500Y-49300D01*
X54500Y-49300D02*
X54604Y-49289D01*
X54604Y-49289D02*
X54703Y-49257D01*
X54703Y-49257D02*
X54794Y-49205D01*
X54794Y-49205D02*
X54872Y-49135D01*
X54872Y-49135D02*
X54933Y-49050D01*
X54933Y-49050D02*
X54976Y-48955D01*
X54976Y-48955D02*
X54997Y-48852D01*
X54997Y-48852D02*
X55000Y-48800D01*
X55000Y-13700D02*
X54989Y-13596D01*
X54989Y-13596D02*
X54957Y-13497D01*
X54957Y-13497D02*
X54905Y-13406D01*
X54905Y-13406D02*
X54835Y-13328D01*
X54835Y-13328D02*
X54750Y-13267D01*
X54750Y-13267D02*
X54655Y-13224D01*
X54655Y-13224D02*
X54552Y-13203D01*
X54552Y-13203D02*
X54500Y-13200D01*
X54500Y-13200D02*
X54396Y-13211D01*
X54396Y-13211D02*
X54297Y-13243D01*
X54297Y-13243D02*
X54206Y-13295D01*
X54206Y-13295D02*
X54128Y-13365D01*
X54128Y-13365D02*
X54067Y-13450D01*
X54067Y-13450D02*
X54024Y-13545D01*
X54024Y-13545D02*
X54003Y-13648D01*
X54003Y-13648D02*
X54000Y-13700D01*
X55000Y-13750D02*
X55000Y-48750D01*
X54000Y-13750D02*
X54000Y-48750D01*
X49000Y-48800D02*
X49011Y-48904D01*
X49011Y-48904D02*
X49043Y-49003D01*
X49043Y-49003D02*
X49095Y-49094D01*
X49095Y-49094D02*
X49165Y-49172D01*
X49165Y-49172D02*
X49250Y-49233D01*
X49250Y-49233D02*
X49345Y-49276D01*
X49345Y-49276D02*
X49448Y-49297D01*
X49448Y-49297D02*
X49500Y-49300D01*
X49500Y-49300D02*
X49604Y-49289D01*
X49604Y-49289D02*
X49703Y-49257D01*
X49703Y-49257D02*
X49794Y-49205D01*
X49794Y-49205D02*
X49872Y-49135D01*
X49872Y-49135D02*
X49933Y-49050D01*
X49933Y-49050D02*
X49976Y-48955D01*
X49976Y-48955D02*
X49997Y-48852D01*
X49997Y-48852D02*
X50000Y-48800D01*
X50000Y-13700D02*
X49989Y-13596D01*
X49989Y-13596D02*
X49957Y-13497D01*
X49957Y-13497D02*
X49905Y-13406D01*
X49905Y-13406D02*
X49835Y-13328D01*
X49835Y-13328D02*
X49750Y-13267D01*
X49750Y-13267D02*
X49655Y-13224D01*
X49655Y-13224D02*
X49552Y-13203D01*
X49552Y-13203D02*
X49500Y-13200D01*
X49500Y-13200D02*
X49396Y-13211D01*
X49396Y-13211D02*
X49297Y-13243D01*
X49297Y-13243D02*
X49206Y-13295D01*
X49206Y-13295D02*
X49128Y-13365D01*
X49128Y-13365D02*
X49067Y-13450D01*
X49067Y-13450D02*
X49024Y-13545D01*
X49024Y-13545D02*
X49003Y-13648D01*
X49003Y-13648D02*
X49000Y-13700D01*
X50000Y-13750D02*
X50000Y-48750D01*
X49000Y-13750D02*
X49000Y-48750D01*
X44000Y-48800D02*
X44011Y-48904D01*
X44011Y-48904D02*
X44043Y-49003D01*
X44043Y-49003D02*
X44095Y-49094D01*
X44095Y-49094D02*
X44165Y-49172D01*
X44165Y-49172D02*
X44250Y-49233D01*
X44250Y-49233D02*
X44345Y-49276D01*
X44345Y-49276D02*
X44448Y-49297D01*
X44448Y-49297D02*
X44500Y-49300D01*
X44500Y-49300D02*
X44604Y-49289D01*
X44604Y-49289D02*
X44703Y-49257D01*
X44703Y-49257D02*
X44794Y-49205D01*
X44794Y-49205D02*
X44872Y-49135D01*
X44872Y-49135D02*
X44933Y-49050D01*
X44933Y-49050D02*
X44976Y-48955D01*
X44976Y-48955D02*
X44997Y-48852D01*
X44997Y-48852D02*
X45000Y-48800D01*
X45000Y-13700D02*
X44989Y-13596D01*
X44989Y-13596D02*
X44957Y-13497D01*
X44957Y-13497D02*
X44905Y-13406D01*
X44905Y-13406D02*
X44835Y-13328D01*
X44835Y-13328D02*
X44750Y-13267D01*
X44750Y-13267D02*
X44655Y-13224D01*
X44655Y-13224D02*
X44552Y-13203D01*
X44552Y-13203D02*
X44500Y-13200D01*
X44500Y-13200D02*
X44396Y-13211D01*
X44396Y-13211D02*
X44297Y-13243D01*
X44297Y-13243D02*
X44206Y-13295D01*
X44206Y-13295D02*
X44128Y-13365D01*
X44128Y-13365D02*
X44067Y-13450D01*
X44067Y-13450D02*
X44024Y-13545D01*
X44024Y-13545D02*
X44003Y-13648D01*
X44003Y-13648D02*
X44000Y-13700D01*
X45000Y-13750D02*
X45000Y-48750D01*
X44000Y-13750D02*
X44000Y-48750D01*
X39000Y-48800D02*
X39011Y-48904D01*
X39011Y-48904D02*
X39043Y-49003D01*
X39043Y-49003D02*
X39095Y-49094D01*
X39095Y-49094D02*
X39165Y-49172D01*
X39165Y-49172D02*
X39250Y-49233D01*
X39250Y-49233D02*
X39345Y-49276D01*
X39345Y-49276D02*
X39448Y-49297D01*
X39448Y-49297D02*
X39500Y-49300D01*
X39500Y-49300D02*
X39604Y-49289D01*
X39604Y-49289D02*
X39703Y-49257D01*
X39703Y-49257D02*
X39794Y-49205D01*
X39794Y-49205D02*
X39872Y-49135D01*
X39872Y-49135D02*
X39933Y-49050D01*
X39933Y-49050D02*
X39976Y-48955D01*
X39976Y-48955D02*
X39997Y-48852D01*
X39997Y-48852D02*
X40000Y-48800D01*
X40000Y-13700D02*
X39989Y-13596D01*
X39989Y-13596D02*
X39957Y-13497D01*
X39957Y-13497D02*
X39905Y-13406D01*
X39905Y-13406D02*
X39835Y-13328D01*
X39835Y-13328D02*
X39750Y-13267D01*
X39750Y-13267D02*
X39655Y-13224D01*
X39655Y-13224D02*
X39552Y-13203D01*
X39552Y-13203D02*
X39500Y-13200D01*
X39500Y-13200D02*
X39396Y-13211D01*
X39396Y-13211D02*
X39297Y-13243D01*
X39297Y-13243D02*
X39206Y-13295D01*
X39206Y-13295D02*
X39128Y-13365D01*
X39128Y-13365D02*
X39067Y-13450D01*
X39067Y-13450D02*
X39024Y-13545D01*
X39024Y-13545D02*
X39003Y-13648D01*
X39003Y-13648D02*
X39000Y-13700D01*
X40000Y-13750D02*
X40000Y-48750D01*
X39000Y-13750D02*
X39000Y-48750D01*
X34000Y-48800D02*
X34011Y-48904D01*
X34011Y-48904D02*
X34043Y-49003D01*
X34043Y-49003D02*
X34095Y-49094D01*
X34095Y-49094D02*
X34165Y-49172D01*
X34165Y-49172D02*
X34250Y-49233D01*
X34250Y-49233D02*
X34345Y-49276D01*
X34345Y-49276D02*
X34448Y-49297D01*
X34448Y-49297D02*
X34500Y-49300D01*
X34500Y-49300D02*
X34604Y-49289D01*
X34604Y-49289D02*
X34703Y-49257D01*
X34703Y-49257D02*
X34794Y-49205D01*
X34794Y-49205D02*
X34872Y-49135D01*
X34872Y-49135D02*
X34933Y-49050D01*
X34933Y-49050D02*
X34976Y-48955D01*
X34976Y-48955D02*
X34997Y-48852D01*
X34997Y-48852D02*
X35000Y-48800D01*
X35000Y-13700D02*
X34989Y-13596D01*
X34989Y-13596D02*
X34957Y-13497D01*
X34957Y-13497D02*
X34905Y-13406D01*
X34905Y-13406D02*
X34835Y-13328D01*
X34835Y-13328D02*
X34750Y-13267D01*
X34750Y-13267D02*
X34655Y-13224D01*
X34655Y-13224D02*
X34552Y-13203D01*
X34552Y-13203D02*
X34500Y-13200D01*
X34500Y-13200D02*
X34396Y-13211D01*
X34396Y-13211D02*
X34297Y-13243D01*
X34297Y-13243D02*
X34206Y-13295D01*
X34206Y-13295D02*
X34128Y-13365D01*
X34128Y-13365D02*
X34067Y-13450D01*
X34067Y-13450D02*
X34024Y-13545D01*
X34024Y-13545D02*
X34003Y-13648D01*
X34003Y-13648D02*
X34000Y-13700D01*
X35000Y-13750D02*
X35000Y-48750D01*
X34000Y-13750D02*
X34000Y-48750D01*
X29000Y-48800D02*
X29011Y-48904D01*
X29011Y-48904D02*
X29043Y-49003D01*
X29043Y-49003D02*
X29095Y-49094D01*
X29095Y-49094D02*
X29165Y-49172D01*
X29165Y-49172D02*
X29250Y-49233D01*
X29250Y-49233D02*
X29345Y-49276D01*
X29345Y-49276D02*
X29448Y-49297D01*
X29448Y-49297D02*
X29500Y-49300D01*
X29500Y-49300D02*
X29604Y-49289D01*
X29604Y-49289D02*
X29703Y-49257D01*
X29703Y-49257D02*
X29794Y-49205D01*
X29794Y-49205D02*
X29872Y-49135D01*
X29872Y-49135D02*
X29933Y-49050D01*
X29933Y-49050D02*
X29976Y-48955D01*
X29976Y-48955D02*
X29997Y-48852D01*
X29997Y-48852D02*
X30000Y-48800D01*
X30000Y-13700D02*
X29989Y-13596D01*
X29989Y-13596D02*
X29957Y-13497D01*
X29957Y-13497D02*
X29905Y-13406D01*
X29905Y-13406D02*
X29835Y-13328D01*
X29835Y-13328D02*
X29750Y-13267D01*
X29750Y-13267D02*
X29655Y-13224D01*
X29655Y-13224D02*
X29552Y-13203D01*
X29552Y-13203D02*
X29500Y-13200D01*
X29500Y-13200D02*
X29396Y-13211D01*
X29396Y-13211D02*
X29297Y-13243D01*
X29297Y-13243D02*
X29206Y-13295D01*
X29206Y-13295D02*
X29128Y-13365D01*
X29128Y-13365D02*
X29067Y-13450D01*
X29067Y-13450D02*
X29024Y-13545D01*
X29024Y-13545D02*
X29003Y-13648D01*
X29003Y-13648D02*
X29000Y-13700D01*
X30000Y-13750D02*
X30000Y-48750D01*
X29000Y-13750D02*
X29000Y-48750D01*
X24000Y-48800D02*
X24011Y-48904D01*
X24011Y-48904D02*
X24043Y-49003D01*
X24043Y-49003D02*
X24095Y-49094D01*
X24095Y-49094D02*
X24165Y-49172D01*
X24165Y-49172D02*
X24250Y-49233D01*
X24250Y-49233D02*
X24345Y-49276D01*
X24345Y-49276D02*
X24448Y-49297D01*
X24448Y-49297D02*
X24500Y-49300D01*
X24500Y-49300D02*
X24604Y-49289D01*
X24604Y-49289D02*
X24703Y-49257D01*
X24703Y-49257D02*
X24794Y-49205D01*
X24794Y-49205D02*
X24872Y-49135D01*
X24872Y-49135D02*
X24933Y-49050D01*
X24933Y-49050D02*
X24976Y-48955D01*
X24976Y-48955D02*
X24997Y-48852D01*
X24997Y-48852D02*
X25000Y-48800D01*
X25000Y-13700D02*
X24989Y-13596D01*
X24989Y-13596D02*
X24957Y-13497D01*
X24957Y-13497D02*
X24905Y-13406D01*
X24905Y-13406D02*
X24835Y-13328D01*
X24835Y-13328D02*
X24750Y-13267D01*
X24750Y-13267D02*
X24655Y-13224D01*
X24655Y-13224D02*
X24552Y-13203D01*
X24552Y-13203D02*
X24500Y-13200D01*
X24500Y-13200D02*
X24396Y-13211D01*
X24396Y-13211D02*
X24297Y-13243D01*
X24297Y-13243D02*
X24206Y-13295D01*
X24206Y-13295D02*
X24128Y-13365D01*
X24128Y-13365D02*
X24067Y-13450D01*
X24067Y-13450D02*
X24024Y-13545D01*
X24024Y-13545D02*
X24003Y-13648D01*
X24003Y-13648D02*
X24000Y-13700D01*
X25000Y-13750D02*
X25000Y-48750D01*
X24000Y-13750D02*
X24000Y-48750D01*
X19000Y-48800D02*
X19011Y-48904D01*
X19011Y-48904D02*
X19043Y-49003D01*
X19043Y-49003D02*
X19095Y-49094D01*
X19095Y-49094D02*
X19165Y-49172D01*
X19165Y-49172D02*
X19250Y-49233D01*
X19250Y-49233D02*
X19345Y-49276D01*
X19345Y-49276D02*
X19448Y-49297D01*
X19448Y-49297D02*
X19500Y-49300D01*
X19500Y-49300D02*
X19604Y-49289D01*
X19604Y-49289D02*
X19703Y-49257D01*
X19703Y-49257D02*
X19794Y-49205D01*
X19794Y-49205D02*
X19872Y-49135D01*
X19872Y-49135D02*
X19933Y-49050D01*
X19933Y-49050D02*
X19976Y-48955D01*
X19976Y-48955D02*
X19997Y-48852D01*
X19997Y-48852D02*
X20000Y-48800D01*
X20000Y-13700D02*
X19989Y-13596D01*
X19989Y-13596D02*
X19957Y-13497D01*
X19957Y-13497D02*
X19905Y-13406D01*
X19905Y-13406D02*
X19835Y-13328D01*
X19835Y-13328D02*
X19750Y-13267D01*
X19750Y-13267D02*
X19655Y-13224D01*
X19655Y-13224D02*
X19552Y-13203D01*
X19552Y-13203D02*
X19500Y-13200D01*
X19500Y-13200D02*
X19396Y-13211D01*
X19396Y-13211D02*
X19297Y-13243D01*
X19297Y-13243D02*
X19206Y-13295D01*
X19206Y-13295D02*
X19128Y-13365D01*
X19128Y-13365D02*
X19067Y-13450D01*
X19067Y-13450D02*
X19024Y-13545D01*
X19024Y-13545D02*
X19003Y-13648D01*
X19003Y-13648D02*
X19000Y-13700D01*
X20000Y-13750D02*
X20000Y-48750D01*
X19000Y-13750D02*
X19000Y-48750D01*
X15000Y-13700D02*
X14989Y-13596D01*
X14989Y-13596D02*
X14957Y-13497D01*
X14957Y-13497D02*
X14905Y-13406D01*
X14905Y-13406D02*
X14835Y-13328D01*
X14835Y-13328D02*
X14750Y-13267D01*
X14750Y-13267D02*
X14655Y-13224D01*
X14655Y-13224D02*
X14552Y-13203D01*
X14552Y-13203D02*
X14500Y-13200D01*
X14500Y-13200D02*
X14396Y-13211D01*
X14396Y-13211D02*
X14297Y-13243D01*
X14297Y-13243D02*
X14206Y-13295D01*
X14206Y-13295D02*
X14128Y-13365D01*
X14128Y-13365D02*
X14067Y-13450D01*
X14067Y-13450D02*
X14024Y-13545D01*
X14024Y-13545D02*
X14003Y-13648D01*
X14003Y-13648D02*
X14000Y-13700D01*
X14000Y-13750D02*
X14000Y-48750D01*
X14000Y-48800D02*
X14011Y-48904D01*
X14011Y-48904D02*
X14043Y-49003D01*
X14043Y-49003D02*
X14095Y-49094D01*
X14095Y-49094D02*
X14165Y-49172D01*
X14165Y-49172D02*
X14250Y-49233D01*
X14250Y-49233D02*
X14345Y-49276D01*
X14345Y-49276D02*
X14448Y-49297D01*
X14448Y-49297D02*
X14500Y-49300D01*
X14500Y-49300D02*
X14604Y-49289D01*
X14604Y-49289D02*
X14703Y-49257D01*
X14703Y-49257D02*
X14794Y-49205D01*
X14794Y-49205D02*
X14872Y-49135D01*
X14872Y-49135D02*
X14933Y-49050D01*
X14933Y-49050D02*
X14976Y-48955D01*
X14976Y-48955D02*
X14997Y-48852D01*
X14997Y-48852D02*
X15000Y-48800D01*
X15000Y-13750D02*
X15000Y-48750D01*
X10000Y-52500D02*
X64000Y-52500D01*
X10000Y-10000D02*
X64000Y-10000D01*
X10000Y-10000D02*
X10000Y-52500D01*
G54D15*
X62650Y-31250D02*
X62637Y-31376D01*
X62637Y-31376D02*
X62600Y-31497D01*
X62600Y-31497D02*
X62541Y-31609D01*
X62541Y-31609D02*
X62461Y-31708D01*
X62461Y-31708D02*
X62363Y-31788D01*
X62363Y-31788D02*
X62251Y-31849D01*
X62251Y-31849D02*
X62130Y-31886D01*
X62130Y-31886D02*
X62004Y-31899D01*
X62004Y-31899D02*
X61879Y-31888D01*
X61879Y-31888D02*
X61757Y-31852D01*
X61757Y-31852D02*
X61645Y-31793D01*
X61645Y-31793D02*
X61546Y-31714D01*
X61546Y-31714D02*
X61464Y-31617D01*
X61464Y-31617D02*
X61403Y-31506D01*
X61403Y-31506D02*
X61365Y-31385D01*
X61365Y-31385D02*
X61351Y-31259D01*
X61351Y-31259D02*
X61361Y-31133D01*
X61361Y-31133D02*
X61396Y-31011D01*
X61396Y-31011D02*
X61454Y-30898D01*
X61454Y-30898D02*
X61533Y-30799D01*
X61533Y-30799D02*
X61630Y-30717D01*
X61630Y-30717D02*
X61740Y-30655D01*
X61740Y-30655D02*
X61861Y-30616D01*
X61861Y-30616D02*
X61987Y-30601D01*
X61987Y-30601D02*
X62112Y-30610D01*
X62112Y-30610D02*
X62235Y-30644D01*
X62235Y-30644D02*
X62348Y-30702D01*
X62348Y-30702D02*
X62448Y-30780D01*
X62448Y-30780D02*
X62531Y-30876D01*
X62531Y-30876D02*
X62593Y-30986D01*
X62593Y-30986D02*
X62633Y-31106D01*
X62633Y-31106D02*
X62649Y-31232D01*
X62649Y-31232D02*
X62650Y-31250D01*
X57650Y-31250D02*
X57637Y-31376D01*
X57637Y-31376D02*
X57600Y-31497D01*
X57600Y-31497D02*
X57541Y-31609D01*
X57541Y-31609D02*
X57461Y-31708D01*
X57461Y-31708D02*
X57363Y-31788D01*
X57363Y-31788D02*
X57251Y-31849D01*
X57251Y-31849D02*
X57130Y-31886D01*
X57130Y-31886D02*
X57004Y-31899D01*
X57004Y-31899D02*
X56879Y-31888D01*
X56879Y-31888D02*
X56757Y-31852D01*
X56757Y-31852D02*
X56645Y-31793D01*
X56645Y-31793D02*
X56546Y-31714D01*
X56546Y-31714D02*
X56464Y-31617D01*
X56464Y-31617D02*
X56403Y-31506D01*
X56403Y-31506D02*
X56365Y-31385D01*
X56365Y-31385D02*
X56351Y-31259D01*
X56351Y-31259D02*
X56361Y-31133D01*
X56361Y-31133D02*
X56396Y-31011D01*
X56396Y-31011D02*
X56454Y-30898D01*
X56454Y-30898D02*
X56533Y-30799D01*
X56533Y-30799D02*
X56630Y-30717D01*
X56630Y-30717D02*
X56740Y-30655D01*
X56740Y-30655D02*
X56861Y-30616D01*
X56861Y-30616D02*
X56987Y-30601D01*
X56987Y-30601D02*
X57112Y-30610D01*
X57112Y-30610D02*
X57235Y-30644D01*
X57235Y-30644D02*
X57348Y-30702D01*
X57348Y-30702D02*
X57448Y-30780D01*
X57448Y-30780D02*
X57531Y-30876D01*
X57531Y-30876D02*
X57593Y-30986D01*
X57593Y-30986D02*
X57633Y-31106D01*
X57633Y-31106D02*
X57649Y-31232D01*
X57649Y-31232D02*
X57650Y-31250D01*
X52650Y-31250D02*
X52637Y-31376D01*
X52637Y-31376D02*
X52600Y-31497D01*
X52600Y-31497D02*
X52541Y-31609D01*
X52541Y-31609D02*
X52461Y-31708D01*
X52461Y-31708D02*
X52363Y-31788D01*
X52363Y-31788D02*
X52251Y-31849D01*
X52251Y-31849D02*
X52130Y-31886D01*
X52130Y-31886D02*
X52004Y-31899D01*
X52004Y-31899D02*
X51879Y-31888D01*
X51879Y-31888D02*
X51757Y-31852D01*
X51757Y-31852D02*
X51645Y-31793D01*
X51645Y-31793D02*
X51546Y-31714D01*
X51546Y-31714D02*
X51464Y-31617D01*
X51464Y-31617D02*
X51403Y-31506D01*
X51403Y-31506D02*
X51365Y-31385D01*
X51365Y-31385D02*
X51351Y-31259D01*
X51351Y-31259D02*
X51361Y-31133D01*
X51361Y-31133D02*
X51396Y-31011D01*
X51396Y-31011D02*
X51454Y-30898D01*
X51454Y-30898D02*
X51533Y-30799D01*
X51533Y-30799D02*
X51630Y-30717D01*
X51630Y-30717D02*
X51740Y-30655D01*
X51740Y-30655D02*
X51861Y-30616D01*
X51861Y-30616D02*
X51987Y-30601D01*
X51987Y-30601D02*
X52112Y-30610D01*
X52112Y-30610D02*
X52235Y-30644D01*
X52235Y-30644D02*
X52348Y-30702D01*
X52348Y-30702D02*
X52448Y-30780D01*
X52448Y-30780D02*
X52531Y-30876D01*
X52531Y-30876D02*
X52593Y-30986D01*
X52593Y-30986D02*
X52633Y-31106D01*
X52633Y-31106D02*
X52649Y-31232D01*
X52649Y-31232D02*
X52650Y-31250D01*
X47650Y-31250D02*
X47637Y-31376D01*
X47637Y-31376D02*
X47600Y-31497D01*
X47600Y-31497D02*
X47541Y-31609D01*
X47541Y-31609D02*
X47461Y-31708D01*
X47461Y-31708D02*
X47363Y-31788D01*
X47363Y-31788D02*
X47251Y-31849D01*
X47251Y-31849D02*
X47130Y-31886D01*
X47130Y-31886D02*
X47004Y-31899D01*
X47004Y-31899D02*
X46879Y-31888D01*
X46879Y-31888D02*
X46757Y-31852D01*
X46757Y-31852D02*
X46645Y-31793D01*
X46645Y-31793D02*
X46546Y-31714D01*
X46546Y-31714D02*
X46464Y-31617D01*
X46464Y-31617D02*
X46403Y-31506D01*
X46403Y-31506D02*
X46365Y-31385D01*
X46365Y-31385D02*
X46351Y-31259D01*
X46351Y-31259D02*
X46361Y-31133D01*
X46361Y-31133D02*
X46396Y-31011D01*
X46396Y-31011D02*
X46454Y-30898D01*
X46454Y-30898D02*
X46533Y-30799D01*
X46533Y-30799D02*
X46630Y-30717D01*
X46630Y-30717D02*
X46740Y-30655D01*
X46740Y-30655D02*
X46861Y-30616D01*
X46861Y-30616D02*
X46987Y-30601D01*
X46987Y-30601D02*
X47112Y-30610D01*
X47112Y-30610D02*
X47235Y-30644D01*
X47235Y-30644D02*
X47348Y-30702D01*
X47348Y-30702D02*
X47448Y-30780D01*
X47448Y-30780D02*
X47531Y-30876D01*
X47531Y-30876D02*
X47593Y-30986D01*
X47593Y-30986D02*
X47633Y-31106D01*
X47633Y-31106D02*
X47649Y-31232D01*
X47649Y-31232D02*
X47650Y-31250D01*
X42650Y-31250D02*
X42637Y-31376D01*
X42637Y-31376D02*
X42600Y-31497D01*
X42600Y-31497D02*
X42541Y-31609D01*
X42541Y-31609D02*
X42461Y-31708D01*
X42461Y-31708D02*
X42363Y-31788D01*
X42363Y-31788D02*
X42251Y-31849D01*
X42251Y-31849D02*
X42130Y-31886D01*
X42130Y-31886D02*
X42004Y-31899D01*
X42004Y-31899D02*
X41879Y-31888D01*
X41879Y-31888D02*
X41757Y-31852D01*
X41757Y-31852D02*
X41645Y-31793D01*
X41645Y-31793D02*
X41546Y-31714D01*
X41546Y-31714D02*
X41464Y-31617D01*
X41464Y-31617D02*
X41403Y-31506D01*
X41403Y-31506D02*
X41365Y-31385D01*
X41365Y-31385D02*
X41351Y-31259D01*
X41351Y-31259D02*
X41361Y-31133D01*
X41361Y-31133D02*
X41396Y-31011D01*
X41396Y-31011D02*
X41454Y-30898D01*
X41454Y-30898D02*
X41533Y-30799D01*
X41533Y-30799D02*
X41630Y-30717D01*
X41630Y-30717D02*
X41740Y-30655D01*
X41740Y-30655D02*
X41861Y-30616D01*
X41861Y-30616D02*
X41987Y-30601D01*
X41987Y-30601D02*
X42112Y-30610D01*
X42112Y-30610D02*
X42235Y-30644D01*
X42235Y-30644D02*
X42348Y-30702D01*
X42348Y-30702D02*
X42448Y-30780D01*
X42448Y-30780D02*
X42531Y-30876D01*
X42531Y-30876D02*
X42593Y-30986D01*
X42593Y-30986D02*
X42633Y-31106D01*
X42633Y-31106D02*
X42649Y-31232D01*
X42649Y-31232D02*
X42650Y-31250D01*
X37650Y-31250D02*
X37637Y-31376D01*
X37637Y-31376D02*
X37600Y-31497D01*
X37600Y-31497D02*
X37541Y-31609D01*
X37541Y-31609D02*
X37461Y-31708D01*
X37461Y-31708D02*
X37363Y-31788D01*
X37363Y-31788D02*
X37251Y-31849D01*
X37251Y-31849D02*
X37130Y-31886D01*
X37130Y-31886D02*
X37004Y-31899D01*
X37004Y-31899D02*
X36879Y-31888D01*
X36879Y-31888D02*
X36757Y-31852D01*
X36757Y-31852D02*
X36645Y-31793D01*
X36645Y-31793D02*
X36546Y-31714D01*
X36546Y-31714D02*
X36464Y-31617D01*
X36464Y-31617D02*
X36403Y-31506D01*
X36403Y-31506D02*
X36365Y-31385D01*
X36365Y-31385D02*
X36351Y-31259D01*
X36351Y-31259D02*
X36361Y-31133D01*
X36361Y-31133D02*
X36396Y-31011D01*
X36396Y-31011D02*
X36454Y-30898D01*
X36454Y-30898D02*
X36533Y-30799D01*
X36533Y-30799D02*
X36630Y-30717D01*
X36630Y-30717D02*
X36740Y-30655D01*
X36740Y-30655D02*
X36861Y-30616D01*
X36861Y-30616D02*
X36987Y-30601D01*
X36987Y-30601D02*
X37112Y-30610D01*
X37112Y-30610D02*
X37235Y-30644D01*
X37235Y-30644D02*
X37348Y-30702D01*
X37348Y-30702D02*
X37448Y-30780D01*
X37448Y-30780D02*
X37531Y-30876D01*
X37531Y-30876D02*
X37593Y-30986D01*
X37593Y-30986D02*
X37633Y-31106D01*
X37633Y-31106D02*
X37649Y-31232D01*
X37649Y-31232D02*
X37650Y-31250D01*
X32650Y-31250D02*
X32637Y-31376D01*
X32637Y-31376D02*
X32600Y-31497D01*
X32600Y-31497D02*
X32541Y-31609D01*
X32541Y-31609D02*
X32461Y-31708D01*
X32461Y-31708D02*
X32363Y-31788D01*
X32363Y-31788D02*
X32251Y-31849D01*
X32251Y-31849D02*
X32130Y-31886D01*
X32130Y-31886D02*
X32004Y-31899D01*
X32004Y-31899D02*
X31879Y-31888D01*
X31879Y-31888D02*
X31757Y-31852D01*
X31757Y-31852D02*
X31645Y-31793D01*
X31645Y-31793D02*
X31546Y-31714D01*
X31546Y-31714D02*
X31464Y-31617D01*
X31464Y-31617D02*
X31403Y-31506D01*
X31403Y-31506D02*
X31365Y-31385D01*
X31365Y-31385D02*
X31351Y-31259D01*
X31351Y-31259D02*
X31361Y-31133D01*
X31361Y-31133D02*
X31396Y-31011D01*
X31396Y-31011D02*
X31454Y-30898D01*
X31454Y-30898D02*
X31533Y-30799D01*
X31533Y-30799D02*
X31630Y-30717D01*
X31630Y-30717D02*
X31740Y-30655D01*
X31740Y-30655D02*
X31861Y-30616D01*
X31861Y-30616D02*
X31987Y-30601D01*
X31987Y-30601D02*
X32112Y-30610D01*
X32112Y-30610D02*
X32235Y-30644D01*
X32235Y-30644D02*
X32348Y-30702D01*
X32348Y-30702D02*
X32448Y-30780D01*
X32448Y-30780D02*
X32531Y-30876D01*
X32531Y-30876D02*
X32593Y-30986D01*
X32593Y-30986D02*
X32633Y-31106D01*
X32633Y-31106D02*
X32649Y-31232D01*
X32649Y-31232D02*
X32650Y-31250D01*
X27650Y-31250D02*
X27637Y-31376D01*
X27637Y-31376D02*
X27600Y-31497D01*
X27600Y-31497D02*
X27541Y-31609D01*
X27541Y-31609D02*
X27461Y-31708D01*
X27461Y-31708D02*
X27363Y-31788D01*
X27363Y-31788D02*
X27251Y-31849D01*
X27251Y-31849D02*
X27130Y-31886D01*
X27130Y-31886D02*
X27004Y-31899D01*
X27004Y-31899D02*
X26879Y-31888D01*
X26879Y-31888D02*
X26757Y-31852D01*
X26757Y-31852D02*
X26645Y-31793D01*
X26645Y-31793D02*
X26546Y-31714D01*
X26546Y-31714D02*
X26464Y-31617D01*
X26464Y-31617D02*
X26403Y-31506D01*
X26403Y-31506D02*
X26365Y-31385D01*
X26365Y-31385D02*
X26351Y-31259D01*
X26351Y-31259D02*
X26361Y-31133D01*
X26361Y-31133D02*
X26396Y-31011D01*
X26396Y-31011D02*
X26454Y-30898D01*
X26454Y-30898D02*
X26533Y-30799D01*
X26533Y-30799D02*
X26630Y-30717D01*
X26630Y-30717D02*
X26740Y-30655D01*
X26740Y-30655D02*
X26861Y-30616D01*
X26861Y-30616D02*
X26987Y-30601D01*
X26987Y-30601D02*
X27112Y-30610D01*
X27112Y-30610D02*
X27235Y-30644D01*
X27235Y-30644D02*
X27348Y-30702D01*
X27348Y-30702D02*
X27448Y-30780D01*
X27448Y-30780D02*
X27531Y-30876D01*
X27531Y-30876D02*
X27593Y-30986D01*
X27593Y-30986D02*
X27633Y-31106D01*
X27633Y-31106D02*
X27649Y-31232D01*
X27649Y-31232D02*
X27650Y-31250D01*
X22650Y-31250D02*
X22637Y-31376D01*
X22637Y-31376D02*
X22600Y-31497D01*
X22600Y-31497D02*
X22541Y-31609D01*
X22541Y-31609D02*
X22461Y-31708D01*
X22461Y-31708D02*
X22363Y-31788D01*
X22363Y-31788D02*
X22251Y-31849D01*
X22251Y-31849D02*
X22130Y-31886D01*
X22130Y-31886D02*
X22004Y-31899D01*
X22004Y-31899D02*
X21879Y-31888D01*
X21879Y-31888D02*
X21757Y-31852D01*
X21757Y-31852D02*
X21645Y-31793D01*
X21645Y-31793D02*
X21546Y-31714D01*
X21546Y-31714D02*
X21464Y-31617D01*
X21464Y-31617D02*
X21403Y-31506D01*
X21403Y-31506D02*
X21365Y-31385D01*
X21365Y-31385D02*
X21351Y-31259D01*
X21351Y-31259D02*
X21361Y-31133D01*
X21361Y-31133D02*
X21396Y-31011D01*
X21396Y-31011D02*
X21454Y-30898D01*
X21454Y-30898D02*
X21533Y-30799D01*
X21533Y-30799D02*
X21630Y-30717D01*
X21630Y-30717D02*
X21740Y-30655D01*
X21740Y-30655D02*
X21861Y-30616D01*
X21861Y-30616D02*
X21987Y-30601D01*
X21987Y-30601D02*
X22112Y-30610D01*
X22112Y-30610D02*
X22235Y-30644D01*
X22235Y-30644D02*
X22348Y-30702D01*
X22348Y-30702D02*
X22448Y-30780D01*
X22448Y-30780D02*
X22531Y-30876D01*
X22531Y-30876D02*
X22593Y-30986D01*
X22593Y-30986D02*
X22633Y-31106D01*
X22633Y-31106D02*
X22649Y-31232D01*
X22649Y-31232D02*
X22650Y-31250D01*
X17650Y-31250D02*
X17637Y-31376D01*
X17637Y-31376D02*
X17600Y-31497D01*
X17600Y-31497D02*
X17541Y-31609D01*
X17541Y-31609D02*
X17461Y-31708D01*
X17461Y-31708D02*
X17363Y-31788D01*
X17363Y-31788D02*
X17251Y-31849D01*
X17251Y-31849D02*
X17130Y-31886D01*
X17130Y-31886D02*
X17004Y-31899D01*
X17004Y-31899D02*
X16879Y-31888D01*
X16879Y-31888D02*
X16757Y-31852D01*
X16757Y-31852D02*
X16645Y-31793D01*
X16645Y-31793D02*
X16546Y-31714D01*
X16546Y-31714D02*
X16464Y-31617D01*
X16464Y-31617D02*
X16403Y-31506D01*
X16403Y-31506D02*
X16365Y-31385D01*
X16365Y-31385D02*
X16351Y-31259D01*
X16351Y-31259D02*
X16361Y-31133D01*
X16361Y-31133D02*
X16396Y-31011D01*
X16396Y-31011D02*
X16454Y-30898D01*
X16454Y-30898D02*
X16533Y-30799D01*
X16533Y-30799D02*
X16630Y-30717D01*
X16630Y-30717D02*
X16740Y-30655D01*
X16740Y-30655D02*
X16861Y-30616D01*
X16861Y-30616D02*
X16987Y-30601D01*
X16987Y-30601D02*
X17112Y-30610D01*
X17112Y-30610D02*
X17235Y-30644D01*
X17235Y-30644D02*
X17348Y-30702D01*
X17348Y-30702D02*
X17448Y-30780D01*
X17448Y-30780D02*
X17531Y-30876D01*
X17531Y-30876D02*
X17593Y-30986D01*
X17593Y-30986D02*
X17633Y-31106D01*
X17633Y-31106D02*
X17649Y-31232D01*
X17649Y-31232D02*
X17650Y-31250D01*
X12650Y-31250D02*
X12637Y-31376D01*
X12637Y-31376D02*
X12600Y-31497D01*
X12600Y-31497D02*
X12541Y-31609D01*
X12541Y-31609D02*
X12461Y-31708D01*
X12461Y-31708D02*
X12363Y-31788D01*
X12363Y-31788D02*
X12251Y-31849D01*
X12251Y-31849D02*
X12130Y-31886D01*
X12130Y-31886D02*
X12004Y-31899D01*
X12004Y-31899D02*
X11879Y-31888D01*
X11879Y-31888D02*
X11757Y-31852D01*
X11757Y-31852D02*
X11645Y-31793D01*
X11645Y-31793D02*
X11546Y-31714D01*
X11546Y-31714D02*
X11464Y-31617D01*
X11464Y-31617D02*
X11403Y-31506D01*
X11403Y-31506D02*
X11365Y-31385D01*
X11365Y-31385D02*
X11351Y-31259D01*
X11351Y-31259D02*
X11361Y-31133D01*
X11361Y-31133D02*
X11396Y-31011D01*
X11396Y-31011D02*
X11454Y-30898D01*
X11454Y-30898D02*
X11533Y-30799D01*
X11533Y-30799D02*
X11630Y-30717D01*
X11630Y-30717D02*
X11740Y-30655D01*
X11740Y-30655D02*
X11861Y-30616D01*
X11861Y-30616D02*
X11987Y-30601D01*
X11987Y-30601D02*
X12112Y-30610D01*
X12112Y-30610D02*
X12235Y-30644D01*
X12235Y-30644D02*
X12348Y-30702D01*
X12348Y-30702D02*
X12448Y-30780D01*
X12448Y-30780D02*
X12531Y-30876D01*
X12531Y-30876D02*
X12593Y-30986D01*
X12593Y-30986D02*
X12633Y-31106D01*
X12633Y-31106D02*
X12649Y-31232D01*
X12649Y-31232D02*
X12650Y-31250D01*
M02*
