M48
;DRILL file {PCBnew (20090216-final)} date Wed 25 May 2011 01:16:20 PM PDT
;FORMAT={2:4/ absolute / inch / suppress trailing zeros}
R,T
VER,1
FMAT,2
INCH,LZ
TCST,OFF
ICI,OFF
ATC,ON
T1C0.040
T2C0.120
%
M47
G05
M72
T1
X012Y-02
X012Y-021
X012Y-022
X012Y-023
X012Y-024
X012Y-025
X012Y-0375
X012Y-0385
X012Y-0395
X012Y-0405
X012Y-0415
X012Y-0425
X017Y-02
X017Y-021
X017Y-022
X017Y-023
X017Y-024
X017Y-025
X017Y-0375
X017Y-0385
X017Y-0395
X017Y-0405
X017Y-0415
X017Y-0425
X022Y-02
X022Y-021
X022Y-022
X022Y-023
X022Y-024
X022Y-025
X022Y-0375
X022Y-0385
X022Y-0395
X022Y-0405
X022Y-0415
X022Y-0425
X027Y-02
X027Y-021
X027Y-022
X027Y-023
X027Y-024
X027Y-025
X027Y-0375
X027Y-0385
X027Y-0395
X027Y-0405
X027Y-0415
X027Y-0425
X032Y-02
X032Y-021
X032Y-022
X032Y-023
X032Y-024
X032Y-025
X032Y-0375
X032Y-0385
X032Y-0395
X032Y-0405
X032Y-0415
X032Y-0425
X037Y-02
X037Y-021
X037Y-022
X037Y-023
X037Y-024
X037Y-025
X037Y-0375
X037Y-0385
X037Y-0395
X037Y-0405
X037Y-0415
X037Y-0425
X042Y-02
X042Y-021
X042Y-022
X042Y-023
X042Y-024
X042Y-025
X042Y-0375
X042Y-0385
X042Y-0395
X042Y-0405
X042Y-0415
X042Y-0425
X047Y-02
X047Y-021
X047Y-022
X047Y-023
X047Y-024
X047Y-025
X047Y-0375
X047Y-0385
X047Y-0395
X047Y-0405
X047Y-0415
X047Y-0425
X052Y-02
X052Y-021
X052Y-022
X052Y-023
X052Y-024
X052Y-025
X052Y-0375
X052Y-0385
X052Y-0395
X052Y-0405
X052Y-0415
X052Y-0425
X057Y-02
X057Y-021
X057Y-022
X057Y-023
X057Y-024
X057Y-025
X057Y-0375
X057Y-0385
X057Y-0395
X057Y-0405
X057Y-0415
X057Y-0425
X062Y-02
X062Y-021
X062Y-022
X062Y-023
X062Y-024
X062Y-025
X062Y-0375
X062Y-0385
X062Y-0395
X062Y-0405
X062Y-0415
X062Y-0425
T2
X012Y-03125
X017Y-03125
X022Y-03125
X027Y-03125
X032Y-03125
X037Y-03125
X042Y-03125
X047Y-03125
X052Y-03125
X057Y-03125
X062Y-03125
T0
M30
