G04 (created by PCBnew (20090216-final)) date Tue 17 May 2011 08:04:56 PM PDT*
G01*
G70*
G90*
%MOIN*%
G04 Gerber Fmt 3.4, Leading zero omitted, Abs format*
%FSLAX34Y34*%
G04 APERTURE LIST*
%ADD10C,0.015000*%
%ADD11R,0.069000X0.060000*%
%ADD12C,0.069000*%
%ADD13C,0.200000*%
%ADD14C,0.181100*%
%ADD15R,0.060000X0.060000*%
%ADD16C,0.060000*%
%ADD17C,0.130000*%
%ADD18C,0.045000*%
%ADD19C,0.010000*%
%ADD20R,0.045000X0.025000*%
%ADD21R,0.025000X0.045000*%
%ADD22R,0.055000X0.035000*%
%ADD23R,0.050000X0.100000*%
%ADD24R,0.070100X0.016500*%
%ADD25R,0.039400X2.755900*%
%ADD26C,0.005000*%
%ADD27C,0.012000*%
%ADD28C,0.008000*%
%ADD29R,0.089000X0.080000*%
%ADD30C,0.089000*%
%ADD31C,0.220000*%
%ADD32C,0.201100*%
%ADD33R,0.080000X0.080000*%
%ADD34C,0.080000*%
%ADD35C,0.150000*%
%ADD36R,0.065000X0.045000*%
%ADD37R,0.045000X0.065000*%
%ADD38R,0.075000X0.055000*%
%ADD39R,0.070000X0.120000*%
%ADD40R,0.090100X0.036500*%
G04 APERTURE END LIST*
G54D10*
X100000Y-10000D02*
X100000Y-42500D01*
X10000Y-42500D02*
X100000Y-42500D01*
X10000Y-10000D02*
X10000Y-42500D01*
X10000Y-10000D02*
X100000Y-10000D01*
G54D26*
X99450Y-11200D02*
X99437Y-11326D01*
X99437Y-11326D02*
X99400Y-11447D01*
X99400Y-11447D02*
X99341Y-11559D01*
X99341Y-11559D02*
X99261Y-11658D01*
X99261Y-11658D02*
X99163Y-11738D01*
X99163Y-11738D02*
X99051Y-11799D01*
X99051Y-11799D02*
X98930Y-11836D01*
X98930Y-11836D02*
X98804Y-11849D01*
X98804Y-11849D02*
X98679Y-11838D01*
X98679Y-11838D02*
X98557Y-11802D01*
X98557Y-11802D02*
X98445Y-11743D01*
X98445Y-11743D02*
X98346Y-11664D01*
X98346Y-11664D02*
X98264Y-11567D01*
X98264Y-11567D02*
X98203Y-11456D01*
X98203Y-11456D02*
X98165Y-11335D01*
X98165Y-11335D02*
X98151Y-11209D01*
X98151Y-11209D02*
X98161Y-11083D01*
X98161Y-11083D02*
X98196Y-10961D01*
X98196Y-10961D02*
X98254Y-10848D01*
X98254Y-10848D02*
X98333Y-10749D01*
X98333Y-10749D02*
X98430Y-10667D01*
X98430Y-10667D02*
X98540Y-10605D01*
X98540Y-10605D02*
X98661Y-10566D01*
X98661Y-10566D02*
X98787Y-10551D01*
X98787Y-10551D02*
X98912Y-10560D01*
X98912Y-10560D02*
X99035Y-10594D01*
X99035Y-10594D02*
X99148Y-10652D01*
X99148Y-10652D02*
X99248Y-10730D01*
X99248Y-10730D02*
X99331Y-10826D01*
X99331Y-10826D02*
X99393Y-10936D01*
X99393Y-10936D02*
X99433Y-11056D01*
X99433Y-11056D02*
X99449Y-11182D01*
X99449Y-11182D02*
X99450Y-11200D01*
X11850Y-41300D02*
X11837Y-41426D01*
X11837Y-41426D02*
X11800Y-41547D01*
X11800Y-41547D02*
X11741Y-41659D01*
X11741Y-41659D02*
X11661Y-41758D01*
X11661Y-41758D02*
X11563Y-41838D01*
X11563Y-41838D02*
X11451Y-41899D01*
X11451Y-41899D02*
X11330Y-41936D01*
X11330Y-41936D02*
X11204Y-41949D01*
X11204Y-41949D02*
X11079Y-41938D01*
X11079Y-41938D02*
X10957Y-41902D01*
X10957Y-41902D02*
X10845Y-41843D01*
X10845Y-41843D02*
X10746Y-41764D01*
X10746Y-41764D02*
X10664Y-41667D01*
X10664Y-41667D02*
X10603Y-41556D01*
X10603Y-41556D02*
X10565Y-41435D01*
X10565Y-41435D02*
X10551Y-41309D01*
X10551Y-41309D02*
X10561Y-41183D01*
X10561Y-41183D02*
X10596Y-41061D01*
X10596Y-41061D02*
X10654Y-40948D01*
X10654Y-40948D02*
X10733Y-40849D01*
X10733Y-40849D02*
X10830Y-40767D01*
X10830Y-40767D02*
X10940Y-40705D01*
X10940Y-40705D02*
X11061Y-40666D01*
X11061Y-40666D02*
X11187Y-40651D01*
X11187Y-40651D02*
X11312Y-40660D01*
X11312Y-40660D02*
X11435Y-40694D01*
X11435Y-40694D02*
X11548Y-40752D01*
X11548Y-40752D02*
X11648Y-40830D01*
X11648Y-40830D02*
X11731Y-40926D01*
X11731Y-40926D02*
X11793Y-41036D01*
X11793Y-41036D02*
X11833Y-41156D01*
X11833Y-41156D02*
X11849Y-41282D01*
X11849Y-41282D02*
X11850Y-41300D01*
X11850Y-11200D02*
X11837Y-11326D01*
X11837Y-11326D02*
X11800Y-11447D01*
X11800Y-11447D02*
X11741Y-11559D01*
X11741Y-11559D02*
X11661Y-11658D01*
X11661Y-11658D02*
X11563Y-11738D01*
X11563Y-11738D02*
X11451Y-11799D01*
X11451Y-11799D02*
X11330Y-11836D01*
X11330Y-11836D02*
X11204Y-11849D01*
X11204Y-11849D02*
X11079Y-11838D01*
X11079Y-11838D02*
X10957Y-11802D01*
X10957Y-11802D02*
X10845Y-11743D01*
X10845Y-11743D02*
X10746Y-11664D01*
X10746Y-11664D02*
X10664Y-11567D01*
X10664Y-11567D02*
X10603Y-11456D01*
X10603Y-11456D02*
X10565Y-11335D01*
X10565Y-11335D02*
X10551Y-11209D01*
X10551Y-11209D02*
X10561Y-11083D01*
X10561Y-11083D02*
X10596Y-10961D01*
X10596Y-10961D02*
X10654Y-10848D01*
X10654Y-10848D02*
X10733Y-10749D01*
X10733Y-10749D02*
X10830Y-10667D01*
X10830Y-10667D02*
X10940Y-10605D01*
X10940Y-10605D02*
X11061Y-10566D01*
X11061Y-10566D02*
X11187Y-10551D01*
X11187Y-10551D02*
X11312Y-10560D01*
X11312Y-10560D02*
X11435Y-10594D01*
X11435Y-10594D02*
X11548Y-10652D01*
X11548Y-10652D02*
X11648Y-10730D01*
X11648Y-10730D02*
X11731Y-10826D01*
X11731Y-10826D02*
X11793Y-10936D01*
X11793Y-10936D02*
X11833Y-11056D01*
X11833Y-11056D02*
X11849Y-11182D01*
X11849Y-11182D02*
X11850Y-11200D01*
X99450Y-41300D02*
X99437Y-41426D01*
X99437Y-41426D02*
X99400Y-41547D01*
X99400Y-41547D02*
X99341Y-41659D01*
X99341Y-41659D02*
X99261Y-41758D01*
X99261Y-41758D02*
X99163Y-41838D01*
X99163Y-41838D02*
X99051Y-41899D01*
X99051Y-41899D02*
X98930Y-41936D01*
X98930Y-41936D02*
X98804Y-41949D01*
X98804Y-41949D02*
X98679Y-41938D01*
X98679Y-41938D02*
X98557Y-41902D01*
X98557Y-41902D02*
X98445Y-41843D01*
X98445Y-41843D02*
X98346Y-41764D01*
X98346Y-41764D02*
X98264Y-41667D01*
X98264Y-41667D02*
X98203Y-41556D01*
X98203Y-41556D02*
X98165Y-41435D01*
X98165Y-41435D02*
X98151Y-41309D01*
X98151Y-41309D02*
X98161Y-41183D01*
X98161Y-41183D02*
X98196Y-41061D01*
X98196Y-41061D02*
X98254Y-40948D01*
X98254Y-40948D02*
X98333Y-40849D01*
X98333Y-40849D02*
X98430Y-40767D01*
X98430Y-40767D02*
X98540Y-40705D01*
X98540Y-40705D02*
X98661Y-40666D01*
X98661Y-40666D02*
X98787Y-40651D01*
X98787Y-40651D02*
X98912Y-40660D01*
X98912Y-40660D02*
X99035Y-40694D01*
X99035Y-40694D02*
X99148Y-40752D01*
X99148Y-40752D02*
X99248Y-40830D01*
X99248Y-40830D02*
X99331Y-40926D01*
X99331Y-40926D02*
X99393Y-41036D01*
X99393Y-41036D02*
X99433Y-41156D01*
X99433Y-41156D02*
X99449Y-41282D01*
X99449Y-41282D02*
X99450Y-41300D01*
M02*
