G04 (created by PCBnew (20090216-final)) date Thu 19 May 2011 07:03:28 PM PDT*
G01*
G70*
G90*
%MOIN*%
G04 Gerber Fmt 3.4, Leading zero omitted, Abs format*
%FSLAX34Y34*%
G04 APERTURE LIST*
%ADD10C,0.015000*%
%ADD11C,0.040000*%
%ADD12C,0.130000*%
%ADD13R,0.039400X2.755900*%
%ADD14C,0.045000*%
%ADD15C,0.012000*%
%ADD16C,0.010000*%
%ADD17R,0.070000X0.040000*%
%ADD18C,0.005000*%
%ADD19C,0.008000*%
%ADD20C,0.060000*%
%ADD21C,0.150000*%
%ADD22R,0.090000X0.060000*%
G04 APERTURE END LIST*
G54D10*
X10000Y-42500D02*
X18472Y-42500D01*
X18472Y-10000D02*
X18472Y-42500D01*
X10000Y-10000D02*
X10000Y-42500D01*
X10000Y-10000D02*
X18472Y-10000D01*
G54D12*
X12000Y-26250D03*
X16472Y-26250D03*
G54D11*
X16472Y-34500D03*
X16472Y-33500D03*
X16472Y-32500D03*
X16472Y-35500D03*
X16472Y-36500D03*
X16472Y-37500D03*
G54D17*
X17022Y-32500D03*
X15922Y-33500D03*
X17022Y-34500D03*
X15922Y-35500D03*
X17022Y-36500D03*
X15922Y-37500D03*
G54D11*
X16472Y-17000D03*
X16472Y-16000D03*
X16472Y-15000D03*
X16472Y-18000D03*
X16472Y-19000D03*
X16472Y-20000D03*
G54D17*
X17022Y-15000D03*
X15922Y-16000D03*
X17022Y-17000D03*
X15922Y-18000D03*
X17022Y-19000D03*
X15922Y-20000D03*
G54D11*
X12000Y-34500D03*
X12000Y-33500D03*
X12000Y-32500D03*
X12000Y-35500D03*
X12000Y-36500D03*
X12000Y-37500D03*
G54D17*
X12550Y-32500D03*
X11450Y-33500D03*
X12550Y-34500D03*
X11450Y-35500D03*
X12550Y-36500D03*
X11450Y-37500D03*
G54D11*
X12000Y-17000D03*
X12000Y-16000D03*
X12000Y-15000D03*
X12000Y-18000D03*
X12000Y-19000D03*
X12000Y-20000D03*
G54D17*
X12550Y-15000D03*
X11450Y-16000D03*
X12550Y-17000D03*
X11450Y-18000D03*
X12550Y-19000D03*
X11450Y-20000D03*
G54D14*
X17870Y-17240D03*
G54D15*
X17022Y-17000D02*
X17630Y-17000D01*
X17630Y-17000D02*
X17870Y-17240D01*
G54D16*
X10275Y-42195D02*
X18197Y-42195D01*
X10275Y-42115D02*
X18197Y-42115D01*
X10275Y-42035D02*
X18197Y-42035D01*
X10275Y-41955D02*
X18197Y-41955D01*
X10275Y-41875D02*
X18197Y-41875D01*
X10275Y-41795D02*
X18197Y-41795D01*
X10275Y-41715D02*
X18197Y-41715D01*
X10275Y-41635D02*
X18197Y-41635D01*
X10275Y-41555D02*
X18197Y-41555D01*
X10275Y-41475D02*
X18197Y-41475D01*
X10275Y-41395D02*
X18197Y-41395D01*
X10275Y-41315D02*
X18197Y-41315D01*
X10275Y-41235D02*
X18197Y-41235D01*
X10275Y-41155D02*
X18197Y-41155D01*
X10275Y-41075D02*
X18197Y-41075D01*
X10275Y-40995D02*
X18197Y-40995D01*
X10275Y-40915D02*
X18197Y-40915D01*
X10275Y-40835D02*
X18197Y-40835D01*
X10275Y-40755D02*
X18197Y-40755D01*
X10275Y-40675D02*
X18197Y-40675D01*
X10275Y-40595D02*
X18197Y-40595D01*
X10275Y-40515D02*
X18197Y-40515D01*
X10275Y-40435D02*
X18197Y-40435D01*
X10275Y-40355D02*
X18197Y-40355D01*
X10275Y-40275D02*
X18197Y-40275D01*
X10275Y-40195D02*
X18197Y-40195D01*
X10275Y-40115D02*
X18197Y-40115D01*
X10275Y-40035D02*
X18197Y-40035D01*
X10275Y-39955D02*
X18197Y-39955D01*
X10275Y-39875D02*
X18197Y-39875D01*
X10275Y-39795D02*
X18197Y-39795D01*
X10275Y-39715D02*
X18197Y-39715D01*
X10275Y-39635D02*
X18197Y-39635D01*
X10275Y-39555D02*
X18197Y-39555D01*
X10275Y-39475D02*
X18197Y-39475D01*
X10275Y-39395D02*
X18197Y-39395D01*
X10275Y-39315D02*
X18197Y-39315D01*
X10275Y-39235D02*
X18197Y-39235D01*
X10275Y-39155D02*
X18197Y-39155D01*
X10275Y-39075D02*
X18197Y-39075D01*
X10275Y-38995D02*
X18197Y-38995D01*
X10275Y-38915D02*
X18197Y-38915D01*
X10275Y-38835D02*
X18197Y-38835D01*
X10275Y-38755D02*
X18197Y-38755D01*
X10275Y-38675D02*
X18197Y-38675D01*
X10275Y-38595D02*
X18197Y-38595D01*
X10275Y-38515D02*
X18197Y-38515D01*
X10275Y-38435D02*
X18197Y-38435D01*
X10275Y-38355D02*
X18197Y-38355D01*
X10275Y-38275D02*
X18197Y-38275D01*
X10275Y-38195D02*
X18197Y-38195D01*
X10275Y-38115D02*
X18197Y-38115D01*
X10275Y-38035D02*
X18197Y-38035D01*
X10275Y-37955D02*
X18197Y-37955D01*
X16732Y-37875D02*
X18197Y-37875D01*
X12260Y-37875D02*
X16212Y-37875D01*
X10275Y-37875D02*
X11740Y-37875D01*
X16812Y-37795D02*
X18197Y-37795D01*
X15917Y-37795D02*
X15927Y-37795D01*
X12340Y-37795D02*
X15456Y-37795D01*
X11445Y-37795D02*
X11455Y-37795D01*
X10275Y-37795D02*
X10984Y-37795D01*
X16868Y-37715D02*
X18197Y-37715D01*
X15917Y-37715D02*
X15927Y-37715D01*
X12396Y-37715D02*
X15422Y-37715D01*
X11445Y-37715D02*
X11455Y-37715D01*
X10275Y-37715D02*
X10950Y-37715D01*
X16902Y-37635D02*
X18197Y-37635D01*
X15917Y-37635D02*
X15927Y-37635D01*
X12430Y-37635D02*
X15422Y-37635D01*
X11445Y-37635D02*
X11455Y-37635D01*
X10275Y-37635D02*
X10950Y-37635D01*
X16921Y-37555D02*
X18197Y-37555D01*
X15917Y-37555D02*
X15927Y-37555D01*
X12449Y-37555D02*
X15422Y-37555D01*
X11445Y-37555D02*
X11455Y-37555D01*
X10275Y-37555D02*
X10950Y-37555D01*
X16921Y-37475D02*
X18197Y-37475D01*
X15917Y-37475D02*
X15927Y-37475D01*
X12449Y-37475D02*
X15439Y-37475D01*
X11445Y-37475D02*
X11455Y-37475D01*
X10275Y-37475D02*
X10967Y-37475D01*
X16915Y-37395D02*
X18197Y-37395D01*
X15917Y-37395D02*
X15927Y-37395D01*
X12443Y-37395D02*
X15423Y-37395D01*
X11445Y-37395D02*
X11455Y-37395D01*
X10275Y-37395D02*
X10951Y-37395D01*
X16882Y-37315D02*
X18197Y-37315D01*
X15917Y-37315D02*
X15927Y-37315D01*
X12410Y-37315D02*
X15423Y-37315D01*
X11445Y-37315D02*
X11455Y-37315D01*
X10275Y-37315D02*
X10951Y-37315D01*
X16842Y-37235D02*
X18197Y-37235D01*
X15917Y-37235D02*
X15927Y-37235D01*
X12370Y-37235D02*
X15438Y-37235D01*
X11445Y-37235D02*
X11455Y-37235D01*
X10275Y-37235D02*
X10966Y-37235D01*
X16762Y-37155D02*
X18197Y-37155D01*
X15885Y-37155D02*
X15959Y-37155D01*
X12290Y-37155D02*
X15533Y-37155D01*
X11413Y-37155D02*
X11487Y-37155D01*
X10275Y-37155D02*
X11061Y-37155D01*
X16620Y-37075D02*
X18197Y-37075D01*
X12148Y-37075D02*
X16325Y-37075D01*
X10275Y-37075D02*
X11853Y-37075D01*
X16383Y-36995D02*
X18197Y-36995D01*
X11911Y-36995D02*
X16382Y-36995D01*
X10275Y-36995D02*
X11910Y-36995D01*
X16643Y-36915D02*
X18197Y-36915D01*
X12171Y-36915D02*
X16300Y-36915D01*
X10275Y-36915D02*
X11828Y-36915D01*
X17436Y-36835D02*
X18197Y-36835D01*
X16995Y-36835D02*
X17049Y-36835D01*
X12964Y-36835D02*
X16172Y-36835D01*
X12523Y-36835D02*
X12577Y-36835D01*
X10275Y-36835D02*
X11700Y-36835D01*
X17510Y-36755D02*
X18197Y-36755D01*
X17017Y-36755D02*
X17027Y-36755D01*
X13038Y-36755D02*
X16092Y-36755D01*
X12545Y-36755D02*
X12555Y-36755D01*
X10275Y-36755D02*
X11620Y-36755D01*
X17521Y-36675D02*
X18197Y-36675D01*
X17017Y-36675D02*
X17027Y-36675D01*
X13049Y-36675D02*
X16058Y-36675D01*
X12545Y-36675D02*
X12555Y-36675D01*
X10275Y-36675D02*
X11586Y-36675D01*
X17521Y-36595D02*
X18197Y-36595D01*
X17017Y-36595D02*
X17027Y-36595D01*
X13049Y-36595D02*
X16025Y-36595D01*
X12545Y-36595D02*
X12555Y-36595D01*
X10275Y-36595D02*
X11553Y-36595D01*
X17495Y-36515D02*
X18197Y-36515D01*
X17017Y-36515D02*
X17027Y-36515D01*
X13023Y-36515D02*
X16023Y-36515D01*
X12545Y-36515D02*
X12555Y-36515D01*
X10275Y-36515D02*
X11551Y-36515D01*
X17522Y-36435D02*
X18197Y-36435D01*
X17017Y-36435D02*
X17027Y-36435D01*
X13050Y-36435D02*
X16023Y-36435D01*
X12545Y-36435D02*
X12555Y-36435D01*
X10275Y-36435D02*
X11551Y-36435D01*
X17522Y-36355D02*
X18197Y-36355D01*
X17017Y-36355D02*
X17027Y-36355D01*
X13050Y-36355D02*
X16046Y-36355D01*
X12545Y-36355D02*
X12555Y-36355D01*
X10275Y-36355D02*
X11574Y-36355D01*
X17522Y-36275D02*
X18197Y-36275D01*
X17017Y-36275D02*
X17027Y-36275D01*
X13050Y-36275D02*
X16080Y-36275D01*
X12545Y-36275D02*
X12555Y-36275D01*
X10275Y-36275D02*
X11608Y-36275D01*
X17478Y-36195D02*
X18197Y-36195D01*
X17017Y-36195D02*
X17027Y-36195D01*
X13006Y-36195D02*
X16142Y-36195D01*
X12545Y-36195D02*
X12555Y-36195D01*
X10275Y-36195D02*
X11670Y-36195D01*
X16716Y-36115D02*
X18197Y-36115D01*
X12244Y-36115D02*
X16228Y-36115D01*
X10275Y-36115D02*
X11756Y-36115D01*
X16383Y-36035D02*
X18197Y-36035D01*
X11911Y-36035D02*
X16382Y-36035D01*
X10275Y-36035D02*
X11910Y-36035D01*
X16383Y-35955D02*
X18197Y-35955D01*
X11911Y-35955D02*
X16382Y-35955D01*
X10275Y-35955D02*
X11910Y-35955D01*
X16732Y-35875D02*
X18197Y-35875D01*
X12260Y-35875D02*
X15395Y-35875D01*
X10275Y-35875D02*
X10923Y-35875D01*
X16812Y-35795D02*
X18197Y-35795D01*
X12340Y-35795D02*
X15342Y-35795D01*
X10275Y-35795D02*
X10870Y-35795D01*
X16868Y-35715D02*
X18197Y-35715D01*
X12396Y-35715D02*
X15323Y-35715D01*
X10275Y-35715D02*
X10851Y-35715D01*
X16902Y-35635D02*
X18197Y-35635D01*
X12430Y-35635D02*
X15323Y-35635D01*
X10275Y-35635D02*
X10851Y-35635D01*
X16921Y-35555D02*
X18197Y-35555D01*
X12449Y-35555D02*
X15323Y-35555D01*
X10275Y-35555D02*
X10851Y-35555D01*
X16921Y-35475D02*
X18197Y-35475D01*
X12449Y-35475D02*
X15323Y-35475D01*
X10275Y-35475D02*
X10851Y-35475D01*
X16915Y-35395D02*
X18197Y-35395D01*
X12443Y-35395D02*
X15323Y-35395D01*
X10275Y-35395D02*
X10851Y-35395D01*
X16882Y-35315D02*
X18197Y-35315D01*
X12410Y-35315D02*
X15323Y-35315D01*
X10275Y-35315D02*
X10851Y-35315D01*
X16842Y-35235D02*
X18197Y-35235D01*
X12370Y-35235D02*
X15330Y-35235D01*
X10275Y-35235D02*
X10858Y-35235D01*
X16762Y-35155D02*
X18197Y-35155D01*
X12290Y-35155D02*
X15365Y-35155D01*
X10275Y-35155D02*
X10893Y-35155D01*
X16620Y-35075D02*
X18197Y-35075D01*
X12148Y-35075D02*
X15465Y-35075D01*
X10275Y-35075D02*
X10993Y-35075D01*
X16383Y-34995D02*
X18197Y-34995D01*
X11911Y-34995D02*
X16382Y-34995D01*
X10275Y-34995D02*
X11910Y-34995D01*
X16643Y-34915D02*
X18197Y-34915D01*
X12171Y-34915D02*
X16300Y-34915D01*
X10275Y-34915D02*
X11828Y-34915D01*
X17436Y-34835D02*
X18197Y-34835D01*
X16995Y-34835D02*
X17049Y-34835D01*
X12964Y-34835D02*
X16172Y-34835D01*
X12523Y-34835D02*
X12577Y-34835D01*
X10275Y-34835D02*
X11700Y-34835D01*
X17510Y-34755D02*
X18197Y-34755D01*
X17017Y-34755D02*
X17027Y-34755D01*
X13038Y-34755D02*
X16092Y-34755D01*
X12545Y-34755D02*
X12555Y-34755D01*
X10275Y-34755D02*
X11620Y-34755D01*
X17521Y-34675D02*
X18197Y-34675D01*
X17017Y-34675D02*
X17027Y-34675D01*
X13049Y-34675D02*
X16058Y-34675D01*
X12545Y-34675D02*
X12555Y-34675D01*
X10275Y-34675D02*
X11586Y-34675D01*
X17521Y-34595D02*
X18197Y-34595D01*
X17017Y-34595D02*
X17027Y-34595D01*
X13049Y-34595D02*
X16025Y-34595D01*
X12545Y-34595D02*
X12555Y-34595D01*
X10275Y-34595D02*
X11553Y-34595D01*
X17495Y-34515D02*
X18197Y-34515D01*
X17017Y-34515D02*
X17027Y-34515D01*
X13023Y-34515D02*
X16023Y-34515D01*
X12545Y-34515D02*
X12555Y-34515D01*
X10275Y-34515D02*
X11551Y-34515D01*
X17522Y-34435D02*
X18197Y-34435D01*
X17017Y-34435D02*
X17027Y-34435D01*
X13050Y-34435D02*
X16023Y-34435D01*
X12545Y-34435D02*
X12555Y-34435D01*
X10275Y-34435D02*
X11551Y-34435D01*
X17522Y-34355D02*
X18197Y-34355D01*
X17017Y-34355D02*
X17027Y-34355D01*
X13050Y-34355D02*
X16046Y-34355D01*
X12545Y-34355D02*
X12555Y-34355D01*
X10275Y-34355D02*
X11574Y-34355D01*
X17522Y-34275D02*
X18197Y-34275D01*
X17017Y-34275D02*
X17027Y-34275D01*
X13050Y-34275D02*
X16080Y-34275D01*
X12545Y-34275D02*
X12555Y-34275D01*
X10275Y-34275D02*
X11608Y-34275D01*
X17478Y-34195D02*
X18197Y-34195D01*
X17017Y-34195D02*
X17027Y-34195D01*
X13006Y-34195D02*
X16142Y-34195D01*
X12545Y-34195D02*
X12555Y-34195D01*
X10275Y-34195D02*
X11670Y-34195D01*
X16716Y-34115D02*
X18197Y-34115D01*
X12244Y-34115D02*
X16228Y-34115D01*
X10275Y-34115D02*
X11756Y-34115D01*
X16383Y-34035D02*
X18197Y-34035D01*
X11911Y-34035D02*
X16382Y-34035D01*
X10275Y-34035D02*
X11910Y-34035D01*
X16383Y-33955D02*
X18197Y-33955D01*
X11911Y-33955D02*
X16382Y-33955D01*
X10275Y-33955D02*
X11910Y-33955D01*
X16732Y-33875D02*
X18197Y-33875D01*
X12260Y-33875D02*
X16212Y-33875D01*
X10275Y-33875D02*
X11740Y-33875D01*
X16812Y-33795D02*
X18197Y-33795D01*
X15917Y-33795D02*
X15927Y-33795D01*
X12340Y-33795D02*
X15456Y-33795D01*
X11445Y-33795D02*
X11455Y-33795D01*
X10275Y-33795D02*
X10984Y-33795D01*
X16868Y-33715D02*
X18197Y-33715D01*
X15917Y-33715D02*
X15927Y-33715D01*
X12396Y-33715D02*
X15422Y-33715D01*
X11445Y-33715D02*
X11455Y-33715D01*
X10275Y-33715D02*
X10950Y-33715D01*
X16902Y-33635D02*
X18197Y-33635D01*
X15917Y-33635D02*
X15927Y-33635D01*
X12430Y-33635D02*
X15422Y-33635D01*
X11445Y-33635D02*
X11455Y-33635D01*
X10275Y-33635D02*
X10950Y-33635D01*
X16921Y-33555D02*
X18197Y-33555D01*
X15917Y-33555D02*
X15927Y-33555D01*
X12449Y-33555D02*
X15422Y-33555D01*
X11445Y-33555D02*
X11455Y-33555D01*
X10275Y-33555D02*
X10950Y-33555D01*
X16921Y-33475D02*
X18197Y-33475D01*
X15917Y-33475D02*
X15927Y-33475D01*
X12449Y-33475D02*
X15439Y-33475D01*
X11445Y-33475D02*
X11455Y-33475D01*
X10275Y-33475D02*
X10967Y-33475D01*
X16915Y-33395D02*
X18197Y-33395D01*
X15917Y-33395D02*
X15927Y-33395D01*
X12443Y-33395D02*
X15423Y-33395D01*
X11445Y-33395D02*
X11455Y-33395D01*
X10275Y-33395D02*
X10951Y-33395D01*
X16882Y-33315D02*
X18197Y-33315D01*
X15917Y-33315D02*
X15927Y-33315D01*
X12410Y-33315D02*
X15423Y-33315D01*
X11445Y-33315D02*
X11455Y-33315D01*
X10275Y-33315D02*
X10951Y-33315D01*
X16842Y-33235D02*
X18197Y-33235D01*
X15917Y-33235D02*
X15927Y-33235D01*
X12370Y-33235D02*
X15438Y-33235D01*
X11445Y-33235D02*
X11455Y-33235D01*
X10275Y-33235D02*
X10966Y-33235D01*
X16762Y-33155D02*
X18197Y-33155D01*
X15885Y-33155D02*
X15959Y-33155D01*
X12290Y-33155D02*
X15533Y-33155D01*
X11413Y-33155D02*
X11487Y-33155D01*
X10275Y-33155D02*
X11061Y-33155D01*
X16620Y-33075D02*
X18197Y-33075D01*
X12148Y-33075D02*
X16325Y-33075D01*
X10275Y-33075D02*
X11853Y-33075D01*
X16383Y-32995D02*
X18197Y-32995D01*
X11911Y-32995D02*
X16382Y-32995D01*
X10275Y-32995D02*
X11910Y-32995D01*
X16643Y-32915D02*
X18197Y-32915D01*
X12171Y-32915D02*
X16300Y-32915D01*
X10275Y-32915D02*
X11828Y-32915D01*
X17436Y-32835D02*
X18197Y-32835D01*
X16995Y-32835D02*
X17049Y-32835D01*
X12964Y-32835D02*
X16172Y-32835D01*
X12523Y-32835D02*
X12577Y-32835D01*
X10275Y-32835D02*
X11700Y-32835D01*
X17510Y-32755D02*
X18197Y-32755D01*
X17017Y-32755D02*
X17027Y-32755D01*
X13038Y-32755D02*
X16092Y-32755D01*
X12545Y-32755D02*
X12555Y-32755D01*
X10275Y-32755D02*
X11620Y-32755D01*
X17521Y-32675D02*
X18197Y-32675D01*
X17017Y-32675D02*
X17027Y-32675D01*
X13049Y-32675D02*
X16058Y-32675D01*
X12545Y-32675D02*
X12555Y-32675D01*
X10275Y-32675D02*
X11586Y-32675D01*
X17521Y-32595D02*
X18197Y-32595D01*
X17017Y-32595D02*
X17027Y-32595D01*
X13049Y-32595D02*
X16025Y-32595D01*
X12545Y-32595D02*
X12555Y-32595D01*
X10275Y-32595D02*
X11553Y-32595D01*
X17495Y-32515D02*
X18197Y-32515D01*
X17017Y-32515D02*
X17027Y-32515D01*
X13023Y-32515D02*
X16023Y-32515D01*
X12545Y-32515D02*
X12555Y-32515D01*
X10275Y-32515D02*
X11551Y-32515D01*
X17522Y-32435D02*
X18197Y-32435D01*
X17017Y-32435D02*
X17027Y-32435D01*
X13050Y-32435D02*
X16023Y-32435D01*
X12545Y-32435D02*
X12555Y-32435D01*
X10275Y-32435D02*
X11551Y-32435D01*
X17522Y-32355D02*
X18197Y-32355D01*
X17017Y-32355D02*
X17027Y-32355D01*
X13050Y-32355D02*
X16046Y-32355D01*
X12545Y-32355D02*
X12555Y-32355D01*
X10275Y-32355D02*
X11574Y-32355D01*
X17522Y-32275D02*
X18197Y-32275D01*
X17017Y-32275D02*
X17027Y-32275D01*
X13050Y-32275D02*
X16080Y-32275D01*
X12545Y-32275D02*
X12555Y-32275D01*
X10275Y-32275D02*
X11608Y-32275D01*
X17478Y-32195D02*
X18197Y-32195D01*
X17017Y-32195D02*
X17027Y-32195D01*
X13006Y-32195D02*
X16142Y-32195D01*
X12545Y-32195D02*
X12555Y-32195D01*
X10275Y-32195D02*
X11670Y-32195D01*
X16716Y-32115D02*
X18197Y-32115D01*
X12244Y-32115D02*
X16228Y-32115D01*
X10275Y-32115D02*
X11756Y-32115D01*
X16383Y-32035D02*
X18197Y-32035D01*
X11911Y-32035D02*
X16382Y-32035D01*
X10275Y-32035D02*
X11910Y-32035D01*
X16383Y-31955D02*
X18197Y-31955D01*
X11911Y-31955D02*
X16382Y-31955D01*
X10275Y-31955D02*
X11910Y-31955D01*
X16383Y-31875D02*
X18197Y-31875D01*
X11911Y-31875D02*
X16382Y-31875D01*
X10275Y-31875D02*
X11910Y-31875D01*
X16383Y-31795D02*
X18197Y-31795D01*
X11911Y-31795D02*
X16382Y-31795D01*
X10275Y-31795D02*
X11910Y-31795D01*
X16383Y-31715D02*
X18197Y-31715D01*
X11911Y-31715D02*
X16382Y-31715D01*
X10275Y-31715D02*
X11910Y-31715D01*
X16383Y-31635D02*
X18197Y-31635D01*
X11911Y-31635D02*
X16382Y-31635D01*
X10275Y-31635D02*
X11910Y-31635D01*
X16383Y-31555D02*
X18197Y-31555D01*
X11911Y-31555D02*
X16382Y-31555D01*
X10275Y-31555D02*
X11910Y-31555D01*
X16383Y-31475D02*
X18197Y-31475D01*
X11911Y-31475D02*
X16382Y-31475D01*
X10275Y-31475D02*
X11910Y-31475D01*
X16383Y-31395D02*
X18197Y-31395D01*
X11911Y-31395D02*
X16382Y-31395D01*
X10275Y-31395D02*
X11910Y-31395D01*
X16383Y-31315D02*
X18197Y-31315D01*
X11911Y-31315D02*
X16382Y-31315D01*
X10275Y-31315D02*
X11910Y-31315D01*
X16383Y-31235D02*
X18197Y-31235D01*
X11911Y-31235D02*
X16382Y-31235D01*
X10275Y-31235D02*
X11910Y-31235D01*
X16383Y-31155D02*
X18197Y-31155D01*
X11911Y-31155D02*
X16382Y-31155D01*
X10275Y-31155D02*
X11910Y-31155D01*
X16383Y-31075D02*
X18197Y-31075D01*
X11911Y-31075D02*
X16382Y-31075D01*
X10275Y-31075D02*
X11910Y-31075D01*
X16383Y-30995D02*
X18197Y-30995D01*
X11911Y-30995D02*
X16382Y-30995D01*
X10275Y-30995D02*
X11910Y-30995D01*
X16383Y-30915D02*
X18197Y-30915D01*
X11911Y-30915D02*
X16382Y-30915D01*
X10275Y-30915D02*
X11910Y-30915D01*
X16383Y-30835D02*
X18197Y-30835D01*
X11911Y-30835D02*
X16382Y-30835D01*
X10275Y-30835D02*
X11910Y-30835D01*
X16383Y-30755D02*
X18197Y-30755D01*
X11911Y-30755D02*
X16382Y-30755D01*
X10275Y-30755D02*
X11910Y-30755D01*
X16383Y-30675D02*
X18197Y-30675D01*
X11911Y-30675D02*
X16382Y-30675D01*
X10275Y-30675D02*
X11910Y-30675D01*
X16383Y-30595D02*
X18197Y-30595D01*
X11911Y-30595D02*
X16382Y-30595D01*
X10275Y-30595D02*
X11910Y-30595D01*
X16383Y-30515D02*
X18197Y-30515D01*
X11911Y-30515D02*
X16382Y-30515D01*
X10275Y-30515D02*
X11910Y-30515D01*
X16383Y-30435D02*
X18197Y-30435D01*
X11911Y-30435D02*
X16382Y-30435D01*
X10275Y-30435D02*
X11910Y-30435D01*
X16383Y-30355D02*
X18197Y-30355D01*
X11911Y-30355D02*
X16382Y-30355D01*
X10275Y-30355D02*
X11910Y-30355D01*
X16383Y-30275D02*
X18197Y-30275D01*
X11911Y-30275D02*
X16382Y-30275D01*
X10275Y-30275D02*
X11910Y-30275D01*
X16383Y-30195D02*
X18197Y-30195D01*
X11911Y-30195D02*
X16382Y-30195D01*
X10275Y-30195D02*
X11910Y-30195D01*
X16383Y-30115D02*
X18197Y-30115D01*
X11911Y-30115D02*
X16382Y-30115D01*
X10275Y-30115D02*
X11910Y-30115D01*
X16383Y-30035D02*
X18197Y-30035D01*
X11911Y-30035D02*
X16382Y-30035D01*
X10275Y-30035D02*
X11910Y-30035D01*
X16383Y-29955D02*
X18197Y-29955D01*
X11911Y-29955D02*
X16382Y-29955D01*
X10275Y-29955D02*
X11910Y-29955D01*
X16383Y-29875D02*
X18197Y-29875D01*
X11911Y-29875D02*
X16382Y-29875D01*
X10275Y-29875D02*
X11910Y-29875D01*
X16383Y-29795D02*
X18197Y-29795D01*
X11911Y-29795D02*
X16382Y-29795D01*
X10275Y-29795D02*
X11910Y-29795D01*
X16383Y-29715D02*
X18197Y-29715D01*
X11911Y-29715D02*
X16382Y-29715D01*
X10275Y-29715D02*
X11910Y-29715D01*
X16383Y-29635D02*
X18197Y-29635D01*
X11911Y-29635D02*
X16382Y-29635D01*
X10275Y-29635D02*
X11910Y-29635D01*
X16383Y-29555D02*
X18197Y-29555D01*
X11911Y-29555D02*
X16382Y-29555D01*
X10275Y-29555D02*
X11910Y-29555D01*
X16383Y-29475D02*
X18197Y-29475D01*
X11911Y-29475D02*
X16382Y-29475D01*
X10275Y-29475D02*
X11910Y-29475D01*
X16383Y-29395D02*
X18197Y-29395D01*
X11911Y-29395D02*
X16382Y-29395D01*
X10275Y-29395D02*
X11910Y-29395D01*
X16383Y-29315D02*
X18197Y-29315D01*
X11911Y-29315D02*
X16382Y-29315D01*
X10275Y-29315D02*
X11910Y-29315D01*
X16383Y-29235D02*
X18197Y-29235D01*
X11911Y-29235D02*
X16382Y-29235D01*
X10275Y-29235D02*
X11910Y-29235D01*
X16383Y-29155D02*
X18197Y-29155D01*
X11911Y-29155D02*
X16382Y-29155D01*
X10275Y-29155D02*
X11910Y-29155D01*
X16383Y-29075D02*
X18197Y-29075D01*
X11911Y-29075D02*
X16382Y-29075D01*
X10275Y-29075D02*
X11910Y-29075D01*
X16383Y-28995D02*
X18197Y-28995D01*
X11911Y-28995D02*
X16382Y-28995D01*
X10275Y-28995D02*
X11910Y-28995D01*
X16383Y-28915D02*
X18197Y-28915D01*
X11911Y-28915D02*
X16382Y-28915D01*
X10275Y-28915D02*
X11910Y-28915D01*
X16383Y-28835D02*
X18197Y-28835D01*
X11911Y-28835D02*
X16382Y-28835D01*
X10275Y-28835D02*
X11910Y-28835D01*
X16383Y-28755D02*
X18197Y-28755D01*
X11911Y-28755D02*
X16382Y-28755D01*
X10275Y-28755D02*
X11910Y-28755D01*
X16383Y-28675D02*
X18197Y-28675D01*
X11911Y-28675D02*
X16382Y-28675D01*
X10275Y-28675D02*
X11910Y-28675D01*
X16383Y-28595D02*
X18197Y-28595D01*
X11911Y-28595D02*
X16382Y-28595D01*
X10275Y-28595D02*
X11910Y-28595D01*
X16383Y-28515D02*
X18197Y-28515D01*
X11911Y-28515D02*
X16382Y-28515D01*
X10275Y-28515D02*
X11910Y-28515D01*
X16383Y-28435D02*
X18197Y-28435D01*
X11911Y-28435D02*
X16382Y-28435D01*
X10275Y-28435D02*
X11910Y-28435D01*
X16383Y-28355D02*
X18197Y-28355D01*
X11911Y-28355D02*
X16382Y-28355D01*
X10275Y-28355D02*
X11910Y-28355D01*
X16383Y-28275D02*
X18197Y-28275D01*
X11911Y-28275D02*
X16382Y-28275D01*
X10275Y-28275D02*
X11910Y-28275D01*
X16383Y-28195D02*
X18197Y-28195D01*
X11911Y-28195D02*
X16382Y-28195D01*
X10275Y-28195D02*
X11910Y-28195D01*
X16383Y-28115D02*
X18197Y-28115D01*
X11911Y-28115D02*
X16382Y-28115D01*
X10275Y-28115D02*
X11910Y-28115D01*
X16383Y-28035D02*
X18197Y-28035D01*
X11911Y-28035D02*
X16382Y-28035D01*
X10275Y-28035D02*
X11910Y-28035D01*
X16383Y-27955D02*
X18197Y-27955D01*
X11911Y-27955D02*
X16382Y-27955D01*
X10275Y-27955D02*
X11910Y-27955D01*
X16383Y-27875D02*
X18197Y-27875D01*
X11911Y-27875D02*
X16382Y-27875D01*
X10275Y-27875D02*
X11910Y-27875D01*
X16383Y-27795D02*
X18197Y-27795D01*
X11911Y-27795D02*
X16382Y-27795D01*
X10275Y-27795D02*
X11910Y-27795D01*
X16383Y-27715D02*
X18197Y-27715D01*
X11911Y-27715D02*
X16382Y-27715D01*
X10275Y-27715D02*
X11910Y-27715D01*
X16383Y-27635D02*
X18197Y-27635D01*
X11911Y-27635D02*
X16382Y-27635D01*
X10275Y-27635D02*
X11910Y-27635D01*
X16383Y-27555D02*
X18197Y-27555D01*
X11911Y-27555D02*
X16382Y-27555D01*
X10275Y-27555D02*
X11910Y-27555D01*
X16383Y-27475D02*
X18197Y-27475D01*
X11911Y-27475D02*
X16382Y-27475D01*
X10275Y-27475D02*
X11910Y-27475D01*
X16383Y-27395D02*
X18197Y-27395D01*
X11911Y-27395D02*
X16382Y-27395D01*
X10275Y-27395D02*
X11910Y-27395D01*
X16383Y-27315D02*
X18197Y-27315D01*
X11911Y-27315D02*
X16382Y-27315D01*
X10275Y-27315D02*
X11910Y-27315D01*
X16383Y-27235D02*
X18197Y-27235D01*
X11911Y-27235D02*
X16382Y-27235D01*
X10275Y-27235D02*
X11910Y-27235D01*
X16383Y-27155D02*
X18197Y-27155D01*
X11911Y-27155D02*
X16382Y-27155D01*
X10275Y-27155D02*
X11910Y-27155D01*
X16383Y-27075D02*
X18197Y-27075D01*
X11911Y-27075D02*
X16382Y-27075D01*
X10275Y-27075D02*
X11910Y-27075D01*
X16716Y-26995D02*
X18197Y-26995D01*
X12244Y-26995D02*
X16218Y-26995D01*
X10275Y-26995D02*
X11746Y-26995D01*
X16913Y-26915D02*
X18197Y-26915D01*
X12441Y-26915D02*
X16042Y-26915D01*
X10275Y-26915D02*
X11570Y-26915D01*
X16978Y-26835D02*
X18197Y-26835D01*
X12506Y-26835D02*
X15965Y-26835D01*
X10275Y-26835D02*
X11493Y-26835D01*
X17059Y-26755D02*
X18197Y-26755D01*
X16970Y-26755D02*
X16984Y-26755D01*
X15960Y-26755D02*
X15974Y-26755D01*
X12587Y-26755D02*
X15884Y-26755D01*
X12498Y-26755D02*
X12512Y-26755D01*
X11488Y-26755D02*
X11502Y-26755D01*
X10275Y-26755D02*
X11412Y-26755D01*
X17139Y-26675D02*
X18197Y-26675D01*
X16890Y-26675D02*
X16904Y-26675D01*
X16040Y-26675D02*
X16054Y-26675D01*
X12667Y-26675D02*
X15796Y-26675D01*
X12418Y-26675D02*
X12432Y-26675D01*
X11568Y-26675D02*
X11582Y-26675D01*
X10275Y-26675D02*
X11324Y-26675D01*
X17175Y-26595D02*
X18197Y-26595D01*
X16810Y-26595D02*
X16824Y-26595D01*
X16120Y-26595D02*
X16134Y-26595D01*
X12703Y-26595D02*
X15764Y-26595D01*
X12338Y-26595D02*
X12352Y-26595D01*
X11648Y-26595D02*
X11662Y-26595D01*
X10275Y-26595D02*
X11292Y-26595D01*
X17211Y-26515D02*
X18197Y-26515D01*
X16730Y-26515D02*
X16744Y-26515D01*
X16200Y-26515D02*
X16214Y-26515D01*
X12739Y-26515D02*
X15734Y-26515D01*
X12258Y-26515D02*
X12272Y-26515D01*
X11728Y-26515D02*
X11742Y-26515D01*
X10275Y-26515D02*
X11262Y-26515D01*
X17248Y-26435D02*
X18197Y-26435D01*
X16650Y-26435D02*
X16664Y-26435D01*
X16280Y-26435D02*
X16294Y-26435D01*
X12776Y-26435D02*
X15704Y-26435D01*
X12178Y-26435D02*
X12192Y-26435D01*
X11808Y-26435D02*
X11822Y-26435D01*
X10275Y-26435D02*
X11232Y-26435D01*
X17252Y-26355D02*
X18197Y-26355D01*
X16570Y-26355D02*
X16584Y-26355D01*
X16360Y-26355D02*
X16374Y-26355D01*
X12780Y-26355D02*
X15685Y-26355D01*
X12098Y-26355D02*
X12112Y-26355D01*
X11888Y-26355D02*
X11902Y-26355D01*
X10275Y-26355D02*
X11213Y-26355D01*
X17255Y-26275D02*
X18197Y-26275D01*
X16490Y-26275D02*
X16504Y-26275D01*
X16439Y-26275D02*
X16454Y-26275D01*
X12783Y-26275D02*
X15688Y-26275D01*
X12018Y-26275D02*
X12032Y-26275D01*
X11967Y-26275D02*
X11982Y-26275D01*
X10275Y-26275D02*
X11216Y-26275D01*
X17257Y-26195D02*
X18197Y-26195D01*
X16520Y-26195D02*
X16534Y-26195D01*
X16410Y-26195D02*
X16424Y-26195D01*
X12785Y-26195D02*
X15690Y-26195D01*
X12048Y-26195D02*
X12062Y-26195D01*
X11938Y-26195D02*
X11952Y-26195D01*
X10275Y-26195D02*
X11218Y-26195D01*
X17259Y-26115D02*
X18197Y-26115D01*
X16600Y-26115D02*
X16614Y-26115D01*
X16330Y-26115D02*
X16344Y-26115D01*
X12787Y-26115D02*
X15693Y-26115D01*
X12128Y-26115D02*
X12142Y-26115D01*
X11858Y-26115D02*
X11872Y-26115D01*
X10275Y-26115D02*
X11221Y-26115D01*
X17228Y-26035D02*
X18197Y-26035D01*
X16680Y-26035D02*
X16694Y-26035D01*
X16250Y-26035D02*
X16264Y-26035D01*
X12756Y-26035D02*
X15710Y-26035D01*
X12208Y-26035D02*
X12222Y-26035D01*
X11778Y-26035D02*
X11792Y-26035D01*
X10275Y-26035D02*
X11238Y-26035D01*
X17198Y-25955D02*
X18197Y-25955D01*
X16760Y-25955D02*
X16774Y-25955D01*
X16170Y-25955D02*
X16184Y-25955D01*
X12726Y-25955D02*
X15746Y-25955D01*
X12288Y-25955D02*
X12302Y-25955D01*
X11698Y-25955D02*
X11712Y-25955D01*
X10275Y-25955D02*
X11274Y-25955D01*
X17168Y-25875D02*
X18197Y-25875D01*
X16840Y-25875D02*
X16854Y-25875D01*
X16090Y-25875D02*
X16104Y-25875D01*
X12696Y-25875D02*
X15783Y-25875D01*
X12368Y-25875D02*
X12382Y-25875D01*
X11618Y-25875D02*
X11632Y-25875D01*
X10275Y-25875D02*
X11311Y-25875D01*
X17128Y-25795D02*
X18197Y-25795D01*
X16920Y-25795D02*
X16934Y-25795D01*
X16010Y-25795D02*
X16024Y-25795D01*
X12656Y-25795D02*
X15819Y-25795D01*
X12448Y-25795D02*
X12462Y-25795D01*
X11538Y-25795D02*
X11552Y-25795D01*
X10275Y-25795D02*
X11347Y-25795D01*
X17014Y-25715D02*
X18197Y-25715D01*
X17000Y-25715D02*
X17014Y-25715D01*
X15930Y-25715D02*
X15944Y-25715D01*
X12542Y-25715D02*
X15930Y-25715D01*
X12528Y-25715D02*
X12542Y-25715D01*
X11458Y-25715D02*
X11472Y-25715D01*
X10275Y-25715D02*
X11458Y-25715D01*
X16960Y-25635D02*
X18197Y-25635D01*
X12488Y-25635D02*
X15985Y-25635D01*
X10275Y-25635D02*
X11513Y-25635D01*
X16836Y-25555D02*
X18197Y-25555D01*
X12364Y-25555D02*
X16096Y-25555D01*
X10275Y-25555D02*
X11624Y-25555D01*
X16660Y-25475D02*
X18197Y-25475D01*
X12188Y-25475D02*
X16308Y-25475D01*
X10275Y-25475D02*
X11836Y-25475D01*
X10275Y-25395D02*
X18197Y-25395D01*
X10275Y-25315D02*
X18197Y-25315D01*
X10275Y-25235D02*
X18197Y-25235D01*
X10275Y-25155D02*
X18197Y-25155D01*
X10275Y-25075D02*
X18197Y-25075D01*
X10275Y-24995D02*
X18197Y-24995D01*
X10275Y-24915D02*
X18197Y-24915D01*
X10275Y-24835D02*
X18197Y-24835D01*
X10275Y-24755D02*
X18197Y-24755D01*
X10275Y-24675D02*
X18197Y-24675D01*
X10275Y-24595D02*
X18197Y-24595D01*
X10275Y-24515D02*
X18197Y-24515D01*
X10275Y-24435D02*
X18197Y-24435D01*
X10275Y-24355D02*
X18197Y-24355D01*
X10275Y-24275D02*
X18197Y-24275D01*
X10275Y-24195D02*
X18197Y-24195D01*
X10275Y-24115D02*
X18197Y-24115D01*
X10275Y-24035D02*
X18197Y-24035D01*
X10275Y-23955D02*
X18197Y-23955D01*
X10275Y-23875D02*
X18197Y-23875D01*
X10275Y-23795D02*
X18197Y-23795D01*
X10275Y-23715D02*
X18197Y-23715D01*
X10275Y-23635D02*
X18197Y-23635D01*
X10275Y-23555D02*
X18197Y-23555D01*
X10275Y-23475D02*
X18197Y-23475D01*
X10275Y-23395D02*
X18197Y-23395D01*
X10275Y-23315D02*
X18197Y-23315D01*
X10275Y-23235D02*
X18197Y-23235D01*
X10275Y-23155D02*
X18197Y-23155D01*
X10275Y-23075D02*
X18197Y-23075D01*
X10275Y-22995D02*
X18197Y-22995D01*
X10275Y-22915D02*
X18197Y-22915D01*
X10275Y-22835D02*
X18197Y-22835D01*
X10275Y-22755D02*
X18197Y-22755D01*
X10275Y-22675D02*
X18197Y-22675D01*
X10275Y-22595D02*
X18197Y-22595D01*
X10275Y-22515D02*
X18197Y-22515D01*
X10275Y-22435D02*
X18197Y-22435D01*
X10275Y-22355D02*
X18197Y-22355D01*
X10275Y-22275D02*
X18197Y-22275D01*
X10275Y-22195D02*
X18197Y-22195D01*
X10275Y-22115D02*
X18197Y-22115D01*
X10275Y-22035D02*
X18197Y-22035D01*
X10275Y-21955D02*
X18197Y-21955D01*
X10275Y-21875D02*
X18197Y-21875D01*
X10275Y-21795D02*
X18197Y-21795D01*
X10275Y-21715D02*
X18197Y-21715D01*
X10275Y-21635D02*
X18197Y-21635D01*
X10275Y-21555D02*
X18197Y-21555D01*
X10275Y-21475D02*
X18197Y-21475D01*
X10275Y-21395D02*
X18197Y-21395D01*
X10275Y-21315D02*
X18197Y-21315D01*
X10275Y-21235D02*
X18197Y-21235D01*
X10275Y-21155D02*
X18197Y-21155D01*
X10275Y-21075D02*
X18197Y-21075D01*
X10275Y-20995D02*
X18197Y-20995D01*
X10275Y-20915D02*
X18197Y-20915D01*
X10275Y-20835D02*
X18197Y-20835D01*
X10275Y-20755D02*
X18197Y-20755D01*
X10275Y-20675D02*
X18197Y-20675D01*
X10275Y-20595D02*
X18197Y-20595D01*
X10275Y-20515D02*
X18197Y-20515D01*
X16594Y-20435D02*
X18197Y-20435D01*
X12122Y-20435D02*
X16348Y-20435D01*
X10275Y-20435D02*
X11876Y-20435D01*
X16752Y-20355D02*
X18197Y-20355D01*
X12280Y-20355D02*
X16192Y-20355D01*
X10275Y-20355D02*
X11720Y-20355D01*
X16832Y-20275D02*
X18197Y-20275D01*
X15917Y-20275D02*
X15927Y-20275D01*
X12360Y-20275D02*
X15441Y-20275D01*
X11445Y-20275D02*
X11455Y-20275D01*
X10275Y-20275D02*
X10969Y-20275D01*
X16877Y-20195D02*
X18197Y-20195D01*
X15917Y-20195D02*
X15927Y-20195D01*
X12405Y-20195D02*
X15422Y-20195D01*
X11445Y-20195D02*
X11455Y-20195D01*
X10275Y-20195D02*
X10950Y-20195D01*
X16910Y-20115D02*
X18197Y-20115D01*
X15917Y-20115D02*
X15927Y-20115D01*
X12438Y-20115D02*
X15422Y-20115D01*
X11445Y-20115D02*
X11455Y-20115D01*
X10275Y-20115D02*
X10950Y-20115D01*
X16921Y-20035D02*
X18197Y-20035D01*
X15917Y-20035D02*
X15927Y-20035D01*
X12449Y-20035D02*
X15429Y-20035D01*
X11445Y-20035D02*
X11455Y-20035D01*
X10275Y-20035D02*
X10957Y-20035D01*
X16921Y-19955D02*
X18197Y-19955D01*
X15917Y-19955D02*
X15927Y-19955D01*
X12449Y-19955D02*
X15423Y-19955D01*
X11445Y-19955D02*
X11455Y-19955D01*
X10275Y-19955D02*
X10951Y-19955D01*
X16907Y-19875D02*
X18197Y-19875D01*
X15917Y-19875D02*
X15927Y-19875D01*
X12435Y-19875D02*
X15423Y-19875D01*
X11445Y-19875D02*
X11455Y-19875D01*
X10275Y-19875D02*
X10951Y-19875D01*
X16874Y-19795D02*
X18197Y-19795D01*
X15917Y-19795D02*
X15927Y-19795D01*
X12402Y-19795D02*
X15423Y-19795D01*
X11445Y-19795D02*
X11455Y-19795D01*
X10275Y-19795D02*
X10951Y-19795D01*
X16822Y-19715D02*
X18197Y-19715D01*
X15917Y-19715D02*
X15927Y-19715D01*
X12350Y-19715D02*
X15446Y-19715D01*
X11445Y-19715D02*
X11455Y-19715D01*
X10275Y-19715D02*
X10974Y-19715D01*
X16742Y-19635D02*
X18197Y-19635D01*
X12270Y-19635D02*
X16202Y-19635D01*
X10275Y-19635D02*
X11730Y-19635D01*
X16572Y-19555D02*
X18197Y-19555D01*
X12100Y-19555D02*
X16373Y-19555D01*
X10275Y-19555D02*
X11901Y-19555D01*
X16383Y-19475D02*
X18197Y-19475D01*
X11911Y-19475D02*
X16382Y-19475D01*
X10275Y-19475D02*
X11910Y-19475D01*
X16692Y-19395D02*
X18197Y-19395D01*
X12220Y-19395D02*
X16252Y-19395D01*
X10275Y-19395D02*
X11780Y-19395D01*
X17468Y-19315D02*
X18197Y-19315D01*
X17015Y-19315D02*
X17029Y-19315D01*
X12996Y-19315D02*
X16152Y-19315D01*
X12543Y-19315D02*
X12557Y-19315D01*
X10275Y-19315D02*
X11680Y-19315D01*
X17518Y-19235D02*
X18197Y-19235D01*
X17017Y-19235D02*
X17027Y-19235D01*
X13046Y-19235D02*
X16083Y-19235D01*
X12545Y-19235D02*
X12555Y-19235D01*
X10275Y-19235D02*
X11611Y-19235D01*
X17521Y-19155D02*
X18197Y-19155D01*
X17017Y-19155D02*
X17027Y-19155D01*
X13049Y-19155D02*
X16050Y-19155D01*
X12545Y-19155D02*
X12555Y-19155D01*
X10275Y-19155D02*
X11578Y-19155D01*
X17521Y-19075D02*
X18197Y-19075D01*
X17017Y-19075D02*
X17027Y-19075D01*
X13049Y-19075D02*
X16023Y-19075D01*
X12545Y-19075D02*
X12555Y-19075D01*
X10275Y-19075D02*
X11551Y-19075D01*
X17017Y-18995D02*
X18197Y-18995D01*
X12545Y-18995D02*
X16023Y-18995D01*
X10275Y-18995D02*
X11551Y-18995D01*
X17522Y-18915D02*
X18197Y-18915D01*
X17017Y-18915D02*
X17027Y-18915D01*
X13050Y-18915D02*
X16023Y-18915D01*
X12545Y-18915D02*
X12555Y-18915D01*
X10275Y-18915D02*
X11551Y-18915D01*
X17522Y-18835D02*
X18197Y-18835D01*
X17017Y-18835D02*
X17027Y-18835D01*
X13050Y-18835D02*
X16055Y-18835D01*
X12545Y-18835D02*
X12555Y-18835D01*
X10275Y-18835D02*
X11583Y-18835D01*
X17515Y-18755D02*
X18197Y-18755D01*
X17017Y-18755D02*
X17027Y-18755D01*
X13043Y-18755D02*
X16088Y-18755D01*
X12545Y-18755D02*
X12555Y-18755D01*
X10275Y-18755D02*
X11616Y-18755D01*
X17458Y-18675D02*
X18197Y-18675D01*
X17005Y-18675D02*
X17039Y-18675D01*
X12986Y-18675D02*
X16162Y-18675D01*
X12533Y-18675D02*
X12567Y-18675D01*
X10275Y-18675D02*
X11690Y-18675D01*
X16668Y-18595D02*
X18197Y-18595D01*
X12196Y-18595D02*
X16276Y-18595D01*
X10275Y-18595D02*
X11804Y-18595D01*
X16383Y-18515D02*
X18197Y-18515D01*
X11911Y-18515D02*
X16382Y-18515D01*
X10275Y-18515D02*
X11910Y-18515D01*
X16594Y-18435D02*
X18197Y-18435D01*
X12122Y-18435D02*
X16348Y-18435D01*
X10275Y-18435D02*
X11876Y-18435D01*
X16752Y-18355D02*
X18197Y-18355D01*
X12280Y-18355D02*
X16192Y-18355D01*
X10275Y-18355D02*
X11720Y-18355D01*
X16832Y-18275D02*
X18197Y-18275D01*
X15917Y-18275D02*
X15927Y-18275D01*
X12360Y-18275D02*
X15441Y-18275D01*
X11445Y-18275D02*
X11455Y-18275D01*
X10275Y-18275D02*
X10969Y-18275D01*
X16877Y-18195D02*
X18197Y-18195D01*
X15917Y-18195D02*
X15927Y-18195D01*
X12405Y-18195D02*
X15422Y-18195D01*
X11445Y-18195D02*
X11455Y-18195D01*
X10275Y-18195D02*
X10950Y-18195D01*
X16910Y-18115D02*
X18197Y-18115D01*
X15917Y-18115D02*
X15927Y-18115D01*
X12438Y-18115D02*
X15422Y-18115D01*
X11445Y-18115D02*
X11455Y-18115D01*
X10275Y-18115D02*
X10950Y-18115D01*
X16921Y-18035D02*
X18197Y-18035D01*
X15917Y-18035D02*
X15927Y-18035D01*
X12449Y-18035D02*
X15429Y-18035D01*
X11445Y-18035D02*
X11455Y-18035D01*
X10275Y-18035D02*
X10957Y-18035D01*
X16921Y-17955D02*
X18197Y-17955D01*
X15917Y-17955D02*
X15927Y-17955D01*
X12449Y-17955D02*
X15423Y-17955D01*
X11445Y-17955D02*
X11455Y-17955D01*
X10275Y-17955D02*
X10951Y-17955D01*
X16907Y-17875D02*
X18197Y-17875D01*
X15917Y-17875D02*
X15927Y-17875D01*
X12435Y-17875D02*
X15423Y-17875D01*
X11445Y-17875D02*
X11455Y-17875D01*
X10275Y-17875D02*
X10951Y-17875D01*
X16874Y-17795D02*
X18197Y-17795D01*
X15917Y-17795D02*
X15927Y-17795D01*
X12402Y-17795D02*
X15423Y-17795D01*
X11445Y-17795D02*
X11455Y-17795D01*
X10275Y-17795D02*
X10951Y-17795D01*
X16822Y-17715D02*
X18197Y-17715D01*
X15917Y-17715D02*
X15927Y-17715D01*
X12350Y-17715D02*
X15446Y-17715D01*
X11445Y-17715D02*
X11455Y-17715D01*
X10275Y-17715D02*
X10974Y-17715D01*
X18146Y-17635D02*
X18197Y-17635D01*
X16742Y-17635D02*
X17593Y-17635D01*
X12270Y-17635D02*
X16202Y-17635D01*
X10275Y-17635D02*
X11730Y-17635D01*
X16572Y-17555D02*
X17513Y-17555D01*
X12100Y-17555D02*
X16374Y-17555D01*
X10275Y-17555D02*
X11902Y-17555D01*
X10275Y-17475D02*
X17453Y-17475D01*
X13057Y-17395D02*
X16252Y-17395D01*
X10275Y-17395D02*
X11780Y-17395D01*
X13121Y-17315D02*
X16152Y-17315D01*
X10275Y-17315D02*
X11680Y-17315D01*
X13149Y-17235D02*
X16083Y-17235D01*
X10275Y-17235D02*
X11611Y-17235D01*
X13149Y-17155D02*
X16050Y-17155D01*
X10275Y-17155D02*
X11578Y-17155D01*
X13149Y-17075D02*
X16023Y-17075D01*
X10275Y-17075D02*
X11551Y-17075D01*
X13149Y-16995D02*
X16023Y-16995D01*
X10275Y-16995D02*
X11551Y-16995D01*
X13149Y-16915D02*
X16023Y-16915D01*
X10275Y-16915D02*
X11551Y-16915D01*
X18132Y-16835D02*
X18197Y-16835D01*
X13149Y-16835D02*
X16055Y-16835D01*
X10275Y-16835D02*
X11583Y-16835D01*
X17811Y-16755D02*
X18197Y-16755D01*
X13149Y-16755D02*
X16088Y-16755D01*
X10275Y-16755D02*
X11616Y-16755D01*
X17590Y-16675D02*
X18197Y-16675D01*
X13118Y-16675D02*
X16162Y-16675D01*
X10275Y-16675D02*
X11690Y-16675D01*
X17519Y-16595D02*
X18197Y-16595D01*
X13047Y-16595D02*
X16276Y-16595D01*
X10275Y-16595D02*
X11804Y-16595D01*
X16383Y-16515D02*
X18197Y-16515D01*
X11911Y-16515D02*
X16382Y-16515D01*
X10275Y-16515D02*
X11910Y-16515D01*
X16594Y-16435D02*
X18197Y-16435D01*
X12122Y-16435D02*
X16348Y-16435D01*
X10275Y-16435D02*
X11876Y-16435D01*
X16752Y-16355D02*
X18197Y-16355D01*
X12280Y-16355D02*
X16192Y-16355D01*
X10275Y-16355D02*
X11720Y-16355D01*
X16832Y-16275D02*
X18197Y-16275D01*
X15917Y-16275D02*
X15927Y-16275D01*
X12360Y-16275D02*
X15441Y-16275D01*
X11445Y-16275D02*
X11455Y-16275D01*
X10275Y-16275D02*
X10969Y-16275D01*
X16877Y-16195D02*
X18197Y-16195D01*
X15917Y-16195D02*
X15927Y-16195D01*
X12405Y-16195D02*
X15422Y-16195D01*
X11445Y-16195D02*
X11455Y-16195D01*
X10275Y-16195D02*
X10950Y-16195D01*
X16910Y-16115D02*
X18197Y-16115D01*
X15917Y-16115D02*
X15927Y-16115D01*
X12438Y-16115D02*
X15422Y-16115D01*
X11445Y-16115D02*
X11455Y-16115D01*
X10275Y-16115D02*
X10950Y-16115D01*
X16921Y-16035D02*
X18197Y-16035D01*
X15917Y-16035D02*
X15927Y-16035D01*
X12449Y-16035D02*
X15429Y-16035D01*
X11445Y-16035D02*
X11455Y-16035D01*
X10275Y-16035D02*
X10957Y-16035D01*
X16921Y-15955D02*
X18197Y-15955D01*
X15917Y-15955D02*
X15927Y-15955D01*
X12449Y-15955D02*
X15423Y-15955D01*
X11445Y-15955D02*
X11455Y-15955D01*
X10275Y-15955D02*
X10951Y-15955D01*
X16907Y-15875D02*
X18197Y-15875D01*
X15917Y-15875D02*
X15927Y-15875D01*
X12435Y-15875D02*
X15423Y-15875D01*
X11445Y-15875D02*
X11455Y-15875D01*
X10275Y-15875D02*
X10951Y-15875D01*
X16874Y-15795D02*
X18197Y-15795D01*
X15917Y-15795D02*
X15927Y-15795D01*
X12402Y-15795D02*
X15423Y-15795D01*
X11445Y-15795D02*
X11455Y-15795D01*
X10275Y-15795D02*
X10951Y-15795D01*
X16822Y-15715D02*
X18197Y-15715D01*
X15917Y-15715D02*
X15927Y-15715D01*
X12350Y-15715D02*
X15446Y-15715D01*
X11445Y-15715D02*
X11455Y-15715D01*
X10275Y-15715D02*
X10974Y-15715D01*
X16742Y-15635D02*
X18197Y-15635D01*
X12270Y-15635D02*
X16202Y-15635D01*
X10275Y-15635D02*
X11730Y-15635D01*
X16572Y-15555D02*
X18197Y-15555D01*
X12100Y-15555D02*
X16373Y-15555D01*
X10275Y-15555D02*
X11901Y-15555D01*
X16383Y-15475D02*
X18197Y-15475D01*
X11911Y-15475D02*
X16382Y-15475D01*
X10275Y-15475D02*
X11910Y-15475D01*
X16692Y-15395D02*
X18197Y-15395D01*
X12220Y-15395D02*
X16252Y-15395D01*
X10275Y-15395D02*
X11780Y-15395D01*
X17468Y-15315D02*
X18197Y-15315D01*
X17015Y-15315D02*
X17029Y-15315D01*
X12996Y-15315D02*
X16152Y-15315D01*
X12543Y-15315D02*
X12557Y-15315D01*
X10275Y-15315D02*
X11680Y-15315D01*
X17518Y-15235D02*
X18197Y-15235D01*
X17017Y-15235D02*
X17027Y-15235D01*
X13046Y-15235D02*
X16083Y-15235D01*
X12545Y-15235D02*
X12555Y-15235D01*
X10275Y-15235D02*
X11611Y-15235D01*
X17521Y-15155D02*
X18197Y-15155D01*
X17017Y-15155D02*
X17027Y-15155D01*
X13049Y-15155D02*
X16050Y-15155D01*
X12545Y-15155D02*
X12555Y-15155D01*
X10275Y-15155D02*
X11578Y-15155D01*
X17521Y-15075D02*
X18197Y-15075D01*
X17017Y-15075D02*
X17027Y-15075D01*
X13049Y-15075D02*
X16023Y-15075D01*
X12545Y-15075D02*
X12555Y-15075D01*
X10275Y-15075D02*
X11551Y-15075D01*
X17017Y-14995D02*
X18197Y-14995D01*
X12545Y-14995D02*
X16023Y-14995D01*
X10275Y-14995D02*
X11551Y-14995D01*
X17522Y-14915D02*
X18197Y-14915D01*
X17017Y-14915D02*
X17027Y-14915D01*
X13050Y-14915D02*
X16023Y-14915D01*
X12545Y-14915D02*
X12555Y-14915D01*
X10275Y-14915D02*
X11551Y-14915D01*
X17522Y-14835D02*
X18197Y-14835D01*
X17017Y-14835D02*
X17027Y-14835D01*
X13050Y-14835D02*
X16055Y-14835D01*
X12545Y-14835D02*
X12555Y-14835D01*
X10275Y-14835D02*
X11583Y-14835D01*
X17515Y-14755D02*
X18197Y-14755D01*
X17017Y-14755D02*
X17027Y-14755D01*
X13043Y-14755D02*
X16088Y-14755D01*
X12545Y-14755D02*
X12555Y-14755D01*
X10275Y-14755D02*
X11616Y-14755D01*
X17458Y-14675D02*
X18197Y-14675D01*
X17005Y-14675D02*
X17039Y-14675D01*
X12986Y-14675D02*
X16162Y-14675D01*
X12533Y-14675D02*
X12567Y-14675D01*
X10275Y-14675D02*
X11690Y-14675D01*
X16668Y-14595D02*
X18197Y-14595D01*
X12196Y-14595D02*
X16277Y-14595D01*
X10275Y-14595D02*
X11805Y-14595D01*
X10275Y-14515D02*
X18197Y-14515D01*
X10275Y-14435D02*
X18197Y-14435D01*
X10275Y-14355D02*
X18197Y-14355D01*
X10275Y-14275D02*
X18197Y-14275D01*
X10275Y-14195D02*
X18197Y-14195D01*
X10275Y-14115D02*
X18197Y-14115D01*
X10275Y-14035D02*
X18197Y-14035D01*
X10275Y-13955D02*
X18197Y-13955D01*
X10275Y-13875D02*
X18197Y-13875D01*
X10275Y-13795D02*
X18197Y-13795D01*
X10275Y-13715D02*
X18197Y-13715D01*
X10275Y-13635D02*
X18197Y-13635D01*
X10275Y-13555D02*
X18197Y-13555D01*
X10275Y-13475D02*
X18197Y-13475D01*
X10275Y-13395D02*
X18197Y-13395D01*
X10275Y-13315D02*
X18197Y-13315D01*
X10275Y-13235D02*
X18197Y-13235D01*
X10275Y-13155D02*
X18197Y-13155D01*
X10275Y-13075D02*
X18197Y-13075D01*
X10275Y-12995D02*
X18197Y-12995D01*
X10275Y-12915D02*
X18197Y-12915D01*
X10275Y-12835D02*
X18197Y-12835D01*
X10275Y-12755D02*
X18197Y-12755D01*
X10275Y-12675D02*
X18197Y-12675D01*
X10275Y-12595D02*
X18197Y-12595D01*
X10275Y-12515D02*
X18197Y-12515D01*
X10275Y-12435D02*
X18197Y-12435D01*
X10275Y-12355D02*
X18197Y-12355D01*
X10275Y-12275D02*
X18197Y-12275D01*
X10275Y-12195D02*
X18197Y-12195D01*
X10275Y-12115D02*
X18197Y-12115D01*
X10275Y-12035D02*
X18197Y-12035D01*
X10275Y-11955D02*
X18197Y-11955D01*
X10275Y-11875D02*
X18197Y-11875D01*
X10275Y-11795D02*
X18197Y-11795D01*
X10275Y-11715D02*
X18197Y-11715D01*
X10275Y-11635D02*
X18197Y-11635D01*
X10275Y-11555D02*
X18197Y-11555D01*
X10275Y-11475D02*
X18197Y-11475D01*
X10275Y-11395D02*
X18197Y-11395D01*
X10275Y-11315D02*
X18197Y-11315D01*
X10275Y-11235D02*
X18197Y-11235D01*
X10275Y-11155D02*
X18197Y-11155D01*
X10275Y-11075D02*
X18197Y-11075D01*
X10275Y-10995D02*
X18197Y-10995D01*
X10275Y-10915D02*
X18197Y-10915D01*
X10275Y-10835D02*
X18197Y-10835D01*
X10275Y-10755D02*
X18197Y-10755D01*
X10275Y-10675D02*
X18197Y-10675D01*
X10275Y-10595D02*
X18197Y-10595D01*
X10275Y-10515D02*
X18197Y-10515D01*
X10275Y-10435D02*
X18197Y-10435D01*
X10275Y-10355D02*
X18197Y-10355D01*
X10275Y-10275D02*
X18197Y-10275D01*
X18197Y-42225D02*
X18197Y-17584D01*
X18197Y-17584D02*
X18139Y-17643D01*
X18139Y-17643D02*
X17964Y-17715D01*
X17964Y-17715D02*
X17775Y-17715D01*
X17775Y-17715D02*
X17601Y-17642D01*
X17601Y-17642D02*
X17467Y-17509D01*
X17467Y-17509D02*
X17439Y-17441D01*
X17439Y-17441D02*
X17421Y-17449D01*
X17421Y-17449D02*
X16622Y-17449D01*
X16622Y-17449D02*
X16591Y-17436D01*
X16591Y-17436D02*
X16561Y-17449D01*
X16561Y-17449D02*
X16382Y-17449D01*
X16382Y-17449D02*
X16217Y-17380D01*
X16217Y-17380D02*
X16091Y-17254D01*
X16091Y-17254D02*
X16023Y-17089D01*
X16023Y-17089D02*
X16023Y-16910D01*
X16023Y-16910D02*
X16092Y-16745D01*
X16092Y-16745D02*
X16218Y-16619D01*
X16218Y-16619D02*
X16382Y-16551D01*
X16382Y-16551D02*
X16382Y-16449D01*
X16382Y-16449D02*
X16217Y-16380D01*
X16217Y-16380D02*
X16186Y-16349D01*
X16186Y-16349D02*
X15964Y-16350D01*
X15964Y-16350D02*
X15927Y-16313D01*
X15927Y-16313D02*
X15927Y-16005D01*
X15927Y-16005D02*
X15927Y-15995D01*
X15927Y-15995D02*
X15927Y-15687D01*
X15927Y-15687D02*
X15964Y-15650D01*
X15964Y-15650D02*
X16186Y-15650D01*
X16186Y-15650D02*
X16218Y-15619D01*
X16218Y-15619D02*
X16382Y-15551D01*
X16382Y-15551D02*
X16382Y-15449D01*
X16382Y-15449D02*
X16217Y-15380D01*
X16217Y-15380D02*
X16091Y-15254D01*
X16091Y-15254D02*
X16023Y-15089D01*
X16023Y-15089D02*
X16023Y-14910D01*
X16023Y-14910D02*
X16092Y-14745D01*
X16092Y-14745D02*
X16218Y-14619D01*
X16218Y-14619D02*
X16383Y-14551D01*
X16383Y-14551D02*
X16562Y-14551D01*
X16562Y-14551D02*
X16727Y-14620D01*
X16727Y-14620D02*
X16757Y-14650D01*
X16757Y-14650D02*
X16980Y-14650D01*
X16980Y-14650D02*
X17017Y-14687D01*
X17017Y-14687D02*
X17017Y-14995D01*
X17017Y-14995D02*
X17017Y-15005D01*
X17017Y-15005D02*
X17017Y-15313D01*
X17017Y-15313D02*
X16980Y-15350D01*
X16980Y-15350D02*
X16757Y-15349D01*
X16757Y-15349D02*
X16726Y-15381D01*
X16726Y-15381D02*
X16561Y-15449D01*
X16561Y-15449D02*
X16382Y-15449D01*
X16382Y-15449D02*
X16383Y-15551D01*
X16383Y-15551D02*
X16562Y-15551D01*
X16562Y-15551D02*
X16727Y-15620D01*
X16727Y-15620D02*
X16853Y-15746D01*
X16853Y-15746D02*
X16921Y-15911D01*
X16921Y-15911D02*
X16921Y-16090D01*
X16921Y-16090D02*
X16852Y-16255D01*
X16852Y-16255D02*
X16726Y-16381D01*
X16726Y-16381D02*
X16561Y-16449D01*
X16561Y-16449D02*
X16382Y-16449D01*
X16382Y-16449D02*
X16383Y-16551D01*
X16383Y-16551D02*
X16562Y-16551D01*
X16562Y-16551D02*
X16592Y-16563D01*
X16592Y-16563D02*
X16623Y-16551D01*
X16623Y-16551D02*
X17064Y-16551D01*
X17064Y-16551D02*
X17064Y-15350D01*
X17064Y-15350D02*
X17027Y-15313D01*
X17027Y-15313D02*
X17027Y-15005D01*
X17027Y-15005D02*
X17027Y-14995D01*
X17027Y-14995D02*
X17027Y-14687D01*
X17027Y-14687D02*
X17064Y-14650D01*
X17064Y-14650D02*
X17401Y-14651D01*
X17401Y-14651D02*
X17456Y-14673D01*
X17456Y-14673D02*
X17498Y-14715D01*
X17498Y-14715D02*
X17521Y-14770D01*
X17521Y-14770D02*
X17522Y-14958D01*
X17522Y-14958D02*
X17485Y-14995D01*
X17485Y-14995D02*
X17027Y-14995D01*
X17027Y-14995D02*
X17027Y-15005D01*
X17027Y-15005D02*
X17485Y-15005D01*
X17485Y-15005D02*
X17522Y-15042D01*
X17522Y-15042D02*
X17521Y-15230D01*
X17521Y-15230D02*
X17498Y-15285D01*
X17498Y-15285D02*
X17456Y-15327D01*
X17456Y-15327D02*
X17401Y-15349D01*
X17401Y-15349D02*
X17064Y-15350D01*
X17064Y-15350D02*
X17064Y-16551D01*
X17064Y-16551D02*
X17422Y-16551D01*
X17422Y-16551D02*
X17513Y-16589D01*
X17513Y-16589D02*
X17583Y-16659D01*
X17583Y-16659D02*
X17595Y-16690D01*
X17595Y-16690D02*
X17630Y-16690D01*
X17630Y-16690D02*
X17749Y-16714D01*
X17749Y-16714D02*
X17825Y-16765D01*
X17825Y-16765D02*
X17965Y-16765D01*
X17965Y-16765D02*
X18139Y-16838D01*
X18139Y-16838D02*
X18197Y-16895D01*
X18197Y-16895D02*
X18197Y-10275D01*
X18197Y-10275D02*
X10275Y-10275D01*
X10275Y-10275D02*
X10275Y-42225D01*
X10275Y-42225D02*
X11408Y-42225D01*
X11408Y-42225D02*
X11408Y-37850D01*
X11408Y-37850D02*
X11071Y-37849D01*
X11071Y-37849D02*
X11016Y-37827D01*
X11016Y-37827D02*
X10974Y-37785D01*
X10974Y-37785D02*
X10951Y-37730D01*
X10951Y-37730D02*
X10950Y-37542D01*
X10950Y-37542D02*
X10987Y-37505D01*
X10987Y-37505D02*
X10987Y-37495D01*
X10987Y-37495D02*
X10950Y-37458D01*
X10950Y-37458D02*
X10951Y-37270D01*
X10951Y-37270D02*
X10974Y-37215D01*
X10974Y-37215D02*
X11016Y-37173D01*
X11016Y-37173D02*
X11071Y-37151D01*
X11071Y-37151D02*
X11408Y-37150D01*
X11408Y-37150D02*
X11445Y-37187D01*
X11445Y-37187D02*
X11445Y-37495D01*
X11445Y-37495D02*
X10987Y-37495D01*
X10987Y-37495D02*
X10987Y-37505D01*
X10987Y-37505D02*
X11445Y-37505D01*
X11445Y-37505D02*
X11445Y-37813D01*
X11445Y-37813D02*
X11408Y-37850D01*
X11408Y-37850D02*
X11408Y-42225D01*
X11408Y-42225D02*
X11910Y-42225D01*
X11910Y-42225D02*
X11910Y-37949D01*
X11910Y-37949D02*
X11745Y-37880D01*
X11745Y-37880D02*
X11714Y-37849D01*
X11714Y-37849D02*
X11492Y-37850D01*
X11492Y-37850D02*
X11455Y-37813D01*
X11455Y-37813D02*
X11455Y-37505D01*
X11455Y-37505D02*
X11455Y-37495D01*
X11455Y-37495D02*
X11455Y-37187D01*
X11455Y-37187D02*
X11492Y-37150D01*
X11492Y-37150D02*
X11714Y-37150D01*
X11714Y-37150D02*
X11746Y-37119D01*
X11746Y-37119D02*
X11910Y-37051D01*
X11910Y-37051D02*
X11910Y-36949D01*
X11910Y-36949D02*
X11745Y-36880D01*
X11745Y-36880D02*
X11619Y-36754D01*
X11619Y-36754D02*
X11551Y-36589D01*
X11551Y-36589D02*
X11551Y-36410D01*
X11551Y-36410D02*
X11620Y-36245D01*
X11620Y-36245D02*
X11746Y-36119D01*
X11746Y-36119D02*
X11910Y-36051D01*
X11910Y-36051D02*
X11910Y-35949D01*
X11910Y-35949D02*
X11879Y-35936D01*
X11879Y-35936D02*
X11849Y-35949D01*
X11849Y-35949D02*
X11050Y-35949D01*
X11050Y-35949D02*
X10959Y-35911D01*
X10959Y-35911D02*
X10889Y-35841D01*
X10889Y-35841D02*
X10851Y-35749D01*
X10851Y-35749D02*
X10851Y-35250D01*
X10851Y-35250D02*
X10889Y-35159D01*
X10889Y-35159D02*
X10959Y-35089D01*
X10959Y-35089D02*
X11051Y-35051D01*
X11051Y-35051D02*
X11408Y-35051D01*
X11408Y-35051D02*
X11408Y-33850D01*
X11408Y-33850D02*
X11071Y-33849D01*
X11071Y-33849D02*
X11016Y-33827D01*
X11016Y-33827D02*
X10974Y-33785D01*
X10974Y-33785D02*
X10951Y-33730D01*
X10951Y-33730D02*
X10950Y-33542D01*
X10950Y-33542D02*
X10987Y-33505D01*
X10987Y-33505D02*
X10987Y-33495D01*
X10987Y-33495D02*
X10950Y-33458D01*
X10950Y-33458D02*
X10951Y-33270D01*
X10951Y-33270D02*
X10974Y-33215D01*
X10974Y-33215D02*
X11016Y-33173D01*
X11016Y-33173D02*
X11071Y-33151D01*
X11071Y-33151D02*
X11408Y-33150D01*
X11408Y-33150D02*
X11445Y-33187D01*
X11445Y-33187D02*
X11445Y-33495D01*
X11445Y-33495D02*
X10987Y-33495D01*
X10987Y-33495D02*
X10987Y-33505D01*
X10987Y-33505D02*
X11445Y-33505D01*
X11445Y-33505D02*
X11445Y-33813D01*
X11445Y-33813D02*
X11408Y-33850D01*
X11408Y-33850D02*
X11408Y-35051D01*
X11408Y-35051D02*
X11850Y-35051D01*
X11850Y-35051D02*
X11880Y-35063D01*
X11880Y-35063D02*
X11910Y-35051D01*
X11910Y-35051D02*
X11910Y-34949D01*
X11910Y-34949D02*
X11745Y-34880D01*
X11745Y-34880D02*
X11619Y-34754D01*
X11619Y-34754D02*
X11551Y-34589D01*
X11551Y-34589D02*
X11551Y-34410D01*
X11551Y-34410D02*
X11620Y-34245D01*
X11620Y-34245D02*
X11746Y-34119D01*
X11746Y-34119D02*
X11910Y-34051D01*
X11910Y-34051D02*
X11910Y-33949D01*
X11910Y-33949D02*
X11745Y-33880D01*
X11745Y-33880D02*
X11714Y-33849D01*
X11714Y-33849D02*
X11492Y-33850D01*
X11492Y-33850D02*
X11455Y-33813D01*
X11455Y-33813D02*
X11455Y-33505D01*
X11455Y-33505D02*
X11455Y-33495D01*
X11455Y-33495D02*
X11455Y-33187D01*
X11455Y-33187D02*
X11458Y-33184D01*
X11458Y-33184D02*
X11458Y-26785D01*
X11458Y-26785D02*
X11351Y-26715D01*
X11351Y-26715D02*
X11322Y-26672D01*
X11322Y-26672D02*
X11212Y-26380D01*
X11212Y-26380D02*
X11222Y-26069D01*
X11222Y-26069D02*
X11351Y-25785D01*
X11351Y-25785D02*
X11408Y-25747D01*
X11408Y-25747D02*
X11408Y-20350D01*
X11408Y-20350D02*
X11071Y-20349D01*
X11071Y-20349D02*
X11016Y-20327D01*
X11016Y-20327D02*
X10974Y-20285D01*
X10974Y-20285D02*
X10951Y-20230D01*
X10951Y-20230D02*
X10950Y-20042D01*
X10950Y-20042D02*
X10987Y-20005D01*
X10987Y-20005D02*
X10987Y-19995D01*
X10987Y-19995D02*
X10950Y-19958D01*
X10950Y-19958D02*
X10951Y-19770D01*
X10951Y-19770D02*
X10974Y-19715D01*
X10974Y-19715D02*
X11016Y-19673D01*
X11016Y-19673D02*
X11071Y-19651D01*
X11071Y-19651D02*
X11408Y-19650D01*
X11408Y-19650D02*
X11408Y-18350D01*
X11408Y-18350D02*
X11071Y-18349D01*
X11071Y-18349D02*
X11016Y-18327D01*
X11016Y-18327D02*
X10974Y-18285D01*
X10974Y-18285D02*
X10951Y-18230D01*
X10951Y-18230D02*
X10950Y-18042D01*
X10950Y-18042D02*
X10987Y-18005D01*
X10987Y-18005D02*
X10987Y-17995D01*
X10987Y-17995D02*
X10950Y-17958D01*
X10950Y-17958D02*
X10951Y-17770D01*
X10951Y-17770D02*
X10974Y-17715D01*
X10974Y-17715D02*
X11016Y-17673D01*
X11016Y-17673D02*
X11071Y-17651D01*
X11071Y-17651D02*
X11408Y-17650D01*
X11408Y-17650D02*
X11408Y-16350D01*
X11408Y-16350D02*
X11071Y-16349D01*
X11071Y-16349D02*
X11016Y-16327D01*
X11016Y-16327D02*
X10974Y-16285D01*
X10974Y-16285D02*
X10951Y-16230D01*
X10951Y-16230D02*
X10950Y-16042D01*
X10950Y-16042D02*
X10987Y-16005D01*
X10987Y-16005D02*
X10987Y-15995D01*
X10987Y-15995D02*
X10950Y-15958D01*
X10950Y-15958D02*
X10951Y-15770D01*
X10951Y-15770D02*
X10974Y-15715D01*
X10974Y-15715D02*
X11016Y-15673D01*
X11016Y-15673D02*
X11071Y-15651D01*
X11071Y-15651D02*
X11408Y-15650D01*
X11408Y-15650D02*
X11445Y-15687D01*
X11445Y-15687D02*
X11445Y-15995D01*
X11445Y-15995D02*
X10987Y-15995D01*
X10987Y-15995D02*
X10987Y-16005D01*
X10987Y-16005D02*
X11445Y-16005D01*
X11445Y-16005D02*
X11445Y-16313D01*
X11445Y-16313D02*
X11408Y-16350D01*
X11408Y-16350D02*
X11408Y-17650D01*
X11408Y-17650D02*
X11445Y-17687D01*
X11445Y-17687D02*
X11445Y-17995D01*
X11445Y-17995D02*
X10987Y-17995D01*
X10987Y-17995D02*
X10987Y-18005D01*
X10987Y-18005D02*
X11445Y-18005D01*
X11445Y-18005D02*
X11445Y-18313D01*
X11445Y-18313D02*
X11408Y-18350D01*
X11408Y-18350D02*
X11408Y-19650D01*
X11408Y-19650D02*
X11445Y-19687D01*
X11445Y-19687D02*
X11445Y-19995D01*
X11445Y-19995D02*
X10987Y-19995D01*
X10987Y-19995D02*
X10987Y-20005D01*
X10987Y-20005D02*
X11445Y-20005D01*
X11445Y-20005D02*
X11445Y-20313D01*
X11445Y-20313D02*
X11408Y-20350D01*
X11408Y-20350D02*
X11408Y-25747D01*
X11408Y-25747D02*
X11458Y-25715D01*
X11458Y-25715D02*
X11910Y-26167D01*
X11910Y-26167D02*
X11993Y-26250D01*
X11993Y-26250D02*
X11910Y-26332D01*
X11910Y-26332D02*
X11910Y-26333D01*
X11910Y-26333D02*
X11458Y-26785D01*
X11458Y-26785D02*
X11458Y-33184D01*
X11458Y-33184D02*
X11492Y-33150D01*
X11492Y-33150D02*
X11714Y-33150D01*
X11714Y-33150D02*
X11746Y-33119D01*
X11746Y-33119D02*
X11910Y-33051D01*
X11910Y-33051D02*
X11910Y-32949D01*
X11910Y-32949D02*
X11745Y-32880D01*
X11745Y-32880D02*
X11619Y-32754D01*
X11619Y-32754D02*
X11551Y-32589D01*
X11551Y-32589D02*
X11551Y-32410D01*
X11551Y-32410D02*
X11620Y-32245D01*
X11620Y-32245D02*
X11746Y-32119D01*
X11746Y-32119D02*
X11910Y-32051D01*
X11910Y-32051D02*
X11910Y-27030D01*
X11910Y-27030D02*
X11819Y-27028D01*
X11819Y-27028D02*
X11535Y-26899D01*
X11535Y-26899D02*
X11465Y-26792D01*
X11465Y-26792D02*
X11910Y-26347D01*
X11910Y-26347D02*
X11910Y-26346D01*
X11910Y-26346D02*
X12000Y-26257D01*
X12000Y-26257D02*
X12000Y-26243D01*
X12000Y-26243D02*
X11910Y-26153D01*
X11910Y-26153D02*
X11465Y-25708D01*
X11465Y-25708D02*
X11535Y-25601D01*
X11535Y-25601D02*
X11578Y-25572D01*
X11578Y-25572D02*
X11870Y-25462D01*
X11870Y-25462D02*
X11910Y-25463D01*
X11910Y-25463D02*
X11910Y-20449D01*
X11910Y-20449D02*
X11745Y-20380D01*
X11745Y-20380D02*
X11714Y-20349D01*
X11714Y-20349D02*
X11492Y-20350D01*
X11492Y-20350D02*
X11455Y-20313D01*
X11455Y-20313D02*
X11455Y-20005D01*
X11455Y-20005D02*
X11455Y-19995D01*
X11455Y-19995D02*
X11455Y-19687D01*
X11455Y-19687D02*
X11492Y-19650D01*
X11492Y-19650D02*
X11714Y-19650D01*
X11714Y-19650D02*
X11746Y-19619D01*
X11746Y-19619D02*
X11910Y-19551D01*
X11910Y-19551D02*
X11910Y-19449D01*
X11910Y-19449D02*
X11745Y-19380D01*
X11745Y-19380D02*
X11619Y-19254D01*
X11619Y-19254D02*
X11551Y-19089D01*
X11551Y-19089D02*
X11551Y-18910D01*
X11551Y-18910D02*
X11620Y-18745D01*
X11620Y-18745D02*
X11746Y-18619D01*
X11746Y-18619D02*
X11910Y-18551D01*
X11910Y-18551D02*
X11910Y-18449D01*
X11910Y-18449D02*
X11745Y-18380D01*
X11745Y-18380D02*
X11714Y-18349D01*
X11714Y-18349D02*
X11492Y-18350D01*
X11492Y-18350D02*
X11455Y-18313D01*
X11455Y-18313D02*
X11455Y-18005D01*
X11455Y-18005D02*
X11455Y-17995D01*
X11455Y-17995D02*
X11455Y-17687D01*
X11455Y-17687D02*
X11492Y-17650D01*
X11492Y-17650D02*
X11714Y-17650D01*
X11714Y-17650D02*
X11746Y-17619D01*
X11746Y-17619D02*
X11911Y-17551D01*
X11911Y-17551D02*
X12090Y-17551D01*
X12090Y-17551D02*
X12150Y-17576D01*
X12150Y-17576D02*
X12150Y-17449D01*
X12150Y-17449D02*
X12119Y-17436D01*
X12119Y-17436D02*
X12089Y-17449D01*
X12089Y-17449D02*
X11910Y-17449D01*
X11910Y-17449D02*
X11745Y-17380D01*
X11745Y-17380D02*
X11619Y-17254D01*
X11619Y-17254D02*
X11551Y-17089D01*
X11551Y-17089D02*
X11551Y-16910D01*
X11551Y-16910D02*
X11620Y-16745D01*
X11620Y-16745D02*
X11746Y-16619D01*
X11746Y-16619D02*
X11910Y-16551D01*
X11910Y-16551D02*
X11910Y-16449D01*
X11910Y-16449D02*
X11745Y-16380D01*
X11745Y-16380D02*
X11714Y-16349D01*
X11714Y-16349D02*
X11492Y-16350D01*
X11492Y-16350D02*
X11455Y-16313D01*
X11455Y-16313D02*
X11455Y-16005D01*
X11455Y-16005D02*
X11455Y-15995D01*
X11455Y-15995D02*
X11455Y-15687D01*
X11455Y-15687D02*
X11492Y-15650D01*
X11492Y-15650D02*
X11714Y-15650D01*
X11714Y-15650D02*
X11746Y-15619D01*
X11746Y-15619D02*
X11910Y-15551D01*
X11910Y-15551D02*
X11910Y-15449D01*
X11910Y-15449D02*
X11745Y-15380D01*
X11745Y-15380D02*
X11619Y-15254D01*
X11619Y-15254D02*
X11551Y-15089D01*
X11551Y-15089D02*
X11551Y-14910D01*
X11551Y-14910D02*
X11620Y-14745D01*
X11620Y-14745D02*
X11746Y-14619D01*
X11746Y-14619D02*
X11911Y-14551D01*
X11911Y-14551D02*
X12090Y-14551D01*
X12090Y-14551D02*
X12255Y-14620D01*
X12255Y-14620D02*
X12285Y-14650D01*
X12285Y-14650D02*
X12508Y-14650D01*
X12508Y-14650D02*
X12545Y-14687D01*
X12545Y-14687D02*
X12545Y-14995D01*
X12545Y-14995D02*
X12545Y-15005D01*
X12545Y-15005D02*
X12545Y-15313D01*
X12545Y-15313D02*
X12508Y-15350D01*
X12508Y-15350D02*
X12285Y-15349D01*
X12285Y-15349D02*
X12254Y-15381D01*
X12254Y-15381D02*
X12089Y-15449D01*
X12089Y-15449D02*
X11910Y-15449D01*
X11910Y-15449D02*
X11911Y-15551D01*
X11911Y-15551D02*
X12090Y-15551D01*
X12090Y-15551D02*
X12255Y-15620D01*
X12255Y-15620D02*
X12381Y-15746D01*
X12381Y-15746D02*
X12449Y-15911D01*
X12449Y-15911D02*
X12449Y-16090D01*
X12449Y-16090D02*
X12380Y-16255D01*
X12380Y-16255D02*
X12254Y-16381D01*
X12254Y-16381D02*
X12089Y-16449D01*
X12089Y-16449D02*
X11910Y-16449D01*
X11910Y-16449D02*
X11911Y-16551D01*
X11911Y-16551D02*
X12090Y-16551D01*
X12090Y-16551D02*
X12120Y-16563D01*
X12120Y-16563D02*
X12151Y-16551D01*
X12151Y-16551D02*
X12592Y-16551D01*
X12592Y-16551D02*
X12592Y-15350D01*
X12592Y-15350D02*
X12555Y-15313D01*
X12555Y-15313D02*
X12555Y-15005D01*
X12555Y-15005D02*
X12555Y-14995D01*
X12555Y-14995D02*
X12555Y-14687D01*
X12555Y-14687D02*
X12592Y-14650D01*
X12592Y-14650D02*
X12929Y-14651D01*
X12929Y-14651D02*
X12984Y-14673D01*
X12984Y-14673D02*
X13026Y-14715D01*
X13026Y-14715D02*
X13049Y-14770D01*
X13049Y-14770D02*
X13050Y-14958D01*
X13050Y-14958D02*
X13013Y-14995D01*
X13013Y-14995D02*
X12555Y-14995D01*
X12555Y-14995D02*
X12555Y-15005D01*
X12555Y-15005D02*
X13013Y-15005D01*
X13013Y-15005D02*
X13050Y-15042D01*
X13050Y-15042D02*
X13049Y-15230D01*
X13049Y-15230D02*
X13026Y-15285D01*
X13026Y-15285D02*
X12984Y-15327D01*
X12984Y-15327D02*
X12929Y-15349D01*
X12929Y-15349D02*
X12592Y-15350D01*
X12592Y-15350D02*
X12592Y-16551D01*
X12592Y-16551D02*
X12950Y-16551D01*
X12950Y-16551D02*
X13041Y-16589D01*
X13041Y-16589D02*
X13111Y-16659D01*
X13111Y-16659D02*
X13149Y-16751D01*
X13149Y-16751D02*
X13149Y-17250D01*
X13149Y-17250D02*
X13111Y-17341D01*
X13111Y-17341D02*
X13041Y-17411D01*
X13041Y-17411D02*
X12949Y-17449D01*
X12949Y-17449D02*
X12150Y-17449D01*
X12150Y-17449D02*
X12150Y-17576D01*
X12150Y-17576D02*
X12255Y-17620D01*
X12255Y-17620D02*
X12381Y-17746D01*
X12381Y-17746D02*
X12449Y-17911D01*
X12449Y-17911D02*
X12449Y-18090D01*
X12449Y-18090D02*
X12380Y-18255D01*
X12380Y-18255D02*
X12254Y-18381D01*
X12254Y-18381D02*
X12089Y-18449D01*
X12089Y-18449D02*
X11910Y-18449D01*
X11910Y-18449D02*
X11911Y-18551D01*
X11911Y-18551D02*
X12090Y-18551D01*
X12090Y-18551D02*
X12255Y-18620D01*
X12255Y-18620D02*
X12285Y-18650D01*
X12285Y-18650D02*
X12508Y-18650D01*
X12508Y-18650D02*
X12545Y-18687D01*
X12545Y-18687D02*
X12545Y-18995D01*
X12545Y-18995D02*
X12545Y-19005D01*
X12545Y-19005D02*
X12545Y-19313D01*
X12545Y-19313D02*
X12508Y-19350D01*
X12508Y-19350D02*
X12285Y-19349D01*
X12285Y-19349D02*
X12254Y-19381D01*
X12254Y-19381D02*
X12089Y-19449D01*
X12089Y-19449D02*
X11910Y-19449D01*
X11910Y-19449D02*
X11911Y-19551D01*
X11911Y-19551D02*
X12090Y-19551D01*
X12090Y-19551D02*
X12255Y-19620D01*
X12255Y-19620D02*
X12381Y-19746D01*
X12381Y-19746D02*
X12449Y-19911D01*
X12449Y-19911D02*
X12449Y-20090D01*
X12449Y-20090D02*
X12380Y-20255D01*
X12380Y-20255D02*
X12254Y-20381D01*
X12254Y-20381D02*
X12089Y-20449D01*
X12089Y-20449D02*
X11910Y-20449D01*
X11910Y-20449D02*
X11910Y-25463D01*
X11910Y-25463D02*
X12181Y-25472D01*
X12181Y-25472D02*
X12465Y-25601D01*
X12465Y-25601D02*
X12535Y-25708D01*
X12535Y-25708D02*
X12000Y-26243D01*
X12000Y-26243D02*
X12000Y-26257D01*
X12000Y-26257D02*
X12535Y-26792D01*
X12535Y-26792D02*
X12465Y-26899D01*
X12465Y-26899D02*
X12422Y-26928D01*
X12422Y-26928D02*
X12130Y-27038D01*
X12130Y-27038D02*
X11910Y-27030D01*
X11910Y-27030D02*
X11911Y-32051D01*
X11911Y-32051D02*
X12090Y-32051D01*
X12090Y-32051D02*
X12255Y-32120D01*
X12255Y-32120D02*
X12285Y-32150D01*
X12285Y-32150D02*
X12508Y-32150D01*
X12508Y-32150D02*
X12542Y-32184D01*
X12542Y-32184D02*
X12542Y-26785D01*
X12542Y-26785D02*
X12007Y-26250D01*
X12007Y-26250D02*
X12542Y-25715D01*
X12542Y-25715D02*
X12592Y-25747D01*
X12592Y-25747D02*
X12592Y-19350D01*
X12592Y-19350D02*
X12555Y-19313D01*
X12555Y-19313D02*
X12555Y-19005D01*
X12555Y-19005D02*
X12555Y-18995D01*
X12555Y-18995D02*
X12555Y-18687D01*
X12555Y-18687D02*
X12592Y-18650D01*
X12592Y-18650D02*
X12929Y-18651D01*
X12929Y-18651D02*
X12984Y-18673D01*
X12984Y-18673D02*
X13026Y-18715D01*
X13026Y-18715D02*
X13049Y-18770D01*
X13049Y-18770D02*
X13050Y-18958D01*
X13050Y-18958D02*
X13013Y-18995D01*
X13013Y-18995D02*
X12555Y-18995D01*
X12555Y-18995D02*
X12555Y-19005D01*
X12555Y-19005D02*
X13013Y-19005D01*
X13013Y-19005D02*
X13050Y-19042D01*
X13050Y-19042D02*
X13049Y-19230D01*
X13049Y-19230D02*
X13026Y-19285D01*
X13026Y-19285D02*
X12984Y-19327D01*
X12984Y-19327D02*
X12929Y-19349D01*
X12929Y-19349D02*
X12592Y-19350D01*
X12592Y-19350D02*
X12592Y-25747D01*
X12592Y-25747D02*
X12649Y-25785D01*
X12649Y-25785D02*
X12678Y-25828D01*
X12678Y-25828D02*
X12788Y-26120D01*
X12788Y-26120D02*
X12778Y-26431D01*
X12778Y-26431D02*
X12649Y-26715D01*
X12649Y-26715D02*
X12542Y-26785D01*
X12542Y-26785D02*
X12542Y-32184D01*
X12542Y-32184D02*
X12545Y-32187D01*
X12545Y-32187D02*
X12545Y-32495D01*
X12545Y-32495D02*
X12545Y-32505D01*
X12545Y-32505D02*
X12545Y-32813D01*
X12545Y-32813D02*
X12508Y-32850D01*
X12508Y-32850D02*
X12285Y-32849D01*
X12285Y-32849D02*
X12254Y-32881D01*
X12254Y-32881D02*
X12089Y-32949D01*
X12089Y-32949D02*
X11910Y-32949D01*
X11910Y-32949D02*
X11911Y-33051D01*
X11911Y-33051D02*
X12090Y-33051D01*
X12090Y-33051D02*
X12255Y-33120D01*
X12255Y-33120D02*
X12381Y-33246D01*
X12381Y-33246D02*
X12449Y-33411D01*
X12449Y-33411D02*
X12449Y-33590D01*
X12449Y-33590D02*
X12380Y-33755D01*
X12380Y-33755D02*
X12254Y-33881D01*
X12254Y-33881D02*
X12089Y-33949D01*
X12089Y-33949D02*
X11910Y-33949D01*
X11910Y-33949D02*
X11911Y-34051D01*
X11911Y-34051D02*
X12090Y-34051D01*
X12090Y-34051D02*
X12255Y-34120D01*
X12255Y-34120D02*
X12285Y-34150D01*
X12285Y-34150D02*
X12508Y-34150D01*
X12508Y-34150D02*
X12545Y-34187D01*
X12545Y-34187D02*
X12545Y-34495D01*
X12545Y-34495D02*
X12545Y-34505D01*
X12545Y-34505D02*
X12545Y-34813D01*
X12545Y-34813D02*
X12508Y-34850D01*
X12508Y-34850D02*
X12285Y-34849D01*
X12285Y-34849D02*
X12254Y-34881D01*
X12254Y-34881D02*
X12089Y-34949D01*
X12089Y-34949D02*
X11910Y-34949D01*
X11910Y-34949D02*
X11911Y-35051D01*
X11911Y-35051D02*
X12090Y-35051D01*
X12090Y-35051D02*
X12255Y-35120D01*
X12255Y-35120D02*
X12381Y-35246D01*
X12381Y-35246D02*
X12449Y-35411D01*
X12449Y-35411D02*
X12449Y-35590D01*
X12449Y-35590D02*
X12380Y-35755D01*
X12380Y-35755D02*
X12254Y-35881D01*
X12254Y-35881D02*
X12089Y-35949D01*
X12089Y-35949D02*
X11910Y-35949D01*
X11910Y-35949D02*
X11911Y-36051D01*
X11911Y-36051D02*
X12090Y-36051D01*
X12090Y-36051D02*
X12255Y-36120D01*
X12255Y-36120D02*
X12285Y-36150D01*
X12285Y-36150D02*
X12508Y-36150D01*
X12508Y-36150D02*
X12545Y-36187D01*
X12545Y-36187D02*
X12545Y-36495D01*
X12545Y-36495D02*
X12545Y-36505D01*
X12545Y-36505D02*
X12545Y-36813D01*
X12545Y-36813D02*
X12508Y-36850D01*
X12508Y-36850D02*
X12285Y-36849D01*
X12285Y-36849D02*
X12254Y-36881D01*
X12254Y-36881D02*
X12089Y-36949D01*
X12089Y-36949D02*
X11910Y-36949D01*
X11910Y-36949D02*
X11911Y-37051D01*
X11911Y-37051D02*
X12090Y-37051D01*
X12090Y-37051D02*
X12255Y-37120D01*
X12255Y-37120D02*
X12381Y-37246D01*
X12381Y-37246D02*
X12449Y-37411D01*
X12449Y-37411D02*
X12449Y-37590D01*
X12449Y-37590D02*
X12380Y-37755D01*
X12380Y-37755D02*
X12254Y-37881D01*
X12254Y-37881D02*
X12089Y-37949D01*
X12089Y-37949D02*
X11910Y-37949D01*
X11910Y-37949D02*
X11910Y-42225D01*
X11910Y-42225D02*
X12592Y-42225D01*
X12592Y-42225D02*
X12592Y-36850D01*
X12592Y-36850D02*
X12555Y-36813D01*
X12555Y-36813D02*
X12555Y-36505D01*
X12555Y-36505D02*
X12555Y-36495D01*
X12555Y-36495D02*
X12555Y-36187D01*
X12555Y-36187D02*
X12592Y-36150D01*
X12592Y-36150D02*
X12592Y-34850D01*
X12592Y-34850D02*
X12555Y-34813D01*
X12555Y-34813D02*
X12555Y-34505D01*
X12555Y-34505D02*
X12555Y-34495D01*
X12555Y-34495D02*
X12555Y-34187D01*
X12555Y-34187D02*
X12592Y-34150D01*
X12592Y-34150D02*
X12592Y-32850D01*
X12592Y-32850D02*
X12555Y-32813D01*
X12555Y-32813D02*
X12555Y-32505D01*
X12555Y-32505D02*
X12555Y-32495D01*
X12555Y-32495D02*
X12555Y-32187D01*
X12555Y-32187D02*
X12592Y-32150D01*
X12592Y-32150D02*
X12929Y-32151D01*
X12929Y-32151D02*
X12984Y-32173D01*
X12984Y-32173D02*
X13026Y-32215D01*
X13026Y-32215D02*
X13049Y-32270D01*
X13049Y-32270D02*
X13050Y-32458D01*
X13050Y-32458D02*
X13013Y-32495D01*
X13013Y-32495D02*
X12555Y-32495D01*
X12555Y-32495D02*
X12555Y-32505D01*
X12555Y-32505D02*
X13013Y-32505D01*
X13013Y-32505D02*
X13050Y-32542D01*
X13050Y-32542D02*
X13049Y-32730D01*
X13049Y-32730D02*
X13026Y-32785D01*
X13026Y-32785D02*
X12984Y-32827D01*
X12984Y-32827D02*
X12929Y-32849D01*
X12929Y-32849D02*
X12592Y-32850D01*
X12592Y-32850D02*
X12592Y-34150D01*
X12592Y-34150D02*
X12929Y-34151D01*
X12929Y-34151D02*
X12984Y-34173D01*
X12984Y-34173D02*
X13026Y-34215D01*
X13026Y-34215D02*
X13049Y-34270D01*
X13049Y-34270D02*
X13050Y-34458D01*
X13050Y-34458D02*
X13013Y-34495D01*
X13013Y-34495D02*
X12555Y-34495D01*
X12555Y-34495D02*
X12555Y-34505D01*
X12555Y-34505D02*
X13013Y-34505D01*
X13013Y-34505D02*
X13050Y-34542D01*
X13050Y-34542D02*
X13049Y-34730D01*
X13049Y-34730D02*
X13026Y-34785D01*
X13026Y-34785D02*
X12984Y-34827D01*
X12984Y-34827D02*
X12929Y-34849D01*
X12929Y-34849D02*
X12592Y-34850D01*
X12592Y-34850D02*
X12592Y-36150D01*
X12592Y-36150D02*
X12929Y-36151D01*
X12929Y-36151D02*
X12984Y-36173D01*
X12984Y-36173D02*
X13026Y-36215D01*
X13026Y-36215D02*
X13049Y-36270D01*
X13049Y-36270D02*
X13050Y-36458D01*
X13050Y-36458D02*
X13013Y-36495D01*
X13013Y-36495D02*
X12555Y-36495D01*
X12555Y-36495D02*
X12555Y-36505D01*
X12555Y-36505D02*
X13013Y-36505D01*
X13013Y-36505D02*
X13050Y-36542D01*
X13050Y-36542D02*
X13049Y-36730D01*
X13049Y-36730D02*
X13026Y-36785D01*
X13026Y-36785D02*
X12984Y-36827D01*
X12984Y-36827D02*
X12929Y-36849D01*
X12929Y-36849D02*
X12592Y-36850D01*
X12592Y-36850D02*
X12592Y-42225D01*
X12592Y-42225D02*
X15880Y-42225D01*
X15880Y-42225D02*
X15880Y-37850D01*
X15880Y-37850D02*
X15543Y-37849D01*
X15543Y-37849D02*
X15488Y-37827D01*
X15488Y-37827D02*
X15446Y-37785D01*
X15446Y-37785D02*
X15423Y-37730D01*
X15423Y-37730D02*
X15422Y-37542D01*
X15422Y-37542D02*
X15459Y-37505D01*
X15459Y-37505D02*
X15459Y-37495D01*
X15459Y-37495D02*
X15422Y-37458D01*
X15422Y-37458D02*
X15423Y-37270D01*
X15423Y-37270D02*
X15446Y-37215D01*
X15446Y-37215D02*
X15488Y-37173D01*
X15488Y-37173D02*
X15543Y-37151D01*
X15543Y-37151D02*
X15880Y-37150D01*
X15880Y-37150D02*
X15917Y-37187D01*
X15917Y-37187D02*
X15917Y-37495D01*
X15917Y-37495D02*
X15459Y-37495D01*
X15459Y-37495D02*
X15459Y-37505D01*
X15459Y-37505D02*
X15917Y-37505D01*
X15917Y-37505D02*
X15917Y-37813D01*
X15917Y-37813D02*
X15880Y-37850D01*
X15880Y-37850D02*
X15880Y-42225D01*
X15880Y-42225D02*
X16382Y-42225D01*
X16382Y-42225D02*
X16382Y-37949D01*
X16382Y-37949D02*
X16217Y-37880D01*
X16217Y-37880D02*
X16186Y-37849D01*
X16186Y-37849D02*
X15964Y-37850D01*
X15964Y-37850D02*
X15927Y-37813D01*
X15927Y-37813D02*
X15927Y-37505D01*
X15927Y-37505D02*
X15927Y-37495D01*
X15927Y-37495D02*
X15927Y-37187D01*
X15927Y-37187D02*
X15964Y-37150D01*
X15964Y-37150D02*
X16186Y-37150D01*
X16186Y-37150D02*
X16218Y-37119D01*
X16218Y-37119D02*
X16382Y-37051D01*
X16382Y-37051D02*
X16382Y-36949D01*
X16382Y-36949D02*
X16217Y-36880D01*
X16217Y-36880D02*
X16091Y-36754D01*
X16091Y-36754D02*
X16023Y-36589D01*
X16023Y-36589D02*
X16023Y-36410D01*
X16023Y-36410D02*
X16092Y-36245D01*
X16092Y-36245D02*
X16218Y-36119D01*
X16218Y-36119D02*
X16382Y-36051D01*
X16382Y-36051D02*
X16382Y-35949D01*
X16382Y-35949D02*
X16351Y-35936D01*
X16351Y-35936D02*
X16321Y-35949D01*
X16321Y-35949D02*
X15522Y-35949D01*
X15522Y-35949D02*
X15431Y-35911D01*
X15431Y-35911D02*
X15361Y-35841D01*
X15361Y-35841D02*
X15323Y-35749D01*
X15323Y-35749D02*
X15323Y-35250D01*
X15323Y-35250D02*
X15361Y-35159D01*
X15361Y-35159D02*
X15431Y-35089D01*
X15431Y-35089D02*
X15523Y-35051D01*
X15523Y-35051D02*
X15880Y-35051D01*
X15880Y-35051D02*
X15880Y-33850D01*
X15880Y-33850D02*
X15543Y-33849D01*
X15543Y-33849D02*
X15488Y-33827D01*
X15488Y-33827D02*
X15446Y-33785D01*
X15446Y-33785D02*
X15423Y-33730D01*
X15423Y-33730D02*
X15422Y-33542D01*
X15422Y-33542D02*
X15459Y-33505D01*
X15459Y-33505D02*
X15459Y-33495D01*
X15459Y-33495D02*
X15422Y-33458D01*
X15422Y-33458D02*
X15423Y-33270D01*
X15423Y-33270D02*
X15446Y-33215D01*
X15446Y-33215D02*
X15488Y-33173D01*
X15488Y-33173D02*
X15543Y-33151D01*
X15543Y-33151D02*
X15880Y-33150D01*
X15880Y-33150D02*
X15917Y-33187D01*
X15917Y-33187D02*
X15917Y-33495D01*
X15917Y-33495D02*
X15459Y-33495D01*
X15459Y-33495D02*
X15459Y-33505D01*
X15459Y-33505D02*
X15917Y-33505D01*
X15917Y-33505D02*
X15917Y-33813D01*
X15917Y-33813D02*
X15880Y-33850D01*
X15880Y-33850D02*
X15880Y-35051D01*
X15880Y-35051D02*
X16322Y-35051D01*
X16322Y-35051D02*
X16352Y-35063D01*
X16352Y-35063D02*
X16382Y-35051D01*
X16382Y-35051D02*
X16382Y-34949D01*
X16382Y-34949D02*
X16217Y-34880D01*
X16217Y-34880D02*
X16091Y-34754D01*
X16091Y-34754D02*
X16023Y-34589D01*
X16023Y-34589D02*
X16023Y-34410D01*
X16023Y-34410D02*
X16092Y-34245D01*
X16092Y-34245D02*
X16218Y-34119D01*
X16218Y-34119D02*
X16382Y-34051D01*
X16382Y-34051D02*
X16382Y-33949D01*
X16382Y-33949D02*
X16217Y-33880D01*
X16217Y-33880D02*
X16186Y-33849D01*
X16186Y-33849D02*
X15964Y-33850D01*
X15964Y-33850D02*
X15927Y-33813D01*
X15927Y-33813D02*
X15927Y-33505D01*
X15927Y-33505D02*
X15927Y-33495D01*
X15927Y-33495D02*
X15927Y-33187D01*
X15927Y-33187D02*
X15930Y-33184D01*
X15930Y-33184D02*
X15930Y-26785D01*
X15930Y-26785D02*
X15823Y-26715D01*
X15823Y-26715D02*
X15794Y-26672D01*
X15794Y-26672D02*
X15684Y-26380D01*
X15684Y-26380D02*
X15694Y-26069D01*
X15694Y-26069D02*
X15823Y-25785D01*
X15823Y-25785D02*
X15880Y-25747D01*
X15880Y-25747D02*
X15880Y-20350D01*
X15880Y-20350D02*
X15543Y-20349D01*
X15543Y-20349D02*
X15488Y-20327D01*
X15488Y-20327D02*
X15446Y-20285D01*
X15446Y-20285D02*
X15423Y-20230D01*
X15423Y-20230D02*
X15422Y-20042D01*
X15422Y-20042D02*
X15459Y-20005D01*
X15459Y-20005D02*
X15459Y-19995D01*
X15459Y-19995D02*
X15422Y-19958D01*
X15422Y-19958D02*
X15423Y-19770D01*
X15423Y-19770D02*
X15446Y-19715D01*
X15446Y-19715D02*
X15488Y-19673D01*
X15488Y-19673D02*
X15543Y-19651D01*
X15543Y-19651D02*
X15880Y-19650D01*
X15880Y-19650D02*
X15880Y-18350D01*
X15880Y-18350D02*
X15543Y-18349D01*
X15543Y-18349D02*
X15488Y-18327D01*
X15488Y-18327D02*
X15446Y-18285D01*
X15446Y-18285D02*
X15423Y-18230D01*
X15423Y-18230D02*
X15422Y-18042D01*
X15422Y-18042D02*
X15459Y-18005D01*
X15459Y-18005D02*
X15459Y-17995D01*
X15459Y-17995D02*
X15422Y-17958D01*
X15422Y-17958D02*
X15423Y-17770D01*
X15423Y-17770D02*
X15446Y-17715D01*
X15446Y-17715D02*
X15488Y-17673D01*
X15488Y-17673D02*
X15543Y-17651D01*
X15543Y-17651D02*
X15880Y-17650D01*
X15880Y-17650D02*
X15880Y-16350D01*
X15880Y-16350D02*
X15543Y-16349D01*
X15543Y-16349D02*
X15488Y-16327D01*
X15488Y-16327D02*
X15446Y-16285D01*
X15446Y-16285D02*
X15423Y-16230D01*
X15423Y-16230D02*
X15422Y-16042D01*
X15422Y-16042D02*
X15459Y-16005D01*
X15459Y-16005D02*
X15459Y-15995D01*
X15459Y-15995D02*
X15422Y-15958D01*
X15422Y-15958D02*
X15423Y-15770D01*
X15423Y-15770D02*
X15446Y-15715D01*
X15446Y-15715D02*
X15488Y-15673D01*
X15488Y-15673D02*
X15543Y-15651D01*
X15543Y-15651D02*
X15880Y-15650D01*
X15880Y-15650D02*
X15917Y-15687D01*
X15917Y-15687D02*
X15917Y-15995D01*
X15917Y-15995D02*
X15459Y-15995D01*
X15459Y-15995D02*
X15459Y-16005D01*
X15459Y-16005D02*
X15917Y-16005D01*
X15917Y-16005D02*
X15917Y-16313D01*
X15917Y-16313D02*
X15880Y-16350D01*
X15880Y-16350D02*
X15880Y-17650D01*
X15880Y-17650D02*
X15917Y-17687D01*
X15917Y-17687D02*
X15917Y-17995D01*
X15917Y-17995D02*
X15459Y-17995D01*
X15459Y-17995D02*
X15459Y-18005D01*
X15459Y-18005D02*
X15917Y-18005D01*
X15917Y-18005D02*
X15917Y-18313D01*
X15917Y-18313D02*
X15880Y-18350D01*
X15880Y-18350D02*
X15880Y-19650D01*
X15880Y-19650D02*
X15917Y-19687D01*
X15917Y-19687D02*
X15917Y-19995D01*
X15917Y-19995D02*
X15459Y-19995D01*
X15459Y-19995D02*
X15459Y-20005D01*
X15459Y-20005D02*
X15917Y-20005D01*
X15917Y-20005D02*
X15917Y-20313D01*
X15917Y-20313D02*
X15880Y-20350D01*
X15880Y-20350D02*
X15880Y-25747D01*
X15880Y-25747D02*
X15930Y-25715D01*
X15930Y-25715D02*
X16382Y-26167D01*
X16382Y-26167D02*
X16465Y-26250D01*
X16465Y-26250D02*
X16382Y-26332D01*
X16382Y-26332D02*
X16382Y-26333D01*
X16382Y-26333D02*
X15930Y-26785D01*
X15930Y-26785D02*
X15930Y-33184D01*
X15930Y-33184D02*
X15964Y-33150D01*
X15964Y-33150D02*
X16186Y-33150D01*
X16186Y-33150D02*
X16218Y-33119D01*
X16218Y-33119D02*
X16382Y-33051D01*
X16382Y-33051D02*
X16382Y-32949D01*
X16382Y-32949D02*
X16217Y-32880D01*
X16217Y-32880D02*
X16091Y-32754D01*
X16091Y-32754D02*
X16023Y-32589D01*
X16023Y-32589D02*
X16023Y-32410D01*
X16023Y-32410D02*
X16092Y-32245D01*
X16092Y-32245D02*
X16218Y-32119D01*
X16218Y-32119D02*
X16382Y-32051D01*
X16382Y-32051D02*
X16382Y-27030D01*
X16382Y-27030D02*
X16291Y-27028D01*
X16291Y-27028D02*
X16007Y-26899D01*
X16007Y-26899D02*
X15937Y-26792D01*
X15937Y-26792D02*
X16382Y-26347D01*
X16382Y-26347D02*
X16382Y-26346D01*
X16382Y-26346D02*
X16472Y-26257D01*
X16472Y-26257D02*
X16472Y-26243D01*
X16472Y-26243D02*
X16382Y-26153D01*
X16382Y-26153D02*
X15937Y-25708D01*
X15937Y-25708D02*
X16007Y-25601D01*
X16007Y-25601D02*
X16050Y-25572D01*
X16050Y-25572D02*
X16342Y-25462D01*
X16342Y-25462D02*
X16382Y-25463D01*
X16382Y-25463D02*
X16382Y-20449D01*
X16382Y-20449D02*
X16217Y-20380D01*
X16217Y-20380D02*
X16186Y-20349D01*
X16186Y-20349D02*
X15964Y-20350D01*
X15964Y-20350D02*
X15927Y-20313D01*
X15927Y-20313D02*
X15927Y-20005D01*
X15927Y-20005D02*
X15927Y-19995D01*
X15927Y-19995D02*
X15927Y-19687D01*
X15927Y-19687D02*
X15964Y-19650D01*
X15964Y-19650D02*
X16186Y-19650D01*
X16186Y-19650D02*
X16218Y-19619D01*
X16218Y-19619D02*
X16382Y-19551D01*
X16382Y-19551D02*
X16382Y-19449D01*
X16382Y-19449D02*
X16217Y-19380D01*
X16217Y-19380D02*
X16091Y-19254D01*
X16091Y-19254D02*
X16023Y-19089D01*
X16023Y-19089D02*
X16023Y-18910D01*
X16023Y-18910D02*
X16092Y-18745D01*
X16092Y-18745D02*
X16218Y-18619D01*
X16218Y-18619D02*
X16382Y-18551D01*
X16382Y-18551D02*
X16382Y-18449D01*
X16382Y-18449D02*
X16217Y-18380D01*
X16217Y-18380D02*
X16186Y-18349D01*
X16186Y-18349D02*
X15964Y-18350D01*
X15964Y-18350D02*
X15927Y-18313D01*
X15927Y-18313D02*
X15927Y-18005D01*
X15927Y-18005D02*
X15927Y-17995D01*
X15927Y-17995D02*
X15927Y-17687D01*
X15927Y-17687D02*
X15964Y-17650D01*
X15964Y-17650D02*
X16186Y-17650D01*
X16186Y-17650D02*
X16218Y-17619D01*
X16218Y-17619D02*
X16383Y-17551D01*
X16383Y-17551D02*
X16562Y-17551D01*
X16562Y-17551D02*
X16727Y-17620D01*
X16727Y-17620D02*
X16853Y-17746D01*
X16853Y-17746D02*
X16921Y-17911D01*
X16921Y-17911D02*
X16921Y-18090D01*
X16921Y-18090D02*
X16852Y-18255D01*
X16852Y-18255D02*
X16726Y-18381D01*
X16726Y-18381D02*
X16561Y-18449D01*
X16561Y-18449D02*
X16382Y-18449D01*
X16382Y-18449D02*
X16383Y-18551D01*
X16383Y-18551D02*
X16562Y-18551D01*
X16562Y-18551D02*
X16727Y-18620D01*
X16727Y-18620D02*
X16757Y-18650D01*
X16757Y-18650D02*
X16980Y-18650D01*
X16980Y-18650D02*
X17017Y-18687D01*
X17017Y-18687D02*
X17017Y-18995D01*
X17017Y-18995D02*
X17017Y-19005D01*
X17017Y-19005D02*
X17017Y-19313D01*
X17017Y-19313D02*
X16980Y-19350D01*
X16980Y-19350D02*
X16757Y-19349D01*
X16757Y-19349D02*
X16726Y-19381D01*
X16726Y-19381D02*
X16561Y-19449D01*
X16561Y-19449D02*
X16382Y-19449D01*
X16382Y-19449D02*
X16383Y-19551D01*
X16383Y-19551D02*
X16562Y-19551D01*
X16562Y-19551D02*
X16727Y-19620D01*
X16727Y-19620D02*
X16853Y-19746D01*
X16853Y-19746D02*
X16921Y-19911D01*
X16921Y-19911D02*
X16921Y-20090D01*
X16921Y-20090D02*
X16852Y-20255D01*
X16852Y-20255D02*
X16726Y-20381D01*
X16726Y-20381D02*
X16561Y-20449D01*
X16561Y-20449D02*
X16382Y-20449D01*
X16382Y-20449D02*
X16382Y-25463D01*
X16382Y-25463D02*
X16653Y-25472D01*
X16653Y-25472D02*
X16937Y-25601D01*
X16937Y-25601D02*
X17007Y-25708D01*
X17007Y-25708D02*
X16472Y-26243D01*
X16472Y-26243D02*
X16472Y-26257D01*
X16472Y-26257D02*
X17007Y-26792D01*
X17007Y-26792D02*
X16937Y-26899D01*
X16937Y-26899D02*
X16894Y-26928D01*
X16894Y-26928D02*
X16602Y-27038D01*
X16602Y-27038D02*
X16382Y-27030D01*
X16382Y-27030D02*
X16383Y-32051D01*
X16383Y-32051D02*
X16562Y-32051D01*
X16562Y-32051D02*
X16727Y-32120D01*
X16727Y-32120D02*
X16757Y-32150D01*
X16757Y-32150D02*
X16980Y-32150D01*
X16980Y-32150D02*
X17014Y-32184D01*
X17014Y-32184D02*
X17014Y-26785D01*
X17014Y-26785D02*
X16479Y-26250D01*
X16479Y-26250D02*
X17014Y-25715D01*
X17014Y-25715D02*
X17064Y-25747D01*
X17064Y-25747D02*
X17064Y-19350D01*
X17064Y-19350D02*
X17027Y-19313D01*
X17027Y-19313D02*
X17027Y-19005D01*
X17027Y-19005D02*
X17027Y-18995D01*
X17027Y-18995D02*
X17027Y-18687D01*
X17027Y-18687D02*
X17064Y-18650D01*
X17064Y-18650D02*
X17401Y-18651D01*
X17401Y-18651D02*
X17456Y-18673D01*
X17456Y-18673D02*
X17498Y-18715D01*
X17498Y-18715D02*
X17521Y-18770D01*
X17521Y-18770D02*
X17522Y-18958D01*
X17522Y-18958D02*
X17485Y-18995D01*
X17485Y-18995D02*
X17027Y-18995D01*
X17027Y-18995D02*
X17027Y-19005D01*
X17027Y-19005D02*
X17485Y-19005D01*
X17485Y-19005D02*
X17522Y-19042D01*
X17522Y-19042D02*
X17521Y-19230D01*
X17521Y-19230D02*
X17498Y-19285D01*
X17498Y-19285D02*
X17456Y-19327D01*
X17456Y-19327D02*
X17401Y-19349D01*
X17401Y-19349D02*
X17064Y-19350D01*
X17064Y-19350D02*
X17064Y-25747D01*
X17064Y-25747D02*
X17121Y-25785D01*
X17121Y-25785D02*
X17150Y-25828D01*
X17150Y-25828D02*
X17260Y-26120D01*
X17260Y-26120D02*
X17250Y-26431D01*
X17250Y-26431D02*
X17121Y-26715D01*
X17121Y-26715D02*
X17014Y-26785D01*
X17014Y-26785D02*
X17014Y-32184D01*
X17014Y-32184D02*
X17017Y-32187D01*
X17017Y-32187D02*
X17017Y-32495D01*
X17017Y-32495D02*
X17017Y-32505D01*
X17017Y-32505D02*
X17017Y-32813D01*
X17017Y-32813D02*
X16980Y-32850D01*
X16980Y-32850D02*
X16757Y-32849D01*
X16757Y-32849D02*
X16726Y-32881D01*
X16726Y-32881D02*
X16561Y-32949D01*
X16561Y-32949D02*
X16382Y-32949D01*
X16382Y-32949D02*
X16383Y-33051D01*
X16383Y-33051D02*
X16562Y-33051D01*
X16562Y-33051D02*
X16727Y-33120D01*
X16727Y-33120D02*
X16853Y-33246D01*
X16853Y-33246D02*
X16921Y-33411D01*
X16921Y-33411D02*
X16921Y-33590D01*
X16921Y-33590D02*
X16852Y-33755D01*
X16852Y-33755D02*
X16726Y-33881D01*
X16726Y-33881D02*
X16561Y-33949D01*
X16561Y-33949D02*
X16382Y-33949D01*
X16382Y-33949D02*
X16383Y-34051D01*
X16383Y-34051D02*
X16562Y-34051D01*
X16562Y-34051D02*
X16727Y-34120D01*
X16727Y-34120D02*
X16757Y-34150D01*
X16757Y-34150D02*
X16980Y-34150D01*
X16980Y-34150D02*
X17017Y-34187D01*
X17017Y-34187D02*
X17017Y-34495D01*
X17017Y-34495D02*
X17017Y-34505D01*
X17017Y-34505D02*
X17017Y-34813D01*
X17017Y-34813D02*
X16980Y-34850D01*
X16980Y-34850D02*
X16757Y-34849D01*
X16757Y-34849D02*
X16726Y-34881D01*
X16726Y-34881D02*
X16561Y-34949D01*
X16561Y-34949D02*
X16382Y-34949D01*
X16382Y-34949D02*
X16383Y-35051D01*
X16383Y-35051D02*
X16562Y-35051D01*
X16562Y-35051D02*
X16727Y-35120D01*
X16727Y-35120D02*
X16853Y-35246D01*
X16853Y-35246D02*
X16921Y-35411D01*
X16921Y-35411D02*
X16921Y-35590D01*
X16921Y-35590D02*
X16852Y-35755D01*
X16852Y-35755D02*
X16726Y-35881D01*
X16726Y-35881D02*
X16561Y-35949D01*
X16561Y-35949D02*
X16382Y-35949D01*
X16382Y-35949D02*
X16383Y-36051D01*
X16383Y-36051D02*
X16562Y-36051D01*
X16562Y-36051D02*
X16727Y-36120D01*
X16727Y-36120D02*
X16757Y-36150D01*
X16757Y-36150D02*
X16980Y-36150D01*
X16980Y-36150D02*
X17017Y-36187D01*
X17017Y-36187D02*
X17017Y-36495D01*
X17017Y-36495D02*
X17017Y-36505D01*
X17017Y-36505D02*
X17017Y-36813D01*
X17017Y-36813D02*
X16980Y-36850D01*
X16980Y-36850D02*
X16757Y-36849D01*
X16757Y-36849D02*
X16726Y-36881D01*
X16726Y-36881D02*
X16561Y-36949D01*
X16561Y-36949D02*
X16382Y-36949D01*
X16382Y-36949D02*
X16383Y-37051D01*
X16383Y-37051D02*
X16562Y-37051D01*
X16562Y-37051D02*
X16727Y-37120D01*
X16727Y-37120D02*
X16853Y-37246D01*
X16853Y-37246D02*
X16921Y-37411D01*
X16921Y-37411D02*
X16921Y-37590D01*
X16921Y-37590D02*
X16852Y-37755D01*
X16852Y-37755D02*
X16726Y-37881D01*
X16726Y-37881D02*
X16561Y-37949D01*
X16561Y-37949D02*
X16382Y-37949D01*
X16382Y-37949D02*
X16382Y-42225D01*
X16382Y-42225D02*
X17064Y-42225D01*
X17064Y-42225D02*
X17064Y-36850D01*
X17064Y-36850D02*
X17027Y-36813D01*
X17027Y-36813D02*
X17027Y-36505D01*
X17027Y-36505D02*
X17027Y-36495D01*
X17027Y-36495D02*
X17027Y-36187D01*
X17027Y-36187D02*
X17064Y-36150D01*
X17064Y-36150D02*
X17064Y-34850D01*
X17064Y-34850D02*
X17027Y-34813D01*
X17027Y-34813D02*
X17027Y-34505D01*
X17027Y-34505D02*
X17027Y-34495D01*
X17027Y-34495D02*
X17027Y-34187D01*
X17027Y-34187D02*
X17064Y-34150D01*
X17064Y-34150D02*
X17064Y-32850D01*
X17064Y-32850D02*
X17027Y-32813D01*
X17027Y-32813D02*
X17027Y-32505D01*
X17027Y-32505D02*
X17027Y-32495D01*
X17027Y-32495D02*
X17027Y-32187D01*
X17027Y-32187D02*
X17064Y-32150D01*
X17064Y-32150D02*
X17401Y-32151D01*
X17401Y-32151D02*
X17456Y-32173D01*
X17456Y-32173D02*
X17498Y-32215D01*
X17498Y-32215D02*
X17521Y-32270D01*
X17521Y-32270D02*
X17522Y-32458D01*
X17522Y-32458D02*
X17485Y-32495D01*
X17485Y-32495D02*
X17027Y-32495D01*
X17027Y-32495D02*
X17027Y-32505D01*
X17027Y-32505D02*
X17485Y-32505D01*
X17485Y-32505D02*
X17522Y-32542D01*
X17522Y-32542D02*
X17521Y-32730D01*
X17521Y-32730D02*
X17498Y-32785D01*
X17498Y-32785D02*
X17456Y-32827D01*
X17456Y-32827D02*
X17401Y-32849D01*
X17401Y-32849D02*
X17064Y-32850D01*
X17064Y-32850D02*
X17064Y-34150D01*
X17064Y-34150D02*
X17401Y-34151D01*
X17401Y-34151D02*
X17456Y-34173D01*
X17456Y-34173D02*
X17498Y-34215D01*
X17498Y-34215D02*
X17521Y-34270D01*
X17521Y-34270D02*
X17522Y-34458D01*
X17522Y-34458D02*
X17485Y-34495D01*
X17485Y-34495D02*
X17027Y-34495D01*
X17027Y-34495D02*
X17027Y-34505D01*
X17027Y-34505D02*
X17485Y-34505D01*
X17485Y-34505D02*
X17522Y-34542D01*
X17522Y-34542D02*
X17521Y-34730D01*
X17521Y-34730D02*
X17498Y-34785D01*
X17498Y-34785D02*
X17456Y-34827D01*
X17456Y-34827D02*
X17401Y-34849D01*
X17401Y-34849D02*
X17064Y-34850D01*
X17064Y-34850D02*
X17064Y-36150D01*
X17064Y-36150D02*
X17401Y-36151D01*
X17401Y-36151D02*
X17456Y-36173D01*
X17456Y-36173D02*
X17498Y-36215D01*
X17498Y-36215D02*
X17521Y-36270D01*
X17521Y-36270D02*
X17522Y-36458D01*
X17522Y-36458D02*
X17485Y-36495D01*
X17485Y-36495D02*
X17027Y-36495D01*
X17027Y-36495D02*
X17027Y-36505D01*
X17027Y-36505D02*
X17485Y-36505D01*
X17485Y-36505D02*
X17522Y-36542D01*
X17522Y-36542D02*
X17521Y-36730D01*
X17521Y-36730D02*
X17498Y-36785D01*
X17498Y-36785D02*
X17456Y-36827D01*
X17456Y-36827D02*
X17401Y-36849D01*
X17401Y-36849D02*
X17064Y-36850D01*
X17064Y-36850D02*
X17064Y-42225D01*
X17064Y-42225D02*
X18197Y-42225D01*
M02*
