G04 (created by PCBnew (20090216-final)) date Thu 19 May 2011 07:03:28 PM PDT*
G01*
G70*
G90*
%MOIN*%
G04 Gerber Fmt 3.4, Leading zero omitted, Abs format*
%FSLAX34Y34*%
G04 APERTURE LIST*
%ADD10C,0.015000*%
%ADD11C,0.040000*%
%ADD12C,0.130000*%
%ADD13R,0.039400X2.755900*%
%ADD14C,0.045000*%
%ADD15C,0.012000*%
%ADD16C,0.010000*%
%ADD17R,0.070000X0.040000*%
%ADD18C,0.005000*%
%ADD19C,0.008000*%
%ADD20C,0.060000*%
%ADD21C,0.150000*%
%ADD22R,0.090000X0.060000*%
G04 APERTURE END LIST*
G54D10*
X10000Y-42500D02*
X18472Y-42500D01*
X18472Y-10000D02*
X18472Y-42500D01*
X10000Y-10000D02*
X10000Y-42500D01*
X10000Y-10000D02*
X18472Y-10000D01*
G54D18*
X12650Y-26250D02*
X12637Y-26376D01*
X12637Y-26376D02*
X12600Y-26497D01*
X12600Y-26497D02*
X12541Y-26609D01*
X12541Y-26609D02*
X12461Y-26708D01*
X12461Y-26708D02*
X12363Y-26788D01*
X12363Y-26788D02*
X12251Y-26849D01*
X12251Y-26849D02*
X12130Y-26886D01*
X12130Y-26886D02*
X12004Y-26899D01*
X12004Y-26899D02*
X11879Y-26888D01*
X11879Y-26888D02*
X11757Y-26852D01*
X11757Y-26852D02*
X11645Y-26793D01*
X11645Y-26793D02*
X11546Y-26714D01*
X11546Y-26714D02*
X11464Y-26617D01*
X11464Y-26617D02*
X11403Y-26506D01*
X11403Y-26506D02*
X11365Y-26385D01*
X11365Y-26385D02*
X11351Y-26259D01*
X11351Y-26259D02*
X11361Y-26133D01*
X11361Y-26133D02*
X11396Y-26011D01*
X11396Y-26011D02*
X11454Y-25898D01*
X11454Y-25898D02*
X11533Y-25799D01*
X11533Y-25799D02*
X11630Y-25717D01*
X11630Y-25717D02*
X11740Y-25655D01*
X11740Y-25655D02*
X11861Y-25616D01*
X11861Y-25616D02*
X11987Y-25601D01*
X11987Y-25601D02*
X12112Y-25610D01*
X12112Y-25610D02*
X12235Y-25644D01*
X12235Y-25644D02*
X12348Y-25702D01*
X12348Y-25702D02*
X12448Y-25780D01*
X12448Y-25780D02*
X12531Y-25876D01*
X12531Y-25876D02*
X12593Y-25986D01*
X12593Y-25986D02*
X12633Y-26106D01*
X12633Y-26106D02*
X12649Y-26232D01*
X12649Y-26232D02*
X12650Y-26250D01*
X17122Y-26250D02*
X17109Y-26376D01*
X17109Y-26376D02*
X17072Y-26497D01*
X17072Y-26497D02*
X17013Y-26609D01*
X17013Y-26609D02*
X16933Y-26708D01*
X16933Y-26708D02*
X16835Y-26788D01*
X16835Y-26788D02*
X16723Y-26849D01*
X16723Y-26849D02*
X16602Y-26886D01*
X16602Y-26886D02*
X16476Y-26899D01*
X16476Y-26899D02*
X16351Y-26888D01*
X16351Y-26888D02*
X16229Y-26852D01*
X16229Y-26852D02*
X16117Y-26793D01*
X16117Y-26793D02*
X16018Y-26714D01*
X16018Y-26714D02*
X15936Y-26617D01*
X15936Y-26617D02*
X15875Y-26506D01*
X15875Y-26506D02*
X15837Y-26385D01*
X15837Y-26385D02*
X15823Y-26259D01*
X15823Y-26259D02*
X15833Y-26133D01*
X15833Y-26133D02*
X15868Y-26011D01*
X15868Y-26011D02*
X15926Y-25898D01*
X15926Y-25898D02*
X16005Y-25799D01*
X16005Y-25799D02*
X16102Y-25717D01*
X16102Y-25717D02*
X16212Y-25655D01*
X16212Y-25655D02*
X16333Y-25616D01*
X16333Y-25616D02*
X16459Y-25601D01*
X16459Y-25601D02*
X16584Y-25610D01*
X16584Y-25610D02*
X16707Y-25644D01*
X16707Y-25644D02*
X16820Y-25702D01*
X16820Y-25702D02*
X16920Y-25780D01*
X16920Y-25780D02*
X17003Y-25876D01*
X17003Y-25876D02*
X17065Y-25986D01*
X17065Y-25986D02*
X17105Y-26106D01*
X17105Y-26106D02*
X17121Y-26232D01*
X17121Y-26232D02*
X17122Y-26250D01*
M02*
