M48
;DRILL file {PCBnew (20090216-final)} date Wed 25 May 2011 01:26:53 PM PDT
;FORMAT={2:4/ absolute / inch / suppress trailing zeros}
R,T
VER,1
FMAT,2
INCH,LZ
TCST,OFF
ICI,OFF
ATC,ON
T1C0.025
T2C0.040
T3C0.120
%
M47
G05
M72
T1
X01751Y-01815
T2
X012Y-015
X012Y-016
X012Y-017
X012Y-018
X012Y-019
X012Y-02
X012Y-0325
X012Y-0335
X012Y-0345
X012Y-0355
X012Y-0365
X012Y-0375
X016472Y-015
X016472Y-016
X016472Y-017
X016472Y-018
X016472Y-019
X016472Y-02
X016472Y-0325
X016472Y-0335
X016472Y-0345
X016472Y-0355
X016472Y-0365
X016472Y-0375
T3
X012Y-02625
X016472Y-02625
T0
M30
